<?xml version="1.0" standalone="no"?>
<!DOCTYPE svg PUBLIC "-//W3C//DTD SVG 1.1//EN" "http://www.w3.org/Graphics/SVG/1.1/DTD/svg11.dtd">
<svg width="88mm" height="88mm" viewBox="-44 -44 88 88" xmlns="http://www.w3.org/2000/svg" version="1.1">
<title>OpenSCAD Model</title>
<path d="
M 2.76277,43.9132 L 5.51465,43.653 L 8.24477,43.2206 L 10.9424,42.6176 L 13.5967,41.8465 L 16.1975,40.9102
 L 18.7343,39.8124 L 21.1972,38.5575 L 23.5764,37.1504 L 25.8625,35.5967 L 28.0466,33.9026 L 30.1201,32.0746
 L 32.0746,30.1201 L 33.9026,28.0466 L 35.5967,25.8625 L 37.1504,23.5764 L 38.5575,21.1972 L 39.8124,18.7343
 L 40.9102,16.1975 L 41.8465,13.5967 L 42.6176,10.9424 L 43.2206,8.24477 L 43.653,5.51465 L 43.9132,2.76277
 L 44,-0 L 43.9132,-2.76277 L 43.653,-5.51465 L 43.2206,-8.24477 L 42.6176,-10.9424 L 41.8465,-13.5967
 L 40.9102,-16.1975 L 39.8124,-18.7343 L 38.5575,-21.1972 L 37.1504,-23.5764 L 35.5967,-25.8625 L 33.9026,-28.0466
 L 32.0746,-30.1201 L 30.1201,-32.0746 L 28.0466,-33.9026 L 25.8625,-35.5967 L 23.5764,-37.1504 L 21.1972,-38.5575
 L 18.7343,-39.8124 L 16.1975,-40.9102 L 13.5967,-41.8465 L 10.9424,-42.6176 L 8.24477,-43.2206 L 5.51465,-43.653
 L 2.76277,-43.9132 L 0,-44 L -2.76277,-43.9132 L -5.51465,-43.653 L -8.24477,-43.2206 L -10.9424,-42.6176
 L -13.5967,-41.8465 L -16.1975,-40.9102 L -18.7343,-39.8124 L -21.1972,-38.5575 L -23.5764,-37.1504 L -25.8625,-35.5967
 L -28.0466,-33.9026 L -30.1201,-32.0746 L -32.0746,-30.1201 L -33.9026,-28.0466 L -35.5967,-25.8625 L -37.1504,-23.5764
 L -38.5575,-21.1972 L -39.8124,-18.7343 L -40.9102,-16.1975 L -41.8465,-13.5967 L -42.6176,-10.9424 L -43.2206,-8.24477
 L -43.653,-5.51465 L -43.9132,-2.76277 L -44,-0 L -43.9132,2.76277 L -43.653,5.51465 L -43.2206,8.24477
 L -42.6176,10.9424 L -41.8465,13.5967 L -40.9102,16.1975 L -39.8124,18.7343 L -38.5575,21.1972 L -37.1504,23.5764
 L -35.5967,25.8625 L -33.9026,28.0466 L -32.0746,30.1201 L -30.1201,32.0746 L -28.0466,33.9026 L -25.8625,35.5967
 L -23.5764,37.1504 L -21.1972,38.5575 L -18.7343,39.8124 L -16.1975,40.9102 L -13.5967,41.8465 L -10.9424,42.6176
 L -8.24477,43.2206 L -5.51465,43.653 L -2.76277,43.9132 L 0,44 z
M -15.5464,-37.9247 L -15.0931,-38.1208 L -12.6697,-38.9933 L -10.1963,-39.7119 L -7.68263,-40.2738 L -5.13866,-40.6767
 L -2.5744,-40.9191 L -2.1951,-40.931 L 37.3449,-16.8862 L 38.1208,-15.0931 L 38.3254,-14.5249 z
M 3.7868,-40.8045 L 5.13866,-40.6767 L 7.68263,-40.2738 L 10.1963,-39.7119 L 12.6697,-38.9933 L 15.0931,-38.1208
 L 17.4569,-37.0979 L 19.7519,-35.9286 L 21.9689,-34.6174 L 24.0992,-33.1697 L 26.1344,-31.591 L 28.0664,-29.8877
 L 29.8877,-28.0664 L 31.591,-26.1344 L 33.1697,-24.0992 L 34.5166,-22.1173 z
M -29.1705,-28.7836 L -28.0664,-29.8877 L -26.1344,-31.591 L -24.0992,-33.1697 L -21.9689,-34.6174 L -19.7519,-35.9286
 L -19.167,-36.2266 L 39.5604,-10.7176 L 39.7119,-10.1963 L 39.8818,-9.4361 z
M -37.7095,-16.0435 L -37.0979,-17.4569 L -35.9286,-19.7519 L -34.6174,-21.9689 L -33.1697,-24.0992 L -31.591,-26.1344
 L -31.4412,-26.3044 L 40.5177,-6.14241 L 40.6555,-5.27252 z
M -40.9529,-1.5 L -40.9191,-2.5744 L -40.6767,-5.13866 L -40.2738,-7.68263 L -39.7119,-10.1963 L -38.9933,-12.6697
 L -38.8142,-13.1672 L 40.9306,-2.20648 L 40.9529,-1.5 z
M -38.9933,12.6697 L -39.7119,10.1963 L -40.2738,7.68263 L -40.6767,5.13866 L -40.9191,2.5744 L -40.9529,1.5
 L 40.9529,1.5 L 40.9306,2.20648 L -38.8142,13.1672 z
M -31.591,26.1344 L -33.1697,24.0992 L -34.6174,21.9689 L -35.9286,19.7519 L -37.0979,17.4569 L -37.7095,16.0435
 L 40.6555,5.27252 L 40.5177,6.14241 L -31.4412,26.3044 z
M -19.7519,35.9286 L -21.9689,34.6174 L -24.0992,33.1697 L -26.1344,31.591 L -28.0664,29.8877 L -29.1705,28.7836
 L 39.8818,9.4361 L 39.7119,10.1963 L 39.5604,10.7176 L -19.167,36.2266 z
M -2.5744,40.9191 L -5.13866,40.6767 L -7.68263,40.2738 L -10.1963,39.7119 L -12.6697,38.9933 L -15.0931,38.1208
 L -15.5464,37.9247 L 38.3254,14.5249 L 38.1208,15.0931 L 37.3449,16.8862 L -2.1951,40.931 z
M 34.5166,22.1173 L 33.1697,24.0992 L 31.591,26.1344 L 29.8877,28.0664 L 28.0664,29.8877 L 26.1344,31.591
 L 24.0992,33.1697 L 21.9689,34.6174 L 19.7519,35.9286 L 17.4569,37.0979 L 15.0931,38.1208 L 12.6697,38.9933
 L 10.1963,39.7119 L 7.68263,40.2738 L 5.13866,40.6767 L 3.7868,40.8045 z
" stroke="black" fill="lightgray" stroke-width="0.5"/>
</svg>
