  0
SECTION
  2
BLOCKS
  0
ENDSEC
  0
SECTION
  2
ENTITIES
  0
LINE
  8
0
 10
30.1201
 20
32.0746
 11
28.0466
 21
33.9026
  0
LINE
  8
0
 10
28.0466
 20
33.9026
 11
25.8625
 21
35.5967
  0
LINE
  8
0
 10
25.8625
 20
35.5967
 11
23.5764
 21
37.1504
  0
LINE
  8
0
 10
23.5764
 20
37.1504
 11
21.1972
 21
38.5575
  0
LINE
  8
0
 10
21.1972
 20
38.5575
 11
18.7343
 21
39.8124
  0
LINE
  8
0
 10
18.7343
 20
39.8124
 11
16.1975
 21
40.9102
  0
LINE
  8
0
 10
16.1975
 20
40.9102
 11
13.5967
 21
41.8465
  0
LINE
  8
0
 10
13.5967
 20
41.8465
 11
10.9424
 21
42.6176
  0
LINE
  8
0
 10
10.9424
 20
42.6176
 11
8.24477
 21
43.2206
  0
LINE
  8
0
 10
8.24477
 20
43.2206
 11
5.51465
 21
43.653
  0
LINE
  8
0
 10
5.51465
 20
43.653
 11
2.76277
 21
43.9132
  0
LINE
  8
0
 10
2.76277
 20
43.9132
 11
0
 21
44
  0
LINE
  8
0
 10
0
 20
44
 11
-2.76277
 21
43.9132
  0
LINE
  8
0
 10
-2.76277
 20
43.9132
 11
-5.51465
 21
43.653
  0
LINE
  8
0
 10
-5.51465
 20
43.653
 11
-8.24477
 21
43.2206
  0
LINE
  8
0
 10
-8.24477
 20
43.2206
 11
-10.9424
 21
42.6176
  0
LINE
  8
0
 10
-10.9424
 20
42.6176
 11
-13.5967
 21
41.8465
  0
LINE
  8
0
 10
-13.5967
 20
41.8465
 11
-16.1975
 21
40.9102
  0
LINE
  8
0
 10
-16.1975
 20
40.9102
 11
-18.7343
 21
39.8124
  0
LINE
  8
0
 10
-18.7343
 20
39.8124
 11
-21.1972
 21
38.5575
  0
LINE
  8
0
 10
-21.1972
 20
38.5575
 11
-23.5764
 21
37.1504
  0
LINE
  8
0
 10
-23.5764
 20
37.1504
 11
-25.8625
 21
35.5967
  0
LINE
  8
0
 10
-25.8625
 20
35.5967
 11
-28.0466
 21
33.9026
  0
LINE
  8
0
 10
-28.0466
 20
33.9026
 11
-30.1201
 21
32.0746
  0
LINE
  8
0
 10
-30.1201
 20
32.0746
 11
-32.0746
 21
30.1201
  0
LINE
  8
0
 10
-32.0746
 20
30.1201
 11
-33.9026
 21
28.0466
  0
LINE
  8
0
 10
-33.9026
 20
28.0466
 11
-35.5967
 21
25.8625
  0
LINE
  8
0
 10
-35.5967
 20
25.8625
 11
-37.1504
 21
23.5764
  0
LINE
  8
0
 10
-37.1504
 20
23.5764
 11
-38.5575
 21
21.1972
  0
LINE
  8
0
 10
-38.5575
 20
21.1972
 11
-39.8124
 21
18.7343
  0
LINE
  8
0
 10
-39.8124
 20
18.7343
 11
-40.9102
 21
16.1975
  0
LINE
  8
0
 10
-40.9102
 20
16.1975
 11
-41.8465
 21
13.5967
  0
LINE
  8
0
 10
-41.8465
 20
13.5967
 11
-42.6176
 21
10.9424
  0
LINE
  8
0
 10
-42.6176
 20
10.9424
 11
-43.2206
 21
8.24477
  0
LINE
  8
0
 10
-43.2206
 20
8.24477
 11
-43.653
 21
5.51465
  0
LINE
  8
0
 10
-43.653
 20
5.51465
 11
-43.9132
 21
2.76277
  0
LINE
  8
0
 10
-43.9132
 20
2.76277
 11
-44
 21
0
  0
LINE
  8
0
 10
-44
 20
0
 11
-43.9132
 21
-2.76277
  0
LINE
  8
0
 10
-43.9132
 20
-2.76277
 11
-43.653
 21
-5.51465
  0
LINE
  8
0
 10
-43.653
 20
-5.51465
 11
-43.2206
 21
-8.24477
  0
LINE
  8
0
 10
-43.2206
 20
-8.24477
 11
-42.6176
 21
-10.9424
  0
LINE
  8
0
 10
-42.6176
 20
-10.9424
 11
-41.8465
 21
-13.5967
  0
LINE
  8
0
 10
-41.8465
 20
-13.5967
 11
-40.9102
 21
-16.1975
  0
LINE
  8
0
 10
-40.9102
 20
-16.1975
 11
-39.8124
 21
-18.7343
  0
LINE
  8
0
 10
-39.8124
 20
-18.7343
 11
-38.5575
 21
-21.1972
  0
LINE
  8
0
 10
-38.5575
 20
-21.1972
 11
-37.1504
 21
-23.5764
  0
LINE
  8
0
 10
-37.1504
 20
-23.5764
 11
-35.5967
 21
-25.8625
  0
LINE
  8
0
 10
-35.5967
 20
-25.8625
 11
-33.9026
 21
-28.0466
  0
LINE
  8
0
 10
-33.9026
 20
-28.0466
 11
-32.0746
 21
-30.1201
  0
LINE
  8
0
 10
-32.0746
 20
-30.1201
 11
-30.1201
 21
-32.0746
  0
LINE
  8
0
 10
-30.1201
 20
-32.0746
 11
-28.0466
 21
-33.9026
  0
LINE
  8
0
 10
-28.0466
 20
-33.9026
 11
-25.8625
 21
-35.5967
  0
LINE
  8
0
 10
-25.8625
 20
-35.5967
 11
-23.5764
 21
-37.1504
  0
LINE
  8
0
 10
-23.5764
 20
-37.1504
 11
-21.1972
 21
-38.5575
  0
LINE
  8
0
 10
-21.1972
 20
-38.5575
 11
-18.7343
 21
-39.8124
  0
LINE
  8
0
 10
-18.7343
 20
-39.8124
 11
-16.1975
 21
-40.9102
  0
LINE
  8
0
 10
-16.1975
 20
-40.9102
 11
-13.5967
 21
-41.8465
  0
LINE
  8
0
 10
-13.5967
 20
-41.8465
 11
-10.9424
 21
-42.6176
  0
LINE
  8
0
 10
-10.9424
 20
-42.6176
 11
-8.24477
 21
-43.2206
  0
LINE
  8
0
 10
-8.24477
 20
-43.2206
 11
-5.51465
 21
-43.653
  0
LINE
  8
0
 10
-5.51465
 20
-43.653
 11
-2.76277
 21
-43.9132
  0
LINE
  8
0
 10
-2.76277
 20
-43.9132
 11
0
 21
-44
  0
LINE
  8
0
 10
0
 20
-44
 11
2.76277
 21
-43.9132
  0
LINE
  8
0
 10
2.76277
 20
-43.9132
 11
5.51465
 21
-43.653
  0
LINE
  8
0
 10
5.51465
 20
-43.653
 11
8.24477
 21
-43.2206
  0
LINE
  8
0
 10
8.24477
 20
-43.2206
 11
10.9424
 21
-42.6176
  0
LINE
  8
0
 10
10.9424
 20
-42.6176
 11
13.5967
 21
-41.8465
  0
LINE
  8
0
 10
13.5967
 20
-41.8465
 11
16.1975
 21
-40.9102
  0
LINE
  8
0
 10
16.1975
 20
-40.9102
 11
18.7343
 21
-39.8124
  0
LINE
  8
0
 10
18.7343
 20
-39.8124
 11
21.1972
 21
-38.5575
  0
LINE
  8
0
 10
21.1972
 20
-38.5575
 11
23.5764
 21
-37.1504
  0
LINE
  8
0
 10
23.5764
 20
-37.1504
 11
25.8625
 21
-35.5967
  0
LINE
  8
0
 10
25.8625
 20
-35.5967
 11
28.0466
 21
-33.9026
  0
LINE
  8
0
 10
28.0466
 20
-33.9026
 11
30.1201
 21
-32.0746
  0
LINE
  8
0
 10
30.1201
 20
-32.0746
 11
32.0746
 21
-30.1201
  0
LINE
  8
0
 10
32.0746
 20
-30.1201
 11
33.9026
 21
-28.0466
  0
LINE
  8
0
 10
33.9026
 20
-28.0466
 11
35.5967
 21
-25.8625
  0
LINE
  8
0
 10
35.5967
 20
-25.8625
 11
37.1504
 21
-23.5764
  0
LINE
  8
0
 10
37.1504
 20
-23.5764
 11
38.5575
 21
-21.1972
  0
LINE
  8
0
 10
38.5575
 20
-21.1972
 11
39.8124
 21
-18.7343
  0
LINE
  8
0
 10
39.8124
 20
-18.7343
 11
40.9102
 21
-16.1975
  0
LINE
  8
0
 10
40.9102
 20
-16.1975
 11
41.8465
 21
-13.5967
  0
LINE
  8
0
 10
41.8465
 20
-13.5967
 11
42.6176
 21
-10.9424
  0
LINE
  8
0
 10
42.6176
 20
-10.9424
 11
43.2206
 21
-8.24477
  0
LINE
  8
0
 10
43.2206
 20
-8.24477
 11
43.653
 21
-5.51465
  0
LINE
  8
0
 10
43.653
 20
-5.51465
 11
43.9132
 21
-2.76277
  0
LINE
  8
0
 10
43.9132
 20
-2.76277
 11
44
 21
0
  0
LINE
  8
0
 10
44
 20
0
 11
43.9132
 21
2.76277
  0
LINE
  8
0
 10
43.9132
 20
2.76277
 11
43.653
 21
5.51465
  0
LINE
  8
0
 10
43.653
 20
5.51465
 11
43.2206
 21
8.24477
  0
LINE
  8
0
 10
43.2206
 20
8.24477
 11
42.6176
 21
10.9424
  0
LINE
  8
0
 10
42.6176
 20
10.9424
 11
41.8465
 21
13.5967
  0
LINE
  8
0
 10
41.8465
 20
13.5967
 11
40.9102
 21
16.1975
  0
LINE
  8
0
 10
40.9102
 20
16.1975
 11
39.8124
 21
18.7343
  0
LINE
  8
0
 10
39.8124
 20
18.7343
 11
38.5575
 21
21.1972
  0
LINE
  8
0
 10
38.5575
 20
21.1972
 11
37.1504
 21
23.5764
  0
LINE
  8
0
 10
37.1504
 20
23.5764
 11
35.5967
 21
25.8625
  0
LINE
  8
0
 10
35.5967
 20
25.8625
 11
33.9026
 21
28.0466
  0
LINE
  8
0
 10
33.9026
 20
28.0466
 11
32.0746
 21
30.1201
  0
LINE
  8
0
 10
32.0746
 20
30.1201
 11
30.1201
 21
32.0746
  0
LINE
  8
0
 10
-1.29817
 20
40.9592
 11
0
 21
41
  0
LINE
  8
0
 10
0
 20
41
 11
1.29817
 21
40.9592
  0
LINE
  8
0
 10
1.29817
 20
40.9592
 11
0
 21
21.9805
  0
LINE
  8
0
 10
0
 20
21.9805
 11
-1.29817
 21
40.9592
  0
LINE
  8
0
 10
-6.86389
 20
40.4034
 11
-5.13866
 21
40.6767
  0
LINE
  8
0
 10
-5.13866
 20
40.6767
 11
-4.29135
 21
40.7568
  0
LINE
  8
0
 10
-4.29135
 20
40.7568
 11
-2.99301
 21
21.7758
  0
LINE
  8
0
 10
-2.99301
 20
21.7758
 11
-6.86389
 21
40.4034
  0
LINE
  8
0
 10
4.29135
 20
40.7568
 11
5.13866
 21
40.6767
  0
LINE
  8
0
 10
5.13866
 20
40.6767
 11
6.86389
 21
40.4034
  0
LINE
  8
0
 10
6.86389
 20
40.4034
 11
2.99301
 21
21.7758
  0
LINE
  8
0
 10
2.99301
 20
21.7758
 11
4.29135
 21
40.7568
  0
LINE
  8
0
 10
-12.3041
 20
39.0995
 11
-10.1963
 21
39.7119
  0
LINE
  8
0
 10
-10.1963
 20
39.7119
 11
-9.80257
 21
39.7999
  0
LINE
  8
0
 10
-9.80257
 20
39.7999
 11
-5.93027
 21
21.1654
  0
LINE
  8
0
 10
-5.93027
 20
21.1654
 11
-12.3041
 21
39.0995
  0
LINE
  8
0
 10
9.80257
 20
39.7999
 11
10.1963
 21
39.7119
  0
LINE
  8
0
 10
10.1963
 20
39.7119
 11
12.3041
 21
39.0995
  0
LINE
  8
0
 10
12.3041
 20
39.0995
 11
5.93027
 21
21.1654
  0
LINE
  8
0
 10
5.93027
 20
21.1654
 11
9.80257
 21
39.7999
  0
LINE
  8
0
 10
-17.5172
 20
37.0672
 11
-17.4569
 21
37.0979
  0
LINE
  8
0
 10
-17.4569
 20
37.0979
 11
-15.1338
 21
38.1032
  0
LINE
  8
0
 10
-15.1338
 20
38.1032
 11
-8.75703
 21
20.1607
  0
LINE
  8
0
 10
-8.75703
 20
20.1607
 11
-17.5172
 21
37.0672
  0
LINE
  8
0
 10
15.1338
 20
38.1032
 11
17.4569
 21
37.0979
  0
LINE
  8
0
 10
17.4569
 20
37.0979
 11
17.5172
 21
37.0672
  0
LINE
  8
0
 10
17.5172
 20
37.0672
 11
8.75703
 21
20.1607
  0
LINE
  8
0
 10
8.75703
 20
20.1607
 11
15.1338
 21
38.1032
  0
LINE
  8
0
 10
-22.3951
 20
34.3278
 11
-21.9689
 21
34.6174
  0
LINE
  8
0
 10
-21.9689
 20
34.6174
 11
-20.1761
 21
35.6777
  0
LINE
  8
0
 10
-20.1761
 20
35.6777
 11
-11.4207
 21
18.7805
  0
LINE
  8
0
 10
-11.4207
 20
18.7805
 11
-22.3951
 21
34.3278
  0
LINE
  8
0
 10
20.1761
 20
35.6777
 11
21.9689
 21
34.6174
  0
LINE
  8
0
 10
21.9689
 20
34.6174
 11
22.3951
 21
34.3278
  0
LINE
  8
0
 10
22.3951
 20
34.3278
 11
11.4207
 21
18.7805
  0
LINE
  8
0
 10
11.4207
 20
18.7805
 11
20.1761
 21
35.6777
  0
LINE
  8
0
 10
-26.8567
 20
30.9542
 11
-26.1344
 21
31.591
  0
LINE
  8
0
 10
-26.1344
 20
31.591
 11
-24.8427
 21
32.593
  0
LINE
  8
0
 10
-24.8427
 20
32.593
 11
-13.8716
 21
17.0505
  0
LINE
  8
0
 10
-13.8716
 20
17.0505
 11
-26.8567
 21
30.9542
  0
LINE
  8
0
 10
24.8427
 20
32.593
 11
26.1344
 21
31.591
  0
LINE
  8
0
 10
26.1344
 20
31.591
 11
26.8567
 21
30.9542
  0
LINE
  8
0
 10
26.8567
 20
30.9542
 11
13.8716
 21
17.0505
  0
LINE
  8
0
 10
13.8716
 20
17.0505
 11
24.8427
 21
32.593
  0
LINE
  8
0
 10
-30.8207
 20
27.0082
 11
-29.8877
 21
28.0664
  0
LINE
  8
0
 10
-29.8877
 20
28.0664
 11
-29.0485
 21
28.9057
  0
LINE
  8
0
 10
-29.0485
 20
28.9057
 11
-16.0642
 21
15.0029
  0
LINE
  8
0
 10
-16.0642
 20
15.0029
 11
-30.8207
 21
27.0082
  0
LINE
  8
0
 10
29.0485
 20
28.9057
 11
29.8877
 21
28.0664
  0
LINE
  8
0
 10
29.8877
 20
28.0664
 11
30.8207
 21
27.0082
  0
LINE
  8
0
 10
30.8207
 20
27.0082
 11
16.0642
 21
15.0029
  0
LINE
  8
0
 10
16.0642
 20
15.0029
 11
29.0485
 21
28.9057
  0
LINE
  8
0
 10
-34.2145
 20
22.5618
 11
-33.1697
 21
24.0992
  0
LINE
  8
0
 10
-33.1697
 20
24.0992
 11
-32.7166
 21
24.6833
  0
LINE
  8
0
 10
-32.7166
 20
24.6833
 11
-17.9574
 21
12.6757
  0
LINE
  8
0
 10
-17.9574
 20
12.6757
 11
-34.2145
 21
22.5618
  0
LINE
  8
0
 10
32.7166
 20
24.6833
 11
33.1697
 21
24.0992
  0
LINE
  8
0
 10
33.1697
 20
24.0992
 11
34.2145
 21
22.5618
  0
LINE
  8
0
 10
34.2145
 20
22.5618
 11
17.9574
 21
12.6757
  0
LINE
  8
0
 10
17.9574
 20
12.6757
 11
32.7166
 21
24.6833
  0
LINE
  8
0
 10
-36.9759
 20
17.6963
 11
-35.9286
 21
19.7519
  0
LINE
  8
0
 10
-35.9286
 20
19.7519
 11
-35.7802
 21
20.0028
  0
LINE
  8
0
 10
-35.7802
 20
20.0028
 11
-19.5161
 21
10.1124
  0
LINE
  8
0
 10
-19.5161
 20
10.1124
 11
-36.9759
 21
17.6963
  0
LINE
  8
0
 10
35.7802
 20
20.0028
 11
35.9286
 21
19.7519
  0
LINE
  8
0
 10
35.9286
 20
19.7519
 11
36.9759
 21
17.6963
  0
LINE
  8
0
 10
36.9759
 20
17.6963
 11
19.5161
 21
10.1124
  0
LINE
  8
0
 10
19.5161
 20
10.1124
 11
35.7802
 21
20.0028
  0
LINE
  8
0
 10
-39.0434
 20
12.4972
 11
-38.9933
 21
12.6697
  0
LINE
  8
0
 10
-38.9933
 20
12.6697
 11
-38.1738
 21
14.9458
  0
LINE
  8
0
 10
-38.1738
 20
14.9458
 11
-20.7113
 21
7.36079
  0
LINE
  8
0
 10
-20.7113
 20
7.36079
 11
-39.0434
 21
12.4972
  0
LINE
  8
0
 10
38.1738
 20
14.9458
 11
38.9933
 21
12.6697
  0
LINE
  8
0
 10
38.9933
 20
12.6697
 11
39.0434
 21
12.4972
  0
LINE
  8
0
 10
39.0434
 20
12.4972
 11
20.7113
 21
7.36079
  0
LINE
  8
0
 10
20.7113
 20
7.36079
 11
38.1738
 21
14.9458
  0
LINE
  8
0
 10
-40.3719
 20
7.0631
 11
-40.2738
 21
7.68263
  0
LINE
  8
0
 10
-40.2738
 20
7.68263
 11
-39.8439
 21
9.60596
  0
LINE
  8
0
 10
-39.8439
 20
9.60596
 11
-21.5207
 21
4.47206
  0
LINE
  8
0
 10
-21.5207
 20
4.47206
 11
-40.3719
 21
7.0631
  0
LINE
  8
0
 10
39.8439
 20
9.60596
 11
40.2738
 21
7.68263
  0
LINE
  8
0
 10
40.2738
 20
7.68263
 11
40.3719
 21
7.0631
  0
LINE
  8
0
 10
40.3719
 20
7.0631
 11
21.5207
 21
4.47206
  0
LINE
  8
0
 10
21.5207
 20
4.47206
 11
39.8439
 21
9.60596
  0
LINE
  8
0
 10
-40.9191
 20
2.5744
 11
-40.7758
 21
4.09041
  0
LINE
  8
0
 10
-40.7758
 20
4.09041
 11
-21.9292
 21
1.5
  0
LINE
  8
0
 10
-21.9292
 20
1.5
 11
-40.9529
 21
1.5
  0
LINE
  8
0
 10
-40.9529
 20
1.5
 11
-40.9191
 21
2.5744
  0
LINE
  8
0
 10
21.9292
 20
1.5
 11
40.7758
 21
4.09041
  0
LINE
  8
0
 10
40.7758
 20
4.09041
 11
40.9191
 21
2.5744
  0
LINE
  8
0
 10
40.9191
 20
2.5744
 11
40.9529
 21
1.5
  0
LINE
  8
0
 10
40.9529
 20
1.5
 11
21.9292
 21
1.5
  0
LINE
  8
0
 10
40.7758
 20
-4.09041
 11
21.9292
 21
-1.5
  0
LINE
  8
0
 10
21.9292
 20
-1.5
 11
40.9529
 21
-1.5
  0
LINE
  8
0
 10
40.9529
 20
-1.5
 11
40.9191
 21
-2.5744
  0
LINE
  8
0
 10
40.9191
 20
-2.5744
 11
40.7758
 21
-4.09041
  0
LINE
  8
0
 10
-40.9191
 20
-2.5744
 11
-40.9529
 21
-1.5
  0
LINE
  8
0
 10
-40.9529
 20
-1.5
 11
-21.9292
 21
-1.5
  0
LINE
  8
0
 10
-21.9292
 20
-1.5
 11
-40.7758
 21
-4.09041
  0
LINE
  8
0
 10
-40.7758
 20
-4.09041
 11
-40.9191
 21
-2.5744
  0
LINE
  8
0
 10
-40.2738
 20
-7.68263
 11
-40.3719
 21
-7.0631
  0
LINE
  8
0
 10
-40.3719
 20
-7.0631
 11
-21.5207
 21
-4.47206
  0
LINE
  8
0
 10
-21.5207
 20
-4.47206
 11
-39.8439
 21
-9.60596
  0
LINE
  8
0
 10
-39.8439
 20
-9.60596
 11
-40.2738
 21
-7.68263
  0
LINE
  8
0
 10
21.5207
 20
-4.47206
 11
40.3719
 21
-7.0631
  0
LINE
  8
0
 10
40.3719
 20
-7.0631
 11
40.2738
 21
-7.68263
  0
LINE
  8
0
 10
40.2738
 20
-7.68263
 11
39.8439
 21
-9.60596
  0
LINE
  8
0
 10
39.8439
 20
-9.60596
 11
21.5207
 21
-4.47206
  0
LINE
  8
0
 10
-38.9933
 20
-12.6697
 11
-39.0434
 21
-12.4972
  0
LINE
  8
0
 10
-39.0434
 20
-12.4972
 11
-20.7113
 21
-7.36079
  0
LINE
  8
0
 10
-20.7113
 20
-7.36079
 11
-38.1738
 21
-14.9458
  0
LINE
  8
0
 10
-38.1738
 20
-14.9458
 11
-38.9933
 21
-12.6697
  0
LINE
  8
0
 10
20.7113
 20
-7.36079
 11
39.0434
 21
-12.4972
  0
LINE
  8
0
 10
39.0434
 20
-12.4972
 11
38.9933
 21
-12.6697
  0
LINE
  8
0
 10
38.9933
 20
-12.6697
 11
38.1738
 21
-14.9458
  0
LINE
  8
0
 10
38.1738
 20
-14.9458
 11
20.7113
 21
-7.36079
  0
LINE
  8
0
 10
-35.9286
 20
-19.7519
 11
-36.9759
 21
-17.6963
  0
LINE
  8
0
 10
-36.9759
 20
-17.6963
 11
-19.5161
 21
-10.1124
  0
LINE
  8
0
 10
-19.5161
 20
-10.1124
 11
-35.7802
 21
-20.0028
  0
LINE
  8
0
 10
-35.7802
 20
-20.0028
 11
-35.9286
 21
-19.7519
  0
LINE
  8
0
 10
19.5161
 20
-10.1124
 11
36.9759
 21
-17.6963
  0
LINE
  8
0
 10
36.9759
 20
-17.6963
 11
35.9286
 21
-19.7519
  0
LINE
  8
0
 10
35.9286
 20
-19.7519
 11
35.7802
 21
-20.0028
  0
LINE
  8
0
 10
35.7802
 20
-20.0028
 11
19.5161
 21
-10.1124
  0
LINE
  8
0
 10
17.9574
 20
-12.6757
 11
34.2145
 21
-22.5618
  0
LINE
  8
0
 10
34.2145
 20
-22.5618
 11
33.1697
 21
-24.0992
  0
LINE
  8
0
 10
33.1697
 20
-24.0992
 11
32.7166
 21
-24.6833
  0
LINE
  8
0
 10
32.7166
 20
-24.6833
 11
17.9574
 21
-12.6757
  0
LINE
  8
0
 10
-33.1697
 20
-24.0992
 11
-34.2145
 21
-22.5618
  0
LINE
  8
0
 10
-34.2145
 20
-22.5618
 11
-17.9574
 21
-12.6757
  0
LINE
  8
0
 10
-17.9574
 20
-12.6757
 11
-32.7166
 21
-24.6833
  0
LINE
  8
0
 10
-32.7166
 20
-24.6833
 11
-33.1697
 21
-24.0992
  0
LINE
  8
0
 10
16.0642
 20
-15.0029
 11
30.8207
 21
-27.0082
  0
LINE
  8
0
 10
30.8207
 20
-27.0082
 11
29.8877
 21
-28.0664
  0
LINE
  8
0
 10
29.8877
 20
-28.0664
 11
29.0485
 21
-28.9057
  0
LINE
  8
0
 10
29.0485
 20
-28.9057
 11
16.0642
 21
-15.0029
  0
LINE
  8
0
 10
-29.8877
 20
-28.0664
 11
-30.8207
 21
-27.0082
  0
LINE
  8
0
 10
-30.8207
 20
-27.0082
 11
-16.0642
 21
-15.0029
  0
LINE
  8
0
 10
-16.0642
 20
-15.0029
 11
-29.0485
 21
-28.9057
  0
LINE
  8
0
 10
-29.0485
 20
-28.9057
 11
-29.8877
 21
-28.0664
  0
LINE
  8
0
 10
13.8716
 20
-17.0505
 11
26.8567
 21
-30.9542
  0
LINE
  8
0
 10
26.8567
 20
-30.9542
 11
26.1344
 21
-31.591
  0
LINE
  8
0
 10
26.1344
 20
-31.591
 11
24.8427
 21
-32.593
  0
LINE
  8
0
 10
24.8427
 20
-32.593
 11
13.8716
 21
-17.0505
  0
LINE
  8
0
 10
-26.1344
 20
-31.591
 11
-26.8567
 21
-30.9542
  0
LINE
  8
0
 10
-26.8567
 20
-30.9542
 11
-13.8716
 21
-17.0505
  0
LINE
  8
0
 10
-13.8716
 20
-17.0505
 11
-24.8427
 21
-32.593
  0
LINE
  8
0
 10
-24.8427
 20
-32.593
 11
-26.1344
 21
-31.591
  0
LINE
  8
0
 10
11.4207
 20
-18.7805
 11
22.3951
 21
-34.3278
  0
LINE
  8
0
 10
22.3951
 20
-34.3278
 11
21.9689
 21
-34.6174
  0
LINE
  8
0
 10
21.9689
 20
-34.6174
 11
20.1761
 21
-35.6777
  0
LINE
  8
0
 10
20.1761
 20
-35.6777
 11
11.4207
 21
-18.7805
  0
LINE
  8
0
 10
-21.9689
 20
-34.6174
 11
-22.3951
 21
-34.3278
  0
LINE
  8
0
 10
-22.3951
 20
-34.3278
 11
-11.4207
 21
-18.7805
  0
LINE
  8
0
 10
-11.4207
 20
-18.7805
 11
-20.1761
 21
-35.6777
  0
LINE
  8
0
 10
-20.1761
 20
-35.6777
 11
-21.9689
 21
-34.6174
  0
LINE
  8
0
 10
8.75703
 20
-20.1607
 11
17.5172
 21
-37.0672
  0
LINE
  8
0
 10
17.5172
 20
-37.0672
 11
17.4569
 21
-37.0979
  0
LINE
  8
0
 10
17.4569
 20
-37.0979
 11
15.1338
 21
-38.1032
  0
LINE
  8
0
 10
15.1338
 20
-38.1032
 11
8.75703
 21
-20.1607
  0
LINE
  8
0
 10
-17.4569
 20
-37.0979
 11
-17.5172
 21
-37.0672
  0
LINE
  8
0
 10
-17.5172
 20
-37.0672
 11
-8.75703
 21
-20.1607
  0
LINE
  8
0
 10
-8.75703
 20
-20.1607
 11
-15.1338
 21
-38.1032
  0
LINE
  8
0
 10
-15.1338
 20
-38.1032
 11
-17.4569
 21
-37.0979
  0
LINE
  8
0
 10
5.93027
 20
-21.1654
 11
12.3041
 21
-39.0995
  0
LINE
  8
0
 10
12.3041
 20
-39.0995
 11
10.1963
 21
-39.7119
  0
LINE
  8
0
 10
10.1963
 20
-39.7119
 11
9.80257
 21
-39.7999
  0
LINE
  8
0
 10
9.80257
 20
-39.7999
 11
5.93027
 21
-21.1654
  0
LINE
  8
0
 10
-10.1963
 20
-39.7119
 11
-12.3041
 21
-39.0995
  0
LINE
  8
0
 10
-12.3041
 20
-39.0995
 11
-5.93027
 21
-21.1654
  0
LINE
  8
0
 10
-5.93027
 20
-21.1654
 11
-9.80257
 21
-39.7999
  0
LINE
  8
0
 10
-9.80257
 20
-39.7999
 11
-10.1963
 21
-39.7119
  0
LINE
  8
0
 10
2.99301
 20
-21.7758
 11
6.86389
 21
-40.4034
  0
LINE
  8
0
 10
6.86389
 20
-40.4034
 11
5.13866
 21
-40.6767
  0
LINE
  8
0
 10
5.13866
 20
-40.6767
 11
4.29135
 21
-40.7568
  0
LINE
  8
0
 10
4.29135
 20
-40.7568
 11
2.99301
 21
-21.7758
  0
LINE
  8
0
 10
-5.13866
 20
-40.6767
 11
-6.86389
 21
-40.4034
  0
LINE
  8
0
 10
-6.86389
 20
-40.4034
 11
-2.99301
 21
-21.7758
  0
LINE
  8
0
 10
-2.99301
 20
-21.7758
 11
-4.29135
 21
-40.7568
  0
LINE
  8
0
 10
-4.29135
 20
-40.7568
 11
-5.13866
 21
-40.6767
  0
LINE
  8
0
 10
-1.29817
 20
-40.9592
 11
0
 21
-21.9805
  0
LINE
  8
0
 10
0
 20
-21.9805
 11
1.29817
 21
-40.9592
  0
LINE
  8
0
 10
1.29817
 20
-40.9592
 11
0
 21
-41
  0
LINE
  8
0
 10
0
 20
-41
 11
-1.29817
 21
-40.9592
  0
ENDSEC
  0
SECTION
  2
OBJECTS
  0
DICTIONARY
  0
ENDSEC
  0
EOF
