<?xml version="1.0" standalone="no"?>
<!DOCTYPE svg PUBLIC "-//W3C//DTD SVG 1.1//EN" "http://www.w3.org/Graphics/SVG/1.1/DTD/svg11.dtd">
<svg width="88mm" height="88mm" viewBox="-44 -44 88 88" xmlns="http://www.w3.org/2000/svg" version="1.1">
<title>OpenSCAD Model</title>
<path d="
M 30.1201,-32.0746 L 28.0466,-33.9026 L 25.8625,-35.5967 L 23.5764,-37.1504 L 21.1972,-38.5575 L 18.7343,-39.8124
 L 16.1975,-40.9102 L 13.5967,-41.8465 L 10.9424,-42.6176 L 8.24477,-43.2206 L 5.51465,-43.653 L 2.76277,-43.9132
 L 0,-44 L -2.76277,-43.9132 L -5.51465,-43.653 L -8.24477,-43.2206 L -10.9424,-42.6176 L -13.5967,-41.8465
 L -16.1975,-40.9102 L -18.7343,-39.8124 L -21.1972,-38.5575 L -23.5764,-37.1504 L -25.8625,-35.5967 L -28.0466,-33.9026
 L -30.1201,-32.0746 L -32.0746,-30.1201 L -33.9026,-28.0466 L -35.5967,-25.8625 L -37.1504,-23.5764 L -38.5575,-21.1972
 L -39.8124,-18.7343 L -40.9102,-16.1975 L -41.8465,-13.5967 L -42.6176,-10.9424 L -43.2206,-8.24477 L -43.653,-5.51465
 L -43.9132,-2.76277 L -44,-0 L -43.9132,2.76277 L -43.653,5.51465 L -43.2206,8.24477 L -42.6176,10.9424
 L -41.8465,13.5967 L -40.9102,16.1975 L -39.8124,18.7343 L -38.5575,21.1972 L -37.1504,23.5764 L -35.5967,25.8625
 L -33.9026,28.0466 L -32.0746,30.1201 L -30.1201,32.0746 L -28.0466,33.9026 L -25.8625,35.5967 L -23.5764,37.1504
 L -21.1972,38.5575 L -18.7343,39.8124 L -16.1975,40.9102 L -13.5967,41.8465 L -10.9424,42.6176 L -8.24477,43.2206
 L -5.51465,43.653 L -2.76277,43.9132 L 0,44 L 2.76277,43.9132 L 5.51465,43.653 L 8.24477,43.2206
 L 10.9424,42.6176 L 13.5967,41.8465 L 16.1975,40.9102 L 18.7343,39.8124 L 21.1972,38.5575 L 23.5764,37.1504
 L 25.8625,35.5967 L 28.0466,33.9026 L 30.1201,32.0746 L 32.0746,30.1201 L 33.9026,28.0466 L 35.5967,25.8625
 L 37.1504,23.5764 L 38.5575,21.1972 L 39.8124,18.7343 L 40.9102,16.1975 L 41.8465,13.5967 L 42.6176,10.9424
 L 43.2206,8.24477 L 43.653,5.51465 L 43.9132,2.76277 L 44,-0 L 43.9132,-2.76277 L 43.653,-5.51465
 L 43.2206,-8.24477 L 42.6176,-10.9424 L 41.8465,-13.5967 L 40.9102,-16.1975 L 39.8124,-18.7343 L 38.5575,-21.1972
 L 37.1504,-23.5764 L 35.5967,-25.8625 L 33.9026,-28.0466 L 32.0746,-30.1201 z
M -1.08093,-40.966 L 0,-41 L 2.5744,-40.9191 L 3.13551,-40.866 L 14.5793,-18.7805 z
M -9.23628,-39.9265 L -7.68263,-40.2738 L -5.13866,-40.6767 L -4.58571,-40.729 L 12.1284,-17.0505 z
M 6.7442,-40.4224 L 7.68263,-40.2738 L 10.1963,-39.7119 L 10.3058,-39.6801 L 17.243,-20.1607 z
M -17.304,-37.1641 L -15.0931,-38.1208 L -12.6697,-38.9933 L -12.5123,-39.039 L 9.93584,-15.0029 z
M 13.8898,-38.554 L 15.0931,-38.1208 L 16.6899,-37.4298 L 20.0697,-21.1654 z
M 20.11,-35.7168 L 21.9689,-34.6174 L 22.1364,-34.5036 L 23.007,-21.7758 z
M -24.7843,-32.6382 L -24.0992,-33.1697 L -21.9689,-34.6174 L -20.2077,-35.659 L 8.04259,-12.6757 z
M 25.2983,-32.2396 L 26.1344,-31.591 L 26.6276,-31.1562 L 26,-21.9805 z
M -31.2619,-26.5077 L -29.8877,-28.0664 L -28.0664,-29.8877 L -27.2373,-30.6187 L 6.48387,-10.1124 z
M 29.453,-28.5011 L 29.8877,-28.0664 L 30.2215,-27.6878 L 28.993,-21.7758 z
M 32.673,-24.7395 L 33.0348,-24.2731 L 31.9303,-21.1654 z
M -36.3042,-19.0146 L -35.9286,-19.7519 L -34.6174,-21.9689 L -33.1873,-24.0733 L 5.28868,-7.36079 z
M 35.106,-21.1427 L 35.1912,-20.9987 L 34.757,-20.1607 z
M -39.6142,-10.5326 L -38.9933,-12.6697 L -38.1208,-15.0931 L -37.6133,-16.2659 L 4.47928,-4.47206 z
M -40.9191,-2.5744 L -40.6767,-5.13866 L -40.2874,-7.59688 L 4.07076,-1.5 L -40.9529,-1.5 z
M -40.6767,5.13866 L -40.9191,2.5744 L -40.9529,1.5 L 4.07076,1.5 L -40.2874,7.59688 z
M -38.1208,15.0931 L -38.9933,12.6697 L -39.6142,10.5326 L 4.47928,4.47206 L -37.6133,16.2659 z
M -34.6174,21.9689 L -35.9286,19.7519 L -36.3042,19.0146 L 5.28868,7.36079 L -33.1873,24.0733 z
M -28.0664,29.8877 L -29.8877,28.0664 L -31.2619,26.5077 L 6.48387,10.1124 L -27.2373,30.6187 z
M -21.9689,34.6174 L -24.0992,33.1697 L -24.7843,32.6382 L 8.04259,12.6757 L -20.2077,35.659 z
M -12.6697,38.9933 L -15.0931,38.1208 L -17.304,37.1641 L 9.93584,15.0029 L -12.5123,39.039 z
M -5.13866,40.6767 L -7.68263,40.2738 L -9.23628,39.9265 L 12.1284,17.0505 L -4.58571,40.729 z
M -1.08093,40.966 L 14.5793,18.7805 L 3.13551,40.866 L 2.5744,40.9191 L 0,41 z
M 17.243,20.1607 L 10.3058,39.6801 L 10.1963,39.7119 L 7.68263,40.2738 L 6.7442,40.4224 z
M 34.757,20.1607 L 35.1912,20.9987 L 35.106,21.1427 z
M 20.0697,21.1654 L 16.6899,37.4298 L 15.0931,38.1208 L 13.8898,38.554 z
M 31.9303,21.1654 L 33.0348,24.2731 L 32.673,24.7395 z
M 23.007,21.7758 L 22.1364,34.5036 L 21.9689,34.6174 L 20.11,35.7168 z
M 28.993,21.7758 L 30.2215,27.6878 L 29.8877,28.0664 L 29.453,28.5011 z
M 26,21.9805 L 26.6276,31.1562 L 26.1344,31.591 L 25.2983,32.2396 z
" stroke="black" fill="lightgray" stroke-width="0.5"/>
</svg>
