<?xml version="1.0" standalone="no"?>
<!DOCTYPE svg PUBLIC "-//W3C//DTD SVG 1.1//EN" "http://www.w3.org/Graphics/SVG/1.1/DTD/svg11.dtd">
<svg width="88mm" height="88mm" viewBox="-44 -44 88 88" xmlns="http://www.w3.org/2000/svg" version="1.1">
<title>OpenSCAD Model</title>
<path d="
M 30.1201,-32.0746 L 28.0466,-33.9026 L 25.8625,-35.5967 L 23.5764,-37.1504 L 21.1972,-38.5575 L 18.7343,-39.8124
 L 16.1975,-40.9102 L 13.5967,-41.8465 L 10.9424,-42.6176 L 8.24477,-43.2206 L 5.51465,-43.653 L 2.76277,-43.9132
 L 0,-44 L -2.76277,-43.9132 L -5.51465,-43.653 L -8.24477,-43.2206 L -10.9424,-42.6176 L -13.5967,-41.8465
 L -16.1975,-40.9102 L -18.7343,-39.8124 L -21.1972,-38.5575 L -23.5764,-37.1504 L -25.8625,-35.5967 L -28.0466,-33.9026
 L -30.1201,-32.0746 L -32.0746,-30.1201 L -33.9026,-28.0466 L -35.5967,-25.8625 L -37.1504,-23.5764 L -38.5575,-21.1972
 L -39.8124,-18.7343 L -40.9102,-16.1975 L -41.8465,-13.5967 L -42.6176,-10.9424 L -43.2206,-8.24477 L -43.653,-5.51465
 L -43.9132,-2.76277 L -44,-0 L -43.9132,2.76277 L -43.653,5.51465 L -43.2206,8.24477 L -42.6176,10.9424
 L -41.8465,13.5967 L -40.9102,16.1975 L -39.8124,18.7343 L -38.5575,21.1972 L -37.1504,23.5764 L -35.5967,25.8625
 L -33.9026,28.0466 L -32.0746,30.1201 L -30.1201,32.0746 L -28.0466,33.9026 L -25.8625,35.5967 L -23.5764,37.1504
 L -21.1972,38.5575 L -18.7343,39.8124 L -16.1975,40.9102 L -13.5967,41.8465 L -10.9424,42.6176 L -8.24477,43.2206
 L -5.51465,43.653 L -2.76277,43.9132 L 0,44 L 2.76277,43.9132 L 5.51465,43.653 L 8.24477,43.2206
 L 10.9424,42.6176 L 13.5967,41.8465 L 16.1975,40.9102 L 18.7343,39.8124 L 21.1972,38.5575 L 23.5764,37.1504
 L 25.8625,35.5967 L 28.0466,33.9026 L 30.1201,32.0746 L 32.0746,30.1201 L 33.9026,28.0466 L 35.5967,25.8625
 L 37.1504,23.5764 L 38.5575,21.1972 L 39.8124,18.7343 L 40.9102,16.1975 L 41.8465,13.5967 L 42.6176,10.9424
 L 43.2206,8.24477 L 43.653,5.51465 L 43.9132,2.76277 L 44,-0 L 43.9132,-2.76277 L 43.653,-5.51465
 L 43.2206,-8.24477 L 42.6176,-10.9424 L 41.8465,-13.5967 L 40.9102,-16.1975 L 39.8124,-18.7343 L 38.5575,-21.1972
 L 37.1504,-23.5764 L 35.5967,-25.8625 L 33.9026,-28.0466 L 32.0746,-30.1201 z
M -1.29817,-40.9592 L 0,-41 L 1.29817,-40.9592 L 0,-21.9805 z
M -6.86389,-40.4034 L -5.13866,-40.6767 L -4.29135,-40.7568 L -2.99301,-21.7758 z
M 4.29135,-40.7568 L 5.13866,-40.6767 L 6.86389,-40.4034 L 2.99301,-21.7758 z
M -12.3041,-39.0995 L -10.1963,-39.7119 L -9.80257,-39.7999 L -5.93027,-21.1654 z
M 9.80257,-39.7999 L 10.1963,-39.7119 L 12.3041,-39.0995 L 5.93027,-21.1654 z
M -17.5172,-37.0672 L -17.4569,-37.0979 L -15.1338,-38.1032 L -8.75703,-20.1607 z
M 15.1338,-38.1032 L 17.4569,-37.0979 L 17.5172,-37.0672 L 8.75703,-20.1607 z
M -22.3951,-34.3278 L -21.9689,-34.6174 L -20.1761,-35.6777 L -11.4207,-18.7805 z
M 20.1761,-35.6777 L 21.9689,-34.6174 L 22.3951,-34.3278 L 11.4207,-18.7805 z
M -26.8567,-30.9542 L -26.1344,-31.591 L -24.8427,-32.593 L -13.8716,-17.0505 z
M 24.8427,-32.593 L 26.1344,-31.591 L 26.8567,-30.9542 L 13.8716,-17.0505 z
M -30.8207,-27.0082 L -29.8877,-28.0664 L -29.0485,-28.9057 L -16.0642,-15.0029 z
M 29.0485,-28.9057 L 29.8877,-28.0664 L 30.8207,-27.0082 L 16.0642,-15.0029 z
M -34.2145,-22.5618 L -33.1697,-24.0992 L -32.7166,-24.6833 L -17.9574,-12.6757 z
M 32.7166,-24.6833 L 33.1697,-24.0992 L 34.2145,-22.5618 L 17.9574,-12.6757 z
M -36.9759,-17.6963 L -35.9286,-19.7519 L -35.7802,-20.0028 L -19.5161,-10.1124 z
M 35.7802,-20.0028 L 35.9286,-19.7519 L 36.9759,-17.6963 L 19.5161,-10.1124 z
M -39.0434,-12.4972 L -38.9933,-12.6697 L -38.1738,-14.9458 L -20.7113,-7.36079 z
M 38.1738,-14.9458 L 38.9933,-12.6697 L 39.0434,-12.4972 L 20.7113,-7.36079 z
M -40.3719,-7.0631 L -40.2738,-7.68263 L -39.8439,-9.60596 L -21.5207,-4.47206 z
M 39.8439,-9.60596 L 40.2738,-7.68263 L 40.3719,-7.0631 L 21.5207,-4.47206 z
M -40.9191,-2.5744 L -40.7758,-4.09041 L -21.9292,-1.5 L -40.9529,-1.5 z
M 21.9292,-1.5 L 40.7758,-4.09041 L 40.9191,-2.5744 L 40.9529,-1.5 z
M 40.7758,4.09041 L 21.9292,1.5 L 40.9529,1.5 L 40.9191,2.5744 z
M -40.9191,2.5744 L -40.9529,1.5 L -21.9292,1.5 L -40.7758,4.09041 z
M -40.2738,7.68263 L -40.3719,7.0631 L -21.5207,4.47206 L -39.8439,9.60596 z
M 21.5207,4.47206 L 40.3719,7.0631 L 40.2738,7.68263 L 39.8439,9.60596 z
M -38.9933,12.6697 L -39.0434,12.4972 L -20.7113,7.36079 L -38.1738,14.9458 z
M 20.7113,7.36079 L 39.0434,12.4972 L 38.9933,12.6697 L 38.1738,14.9458 z
M -35.9286,19.7519 L -36.9759,17.6963 L -19.5161,10.1124 L -35.7802,20.0028 z
M 19.5161,10.1124 L 36.9759,17.6963 L 35.9286,19.7519 L 35.7802,20.0028 z
M 17.9574,12.6757 L 34.2145,22.5618 L 33.1697,24.0992 L 32.7166,24.6833 z
M -33.1697,24.0992 L -34.2145,22.5618 L -17.9574,12.6757 L -32.7166,24.6833 z
M 16.0642,15.0029 L 30.8207,27.0082 L 29.8877,28.0664 L 29.0485,28.9057 z
M -29.8877,28.0664 L -30.8207,27.0082 L -16.0642,15.0029 L -29.0485,28.9057 z
M 13.8716,17.0505 L 26.8567,30.9542 L 26.1344,31.591 L 24.8427,32.593 z
M -26.1344,31.591 L -26.8567,30.9542 L -13.8716,17.0505 L -24.8427,32.593 z
M 11.4207,18.7805 L 22.3951,34.3278 L 21.9689,34.6174 L 20.1761,35.6777 z
M -21.9689,34.6174 L -22.3951,34.3278 L -11.4207,18.7805 L -20.1761,35.6777 z
M 8.75703,20.1607 L 17.5172,37.0672 L 17.4569,37.0979 L 15.1338,38.1032 z
M -17.4569,37.0979 L -17.5172,37.0672 L -8.75703,20.1607 L -15.1338,38.1032 z
M 5.93027,21.1654 L 12.3041,39.0995 L 10.1963,39.7119 L 9.80257,39.7999 z
M -10.1963,39.7119 L -12.3041,39.0995 L -5.93027,21.1654 L -9.80257,39.7999 z
M 2.99301,21.7758 L 6.86389,40.4034 L 5.13866,40.6767 L 4.29135,40.7568 z
M -5.13866,40.6767 L -6.86389,40.4034 L -2.99301,21.7758 L -4.29135,40.7568 z
M -1.29817,40.9592 L 0,21.9805 L 1.29817,40.9592 L 0,41 z
" stroke="black" fill="lightgray" stroke-width="0.5"/>
</svg>
