<?xml version="1.0" standalone="no"?>
<!DOCTYPE svg PUBLIC "-//W3C//DTD SVG 1.1//EN" "http://www.w3.org/Graphics/SVG/1.1/DTD/svg11.dtd">
<svg width="88mm" height="88mm" viewBox="-44 -44 88 88" xmlns="http://www.w3.org/2000/svg" version="1.1">
<title>OpenSCAD Model</title>
<path d="
M 2.76277,43.9132 L 2.84419,43.9055 L 20.5793,18.7805 L 7.88602,43.2775 L 8.24477,43.2206 L 10.9424,42.6176
 L 11.7245,42.3904 L 23.243,20.1607 L 15.8204,41.0459 L 16.1975,40.9102 L 18.7343,39.8124 L 19.5992,39.3717
 L 26.0697,21.1654 L 22.6319,37.709 L 23.5764,37.1504 L 25.8625,35.5967 L 26.1873,35.3448 L 29.007,21.7758
 L 28.1859,33.7798 L 30.1201,32.0746 L 31.3969,30.7978 L 32,21.9805 L 32.522,29.6126 L 33.9026,28.0466
 L 35.2988,26.2466 L 34.993,21.7758 L 35.7848,25.5859 L 37.1504,23.5764 L 38.0982,21.9737 L 37.9303,21.1654
 L 38.1728,21.8477 L 38.5575,21.1972 L 39.8124,18.7343 L 40.9102,16.1975 L 41.8465,13.5967 L 42.6176,10.9424
 L 43.2206,8.24477 L 43.653,5.51465 L 43.9132,2.76277 L 44,-0 L 43.9132,-2.76277 L 43.653,-5.51465
 L 43.2206,-8.24477 L 42.6176,-10.9424 L 41.8465,-13.5967 L 40.9102,-16.1975 L 39.8124,-18.7343 L 38.5575,-21.1972
 L 38.1728,-21.8477 L 37.9303,-21.1654 L 38.0982,-21.9737 L 37.1504,-23.5764 L 35.7848,-25.5859 L 34.993,-21.7758
 L 35.2988,-26.2466 L 33.9026,-28.0466 L 32.522,-29.6126 L 32,-21.9805 L 31.3969,-30.7978 L 30.1201,-32.0746
 L 28.1859,-33.7798 L 29.007,-21.7758 L 26.1873,-35.3448 L 25.8625,-35.5967 L 23.5764,-37.1504 L 22.6319,-37.709
 L 26.0697,-21.1654 L 19.5992,-39.3717 L 18.7343,-39.8124 L 16.1975,-40.9102 L 15.8204,-41.0459 L 23.243,-20.1607
 L 11.7245,-42.3904 L 10.9424,-42.6176 L 8.24477,-43.2206 L 7.88602,-43.2775 L 20.5793,-18.7805 L 2.84419,-43.9055
 L 2.76277,-43.9132 L 0,-44 L -0.875229,-43.9725 L 18.1284,-17.0505 L -6.56175,-43.4872 L -8.24477,-43.2206
 L -10.0424,-42.8188 L 15.9358,-15.0029 L -15.9971,-40.9823 L -16.1975,-40.9102 L -18.7343,-39.8124 L -19.09,-39.6311
 L 14.0426,-12.6757 L -24.8174,-36.307 L -25.8625,-35.5967 L -27.4273,-34.383 L 12.4839,-10.1124 L -32.491,-29.6478
 L -33.9026,-28.0466 L -34.5156,-27.2564 L 11.2887,-7.36079 L -38.4916,-21.3086 L -38.5575,-21.1972 L -39.8124,-18.7343
 L -39.8784,-18.5816 L 10.4793,-4.47206 L -42.3864,-11.7383 L -42.6176,-10.9424 L -43.0948,-8.80745 L 10.0708,-1.5
 L -43.9529,-1.5 L -44,-0 L -43.9529,1.5 L 10.0708,1.5 L -43.0948,8.80745 L -42.6176,10.9424
 L -42.3864,11.7383 L 10.4793,4.47206 L -39.8784,18.5816 L -39.8124,18.7343 L -38.5575,21.1972 L -38.4916,21.3086
 L 11.2887,7.36079 L -34.5156,27.2564 L -33.9026,28.0466 L -32.491,29.6478 L 12.4839,10.1124 L -27.4273,34.383
 L -25.8625,35.5967 L -24.8174,36.307 L 14.0426,12.6757 L -19.09,39.6311 L -18.7343,39.8124 L -16.1975,40.9102
 L -15.9971,40.9823 L 15.9358,15.0029 L -10.0424,42.8188 L -8.24477,43.2206 L -6.56175,43.4872 L 18.1284,17.0505
 L -0.875229,43.9725 L 0,44 z
" stroke="black" fill="lightgray" stroke-width="0.5"/>
</svg>
