<?xml version="1.0" standalone="no"?>
<!DOCTYPE svg PUBLIC "-//W3C//DTD SVG 1.1//EN" "http://www.w3.org/Graphics/SVG/1.1/DTD/svg11.dtd">
<svg width="88mm" height="88mm" viewBox="-44 -44 88 88" xmlns="http://www.w3.org/2000/svg" version="1.1">
<title>OpenSCAD Model</title>
<path d="
M 2.76277,43.9132 L 5.51465,43.653 L 6.41679,43.5102 L 31.1284,17.0505 L 13.6353,41.8326 L 16.1975,40.9102
 L 18.733,39.8129 L 33.5793,18.7805 L 24.3241,36.6423 L 25.8625,35.5967 L 28.0466,33.9026 L 30.0273,32.1564
 L 36.243,20.1607 L 33.1281,28.9251 L 33.9026,28.0466 L 35.5967,25.8625 L 37.1504,23.5764 L 38.5575,21.1972
 L 39.8124,18.7343 L 40.9102,16.1975 L 41.8465,13.5967 L 42.6176,10.9424 L 43.2206,8.24477 L 43.653,5.51465
 L 43.9132,2.76277 L 44,-0 L 43.9132,-2.76277 L 43.653,-5.51465 L 43.2206,-8.24477 L 42.6176,-10.9424
 L 41.8465,-13.5967 L 40.9102,-16.1975 L 39.8124,-18.7343 L 38.5575,-21.1972 L 37.1504,-23.5764 L 35.5967,-25.8625
 L 33.9026,-28.0466 L 33.1281,-28.9251 L 36.243,-20.1607 L 30.0273,-32.1564 L 28.0466,-33.9026 L 25.8625,-35.5967
 L 24.3241,-36.6423 L 33.5793,-18.7805 L 18.733,-39.8129 L 16.1975,-40.9102 L 13.6353,-41.8326 L 31.1284,-17.0505
 L 6.41679,-43.5102 L 5.51465,-43.653 L 2.76277,-43.9132 L 1.91051,-43.94 L 28.9358,-15.0029 L -6.15523,-43.5516
 L -8.24477,-43.2206 L -10.0156,-42.8248 L 27.0426,-12.6757 L -18.0609,-40.1038 L -18.7343,-39.8124 L -21.1972,-38.5575
 L -21.2452,-38.529 L 25.4839,-10.1124 L -28.4559,-33.5418 L -30.1201,-32.0746 L -30.8736,-31.3211 L 24.2887,-7.36079
 L -36.5802,-24.4155 L -37.1504,-23.5764 L -38.2243,-21.7606 L 23.4793,-4.47206 L -41.8872,-13.4565 L -42.6176,-10.9424
 L -42.7074,-10.541 L 23.0708,-1.5 L -43.9529,-1.5 L -44,-0 L -43.9529,1.5 L 23.0708,1.5
 L -42.7074,10.541 L -42.6176,10.9424 L -41.8872,13.4565 L 23.4793,4.47206 L -38.2243,21.7606 L -37.1504,23.5764
 L -36.5802,24.4155 L 24.2887,7.36079 L -30.8736,31.3211 L -30.1201,32.0746 L -28.4559,33.5418 L 25.4839,10.1124
 L -21.2452,38.529 L -21.1972,38.5575 L -18.7343,39.8124 L -18.0609,40.1038 L 27.0426,12.6757 L -10.0156,42.8248
 L -8.24477,43.2206 L -6.15523,43.5516 L 28.9358,15.0029 L 1.91051,43.94 z
" stroke="black" fill="lightgray" stroke-width="0.5"/>
</svg>
