  0
SECTION
  2
BLOCKS
  0
ENDSEC
  0
SECTION
  2
ENTITIES
  0
LINE
  8
0
 10
39.8124
 20
18.7343
 11
38.5575
 21
21.1972
  0
LINE
  8
0
 10
38.5575
 20
21.1972
 11
37.1504
 21
23.5764
  0
LINE
  8
0
 10
37.1504
 20
23.5764
 11
35.5967
 21
25.8625
  0
LINE
  8
0
 10
35.5967
 20
25.8625
 11
33.9026
 21
28.0466
  0
LINE
  8
0
 10
33.9026
 20
28.0466
 11
32.0746
 21
30.1201
  0
LINE
  8
0
 10
32.0746
 20
30.1201
 11
30.1201
 21
32.0746
  0
LINE
  8
0
 10
30.1201
 20
32.0746
 11
28.0466
 21
33.9026
  0
LINE
  8
0
 10
28.0466
 20
33.9026
 11
25.8625
 21
35.5967
  0
LINE
  8
0
 10
25.8625
 20
35.5967
 11
23.5764
 21
37.1504
  0
LINE
  8
0
 10
23.5764
 20
37.1504
 11
21.1972
 21
38.5575
  0
LINE
  8
0
 10
21.1972
 20
38.5575
 11
18.7343
 21
39.8124
  0
LINE
  8
0
 10
18.7343
 20
39.8124
 11
16.1975
 21
40.9102
  0
LINE
  8
0
 10
16.1975
 20
40.9102
 11
13.5967
 21
41.8465
  0
LINE
  8
0
 10
13.5967
 20
41.8465
 11
10.9424
 21
42.6176
  0
LINE
  8
0
 10
10.9424
 20
42.6176
 11
8.24477
 21
43.2206
  0
LINE
  8
0
 10
8.24477
 20
43.2206
 11
5.51465
 21
43.653
  0
LINE
  8
0
 10
5.51465
 20
43.653
 11
2.76277
 21
43.9132
  0
LINE
  8
0
 10
2.76277
 20
43.9132
 11
0
 21
44
  0
LINE
  8
0
 10
0
 20
44
 11
-2.76277
 21
43.9132
  0
LINE
  8
0
 10
-2.76277
 20
43.9132
 11
-5.51465
 21
43.653
  0
LINE
  8
0
 10
-5.51465
 20
43.653
 11
-8.24477
 21
43.2206
  0
LINE
  8
0
 10
-8.24477
 20
43.2206
 11
-10.9424
 21
42.6176
  0
LINE
  8
0
 10
-10.9424
 20
42.6176
 11
-13.5967
 21
41.8465
  0
LINE
  8
0
 10
-13.5967
 20
41.8465
 11
-16.1975
 21
40.9102
  0
LINE
  8
0
 10
-16.1975
 20
40.9102
 11
-18.7343
 21
39.8124
  0
LINE
  8
0
 10
-18.7343
 20
39.8124
 11
-21.1972
 21
38.5575
  0
LINE
  8
0
 10
-21.1972
 20
38.5575
 11
-23.5764
 21
37.1504
  0
LINE
  8
0
 10
-23.5764
 20
37.1504
 11
-25.8625
 21
35.5967
  0
LINE
  8
0
 10
-25.8625
 20
35.5967
 11
-28.0466
 21
33.9026
  0
LINE
  8
0
 10
-28.0466
 20
33.9026
 11
-30.1201
 21
32.0746
  0
LINE
  8
0
 10
-30.1201
 20
32.0746
 11
-32.0746
 21
30.1201
  0
LINE
  8
0
 10
-32.0746
 20
30.1201
 11
-33.9026
 21
28.0466
  0
LINE
  8
0
 10
-33.9026
 20
28.0466
 11
-35.5967
 21
25.8625
  0
LINE
  8
0
 10
-35.5967
 20
25.8625
 11
-37.1504
 21
23.5764
  0
LINE
  8
0
 10
-37.1504
 20
23.5764
 11
-38.5575
 21
21.1972
  0
LINE
  8
0
 10
-38.5575
 20
21.1972
 11
-39.8124
 21
18.7343
  0
LINE
  8
0
 10
-39.8124
 20
18.7343
 11
-40.9102
 21
16.1975
  0
LINE
  8
0
 10
-40.9102
 20
16.1975
 11
-41.8465
 21
13.5967
  0
LINE
  8
0
 10
-41.8465
 20
13.5967
 11
-42.6176
 21
10.9424
  0
LINE
  8
0
 10
-42.6176
 20
10.9424
 11
-43.2206
 21
8.24477
  0
LINE
  8
0
 10
-43.2206
 20
8.24477
 11
-43.653
 21
5.51465
  0
LINE
  8
0
 10
-43.653
 20
5.51465
 11
-43.9132
 21
2.76277
  0
LINE
  8
0
 10
-43.9132
 20
2.76277
 11
-44
 21
0
  0
LINE
  8
0
 10
-44
 20
0
 11
-43.9132
 21
-2.76277
  0
LINE
  8
0
 10
-43.9132
 20
-2.76277
 11
-43.653
 21
-5.51465
  0
LINE
  8
0
 10
-43.653
 20
-5.51465
 11
-43.2206
 21
-8.24477
  0
LINE
  8
0
 10
-43.2206
 20
-8.24477
 11
-42.6176
 21
-10.9424
  0
LINE
  8
0
 10
-42.6176
 20
-10.9424
 11
-41.8465
 21
-13.5967
  0
LINE
  8
0
 10
-41.8465
 20
-13.5967
 11
-40.9102
 21
-16.1975
  0
LINE
  8
0
 10
-40.9102
 20
-16.1975
 11
-39.8124
 21
-18.7343
  0
LINE
  8
0
 10
-39.8124
 20
-18.7343
 11
-38.5575
 21
-21.1972
  0
LINE
  8
0
 10
-38.5575
 20
-21.1972
 11
-37.1504
 21
-23.5764
  0
LINE
  8
0
 10
-37.1504
 20
-23.5764
 11
-35.5967
 21
-25.8625
  0
LINE
  8
0
 10
-35.5967
 20
-25.8625
 11
-33.9026
 21
-28.0466
  0
LINE
  8
0
 10
-33.9026
 20
-28.0466
 11
-32.0746
 21
-30.1201
  0
LINE
  8
0
 10
-32.0746
 20
-30.1201
 11
-30.1201
 21
-32.0746
  0
LINE
  8
0
 10
-30.1201
 20
-32.0746
 11
-28.0466
 21
-33.9026
  0
LINE
  8
0
 10
-28.0466
 20
-33.9026
 11
-25.8625
 21
-35.5967
  0
LINE
  8
0
 10
-25.8625
 20
-35.5967
 11
-23.5764
 21
-37.1504
  0
LINE
  8
0
 10
-23.5764
 20
-37.1504
 11
-21.1972
 21
-38.5575
  0
LINE
  8
0
 10
-21.1972
 20
-38.5575
 11
-18.7343
 21
-39.8124
  0
LINE
  8
0
 10
-18.7343
 20
-39.8124
 11
-16.1975
 21
-40.9102
  0
LINE
  8
0
 10
-16.1975
 20
-40.9102
 11
-13.5967
 21
-41.8465
  0
LINE
  8
0
 10
-13.5967
 20
-41.8465
 11
-10.9424
 21
-42.6176
  0
LINE
  8
0
 10
-10.9424
 20
-42.6176
 11
-8.24477
 21
-43.2206
  0
LINE
  8
0
 10
-8.24477
 20
-43.2206
 11
-5.51465
 21
-43.653
  0
LINE
  8
0
 10
-5.51465
 20
-43.653
 11
-2.76277
 21
-43.9132
  0
LINE
  8
0
 10
-2.76277
 20
-43.9132
 11
0
 21
-44
  0
LINE
  8
0
 10
0
 20
-44
 11
2.76277
 21
-43.9132
  0
LINE
  8
0
 10
2.76277
 20
-43.9132
 11
5.51465
 21
-43.653
  0
LINE
  8
0
 10
5.51465
 20
-43.653
 11
8.24477
 21
-43.2206
  0
LINE
  8
0
 10
8.24477
 20
-43.2206
 11
10.9424
 21
-42.6176
  0
LINE
  8
0
 10
10.9424
 20
-42.6176
 11
13.5967
 21
-41.8465
  0
LINE
  8
0
 10
13.5967
 20
-41.8465
 11
16.1975
 21
-40.9102
  0
LINE
  8
0
 10
16.1975
 20
-40.9102
 11
18.7343
 21
-39.8124
  0
LINE
  8
0
 10
18.7343
 20
-39.8124
 11
21.1972
 21
-38.5575
  0
LINE
  8
0
 10
21.1972
 20
-38.5575
 11
23.5764
 21
-37.1504
  0
LINE
  8
0
 10
23.5764
 20
-37.1504
 11
25.8625
 21
-35.5967
  0
LINE
  8
0
 10
25.8625
 20
-35.5967
 11
28.0466
 21
-33.9026
  0
LINE
  8
0
 10
28.0466
 20
-33.9026
 11
30.1201
 21
-32.0746
  0
LINE
  8
0
 10
30.1201
 20
-32.0746
 11
32.0746
 21
-30.1201
  0
LINE
  8
0
 10
32.0746
 20
-30.1201
 11
33.9026
 21
-28.0466
  0
LINE
  8
0
 10
33.9026
 20
-28.0466
 11
35.5967
 21
-25.8625
  0
LINE
  8
0
 10
35.5967
 20
-25.8625
 11
37.1504
 21
-23.5764
  0
LINE
  8
0
 10
37.1504
 20
-23.5764
 11
38.5575
 21
-21.1972
  0
LINE
  8
0
 10
38.5575
 20
-21.1972
 11
39.8124
 21
-18.7343
  0
LINE
  8
0
 10
39.8124
 20
-18.7343
 11
40.9102
 21
-16.1975
  0
LINE
  8
0
 10
40.9102
 20
-16.1975
 11
41.8465
 21
-13.5967
  0
LINE
  8
0
 10
41.8465
 20
-13.5967
 11
42.6176
 21
-10.9424
  0
LINE
  8
0
 10
42.6176
 20
-10.9424
 11
43.2206
 21
-8.24477
  0
LINE
  8
0
 10
43.2206
 20
-8.24477
 11
43.653
 21
-5.51465
  0
LINE
  8
0
 10
43.653
 20
-5.51465
 11
43.9132
 21
-2.76277
  0
LINE
  8
0
 10
43.9132
 20
-2.76277
 11
44
 21
0
  0
LINE
  8
0
 10
44
 20
0
 11
43.9132
 21
2.76277
  0
LINE
  8
0
 10
43.9132
 20
2.76277
 11
43.653
 21
5.51465
  0
LINE
  8
0
 10
43.653
 20
5.51465
 11
43.2206
 21
8.24477
  0
LINE
  8
0
 10
43.2206
 20
8.24477
 11
42.6176
 21
10.9424
  0
LINE
  8
0
 10
42.6176
 20
10.9424
 11
41.8465
 21
13.5967
  0
LINE
  8
0
 10
41.8465
 20
13.5967
 11
40.9102
 21
16.1975
  0
LINE
  8
0
 10
40.9102
 20
16.1975
 11
39.8124
 21
18.7343
  0
LINE
  8
0
 10
0.0207367
 20
40.9993
 11
2.5744
 21
40.9191
  0
LINE
  8
0
 10
2.5744
 20
40.9191
 11
2.9727
 21
40.8814
  0
LINE
  8
0
 10
2.9727
 20
40.8814
 11
7.06973
 21
21.1654
  0
LINE
  8
0
 10
7.06973
 20
21.1654
 11
0.0207367
 21
40.9993
  0
LINE
  8
0
 10
-6.29283
 20
40.4939
 11
-5.13866
 21
40.6767
  0
LINE
  8
0
 10
-5.13866
 20
40.6767
 11
-3.11636
 21
40.8679
  0
LINE
  8
0
 10
-3.11636
 20
40.8679
 11
4.24297
 21
20.1607
  0
LINE
  8
0
 10
4.24297
 20
20.1607
 11
-6.29283
 21
40.4939
  0
LINE
  8
0
 10
6.11134
 20
40.5226
 11
7.68263
 21
40.2738
  0
LINE
  8
0
 10
7.68263
 20
40.2738
 11
8.75813
 21
40.0334
  0
LINE
  8
0
 10
8.75813
 20
40.0334
 11
10.007
 21
21.7758
  0
LINE
  8
0
 10
10.007
 20
21.7758
 11
6.11134
 21
40.5226
  0
LINE
  8
0
 10
-12.6846
 20
38.9879
 11
-12.6697
 21
38.9933
  0
LINE
  8
0
 10
-12.6697
 20
38.9933
 11
-10.1963
 21
39.7119
  0
LINE
  8
0
 10
-10.1963
 20
39.7119
 11
-9.36298
 21
39.8982
  0
LINE
  8
0
 10
-9.36298
 20
39.8982
 11
1.5793
 21
18.7805
  0
LINE
  8
0
 10
1.5793
 20
18.7805
 11
-12.6846
 21
38.9879
  0
LINE
  8
0
 10
11.8194
 20
39.2403
 11
12.6697
 21
38.9933
  0
LINE
  8
0
 10
12.6697
 20
38.9933
 11
14.1278
 21
38.4684
  0
LINE
  8
0
 10
14.1278
 20
38.4684
 11
13
 21
21.9805
  0
LINE
  8
0
 10
13
 20
21.9805
 11
11.8194
 21
39.2403
  0
LINE
  8
0
 10
-18.9053
 20
36.3599
 11
-17.4569
 21
37.0979
  0
LINE
  8
0
 10
-17.4569
 20
37.0979
 11
-15.5922
 21
37.9048
  0
LINE
  8
0
 10
-15.5922
 20
37.9048
 11
-0.871628
 21
17.0505
  0
LINE
  8
0
 10
-0.871628
 20
17.0505
 11
-18.9053
 21
36.3599
  0
LINE
  8
0
 10
17.053
 20
37.2727
 11
17.4569
 21
37.0979
  0
LINE
  8
0
 10
17.4569
 20
37.0979
 11
19.0123
 21
36.3054
  0
LINE
  8
0
 10
19.0123
 20
36.3054
 11
15.993
 21
21.7758
  0
LINE
  8
0
 10
15.993
 20
21.7758
 11
17.053
 21
37.2727
  0
LINE
  8
0
 10
-24.7621
 20
32.6555
 11
-24.0992
 21
33.1697
  0
LINE
  8
0
 10
-24.0992
 20
33.1697
 11
-21.9689
 21
34.6174
  0
LINE
  8
0
 10
-21.9689
 20
34.6174
 11
-21.5914
 21
34.8407
  0
LINE
  8
0
 10
-21.5914
 20
34.8407
 11
-3.06416
 21
15.0029
  0
LINE
  8
0
 10
-3.06416
 20
15.0029
 11
-24.7621
 21
32.6555
  0
LINE
  8
0
 10
21.7523
 20
34.7455
 11
21.9689
 21
34.6174
  0
LINE
  8
0
 10
21.9689
 20
34.6174
 11
23.3722
 21
33.6638
  0
LINE
  8
0
 10
23.3722
 20
33.6638
 11
18.9303
 21
21.1654
  0
LINE
  8
0
 10
18.9303
 20
21.1654
 11
21.7523
 21
34.7455
  0
LINE
  8
0
 10
25.8874
 20
31.7826
 11
26.1344
 21
31.591
  0
LINE
  8
0
 10
26.1344
 20
31.591
 11
27.1952
 21
30.6558
  0
LINE
  8
0
 10
27.1952
 20
30.6558
 11
21.757
 21
20.1607
  0
LINE
  8
0
 10
21.757
 20
20.1607
 11
25.8874
 21
31.7826
  0
LINE
  8
0
 10
-30.0199
 20
27.9165
 11
-29.8877
 21
28.0664
  0
LINE
  8
0
 10
-29.8877
 20
28.0664
 11
-28.0664
 21
29.8877
  0
LINE
  8
0
 10
-28.0664
 20
29.8877
 11
-27.1293
 21
30.7139
  0
LINE
  8
0
 10
-27.1293
 20
30.7139
 11
-4.95741
 21
12.6757
  0
LINE
  8
0
 10
-4.95741
 20
12.6757
 11
-30.0199
 21
27.9165
  0
LINE
  8
0
 10
29.456
 20
28.4982
 11
29.8877
 21
28.0664
  0
LINE
  8
0
 10
29.8877
 20
28.0664
 11
30.4918
 21
27.3813
  0
LINE
  8
0
 10
30.4918
 20
27.3813
 11
24.4207
 21
18.7805
  0
LINE
  8
0
 10
24.4207
 20
18.7805
 11
29.456
 21
28.4982
  0
LINE
  8
0
 10
-34.434
 20
22.2389
 11
-33.1697
 21
24.0992
  0
LINE
  8
0
 10
-33.1697
 20
24.0992
 11
-31.9987
 21
25.6087
  0
LINE
  8
0
 10
-31.9987
 20
25.6087
 11
-6.51613
 21
10.1124
  0
LINE
  8
0
 10
-6.51613
 20
10.1124
 11
-34.434
 21
22.2389
  0
LINE
  8
0
 10
32.4772
 20
24.9919
 11
33.1697
 21
24.0992
  0
LINE
  8
0
 10
33.1697
 20
24.0992
 11
33.2897
 21
23.9226
  0
LINE
  8
0
 10
33.2897
 20
23.9226
 11
26.8716
 21
17.0505
  0
LINE
  8
0
 10
26.8716
 20
17.0505
 11
32.4772
 21
24.9919
  0
LINE
  8
0
 10
34.9867
 20
21.3444
 11
35.5949
 21
20.3161
  0
LINE
  8
0
 10
35.5949
 20
20.3161
 11
29.0642
 21
15.0029
  0
LINE
  8
0
 10
29.0642
 20
15.0029
 11
34.9867
 21
21.3444
  0
LINE
  8
0
 10
-37.8167
 20
15.7959
 11
-37.0979
 21
17.4569
  0
LINE
  8
0
 10
-37.0979
 20
17.4569
 11
-35.9847
 21
19.6417
  0
LINE
  8
0
 10
-35.9847
 20
19.6417
 11
-7.71132
 21
7.36079
  0
LINE
  8
0
 10
-7.71132
 20
7.36079
 11
-37.8167
 21
15.7959
  0
LINE
  8
0
 10
37.0207
 20
17.6085
 11
37.0979
 21
17.4569
  0
LINE
  8
0
 10
37.0979
 20
17.4569
 11
37.4566
 21
16.628
  0
LINE
  8
0
 10
37.4566
 20
16.628
 11
30.9574
 21
12.6757
  0
LINE
  8
0
 10
30.9574
 20
12.6757
 11
37.0207
 21
17.6085
  0
LINE
  8
0
 10
38.5852
 20
13.8032
 11
38.9136
 21
12.8912
  0
LINE
  8
0
 10
38.9136
 20
12.8912
 11
32.5161
 21
10.1124
  0
LINE
  8
0
 10
32.5161
 20
10.1124
 11
38.5852
 21
13.8032
  0
LINE
  8
0
 10
-40.0236
 20
8.80203
 11
-39.7119
 21
10.1963
  0
LINE
  8
0
 10
-39.7119
 20
10.1963
 11
-38.9933
 21
12.6697
  0
LINE
  8
0
 10
-38.9933
 20
12.6697
 11
-38.882
 21
12.9789
  0
LINE
  8
0
 10
-38.882
 20
12.9789
 11
-8.52072
 21
4.47206
  0
LINE
  8
0
 10
-8.52072
 20
4.47206
 11
-40.0236
 21
8.80203
  0
LINE
  8
0
 10
39.7586
 20
9.98749
 11
39.9547
 21
9.11011
  0
LINE
  8
0
 10
39.9547
 20
9.11011
 11
33.7113
 21
7.36079
  0
LINE
  8
0
 10
33.7113
 20
7.36079
 11
39.7586
 21
9.98749
  0
LINE
  8
0
 10
40.5162
 20
6.15192
 11
40.6489
 21
5.31435
  0
LINE
  8
0
 10
40.6489
 20
5.31435
 11
34.5207
 21
4.47206
  0
LINE
  8
0
 10
34.5207
 20
4.47206
 11
40.5162
 21
6.15192
  0
LINE
  8
0
 10
-40.9191
 20
2.5744
 11
-40.6767
 21
5.13866
  0
LINE
  8
0
 10
-40.6767
 20
5.13866
 11
-40.5643
 21
5.84814
  0
LINE
  8
0
 10
-40.5643
 20
5.84814
 11
-8.92924
 21
1.5
  0
LINE
  8
0
 10
-8.92924
 20
1.5
 11
-40.9529
 21
1.5
  0
LINE
  8
0
 10
-40.9529
 20
1.5
 11
-40.9191
 21
2.5744
  0
LINE
  8
0
 10
34.9292
 20
1.5
 11
40.9269
 21
2.32436
  0
LINE
  8
0
 10
40.9269
 20
2.32436
 11
40.9529
 21
1.5
  0
LINE
  8
0
 10
40.9529
 20
1.5
 11
34.9292
 21
1.5
  0
LINE
  8
0
 10
40.9269
 20
-2.32436
 11
34.9292
 21
-1.5
  0
LINE
  8
0
 10
34.9292
 20
-1.5
 11
40.9529
 21
-1.5
  0
LINE
  8
0
 10
40.9529
 20
-1.5
 11
40.9269
 21
-2.32436
  0
LINE
  8
0
 10
-40.6767
 20
-5.13866
 11
-40.9191
 21
-2.5744
  0
LINE
  8
0
 10
-40.9191
 20
-2.5744
 11
-40.9529
 21
-1.5
  0
LINE
  8
0
 10
-40.9529
 20
-1.5
 11
-8.92924
 21
-1.5
  0
LINE
  8
0
 10
-8.92924
 20
-1.5
 11
-40.5643
 21
-5.84814
  0
LINE
  8
0
 10
-40.5643
 20
-5.84814
 11
-40.6767
 21
-5.13866
  0
LINE
  8
0
 10
34.5207
 20
-4.47206
 11
40.6489
 21
-5.31435
  0
LINE
  8
0
 10
40.6489
 20
-5.31435
 11
40.5162
 21
-6.15192
  0
LINE
  8
0
 10
40.5162
 20
-6.15192
 11
34.5207
 21
-4.47206
  0
LINE
  8
0
 10
-38.9933
 20
-12.6697
 11
-39.7119
 21
-10.1963
  0
LINE
  8
0
 10
-39.7119
 20
-10.1963
 11
-40.0236
 21
-8.80203
  0
LINE
  8
0
 10
-40.0236
 20
-8.80203
 11
-8.52072
 21
-4.47206
  0
LINE
  8
0
 10
-8.52072
 20
-4.47206
 11
-38.882
 21
-12.9789
  0
LINE
  8
0
 10
-38.882
 20
-12.9789
 11
-38.9933
 21
-12.6697
  0
LINE
  8
0
 10
-37.0979
 20
-17.4569
 11
-37.8167
 21
-15.7959
  0
LINE
  8
0
 10
-37.8167
 20
-15.7959
 11
-7.71132
 21
-7.36079
  0
LINE
  8
0
 10
-7.71132
 20
-7.36079
 11
-35.9847
 21
-19.6417
  0
LINE
  8
0
 10
-35.9847
 20
-19.6417
 11
-37.0979
 21
-17.4569
  0
LINE
  8
0
 10
33.7113
 20
-7.36079
 11
39.9547
 21
-9.11011
  0
LINE
  8
0
 10
39.9547
 20
-9.11011
 11
39.7586
 21
-9.98749
  0
LINE
  8
0
 10
39.7586
 20
-9.98749
 11
33.7113
 21
-7.36079
  0
LINE
  8
0
 10
-33.1697
 20
-24.0992
 11
-34.434
 21
-22.2389
  0
LINE
  8
0
 10
-34.434
 20
-22.2389
 11
-6.51613
 21
-10.1124
  0
LINE
  8
0
 10
-6.51613
 20
-10.1124
 11
-31.9987
 21
-25.6087
  0
LINE
  8
0
 10
-31.9987
 20
-25.6087
 11
-33.1697
 21
-24.0992
  0
LINE
  8
0
 10
32.5161
 20
-10.1124
 11
38.9136
 21
-12.8912
  0
LINE
  8
0
 10
38.9136
 20
-12.8912
 11
38.5852
 21
-13.8032
  0
LINE
  8
0
 10
38.5852
 20
-13.8032
 11
32.5161
 21
-10.1124
  0
LINE
  8
0
 10
-28.0664
 20
-29.8877
 11
-29.8877
 21
-28.0664
  0
LINE
  8
0
 10
-29.8877
 20
-28.0664
 11
-30.0199
 21
-27.9165
  0
LINE
  8
0
 10
-30.0199
 20
-27.9165
 11
-4.95741
 21
-12.6757
  0
LINE
  8
0
 10
-4.95741
 20
-12.6757
 11
-27.1293
 21
-30.7139
  0
LINE
  8
0
 10
-27.1293
 20
-30.7139
 11
-28.0664
 21
-29.8877
  0
LINE
  8
0
 10
30.9574
 20
-12.6757
 11
37.4566
 21
-16.628
  0
LINE
  8
0
 10
37.4566
 20
-16.628
 11
37.0979
 21
-17.4569
  0
LINE
  8
0
 10
37.0979
 20
-17.4569
 11
37.0207
 21
-17.6085
  0
LINE
  8
0
 10
37.0207
 20
-17.6085
 11
30.9574
 21
-12.6757
  0
LINE
  8
0
 10
-21.9689
 20
-34.6174
 11
-24.0992
 21
-33.1697
  0
LINE
  8
0
 10
-24.0992
 20
-33.1697
 11
-24.7621
 21
-32.6555
  0
LINE
  8
0
 10
-24.7621
 20
-32.6555
 11
-3.06416
 21
-15.0029
  0
LINE
  8
0
 10
-3.06416
 20
-15.0029
 11
-21.5914
 21
-34.8407
  0
LINE
  8
0
 10
-21.5914
 20
-34.8407
 11
-21.9689
 21
-34.6174
  0
LINE
  8
0
 10
29.0642
 20
-15.0029
 11
35.5949
 21
-20.3161
  0
LINE
  8
0
 10
35.5949
 20
-20.3161
 11
34.9867
 21
-21.3444
  0
LINE
  8
0
 10
34.9867
 20
-21.3444
 11
29.0642
 21
-15.0029
  0
LINE
  8
0
 10
-17.4569
 20
-37.0979
 11
-18.9053
 21
-36.3599
  0
LINE
  8
0
 10
-18.9053
 20
-36.3599
 11
-0.871628
 21
-17.0505
  0
LINE
  8
0
 10
-0.871628
 20
-17.0505
 11
-15.5922
 21
-37.9048
  0
LINE
  8
0
 10
-15.5922
 20
-37.9048
 11
-17.4569
 21
-37.0979
  0
LINE
  8
0
 10
26.8716
 20
-17.0505
 11
33.2897
 21
-23.9226
  0
LINE
  8
0
 10
33.2897
 20
-23.9226
 11
33.1697
 21
-24.0992
  0
LINE
  8
0
 10
33.1697
 20
-24.0992
 11
32.4772
 21
-24.9919
  0
LINE
  8
0
 10
32.4772
 20
-24.9919
 11
26.8716
 21
-17.0505
  0
LINE
  8
0
 10
-10.1963
 20
-39.7119
 11
-12.6697
 21
-38.9933
  0
LINE
  8
0
 10
-12.6697
 20
-38.9933
 11
-12.6846
 21
-38.9879
  0
LINE
  8
0
 10
-12.6846
 20
-38.9879
 11
1.5793
 21
-18.7805
  0
LINE
  8
0
 10
1.5793
 20
-18.7805
 11
-9.36298
 21
-39.8982
  0
LINE
  8
0
 10
-9.36298
 20
-39.8982
 11
-10.1963
 21
-39.7119
  0
LINE
  8
0
 10
24.4207
 20
-18.7805
 11
30.4918
 21
-27.3813
  0
LINE
  8
0
 10
30.4918
 20
-27.3813
 11
29.8877
 21
-28.0664
  0
LINE
  8
0
 10
29.8877
 20
-28.0664
 11
29.456
 21
-28.4982
  0
LINE
  8
0
 10
29.456
 20
-28.4982
 11
24.4207
 21
-18.7805
  0
LINE
  8
0
 10
-5.13866
 20
-40.6767
 11
-6.29283
 21
-40.4939
  0
LINE
  8
0
 10
-6.29283
 20
-40.4939
 11
4.24297
 21
-20.1607
  0
LINE
  8
0
 10
4.24297
 20
-20.1607
 11
-3.11636
 21
-40.8679
  0
LINE
  8
0
 10
-3.11636
 20
-40.8679
 11
-5.13866
 21
-40.6767
  0
LINE
  8
0
 10
21.757
 20
-20.1607
 11
27.1952
 21
-30.6558
  0
LINE
  8
0
 10
27.1952
 20
-30.6558
 11
26.1344
 21
-31.591
  0
LINE
  8
0
 10
26.1344
 20
-31.591
 11
25.8874
 21
-31.7826
  0
LINE
  8
0
 10
25.8874
 20
-31.7826
 11
21.757
 21
-20.1607
  0
LINE
  8
0
 10
7.06973
 20
-21.1654
 11
2.9727
 21
-40.8814
  0
LINE
  8
0
 10
2.9727
 20
-40.8814
 11
2.5744
 21
-40.9191
  0
LINE
  8
0
 10
2.5744
 20
-40.9191
 11
0.0207367
 21
-40.9993
  0
LINE
  8
0
 10
0.0207367
 20
-40.9993
 11
7.06973
 21
-21.1654
  0
LINE
  8
0
 10
18.9303
 20
-21.1654
 11
23.3722
 21
-33.6638
  0
LINE
  8
0
 10
23.3722
 20
-33.6638
 11
21.9689
 21
-34.6174
  0
LINE
  8
0
 10
21.9689
 20
-34.6174
 11
21.7523
 21
-34.7455
  0
LINE
  8
0
 10
21.7523
 20
-34.7455
 11
18.9303
 21
-21.1654
  0
LINE
  8
0
 10
10.007
 20
-21.7758
 11
8.75813
 21
-40.0334
  0
LINE
  8
0
 10
8.75813
 20
-40.0334
 11
7.68263
 21
-40.2738
  0
LINE
  8
0
 10
7.68263
 20
-40.2738
 11
6.11134
 21
-40.5226
  0
LINE
  8
0
 10
6.11134
 20
-40.5226
 11
10.007
 21
-21.7758
  0
LINE
  8
0
 10
15.993
 20
-21.7758
 11
19.0123
 21
-36.3054
  0
LINE
  8
0
 10
19.0123
 20
-36.3054
 11
17.4569
 21
-37.0979
  0
LINE
  8
0
 10
17.4569
 20
-37.0979
 11
17.053
 21
-37.2727
  0
LINE
  8
0
 10
17.053
 20
-37.2727
 11
15.993
 21
-21.7758
  0
LINE
  8
0
 10
13
 20
-21.9805
 11
14.1278
 21
-38.4684
  0
LINE
  8
0
 10
14.1278
 20
-38.4684
 11
12.6697
 21
-38.9933
  0
LINE
  8
0
 10
12.6697
 20
-38.9933
 11
11.8194
 21
-39.2403
  0
LINE
  8
0
 10
11.8194
 20
-39.2403
 11
13
 21
-21.9805
  0
ENDSEC
  0
SECTION
  2
OBJECTS
  0
DICTIONARY
  0
ENDSEC
  0
EOF
