  0
SECTION
  2
BLOCKS
  0
ENDSEC
  0
SECTION
  2
ENTITIES
  0
LINE
  8
0
 10
2.76277
 20
-43.9132
 11
5.51465
 21
-43.653
  0
LINE
  8
0
 10
5.51465
 20
-43.653
 11
6.41679
 21
-43.5102
  0
LINE
  8
0
 10
6.41679
 20
-43.5102
 11
31.1284
 21
-17.0505
  0
LINE
  8
0
 10
31.1284
 20
-17.0505
 11
13.6353
 21
-41.8326
  0
LINE
  8
0
 10
13.6353
 20
-41.8326
 11
16.1975
 21
-40.9102
  0
LINE
  8
0
 10
16.1975
 20
-40.9102
 11
18.733
 21
-39.8129
  0
LINE
  8
0
 10
18.733
 20
-39.8129
 11
33.5793
 21
-18.7805
  0
LINE
  8
0
 10
33.5793
 20
-18.7805
 11
24.3241
 21
-36.6423
  0
LINE
  8
0
 10
24.3241
 20
-36.6423
 11
25.8625
 21
-35.5967
  0
LINE
  8
0
 10
25.8625
 20
-35.5967
 11
28.0466
 21
-33.9026
  0
LINE
  8
0
 10
28.0466
 20
-33.9026
 11
30.0273
 21
-32.1564
  0
LINE
  8
0
 10
30.0273
 20
-32.1564
 11
36.243
 21
-20.1607
  0
LINE
  8
0
 10
36.243
 20
-20.1607
 11
33.1281
 21
-28.9251
  0
LINE
  8
0
 10
33.1281
 20
-28.9251
 11
33.9026
 21
-28.0466
  0
LINE
  8
0
 10
33.9026
 20
-28.0466
 11
35.5967
 21
-25.8625
  0
LINE
  8
0
 10
35.5967
 20
-25.8625
 11
37.1504
 21
-23.5764
  0
LINE
  8
0
 10
37.1504
 20
-23.5764
 11
38.5575
 21
-21.1972
  0
LINE
  8
0
 10
38.5575
 20
-21.1972
 11
39.8124
 21
-18.7343
  0
LINE
  8
0
 10
39.8124
 20
-18.7343
 11
40.9102
 21
-16.1975
  0
LINE
  8
0
 10
40.9102
 20
-16.1975
 11
41.8465
 21
-13.5967
  0
LINE
  8
0
 10
41.8465
 20
-13.5967
 11
42.6176
 21
-10.9424
  0
LINE
  8
0
 10
42.6176
 20
-10.9424
 11
43.2206
 21
-8.24477
  0
LINE
  8
0
 10
43.2206
 20
-8.24477
 11
43.653
 21
-5.51465
  0
LINE
  8
0
 10
43.653
 20
-5.51465
 11
43.9132
 21
-2.76277
  0
LINE
  8
0
 10
43.9132
 20
-2.76277
 11
44
 21
0
  0
LINE
  8
0
 10
44
 20
0
 11
43.9132
 21
2.76277
  0
LINE
  8
0
 10
43.9132
 20
2.76277
 11
43.653
 21
5.51465
  0
LINE
  8
0
 10
43.653
 20
5.51465
 11
43.2206
 21
8.24477
  0
LINE
  8
0
 10
43.2206
 20
8.24477
 11
42.6176
 21
10.9424
  0
LINE
  8
0
 10
42.6176
 20
10.9424
 11
41.8465
 21
13.5967
  0
LINE
  8
0
 10
41.8465
 20
13.5967
 11
40.9102
 21
16.1975
  0
LINE
  8
0
 10
40.9102
 20
16.1975
 11
39.8124
 21
18.7343
  0
LINE
  8
0
 10
39.8124
 20
18.7343
 11
38.5575
 21
21.1972
  0
LINE
  8
0
 10
38.5575
 20
21.1972
 11
37.1504
 21
23.5764
  0
LINE
  8
0
 10
37.1504
 20
23.5764
 11
35.5967
 21
25.8625
  0
LINE
  8
0
 10
35.5967
 20
25.8625
 11
33.9026
 21
28.0466
  0
LINE
  8
0
 10
33.9026
 20
28.0466
 11
33.1281
 21
28.9251
  0
LINE
  8
0
 10
33.1281
 20
28.9251
 11
36.243
 21
20.1607
  0
LINE
  8
0
 10
36.243
 20
20.1607
 11
30.0273
 21
32.1564
  0
LINE
  8
0
 10
30.0273
 20
32.1564
 11
28.0466
 21
33.9026
  0
LINE
  8
0
 10
28.0466
 20
33.9026
 11
25.8625
 21
35.5967
  0
LINE
  8
0
 10
25.8625
 20
35.5967
 11
24.3241
 21
36.6423
  0
LINE
  8
0
 10
24.3241
 20
36.6423
 11
33.5793
 21
18.7805
  0
LINE
  8
0
 10
33.5793
 20
18.7805
 11
18.733
 21
39.8129
  0
LINE
  8
0
 10
18.733
 20
39.8129
 11
16.1975
 21
40.9102
  0
LINE
  8
0
 10
16.1975
 20
40.9102
 11
13.6353
 21
41.8326
  0
LINE
  8
0
 10
13.6353
 20
41.8326
 11
31.1284
 21
17.0505
  0
LINE
  8
0
 10
31.1284
 20
17.0505
 11
6.41679
 21
43.5102
  0
LINE
  8
0
 10
6.41679
 20
43.5102
 11
5.51465
 21
43.653
  0
LINE
  8
0
 10
5.51465
 20
43.653
 11
2.76277
 21
43.9132
  0
LINE
  8
0
 10
2.76277
 20
43.9132
 11
1.91051
 21
43.94
  0
LINE
  8
0
 10
1.91051
 20
43.94
 11
28.9358
 21
15.0029
  0
LINE
  8
0
 10
28.9358
 20
15.0029
 11
-6.15523
 21
43.5516
  0
LINE
  8
0
 10
-6.15523
 20
43.5516
 11
-8.24477
 21
43.2206
  0
LINE
  8
0
 10
-8.24477
 20
43.2206
 11
-10.0156
 21
42.8248
  0
LINE
  8
0
 10
-10.0156
 20
42.8248
 11
27.0426
 21
12.6757
  0
LINE
  8
0
 10
27.0426
 20
12.6757
 11
-18.0609
 21
40.1038
  0
LINE
  8
0
 10
-18.0609
 20
40.1038
 11
-18.7343
 21
39.8124
  0
LINE
  8
0
 10
-18.7343
 20
39.8124
 11
-21.1972
 21
38.5575
  0
LINE
  8
0
 10
-21.1972
 20
38.5575
 11
-21.2452
 21
38.529
  0
LINE
  8
0
 10
-21.2452
 20
38.529
 11
25.4839
 21
10.1124
  0
LINE
  8
0
 10
25.4839
 20
10.1124
 11
-28.4559
 21
33.5418
  0
LINE
  8
0
 10
-28.4559
 20
33.5418
 11
-30.1201
 21
32.0746
  0
LINE
  8
0
 10
-30.1201
 20
32.0746
 11
-30.8736
 21
31.3211
  0
LINE
  8
0
 10
-30.8736
 20
31.3211
 11
24.2887
 21
7.36079
  0
LINE
  8
0
 10
24.2887
 20
7.36079
 11
-36.5802
 21
24.4155
  0
LINE
  8
0
 10
-36.5802
 20
24.4155
 11
-37.1504
 21
23.5764
  0
LINE
  8
0
 10
-37.1504
 20
23.5764
 11
-38.2243
 21
21.7606
  0
LINE
  8
0
 10
-38.2243
 20
21.7606
 11
23.4793
 21
4.47206
  0
LINE
  8
0
 10
23.4793
 20
4.47206
 11
-41.8872
 21
13.4565
  0
LINE
  8
0
 10
-41.8872
 20
13.4565
 11
-42.6176
 21
10.9424
  0
LINE
  8
0
 10
-42.6176
 20
10.9424
 11
-42.7074
 21
10.541
  0
LINE
  8
0
 10
-42.7074
 20
10.541
 11
23.0708
 21
1.5
  0
LINE
  8
0
 10
23.0708
 20
1.5
 11
-43.9529
 21
1.5
  0
LINE
  8
0
 10
-43.9529
 20
1.5
 11
-44
 21
0
  0
LINE
  8
0
 10
-44
 20
0
 11
-43.9529
 21
-1.5
  0
LINE
  8
0
 10
-43.9529
 20
-1.5
 11
23.0708
 21
-1.5
  0
LINE
  8
0
 10
23.0708
 20
-1.5
 11
-42.7074
 21
-10.541
  0
LINE
  8
0
 10
-42.7074
 20
-10.541
 11
-42.6176
 21
-10.9424
  0
LINE
  8
0
 10
-42.6176
 20
-10.9424
 11
-41.8872
 21
-13.4565
  0
LINE
  8
0
 10
-41.8872
 20
-13.4565
 11
23.4793
 21
-4.47206
  0
LINE
  8
0
 10
23.4793
 20
-4.47206
 11
-38.2243
 21
-21.7606
  0
LINE
  8
0
 10
-38.2243
 20
-21.7606
 11
-37.1504
 21
-23.5764
  0
LINE
  8
0
 10
-37.1504
 20
-23.5764
 11
-36.5802
 21
-24.4155
  0
LINE
  8
0
 10
-36.5802
 20
-24.4155
 11
24.2887
 21
-7.36079
  0
LINE
  8
0
 10
24.2887
 20
-7.36079
 11
-30.8736
 21
-31.3211
  0
LINE
  8
0
 10
-30.8736
 20
-31.3211
 11
-30.1201
 21
-32.0746
  0
LINE
  8
0
 10
-30.1201
 20
-32.0746
 11
-28.4559
 21
-33.5418
  0
LINE
  8
0
 10
-28.4559
 20
-33.5418
 11
25.4839
 21
-10.1124
  0
LINE
  8
0
 10
25.4839
 20
-10.1124
 11
-21.2452
 21
-38.529
  0
LINE
  8
0
 10
-21.2452
 20
-38.529
 11
-21.1972
 21
-38.5575
  0
LINE
  8
0
 10
-21.1972
 20
-38.5575
 11
-18.7343
 21
-39.8124
  0
LINE
  8
0
 10
-18.7343
 20
-39.8124
 11
-18.0609
 21
-40.1038
  0
LINE
  8
0
 10
-18.0609
 20
-40.1038
 11
27.0426
 21
-12.6757
  0
LINE
  8
0
 10
27.0426
 20
-12.6757
 11
-10.0156
 21
-42.8248
  0
LINE
  8
0
 10
-10.0156
 20
-42.8248
 11
-8.24477
 21
-43.2206
  0
LINE
  8
0
 10
-8.24477
 20
-43.2206
 11
-6.15523
 21
-43.5516
  0
LINE
  8
0
 10
-6.15523
 20
-43.5516
 11
28.9358
 21
-15.0029
  0
LINE
  8
0
 10
28.9358
 20
-15.0029
 11
1.91051
 21
-43.94
  0
LINE
  8
0
 10
1.91051
 20
-43.94
 11
2.76277
 21
-43.9132
  0
ENDSEC
  0
SECTION
  2
OBJECTS
  0
DICTIONARY
  0
ENDSEC
  0
EOF
