  0
SECTION
  2
BLOCKS
  0
ENDSEC
  0
SECTION
  2
ENTITIES
  0
LINE
  8
0
 10
30.1201
 20
32.0746
 11
28.0466
 21
33.9026
  0
LINE
  8
0
 10
28.0466
 20
33.9026
 11
25.8625
 21
35.5967
  0
LINE
  8
0
 10
25.8625
 20
35.5967
 11
23.5764
 21
37.1504
  0
LINE
  8
0
 10
23.5764
 20
37.1504
 11
21.1972
 21
38.5575
  0
LINE
  8
0
 10
21.1972
 20
38.5575
 11
18.7343
 21
39.8124
  0
LINE
  8
0
 10
18.7343
 20
39.8124
 11
16.1975
 21
40.9102
  0
LINE
  8
0
 10
16.1975
 20
40.9102
 11
13.5967
 21
41.8465
  0
LINE
  8
0
 10
13.5967
 20
41.8465
 11
10.9424
 21
42.6176
  0
LINE
  8
0
 10
10.9424
 20
42.6176
 11
8.24477
 21
43.2206
  0
LINE
  8
0
 10
8.24477
 20
43.2206
 11
5.51465
 21
43.653
  0
LINE
  8
0
 10
5.51465
 20
43.653
 11
2.76277
 21
43.9132
  0
LINE
  8
0
 10
2.76277
 20
43.9132
 11
0
 21
44
  0
LINE
  8
0
 10
0
 20
44
 11
-2.76277
 21
43.9132
  0
LINE
  8
0
 10
-2.76277
 20
43.9132
 11
-5.51465
 21
43.653
  0
LINE
  8
0
 10
-5.51465
 20
43.653
 11
-8.24477
 21
43.2206
  0
LINE
  8
0
 10
-8.24477
 20
43.2206
 11
-10.9424
 21
42.6176
  0
LINE
  8
0
 10
-10.9424
 20
42.6176
 11
-13.5967
 21
41.8465
  0
LINE
  8
0
 10
-13.5967
 20
41.8465
 11
-16.1975
 21
40.9102
  0
LINE
  8
0
 10
-16.1975
 20
40.9102
 11
-18.7343
 21
39.8124
  0
LINE
  8
0
 10
-18.7343
 20
39.8124
 11
-21.1972
 21
38.5575
  0
LINE
  8
0
 10
-21.1972
 20
38.5575
 11
-23.5764
 21
37.1504
  0
LINE
  8
0
 10
-23.5764
 20
37.1504
 11
-25.8625
 21
35.5967
  0
LINE
  8
0
 10
-25.8625
 20
35.5967
 11
-28.0466
 21
33.9026
  0
LINE
  8
0
 10
-28.0466
 20
33.9026
 11
-30.1201
 21
32.0746
  0
LINE
  8
0
 10
-30.1201
 20
32.0746
 11
-32.0746
 21
30.1201
  0
LINE
  8
0
 10
-32.0746
 20
30.1201
 11
-33.9026
 21
28.0466
  0
LINE
  8
0
 10
-33.9026
 20
28.0466
 11
-35.5967
 21
25.8625
  0
LINE
  8
0
 10
-35.5967
 20
25.8625
 11
-37.1504
 21
23.5764
  0
LINE
  8
0
 10
-37.1504
 20
23.5764
 11
-38.5575
 21
21.1972
  0
LINE
  8
0
 10
-38.5575
 20
21.1972
 11
-39.8124
 21
18.7343
  0
LINE
  8
0
 10
-39.8124
 20
18.7343
 11
-40.9102
 21
16.1975
  0
LINE
  8
0
 10
-40.9102
 20
16.1975
 11
-41.8465
 21
13.5967
  0
LINE
  8
0
 10
-41.8465
 20
13.5967
 11
-42.6176
 21
10.9424
  0
LINE
  8
0
 10
-42.6176
 20
10.9424
 11
-43.2206
 21
8.24477
  0
LINE
  8
0
 10
-43.2206
 20
8.24477
 11
-43.653
 21
5.51465
  0
LINE
  8
0
 10
-43.653
 20
5.51465
 11
-43.9132
 21
2.76277
  0
LINE
  8
0
 10
-43.9132
 20
2.76277
 11
-44
 21
0
  0
LINE
  8
0
 10
-44
 20
0
 11
-43.9132
 21
-2.76277
  0
LINE
  8
0
 10
-43.9132
 20
-2.76277
 11
-43.653
 21
-5.51465
  0
LINE
  8
0
 10
-43.653
 20
-5.51465
 11
-43.2206
 21
-8.24477
  0
LINE
  8
0
 10
-43.2206
 20
-8.24477
 11
-42.6176
 21
-10.9424
  0
LINE
  8
0
 10
-42.6176
 20
-10.9424
 11
-41.8465
 21
-13.5967
  0
LINE
  8
0
 10
-41.8465
 20
-13.5967
 11
-40.9102
 21
-16.1975
  0
LINE
  8
0
 10
-40.9102
 20
-16.1975
 11
-39.8124
 21
-18.7343
  0
LINE
  8
0
 10
-39.8124
 20
-18.7343
 11
-38.5575
 21
-21.1972
  0
LINE
  8
0
 10
-38.5575
 20
-21.1972
 11
-37.1504
 21
-23.5764
  0
LINE
  8
0
 10
-37.1504
 20
-23.5764
 11
-35.5967
 21
-25.8625
  0
LINE
  8
0
 10
-35.5967
 20
-25.8625
 11
-33.9026
 21
-28.0466
  0
LINE
  8
0
 10
-33.9026
 20
-28.0466
 11
-32.0746
 21
-30.1201
  0
LINE
  8
0
 10
-32.0746
 20
-30.1201
 11
-30.1201
 21
-32.0746
  0
LINE
  8
0
 10
-30.1201
 20
-32.0746
 11
-28.0466
 21
-33.9026
  0
LINE
  8
0
 10
-28.0466
 20
-33.9026
 11
-25.8625
 21
-35.5967
  0
LINE
  8
0
 10
-25.8625
 20
-35.5967
 11
-23.5764
 21
-37.1504
  0
LINE
  8
0
 10
-23.5764
 20
-37.1504
 11
-21.1972
 21
-38.5575
  0
LINE
  8
0
 10
-21.1972
 20
-38.5575
 11
-18.7343
 21
-39.8124
  0
LINE
  8
0
 10
-18.7343
 20
-39.8124
 11
-16.1975
 21
-40.9102
  0
LINE
  8
0
 10
-16.1975
 20
-40.9102
 11
-13.5967
 21
-41.8465
  0
LINE
  8
0
 10
-13.5967
 20
-41.8465
 11
-10.9424
 21
-42.6176
  0
LINE
  8
0
 10
-10.9424
 20
-42.6176
 11
-8.24477
 21
-43.2206
  0
LINE
  8
0
 10
-8.24477
 20
-43.2206
 11
-5.51465
 21
-43.653
  0
LINE
  8
0
 10
-5.51465
 20
-43.653
 11
-2.76277
 21
-43.9132
  0
LINE
  8
0
 10
-2.76277
 20
-43.9132
 11
0
 21
-44
  0
LINE
  8
0
 10
0
 20
-44
 11
2.76277
 21
-43.9132
  0
LINE
  8
0
 10
2.76277
 20
-43.9132
 11
5.51465
 21
-43.653
  0
LINE
  8
0
 10
5.51465
 20
-43.653
 11
8.24477
 21
-43.2206
  0
LINE
  8
0
 10
8.24477
 20
-43.2206
 11
10.9424
 21
-42.6176
  0
LINE
  8
0
 10
10.9424
 20
-42.6176
 11
13.5967
 21
-41.8465
  0
LINE
  8
0
 10
13.5967
 20
-41.8465
 11
16.1975
 21
-40.9102
  0
LINE
  8
0
 10
16.1975
 20
-40.9102
 11
18.7343
 21
-39.8124
  0
LINE
  8
0
 10
18.7343
 20
-39.8124
 11
21.1972
 21
-38.5575
  0
LINE
  8
0
 10
21.1972
 20
-38.5575
 11
23.5764
 21
-37.1504
  0
LINE
  8
0
 10
23.5764
 20
-37.1504
 11
25.8625
 21
-35.5967
  0
LINE
  8
0
 10
25.8625
 20
-35.5967
 11
28.0466
 21
-33.9026
  0
LINE
  8
0
 10
28.0466
 20
-33.9026
 11
30.1201
 21
-32.0746
  0
LINE
  8
0
 10
30.1201
 20
-32.0746
 11
32.0746
 21
-30.1201
  0
LINE
  8
0
 10
32.0746
 20
-30.1201
 11
33.9026
 21
-28.0466
  0
LINE
  8
0
 10
33.9026
 20
-28.0466
 11
35.5967
 21
-25.8625
  0
LINE
  8
0
 10
35.5967
 20
-25.8625
 11
37.1504
 21
-23.5764
  0
LINE
  8
0
 10
37.1504
 20
-23.5764
 11
38.5575
 21
-21.1972
  0
LINE
  8
0
 10
38.5575
 20
-21.1972
 11
39.8124
 21
-18.7343
  0
LINE
  8
0
 10
39.8124
 20
-18.7343
 11
40.9102
 21
-16.1975
  0
LINE
  8
0
 10
40.9102
 20
-16.1975
 11
41.8465
 21
-13.5967
  0
LINE
  8
0
 10
41.8465
 20
-13.5967
 11
42.6176
 21
-10.9424
  0
LINE
  8
0
 10
42.6176
 20
-10.9424
 11
43.2206
 21
-8.24477
  0
LINE
  8
0
 10
43.2206
 20
-8.24477
 11
43.653
 21
-5.51465
  0
LINE
  8
0
 10
43.653
 20
-5.51465
 11
43.9132
 21
-2.76277
  0
LINE
  8
0
 10
43.9132
 20
-2.76277
 11
44
 21
0
  0
LINE
  8
0
 10
44
 20
0
 11
43.9132
 21
2.76277
  0
LINE
  8
0
 10
43.9132
 20
2.76277
 11
43.653
 21
5.51465
  0
LINE
  8
0
 10
43.653
 20
5.51465
 11
43.2206
 21
8.24477
  0
LINE
  8
0
 10
43.2206
 20
8.24477
 11
42.6176
 21
10.9424
  0
LINE
  8
0
 10
42.6176
 20
10.9424
 11
41.8465
 21
13.5967
  0
LINE
  8
0
 10
41.8465
 20
13.5967
 11
40.9102
 21
16.1975
  0
LINE
  8
0
 10
40.9102
 20
16.1975
 11
39.8124
 21
18.7343
  0
LINE
  8
0
 10
39.8124
 20
18.7343
 11
38.5575
 21
21.1972
  0
LINE
  8
0
 10
38.5575
 20
21.1972
 11
37.1504
 21
23.5764
  0
LINE
  8
0
 10
37.1504
 20
23.5764
 11
35.5967
 21
25.8625
  0
LINE
  8
0
 10
35.5967
 20
25.8625
 11
33.9026
 21
28.0466
  0
LINE
  8
0
 10
33.9026
 20
28.0466
 11
32.0746
 21
30.1201
  0
LINE
  8
0
 10
32.0746
 20
30.1201
 11
30.1201
 21
32.0746
  0
LINE
  8
0
 10
-1.08093
 20
40.966
 11
0
 21
41
  0
LINE
  8
0
 10
0
 20
41
 11
2.5744
 21
40.9191
  0
LINE
  8
0
 10
2.5744
 20
40.9191
 11
3.13551
 21
40.866
  0
LINE
  8
0
 10
3.13551
 20
40.866
 11
14.5793
 21
18.7805
  0
LINE
  8
0
 10
14.5793
 20
18.7805
 11
-1.08093
 21
40.966
  0
LINE
  8
0
 10
-9.23628
 20
39.9265
 11
-7.68263
 21
40.2738
  0
LINE
  8
0
 10
-7.68263
 20
40.2738
 11
-5.13866
 21
40.6767
  0
LINE
  8
0
 10
-5.13866
 20
40.6767
 11
-4.58571
 21
40.729
  0
LINE
  8
0
 10
-4.58571
 20
40.729
 11
12.1284
 21
17.0505
  0
LINE
  8
0
 10
12.1284
 20
17.0505
 11
-9.23628
 21
39.9265
  0
LINE
  8
0
 10
6.7442
 20
40.4224
 11
7.68263
 21
40.2738
  0
LINE
  8
0
 10
7.68263
 20
40.2738
 11
10.1963
 21
39.7119
  0
LINE
  8
0
 10
10.1963
 20
39.7119
 11
10.3058
 21
39.6801
  0
LINE
  8
0
 10
10.3058
 20
39.6801
 11
17.243
 21
20.1607
  0
LINE
  8
0
 10
17.243
 20
20.1607
 11
6.7442
 21
40.4224
  0
LINE
  8
0
 10
-17.304
 20
37.1641
 11
-15.0931
 21
38.1208
  0
LINE
  8
0
 10
-15.0931
 20
38.1208
 11
-12.6697
 21
38.9933
  0
LINE
  8
0
 10
-12.6697
 20
38.9933
 11
-12.5123
 21
39.039
  0
LINE
  8
0
 10
-12.5123
 20
39.039
 11
9.93584
 21
15.0029
  0
LINE
  8
0
 10
9.93584
 20
15.0029
 11
-17.304
 21
37.1641
  0
LINE
  8
0
 10
13.8898
 20
38.554
 11
15.0931
 21
38.1208
  0
LINE
  8
0
 10
15.0931
 20
38.1208
 11
16.6899
 21
37.4298
  0
LINE
  8
0
 10
16.6899
 20
37.4298
 11
20.0697
 21
21.1654
  0
LINE
  8
0
 10
20.0697
 20
21.1654
 11
13.8898
 21
38.554
  0
LINE
  8
0
 10
20.11
 20
35.7168
 11
21.9689
 21
34.6174
  0
LINE
  8
0
 10
21.9689
 20
34.6174
 11
22.1364
 21
34.5036
  0
LINE
  8
0
 10
22.1364
 20
34.5036
 11
23.007
 21
21.7758
  0
LINE
  8
0
 10
23.007
 20
21.7758
 11
20.11
 21
35.7168
  0
LINE
  8
0
 10
-24.7843
 20
32.6382
 11
-24.0992
 21
33.1697
  0
LINE
  8
0
 10
-24.0992
 20
33.1697
 11
-21.9689
 21
34.6174
  0
LINE
  8
0
 10
-21.9689
 20
34.6174
 11
-20.2077
 21
35.659
  0
LINE
  8
0
 10
-20.2077
 20
35.659
 11
8.04259
 21
12.6757
  0
LINE
  8
0
 10
8.04259
 20
12.6757
 11
-24.7843
 21
32.6382
  0
LINE
  8
0
 10
25.2983
 20
32.2396
 11
26.1344
 21
31.591
  0
LINE
  8
0
 10
26.1344
 20
31.591
 11
26.6276
 21
31.1562
  0
LINE
  8
0
 10
26.6276
 20
31.1562
 11
26
 21
21.9805
  0
LINE
  8
0
 10
26
 20
21.9805
 11
25.2983
 21
32.2396
  0
LINE
  8
0
 10
-31.2619
 20
26.5077
 11
-29.8877
 21
28.0664
  0
LINE
  8
0
 10
-29.8877
 20
28.0664
 11
-28.0664
 21
29.8877
  0
LINE
  8
0
 10
-28.0664
 20
29.8877
 11
-27.2373
 21
30.6187
  0
LINE
  8
0
 10
-27.2373
 20
30.6187
 11
6.48387
 21
10.1124
  0
LINE
  8
0
 10
6.48387
 20
10.1124
 11
-31.2619
 21
26.5077
  0
LINE
  8
0
 10
29.453
 20
28.5011
 11
29.8877
 21
28.0664
  0
LINE
  8
0
 10
29.8877
 20
28.0664
 11
30.2215
 21
27.6878
  0
LINE
  8
0
 10
30.2215
 20
27.6878
 11
28.993
 21
21.7758
  0
LINE
  8
0
 10
28.993
 20
21.7758
 11
29.453
 21
28.5011
  0
LINE
  8
0
 10
32.673
 20
24.7395
 11
33.0348
 21
24.2731
  0
LINE
  8
0
 10
33.0348
 20
24.2731
 11
31.9303
 21
21.1654
  0
LINE
  8
0
 10
31.9303
 20
21.1654
 11
32.673
 21
24.7395
  0
LINE
  8
0
 10
-36.3042
 20
19.0146
 11
-35.9286
 21
19.7519
  0
LINE
  8
0
 10
-35.9286
 20
19.7519
 11
-34.6174
 21
21.9689
  0
LINE
  8
0
 10
-34.6174
 20
21.9689
 11
-33.1873
 21
24.0733
  0
LINE
  8
0
 10
-33.1873
 20
24.0733
 11
5.28868
 21
7.36079
  0
LINE
  8
0
 10
5.28868
 20
7.36079
 11
-36.3042
 21
19.0146
  0
LINE
  8
0
 10
35.106
 20
21.1427
 11
35.1912
 21
20.9987
  0
LINE
  8
0
 10
35.1912
 20
20.9987
 11
34.757
 21
20.1607
  0
LINE
  8
0
 10
34.757
 20
20.1607
 11
35.106
 21
21.1427
  0
LINE
  8
0
 10
-39.6142
 20
10.5326
 11
-38.9933
 21
12.6697
  0
LINE
  8
0
 10
-38.9933
 20
12.6697
 11
-38.1208
 21
15.0931
  0
LINE
  8
0
 10
-38.1208
 20
15.0931
 11
-37.6133
 21
16.2659
  0
LINE
  8
0
 10
-37.6133
 20
16.2659
 11
4.47928
 21
4.47206
  0
LINE
  8
0
 10
4.47928
 20
4.47206
 11
-39.6142
 21
10.5326
  0
LINE
  8
0
 10
-40.9191
 20
2.5744
 11
-40.6767
 21
5.13866
  0
LINE
  8
0
 10
-40.6767
 20
5.13866
 11
-40.2874
 21
7.59688
  0
LINE
  8
0
 10
-40.2874
 20
7.59688
 11
4.07076
 21
1.5
  0
LINE
  8
0
 10
4.07076
 20
1.5
 11
-40.9529
 21
1.5
  0
LINE
  8
0
 10
-40.9529
 20
1.5
 11
-40.9191
 21
2.5744
  0
LINE
  8
0
 10
-40.6767
 20
-5.13866
 11
-40.9191
 21
-2.5744
  0
LINE
  8
0
 10
-40.9191
 20
-2.5744
 11
-40.9529
 21
-1.5
  0
LINE
  8
0
 10
-40.9529
 20
-1.5
 11
4.07076
 21
-1.5
  0
LINE
  8
0
 10
4.07076
 20
-1.5
 11
-40.2874
 21
-7.59688
  0
LINE
  8
0
 10
-40.2874
 20
-7.59688
 11
-40.6767
 21
-5.13866
  0
LINE
  8
0
 10
-38.1208
 20
-15.0931
 11
-38.9933
 21
-12.6697
  0
LINE
  8
0
 10
-38.9933
 20
-12.6697
 11
-39.6142
 21
-10.5326
  0
LINE
  8
0
 10
-39.6142
 20
-10.5326
 11
4.47928
 21
-4.47206
  0
LINE
  8
0
 10
4.47928
 20
-4.47206
 11
-37.6133
 21
-16.2659
  0
LINE
  8
0
 10
-37.6133
 20
-16.2659
 11
-38.1208
 21
-15.0931
  0
LINE
  8
0
 10
-34.6174
 20
-21.9689
 11
-35.9286
 21
-19.7519
  0
LINE
  8
0
 10
-35.9286
 20
-19.7519
 11
-36.3042
 21
-19.0146
  0
LINE
  8
0
 10
-36.3042
 20
-19.0146
 11
5.28868
 21
-7.36079
  0
LINE
  8
0
 10
5.28868
 20
-7.36079
 11
-33.1873
 21
-24.0733
  0
LINE
  8
0
 10
-33.1873
 20
-24.0733
 11
-34.6174
 21
-21.9689
  0
LINE
  8
0
 10
-28.0664
 20
-29.8877
 11
-29.8877
 21
-28.0664
  0
LINE
  8
0
 10
-29.8877
 20
-28.0664
 11
-31.2619
 21
-26.5077
  0
LINE
  8
0
 10
-31.2619
 20
-26.5077
 11
6.48387
 21
-10.1124
  0
LINE
  8
0
 10
6.48387
 20
-10.1124
 11
-27.2373
 21
-30.6187
  0
LINE
  8
0
 10
-27.2373
 20
-30.6187
 11
-28.0664
 21
-29.8877
  0
LINE
  8
0
 10
-21.9689
 20
-34.6174
 11
-24.0992
 21
-33.1697
  0
LINE
  8
0
 10
-24.0992
 20
-33.1697
 11
-24.7843
 21
-32.6382
  0
LINE
  8
0
 10
-24.7843
 20
-32.6382
 11
8.04259
 21
-12.6757
  0
LINE
  8
0
 10
8.04259
 20
-12.6757
 11
-20.2077
 21
-35.659
  0
LINE
  8
0
 10
-20.2077
 20
-35.659
 11
-21.9689
 21
-34.6174
  0
LINE
  8
0
 10
-12.6697
 20
-38.9933
 11
-15.0931
 21
-38.1208
  0
LINE
  8
0
 10
-15.0931
 20
-38.1208
 11
-17.304
 21
-37.1641
  0
LINE
  8
0
 10
-17.304
 20
-37.1641
 11
9.93584
 21
-15.0029
  0
LINE
  8
0
 10
9.93584
 20
-15.0029
 11
-12.5123
 21
-39.039
  0
LINE
  8
0
 10
-12.5123
 20
-39.039
 11
-12.6697
 21
-38.9933
  0
LINE
  8
0
 10
-5.13866
 20
-40.6767
 11
-7.68263
 21
-40.2738
  0
LINE
  8
0
 10
-7.68263
 20
-40.2738
 11
-9.23628
 21
-39.9265
  0
LINE
  8
0
 10
-9.23628
 20
-39.9265
 11
12.1284
 21
-17.0505
  0
LINE
  8
0
 10
12.1284
 20
-17.0505
 11
-4.58571
 21
-40.729
  0
LINE
  8
0
 10
-4.58571
 20
-40.729
 11
-5.13866
 21
-40.6767
  0
LINE
  8
0
 10
-1.08093
 20
-40.966
 11
14.5793
 21
-18.7805
  0
LINE
  8
0
 10
14.5793
 20
-18.7805
 11
3.13551
 21
-40.866
  0
LINE
  8
0
 10
3.13551
 20
-40.866
 11
2.5744
 21
-40.9191
  0
LINE
  8
0
 10
2.5744
 20
-40.9191
 11
0
 21
-41
  0
LINE
  8
0
 10
0
 20
-41
 11
-1.08093
 21
-40.966
  0
LINE
  8
0
 10
17.243
 20
-20.1607
 11
10.3058
 21
-39.6801
  0
LINE
  8
0
 10
10.3058
 20
-39.6801
 11
10.1963
 21
-39.7119
  0
LINE
  8
0
 10
10.1963
 20
-39.7119
 11
7.68263
 21
-40.2738
  0
LINE
  8
0
 10
7.68263
 20
-40.2738
 11
6.7442
 21
-40.4224
  0
LINE
  8
0
 10
6.7442
 20
-40.4224
 11
17.243
 21
-20.1607
  0
LINE
  8
0
 10
34.757
 20
-20.1607
 11
35.1912
 21
-20.9987
  0
LINE
  8
0
 10
35.1912
 20
-20.9987
 11
35.106
 21
-21.1427
  0
LINE
  8
0
 10
35.106
 20
-21.1427
 11
34.757
 21
-20.1607
  0
LINE
  8
0
 10
20.0697
 20
-21.1654
 11
16.6899
 21
-37.4298
  0
LINE
  8
0
 10
16.6899
 20
-37.4298
 11
15.0931
 21
-38.1208
  0
LINE
  8
0
 10
15.0931
 20
-38.1208
 11
13.8898
 21
-38.554
  0
LINE
  8
0
 10
13.8898
 20
-38.554
 11
20.0697
 21
-21.1654
  0
LINE
  8
0
 10
31.9303
 20
-21.1654
 11
33.0348
 21
-24.2731
  0
LINE
  8
0
 10
33.0348
 20
-24.2731
 11
32.673
 21
-24.7395
  0
LINE
  8
0
 10
32.673
 20
-24.7395
 11
31.9303
 21
-21.1654
  0
LINE
  8
0
 10
23.007
 20
-21.7758
 11
22.1364
 21
-34.5036
  0
LINE
  8
0
 10
22.1364
 20
-34.5036
 11
21.9689
 21
-34.6174
  0
LINE
  8
0
 10
21.9689
 20
-34.6174
 11
20.11
 21
-35.7168
  0
LINE
  8
0
 10
20.11
 20
-35.7168
 11
23.007
 21
-21.7758
  0
LINE
  8
0
 10
28.993
 20
-21.7758
 11
30.2215
 21
-27.6878
  0
LINE
  8
0
 10
30.2215
 20
-27.6878
 11
29.8877
 21
-28.0664
  0
LINE
  8
0
 10
29.8877
 20
-28.0664
 11
29.453
 21
-28.5011
  0
LINE
  8
0
 10
29.453
 20
-28.5011
 11
28.993
 21
-21.7758
  0
LINE
  8
0
 10
26
 20
-21.9805
 11
26.6276
 21
-31.1562
  0
LINE
  8
0
 10
26.6276
 20
-31.1562
 11
26.1344
 21
-31.591
  0
LINE
  8
0
 10
26.1344
 20
-31.591
 11
25.2983
 21
-32.2396
  0
LINE
  8
0
 10
25.2983
 20
-32.2396
 11
26
 21
-21.9805
  0
ENDSEC
  0
SECTION
  2
OBJECTS
  0
DICTIONARY
  0
ENDSEC
  0
EOF
