  0
SECTION
  2
BLOCKS
  0
ENDSEC
  0
SECTION
  2
ENTITIES
  0
LINE
  8
0
 10
2.76277
 20
-43.9132
 11
4.6156
 21
-43.738
  0
LINE
  8
0
 10
4.6156
 20
-43.738
 11
39.9358
 21
-15.0029
  0
LINE
  8
0
 10
39.9358
 20
-15.0029
 11
15.5085
 21
-41.1582
  0
LINE
  8
0
 10
15.5085
 20
-41.1582
 11
16.1975
 21
-40.9102
  0
LINE
  8
0
 10
16.1975
 20
-40.9102
 11
18.7343
 21
-39.8124
  0
LINE
  8
0
 10
18.7343
 20
-39.8124
 11
21.1972
 21
-38.5575
  0
LINE
  8
0
 10
21.1972
 20
-38.5575
 11
23.085
 21
-37.441
  0
LINE
  8
0
 10
23.085
 20
-37.441
 11
38.9198
 21
-20.4861
  0
LINE
  8
0
 10
38.9198
 20
-20.4861
 11
39.8124
 21
-18.7343
  0
LINE
  8
0
 10
39.8124
 20
-18.7343
 11
40.9102
 21
-16.1975
  0
LINE
  8
0
 10
40.9102
 20
-16.1975
 11
41.8465
 21
-13.5967
  0
LINE
  8
0
 10
41.8465
 20
-13.5967
 11
42.6176
 21
-10.9424
  0
LINE
  8
0
 10
42.6176
 20
-10.9424
 11
43.2206
 21
-8.24477
  0
LINE
  8
0
 10
43.2206
 20
-8.24477
 11
43.653
 21
-5.51465
  0
LINE
  8
0
 10
43.653
 20
-5.51465
 11
43.9132
 21
-2.76277
  0
LINE
  8
0
 10
43.9132
 20
-2.76277
 11
44
 21
0
  0
LINE
  8
0
 10
44
 20
0
 11
43.9132
 21
2.76277
  0
LINE
  8
0
 10
43.9132
 20
2.76277
 11
43.653
 21
5.51465
  0
LINE
  8
0
 10
43.653
 20
5.51465
 11
43.2206
 21
8.24477
  0
LINE
  8
0
 10
43.2206
 20
8.24477
 11
42.6176
 21
10.9424
  0
LINE
  8
0
 10
42.6176
 20
10.9424
 11
41.8465
 21
13.5967
  0
LINE
  8
0
 10
41.8465
 20
13.5967
 11
40.9102
 21
16.1975
  0
LINE
  8
0
 10
40.9102
 20
16.1975
 11
39.8124
 21
18.7343
  0
LINE
  8
0
 10
39.8124
 20
18.7343
 11
38.9198
 21
20.4861
  0
LINE
  8
0
 10
38.9198
 20
20.4861
 11
23.085
 21
37.441
  0
LINE
  8
0
 10
23.085
 20
37.441
 11
21.1972
 21
38.5575
  0
LINE
  8
0
 10
21.1972
 20
38.5575
 11
18.7343
 21
39.8124
  0
LINE
  8
0
 10
18.7343
 20
39.8124
 11
16.1975
 21
40.9102
  0
LINE
  8
0
 10
16.1975
 20
40.9102
 11
15.5085
 21
41.1582
  0
LINE
  8
0
 10
15.5085
 20
41.1582
 11
39.9358
 21
15.0029
  0
LINE
  8
0
 10
39.9358
 20
15.0029
 11
4.6156
 21
43.738
  0
LINE
  8
0
 10
4.6156
 20
43.738
 11
2.76277
 21
43.9132
  0
LINE
  8
0
 10
2.76277
 20
43.9132
 11
0
 21
44
  0
LINE
  8
0
 10
0
 20
44
 11
-0.443008
 21
43.9861
  0
LINE
  8
0
 10
-0.443008
 20
43.9861
 11
38.0426
 21
12.6757
  0
LINE
  8
0
 10
38.0426
 20
12.6757
 11
-11.1132
 21
42.568
  0
LINE
  8
0
 10
-11.1132
 20
42.568
 11
-13.5967
 21
41.8465
  0
LINE
  8
0
 10
-13.5967
 20
41.8465
 11
-14.9182
 21
41.3707
  0
LINE
  8
0
 10
-14.9182
 20
41.3707
 11
36.4839
 21
10.1124
  0
LINE
  8
0
 10
36.4839
 20
10.1124
 11
-24.4293
 21
36.5708
  0
LINE
  8
0
 10
-24.4293
 20
36.5708
 11
-25.8625
 21
35.5967
  0
LINE
  8
0
 10
-25.8625
 20
35.5967
 11
-27.2462
 21
34.5235
  0
LINE
  8
0
 10
-27.2462
 20
34.5235
 11
35.2887
 21
7.36079
  0
LINE
  8
0
 10
35.2887
 20
7.36079
 11
-34.7305
 21
26.9793
  0
LINE
  8
0
 10
-34.7305
 20
26.9793
 11
-35.5967
 21
25.8625
  0
LINE
  8
0
 10
-35.5967
 20
25.8625
 11
-36.5993
 21
24.3873
  0
LINE
  8
0
 10
-36.5993
 20
24.3873
 11
34.4793
 21
4.47206
  0
LINE
  8
0
 10
34.4793
 20
4.47206
 11
-41.3779
 21
14.8984
  0
LINE
  8
0
 10
-41.3779
 20
14.8984
 11
-41.8465
 21
13.5967
  0
LINE
  8
0
 10
-41.8465
 20
13.5967
 11
-42.3108
 21
11.9984
  0
LINE
  8
0
 10
-42.3108
 20
11.9984
 11
34.0708
 21
1.5
  0
LINE
  8
0
 10
34.0708
 20
1.5
 11
-43.9529
 21
1.5
  0
LINE
  8
0
 10
-43.9529
 20
1.5
 11
-44
 21
0
  0
LINE
  8
0
 10
-44
 20
0
 11
-43.9529
 21
-1.5
  0
LINE
  8
0
 10
-43.9529
 20
-1.5
 11
34.0708
 21
-1.5
  0
LINE
  8
0
 10
34.0708
 20
-1.5
 11
-42.3108
 21
-11.9984
  0
LINE
  8
0
 10
-42.3108
 20
-11.9984
 11
-41.8465
 21
-13.5967
  0
LINE
  8
0
 10
-41.8465
 20
-13.5967
 11
-41.3779
 21
-14.8984
  0
LINE
  8
0
 10
-41.3779
 20
-14.8984
 11
34.4793
 21
-4.47206
  0
LINE
  8
0
 10
34.4793
 20
-4.47206
 11
-36.5993
 21
-24.3873
  0
LINE
  8
0
 10
-36.5993
 20
-24.3873
 11
-35.5967
 21
-25.8625
  0
LINE
  8
0
 10
-35.5967
 20
-25.8625
 11
-34.7305
 21
-26.9793
  0
LINE
  8
0
 10
-34.7305
 20
-26.9793
 11
35.2887
 21
-7.36079
  0
LINE
  8
0
 10
35.2887
 20
-7.36079
 11
-27.2462
 21
-34.5235
  0
LINE
  8
0
 10
-27.2462
 20
-34.5235
 11
-25.8625
 21
-35.5967
  0
LINE
  8
0
 10
-25.8625
 20
-35.5967
 11
-24.4293
 21
-36.5708
  0
LINE
  8
0
 10
-24.4293
 20
-36.5708
 11
36.4839
 21
-10.1124
  0
LINE
  8
0
 10
36.4839
 20
-10.1124
 11
-14.9182
 21
-41.3707
  0
LINE
  8
0
 10
-14.9182
 20
-41.3707
 11
-13.5967
 21
-41.8465
  0
LINE
  8
0
 10
-13.5967
 20
-41.8465
 11
-11.1132
 21
-42.568
  0
LINE
  8
0
 10
-11.1132
 20
-42.568
 11
38.0426
 21
-12.6757
  0
LINE
  8
0
 10
38.0426
 20
-12.6757
 11
-0.443008
 21
-43.9861
  0
LINE
  8
0
 10
-0.443008
 20
-43.9861
 11
0
 21
-44
  0
LINE
  8
0
 10
0
 20
-44
 11
2.76277
 21
-43.9132
  0
ENDSEC
  0
SECTION
  2
OBJECTS
  0
DICTIONARY
  0
ENDSEC
  0
EOF
