<?xml version="1.0" standalone="no"?>
<!DOCTYPE svg PUBLIC "-//W3C//DTD SVG 1.1//EN" "http://www.w3.org/Graphics/SVG/1.1/DTD/svg11.dtd">
<svg width="88mm" height="88mm" viewBox="-44 -44 88 88" xmlns="http://www.w3.org/2000/svg" version="1.1">
<title>OpenSCAD Model</title>
<path d="
M 39.8124,-18.7343 L 38.5575,-21.1972 L 37.1504,-23.5764 L 35.5967,-25.8625 L 33.9026,-28.0466 L 32.0746,-30.1201
 L 30.1201,-32.0746 L 28.0466,-33.9026 L 25.8625,-35.5967 L 23.5764,-37.1504 L 21.1972,-38.5575 L 18.7343,-39.8124
 L 16.1975,-40.9102 L 13.5967,-41.8465 L 10.9424,-42.6176 L 8.24477,-43.2206 L 5.51465,-43.653 L 2.76277,-43.9132
 L 0,-44 L -2.76277,-43.9132 L -5.51465,-43.653 L -8.24477,-43.2206 L -10.9424,-42.6176 L -13.5967,-41.8465
 L -16.1975,-40.9102 L -18.7343,-39.8124 L -21.1972,-38.5575 L -23.5764,-37.1504 L -25.8625,-35.5967 L -28.0466,-33.9026
 L -30.1201,-32.0746 L -32.0746,-30.1201 L -33.9026,-28.0466 L -35.5967,-25.8625 L -37.1504,-23.5764 L -38.5575,-21.1972
 L -39.8124,-18.7343 L -40.9102,-16.1975 L -41.8465,-13.5967 L -42.6176,-10.9424 L -43.2206,-8.24477 L -43.653,-5.51465
 L -43.9132,-2.76277 L -44,-0 L -43.9132,2.76277 L -43.653,5.51465 L -43.2206,8.24477 L -42.6176,10.9424
 L -41.8465,13.5967 L -40.9102,16.1975 L -39.8124,18.7343 L -38.5575,21.1972 L -37.1504,23.5764 L -35.5967,25.8625
 L -33.9026,28.0466 L -32.0746,30.1201 L -30.1201,32.0746 L -28.0466,33.9026 L -25.8625,35.5967 L -23.5764,37.1504
 L -21.1972,38.5575 L -18.7343,39.8124 L -16.1975,40.9102 L -13.5967,41.8465 L -10.9424,42.6176 L -8.24477,43.2206
 L -5.51465,43.653 L -2.76277,43.9132 L 0,44 L 2.76277,43.9132 L 5.51465,43.653 L 8.24477,43.2206
 L 10.9424,42.6176 L 13.5967,41.8465 L 16.1975,40.9102 L 18.7343,39.8124 L 21.1972,38.5575 L 23.5764,37.1504
 L 25.8625,35.5967 L 28.0466,33.9026 L 30.1201,32.0746 L 32.0746,30.1201 L 33.9026,28.0466 L 35.5967,25.8625
 L 37.1504,23.5764 L 38.5575,21.1972 L 39.8124,18.7343 L 40.9102,16.1975 L 41.8465,13.5967 L 42.6176,10.9424
 L 43.2206,8.24477 L 43.653,5.51465 L 43.9132,2.76277 L 44,-0 L 43.9132,-2.76277 L 43.653,-5.51465
 L 43.2206,-8.24477 L 42.6176,-10.9424 L 41.8465,-13.5967 L 40.9102,-16.1975 z
M 0.0207367,-40.9993 L 2.5744,-40.9191 L 2.9727,-40.8814 L 7.06973,-21.1654 z
M -6.29283,-40.4939 L -5.13866,-40.6767 L -3.11636,-40.8679 L 4.24297,-20.1607 z
M 6.11134,-40.5226 L 7.68263,-40.2738 L 8.75813,-40.0334 L 10.007,-21.7758 z
M -12.6846,-38.9879 L -12.6697,-38.9933 L -10.1963,-39.7119 L -9.36298,-39.8982 L 1.5793,-18.7805 z
M 11.8194,-39.2403 L 12.6697,-38.9933 L 14.1278,-38.4684 L 13,-21.9805 z
M -18.9053,-36.3599 L -17.4569,-37.0979 L -15.5922,-37.9048 L -0.871628,-17.0505 z
M 17.053,-37.2727 L 17.4569,-37.0979 L 19.0123,-36.3054 L 15.993,-21.7758 z
M -24.7621,-32.6555 L -24.0992,-33.1697 L -21.9689,-34.6174 L -21.5914,-34.8407 L -3.06416,-15.0029 z
M 21.7523,-34.7455 L 21.9689,-34.6174 L 23.3722,-33.6638 L 18.9303,-21.1654 z
M 25.8874,-31.7826 L 26.1344,-31.591 L 27.1952,-30.6558 L 21.757,-20.1607 z
M -30.0199,-27.9165 L -29.8877,-28.0664 L -28.0664,-29.8877 L -27.1293,-30.7139 L -4.95741,-12.6757 z
M 29.456,-28.4982 L 29.8877,-28.0664 L 30.4918,-27.3813 L 24.4207,-18.7805 z
M -34.434,-22.2389 L -33.1697,-24.0992 L -31.9987,-25.6087 L -6.51613,-10.1124 z
M 32.4772,-24.9919 L 33.1697,-24.0992 L 33.2897,-23.9226 L 26.8716,-17.0505 z
M 34.9867,-21.3444 L 35.5949,-20.3161 L 29.0642,-15.0029 z
M -37.8167,-15.7959 L -37.0979,-17.4569 L -35.9847,-19.6417 L -7.71132,-7.36079 z
M 37.0207,-17.6085 L 37.0979,-17.4569 L 37.4566,-16.628 L 30.9574,-12.6757 z
M 38.5852,-13.8032 L 38.9136,-12.8912 L 32.5161,-10.1124 z
M -40.0236,-8.80203 L -39.7119,-10.1963 L -38.9933,-12.6697 L -38.882,-12.9789 L -8.52072,-4.47206 z
M 39.7586,-9.98749 L 39.9547,-9.11011 L 33.7113,-7.36079 z
M 40.5162,-6.15192 L 40.6489,-5.31435 L 34.5207,-4.47206 z
M -40.9191,-2.5744 L -40.6767,-5.13866 L -40.5643,-5.84814 L -8.92924,-1.5 L -40.9529,-1.5 z
M 34.9292,-1.5 L 40.9269,-2.32436 L 40.9529,-1.5 z
M 40.9269,2.32436 L 34.9292,1.5 L 40.9529,1.5 z
M -40.6767,5.13866 L -40.9191,2.5744 L -40.9529,1.5 L -8.92924,1.5 L -40.5643,5.84814 z
M 34.5207,4.47206 L 40.6489,5.31435 L 40.5162,6.15192 z
M -38.9933,12.6697 L -39.7119,10.1963 L -40.0236,8.80203 L -8.52072,4.47206 L -38.882,12.9789 z
M -37.0979,17.4569 L -37.8167,15.7959 L -7.71132,7.36079 L -35.9847,19.6417 z
M 33.7113,7.36079 L 39.9547,9.11011 L 39.7586,9.98749 z
M -33.1697,24.0992 L -34.434,22.2389 L -6.51613,10.1124 L -31.9987,25.6087 z
M 32.5161,10.1124 L 38.9136,12.8912 L 38.5852,13.8032 z
M -28.0664,29.8877 L -29.8877,28.0664 L -30.0199,27.9165 L -4.95741,12.6757 L -27.1293,30.7139 z
M 30.9574,12.6757 L 37.4566,16.628 L 37.0979,17.4569 L 37.0207,17.6085 z
M -21.9689,34.6174 L -24.0992,33.1697 L -24.7621,32.6555 L -3.06416,15.0029 L -21.5914,34.8407 z
M 29.0642,15.0029 L 35.5949,20.3161 L 34.9867,21.3444 z
M -17.4569,37.0979 L -18.9053,36.3599 L -0.871628,17.0505 L -15.5922,37.9048 z
M 26.8716,17.0505 L 33.2897,23.9226 L 33.1697,24.0992 L 32.4772,24.9919 z
M -10.1963,39.7119 L -12.6697,38.9933 L -12.6846,38.9879 L 1.5793,18.7805 L -9.36298,39.8982 z
M 24.4207,18.7805 L 30.4918,27.3813 L 29.8877,28.0664 L 29.456,28.4982 z
M -5.13866,40.6767 L -6.29283,40.4939 L 4.24297,20.1607 L -3.11636,40.8679 z
M 21.757,20.1607 L 27.1952,30.6558 L 26.1344,31.591 L 25.8874,31.7826 z
M 7.06973,21.1654 L 2.9727,40.8814 L 2.5744,40.9191 L 0.0207367,40.9993 z
M 18.9303,21.1654 L 23.3722,33.6638 L 21.9689,34.6174 L 21.7523,34.7455 z
M 10.007,21.7758 L 8.75813,40.0334 L 7.68263,40.2738 L 6.11134,40.5226 z
M 15.993,21.7758 L 19.0123,36.3054 L 17.4569,37.0979 L 17.053,37.2727 z
M 13,21.9805 L 14.1278,38.4684 L 12.6697,38.9933 L 11.8194,39.2403 z
" stroke="black" fill="lightgray" stroke-width="0.5"/>
</svg>
