  0
SECTION
  2
BLOCKS
  0
ENDSEC
  0
SECTION
  2
ENTITIES
  0
LINE
  8
0
 10
2.76277
 20
-43.9132
 11
5.51465
 21
-43.653
  0
LINE
  8
0
 10
5.51465
 20
-43.653
 11
8.24477
 21
-43.2206
  0
LINE
  8
0
 10
8.24477
 20
-43.2206
 11
10.9424
 21
-42.6176
  0
LINE
  8
0
 10
10.9424
 20
-42.6176
 11
13.5967
 21
-41.8465
  0
LINE
  8
0
 10
13.5967
 20
-41.8465
 11
16.1975
 21
-40.9102
  0
LINE
  8
0
 10
16.1975
 20
-40.9102
 11
18.7343
 21
-39.8124
  0
LINE
  8
0
 10
18.7343
 20
-39.8124
 11
21.1972
 21
-38.5575
  0
LINE
  8
0
 10
21.1972
 20
-38.5575
 11
23.5764
 21
-37.1504
  0
LINE
  8
0
 10
23.5764
 20
-37.1504
 11
25.8625
 21
-35.5967
  0
LINE
  8
0
 10
25.8625
 20
-35.5967
 11
28.0466
 21
-33.9026
  0
LINE
  8
0
 10
28.0466
 20
-33.9026
 11
30.1201
 21
-32.0746
  0
LINE
  8
0
 10
30.1201
 20
-32.0746
 11
32.0746
 21
-30.1201
  0
LINE
  8
0
 10
32.0746
 20
-30.1201
 11
33.9026
 21
-28.0466
  0
LINE
  8
0
 10
33.9026
 20
-28.0466
 11
35.5967
 21
-25.8625
  0
LINE
  8
0
 10
35.5967
 20
-25.8625
 11
37.1504
 21
-23.5764
  0
LINE
  8
0
 10
37.1504
 20
-23.5764
 11
38.5575
 21
-21.1972
  0
LINE
  8
0
 10
38.5575
 20
-21.1972
 11
39.8124
 21
-18.7343
  0
LINE
  8
0
 10
39.8124
 20
-18.7343
 11
40.9102
 21
-16.1975
  0
LINE
  8
0
 10
40.9102
 20
-16.1975
 11
41.8465
 21
-13.5967
  0
LINE
  8
0
 10
41.8465
 20
-13.5967
 11
42.6176
 21
-10.9424
  0
LINE
  8
0
 10
42.6176
 20
-10.9424
 11
43.2206
 21
-8.24477
  0
LINE
  8
0
 10
43.2206
 20
-8.24477
 11
43.653
 21
-5.51465
  0
LINE
  8
0
 10
43.653
 20
-5.51465
 11
43.9132
 21
-2.76277
  0
LINE
  8
0
 10
43.9132
 20
-2.76277
 11
44
 21
0
  0
LINE
  8
0
 10
44
 20
0
 11
43.9132
 21
2.76277
  0
LINE
  8
0
 10
43.9132
 20
2.76277
 11
43.653
 21
5.51465
  0
LINE
  8
0
 10
43.653
 20
5.51465
 11
43.2206
 21
8.24477
  0
LINE
  8
0
 10
43.2206
 20
8.24477
 11
42.6176
 21
10.9424
  0
LINE
  8
0
 10
42.6176
 20
10.9424
 11
41.8465
 21
13.5967
  0
LINE
  8
0
 10
41.8465
 20
13.5967
 11
40.9102
 21
16.1975
  0
LINE
  8
0
 10
40.9102
 20
16.1975
 11
39.8124
 21
18.7343
  0
LINE
  8
0
 10
39.8124
 20
18.7343
 11
38.5575
 21
21.1972
  0
LINE
  8
0
 10
38.5575
 20
21.1972
 11
37.1504
 21
23.5764
  0
LINE
  8
0
 10
37.1504
 20
23.5764
 11
35.5967
 21
25.8625
  0
LINE
  8
0
 10
35.5967
 20
25.8625
 11
33.9026
 21
28.0466
  0
LINE
  8
0
 10
33.9026
 20
28.0466
 11
32.0746
 21
30.1201
  0
LINE
  8
0
 10
32.0746
 20
30.1201
 11
30.1201
 21
32.0746
  0
LINE
  8
0
 10
30.1201
 20
32.0746
 11
28.0466
 21
33.9026
  0
LINE
  8
0
 10
28.0466
 20
33.9026
 11
25.8625
 21
35.5967
  0
LINE
  8
0
 10
25.8625
 20
35.5967
 11
23.5764
 21
37.1504
  0
LINE
  8
0
 10
23.5764
 20
37.1504
 11
21.1972
 21
38.5575
  0
LINE
  8
0
 10
21.1972
 20
38.5575
 11
18.7343
 21
39.8124
  0
LINE
  8
0
 10
18.7343
 20
39.8124
 11
16.1975
 21
40.9102
  0
LINE
  8
0
 10
16.1975
 20
40.9102
 11
13.5967
 21
41.8465
  0
LINE
  8
0
 10
13.5967
 20
41.8465
 11
10.9424
 21
42.6176
  0
LINE
  8
0
 10
10.9424
 20
42.6176
 11
8.24477
 21
43.2206
  0
LINE
  8
0
 10
8.24477
 20
43.2206
 11
5.51465
 21
43.653
  0
LINE
  8
0
 10
5.51465
 20
43.653
 11
2.76277
 21
43.9132
  0
LINE
  8
0
 10
2.76277
 20
43.9132
 11
0
 21
44
  0
LINE
  8
0
 10
0
 20
44
 11
-2.76277
 21
43.9132
  0
LINE
  8
0
 10
-2.76277
 20
43.9132
 11
-5.51465
 21
43.653
  0
LINE
  8
0
 10
-5.51465
 20
43.653
 11
-8.24477
 21
43.2206
  0
LINE
  8
0
 10
-8.24477
 20
43.2206
 11
-10.9424
 21
42.6176
  0
LINE
  8
0
 10
-10.9424
 20
42.6176
 11
-13.5967
 21
41.8465
  0
LINE
  8
0
 10
-13.5967
 20
41.8465
 11
-16.1975
 21
40.9102
  0
LINE
  8
0
 10
-16.1975
 20
40.9102
 11
-18.7343
 21
39.8124
  0
LINE
  8
0
 10
-18.7343
 20
39.8124
 11
-21.1972
 21
38.5575
  0
LINE
  8
0
 10
-21.1972
 20
38.5575
 11
-23.5764
 21
37.1504
  0
LINE
  8
0
 10
-23.5764
 20
37.1504
 11
-25.8625
 21
35.5967
  0
LINE
  8
0
 10
-25.8625
 20
35.5967
 11
-28.0466
 21
33.9026
  0
LINE
  8
0
 10
-28.0466
 20
33.9026
 11
-30.1201
 21
32.0746
  0
LINE
  8
0
 10
-30.1201
 20
32.0746
 11
-32.0746
 21
30.1201
  0
LINE
  8
0
 10
-32.0746
 20
30.1201
 11
-33.9026
 21
28.0466
  0
LINE
  8
0
 10
-33.9026
 20
28.0466
 11
-35.5967
 21
25.8625
  0
LINE
  8
0
 10
-35.5967
 20
25.8625
 11
-37.1504
 21
23.5764
  0
LINE
  8
0
 10
-37.1504
 20
23.5764
 11
-38.5575
 21
21.1972
  0
LINE
  8
0
 10
-38.5575
 20
21.1972
 11
-39.8124
 21
18.7343
  0
LINE
  8
0
 10
-39.8124
 20
18.7343
 11
-40.9102
 21
16.1975
  0
LINE
  8
0
 10
-40.9102
 20
16.1975
 11
-41.8465
 21
13.5967
  0
LINE
  8
0
 10
-41.8465
 20
13.5967
 11
-42.6176
 21
10.9424
  0
LINE
  8
0
 10
-42.6176
 20
10.9424
 11
-43.2206
 21
8.24477
  0
LINE
  8
0
 10
-43.2206
 20
8.24477
 11
-43.653
 21
5.51465
  0
LINE
  8
0
 10
-43.653
 20
5.51465
 11
-43.9132
 21
2.76277
  0
LINE
  8
0
 10
-43.9132
 20
2.76277
 11
-44
 21
0
  0
LINE
  8
0
 10
-44
 20
0
 11
-43.9132
 21
-2.76277
  0
LINE
  8
0
 10
-43.9132
 20
-2.76277
 11
-43.653
 21
-5.51465
  0
LINE
  8
0
 10
-43.653
 20
-5.51465
 11
-43.2206
 21
-8.24477
  0
LINE
  8
0
 10
-43.2206
 20
-8.24477
 11
-42.6176
 21
-10.9424
  0
LINE
  8
0
 10
-42.6176
 20
-10.9424
 11
-41.8465
 21
-13.5967
  0
LINE
  8
0
 10
-41.8465
 20
-13.5967
 11
-40.9102
 21
-16.1975
  0
LINE
  8
0
 10
-40.9102
 20
-16.1975
 11
-39.8124
 21
-18.7343
  0
LINE
  8
0
 10
-39.8124
 20
-18.7343
 11
-38.5575
 21
-21.1972
  0
LINE
  8
0
 10
-38.5575
 20
-21.1972
 11
-37.1504
 21
-23.5764
  0
LINE
  8
0
 10
-37.1504
 20
-23.5764
 11
-35.5967
 21
-25.8625
  0
LINE
  8
0
 10
-35.5967
 20
-25.8625
 11
-33.9026
 21
-28.0466
  0
LINE
  8
0
 10
-33.9026
 20
-28.0466
 11
-32.0746
 21
-30.1201
  0
LINE
  8
0
 10
-32.0746
 20
-30.1201
 11
-30.1201
 21
-32.0746
  0
LINE
  8
0
 10
-30.1201
 20
-32.0746
 11
-28.0466
 21
-33.9026
  0
LINE
  8
0
 10
-28.0466
 20
-33.9026
 11
-25.8625
 21
-35.5967
  0
LINE
  8
0
 10
-25.8625
 20
-35.5967
 11
-23.5764
 21
-37.1504
  0
LINE
  8
0
 10
-23.5764
 20
-37.1504
 11
-21.1972
 21
-38.5575
  0
LINE
  8
0
 10
-21.1972
 20
-38.5575
 11
-18.7343
 21
-39.8124
  0
LINE
  8
0
 10
-18.7343
 20
-39.8124
 11
-16.1975
 21
-40.9102
  0
LINE
  8
0
 10
-16.1975
 20
-40.9102
 11
-13.5967
 21
-41.8465
  0
LINE
  8
0
 10
-13.5967
 20
-41.8465
 11
-10.9424
 21
-42.6176
  0
LINE
  8
0
 10
-10.9424
 20
-42.6176
 11
-8.24477
 21
-43.2206
  0
LINE
  8
0
 10
-8.24477
 20
-43.2206
 11
-5.51465
 21
-43.653
  0
LINE
  8
0
 10
-5.51465
 20
-43.653
 11
-2.76277
 21
-43.9132
  0
LINE
  8
0
 10
-2.76277
 20
-43.9132
 11
0
 21
-44
  0
LINE
  8
0
 10
0
 20
-44
 11
2.76277
 21
-43.9132
  0
LINE
  8
0
 10
2.06071
 20
40.9352
 11
2.5744
 21
40.9191
  0
LINE
  8
0
 10
2.5744
 20
40.9191
 11
5.13866
 21
40.6767
  0
LINE
  8
0
 10
5.13866
 20
40.6767
 11
7.68263
 21
40.2738
  0
LINE
  8
0
 10
7.68263
 20
40.2738
 11
10.1963
 21
39.7119
  0
LINE
  8
0
 10
10.1963
 20
39.7119
 11
11.1061
 21
39.4476
  0
LINE
  8
0
 10
11.1061
 20
39.4476
 11
33.9358
 21
15.0029
  0
LINE
  8
0
 10
33.9358
 20
15.0029
 11
2.06071
 21
40.9352
  0
LINE
  8
0
 10
-11.6987
 20
39.2754
 11
-10.1963
 21
39.7119
  0
LINE
  8
0
 10
-10.1963
 20
39.7119
 11
-7.68263
 21
40.2738
  0
LINE
  8
0
 10
-7.68263
 20
40.2738
 11
-5.13866
 21
40.6767
  0
LINE
  8
0
 10
-5.13866
 20
40.6767
 11
-2.66287
 21
40.9107
  0
LINE
  8
0
 10
-2.66287
 20
40.9107
 11
32.0426
 21
12.6757
  0
LINE
  8
0
 10
32.0426
 20
12.6757
 11
-11.6987
 21
39.2754
  0
LINE
  8
0
 10
-23.5143
 20
33.5672
 11
-21.9689
 21
34.6174
  0
LINE
  8
0
 10
-21.9689
 20
34.6174
 11
-19.7519
 21
35.9286
  0
LINE
  8
0
 10
-19.7519
 20
35.9286
 11
-17.4569
 21
37.0979
  0
LINE
  8
0
 10
-17.4569
 20
37.0979
 11
-15.374
 21
37.9993
  0
LINE
  8
0
 10
-15.374
 20
37.9993
 11
30.4839
 21
10.1124
  0
LINE
  8
0
 10
30.4839
 20
10.1124
 11
-23.5143
 21
33.5672
  0
LINE
  8
0
 10
17.3705
 20
37.1353
 11
17.4569
 21
37.0979
  0
LINE
  8
0
 10
17.4569
 20
37.0979
 11
19.7519
 21
35.9286
  0
LINE
  8
0
 10
19.7519
 20
35.9286
 11
21.9689
 21
34.6174
  0
LINE
  8
0
 10
21.9689
 20
34.6174
 11
24.0992
 21
33.1697
  0
LINE
  8
0
 10
24.0992
 20
33.1697
 11
25.5381
 21
32.0536
  0
LINE
  8
0
 10
25.5381
 20
32.0536
 11
36.1284
 21
17.0505
  0
LINE
  8
0
 10
36.1284
 20
17.0505
 11
17.3705
 21
37.1353
  0
LINE
  8
0
 10
-32.6844
 20
24.7248
 11
-31.591
 21
26.1344
  0
LINE
  8
0
 10
-31.591
 20
26.1344
 11
-29.8877
 21
28.0664
  0
LINE
  8
0
 10
-29.8877
 20
28.0664
 11
-28.0664
 21
29.8877
  0
LINE
  8
0
 10
-28.0664
 20
29.8877
 11
-26.2534
 21
31.4861
  0
LINE
  8
0
 10
-26.2534
 20
31.4861
 11
29.2887
 21
7.36079
  0
LINE
  8
0
 10
29.2887
 20
7.36079
 11
-32.6844
 21
24.7248
  0
LINE
  8
0
 10
-38.6241
 20
13.6952
 11
-38.1208
 21
15.0931
  0
LINE
  8
0
 10
-38.1208
 20
15.0931
 11
-37.0979
 21
17.4569
  0
LINE
  8
0
 10
-37.0979
 20
17.4569
 11
-35.9286
 21
19.7519
  0
LINE
  8
0
 10
-35.9286
 20
19.7519
 11
-34.6174
 21
21.9689
  0
LINE
  8
0
 10
-34.6174
 20
21.9689
 11
-34.5135
 21
22.1218
  0
LINE
  8
0
 10
-34.5135
 20
22.1218
 11
28.4793
 21
4.47206
  0
LINE
  8
0
 10
28.4793
 20
4.47206
 11
-38.6241
 21
13.6952
  0
LINE
  8
0
 10
-40.9191
 20
2.5744
 11
-40.6767
 21
5.13866
  0
LINE
  8
0
 10
-40.6767
 20
5.13866
 11
-40.2738
 21
7.68263
  0
LINE
  8
0
 10
-40.2738
 20
7.68263
 11
-39.7119
 21
10.1963
  0
LINE
  8
0
 10
-39.7119
 20
10.1963
 11
-39.5386
 21
10.7927
  0
LINE
  8
0
 10
-39.5386
 20
10.7927
 11
28.0708
 21
1.5
  0
LINE
  8
0
 10
28.0708
 20
1.5
 11
-40.9529
 21
1.5
  0
LINE
  8
0
 10
-40.9529
 20
1.5
 11
-40.9191
 21
2.5744
  0
LINE
  8
0
 10
-39.7119
 20
-10.1963
 11
-40.2738
 21
-7.68263
  0
LINE
  8
0
 10
-40.2738
 20
-7.68263
 11
-40.6767
 21
-5.13866
  0
LINE
  8
0
 10
-40.6767
 20
-5.13866
 11
-40.9191
 21
-2.5744
  0
LINE
  8
0
 10
-40.9191
 20
-2.5744
 11
-40.9529
 21
-1.5
  0
LINE
  8
0
 10
-40.9529
 20
-1.5
 11
28.0708
 21
-1.5
  0
LINE
  8
0
 10
28.0708
 20
-1.5
 11
-39.5386
 21
-10.7927
  0
LINE
  8
0
 10
-39.5386
 20
-10.7927
 11
-39.7119
 21
-10.1963
  0
LINE
  8
0
 10
-34.6174
 20
-21.9689
 11
-35.9286
 21
-19.7519
  0
LINE
  8
0
 10
-35.9286
 20
-19.7519
 11
-37.0979
 21
-17.4569
  0
LINE
  8
0
 10
-37.0979
 20
-17.4569
 11
-38.1208
 21
-15.0931
  0
LINE
  8
0
 10
-38.1208
 20
-15.0931
 11
-38.6241
 21
-13.6952
  0
LINE
  8
0
 10
-38.6241
 20
-13.6952
 11
28.4793
 21
-4.47206
  0
LINE
  8
0
 10
28.4793
 20
-4.47206
 11
-34.5135
 21
-22.1218
  0
LINE
  8
0
 10
-34.5135
 20
-22.1218
 11
-34.6174
 21
-21.9689
  0
LINE
  8
0
 10
-28.0664
 20
-29.8877
 11
-29.8877
 21
-28.0664
  0
LINE
  8
0
 10
-29.8877
 20
-28.0664
 11
-31.591
 21
-26.1344
  0
LINE
  8
0
 10
-31.591
 20
-26.1344
 11
-32.6844
 21
-24.7248
  0
LINE
  8
0
 10
-32.6844
 20
-24.7248
 11
29.2887
 21
-7.36079
  0
LINE
  8
0
 10
29.2887
 20
-7.36079
 11
-26.2534
 21
-31.4861
  0
LINE
  8
0
 10
-26.2534
 20
-31.4861
 11
-28.0664
 21
-29.8877
  0
LINE
  8
0
 10
-17.4569
 20
-37.0979
 11
-19.7519
 21
-35.9286
  0
LINE
  8
0
 10
-19.7519
 20
-35.9286
 11
-21.9689
 21
-34.6174
  0
LINE
  8
0
 10
-21.9689
 20
-34.6174
 11
-23.5143
 21
-33.5672
  0
LINE
  8
0
 10
-23.5143
 20
-33.5672
 11
30.4839
 21
-10.1124
  0
LINE
  8
0
 10
30.4839
 20
-10.1124
 11
-15.374
 21
-37.9993
  0
LINE
  8
0
 10
-15.374
 20
-37.9993
 11
-17.4569
 21
-37.0979
  0
LINE
  8
0
 10
-5.13866
 20
-40.6767
 11
-7.68263
 21
-40.2738
  0
LINE
  8
0
 10
-7.68263
 20
-40.2738
 11
-10.1963
 21
-39.7119
  0
LINE
  8
0
 10
-10.1963
 20
-39.7119
 11
-11.6987
 21
-39.2754
  0
LINE
  8
0
 10
-11.6987
 20
-39.2754
 11
32.0426
 21
-12.6757
  0
LINE
  8
0
 10
32.0426
 20
-12.6757
 11
-2.66287
 21
-40.9107
  0
LINE
  8
0
 10
-2.66287
 20
-40.9107
 11
-5.13866
 21
-40.6767
  0
LINE
  8
0
 10
33.9358
 20
-15.0029
 11
11.1061
 21
-39.4476
  0
LINE
  8
0
 10
11.1061
 20
-39.4476
 11
10.1963
 21
-39.7119
  0
LINE
  8
0
 10
10.1963
 20
-39.7119
 11
7.68263
 21
-40.2738
  0
LINE
  8
0
 10
7.68263
 20
-40.2738
 11
5.13866
 21
-40.6767
  0
LINE
  8
0
 10
5.13866
 20
-40.6767
 11
2.5744
 21
-40.9191
  0
LINE
  8
0
 10
2.5744
 20
-40.9191
 11
2.06071
 21
-40.9352
  0
LINE
  8
0
 10
2.06071
 20
-40.9352
 11
33.9358
 21
-15.0029
  0
LINE
  8
0
 10
36.1284
 20
-17.0505
 11
25.5381
 21
-32.0536
  0
LINE
  8
0
 10
25.5381
 20
-32.0536
 11
24.0992
 21
-33.1697
  0
LINE
  8
0
 10
24.0992
 20
-33.1697
 11
21.9689
 21
-34.6174
  0
LINE
  8
0
 10
21.9689
 20
-34.6174
 11
19.7519
 21
-35.9286
  0
LINE
  8
0
 10
19.7519
 20
-35.9286
 11
17.4569
 21
-37.0979
  0
LINE
  8
0
 10
17.4569
 20
-37.0979
 11
17.3705
 21
-37.1353
  0
LINE
  8
0
 10
17.3705
 20
-37.1353
 11
36.1284
 21
-17.0505
  0
ENDSEC
  0
SECTION
  2
OBJECTS
  0
DICTIONARY
  0
ENDSEC
  0
EOF
