<?xml version="1.0" standalone="no"?>
<!DOCTYPE svg PUBLIC "-//W3C//DTD SVG 1.1//EN" "http://www.w3.org/Graphics/SVG/1.1/DTD/svg11.dtd">
<svg width="88mm" height="88mm" viewBox="-44 -44 88 88" xmlns="http://www.w3.org/2000/svg" version="1.1">
<title>OpenSCAD Model</title>
<path d="
M 2.76277,43.9132 L 4.6156,43.738 L 39.9358,15.0029 L 15.5085,41.1582 L 16.1975,40.9102 L 18.7343,39.8124
 L 21.1972,38.5575 L 23.085,37.441 L 38.9198,20.4861 L 39.8124,18.7343 L 40.9102,16.1975 L 41.8465,13.5967
 L 42.6176,10.9424 L 43.2206,8.24477 L 43.653,5.51465 L 43.9132,2.76277 L 44,-0 L 43.9132,-2.76277
 L 43.653,-5.51465 L 43.2206,-8.24477 L 42.6176,-10.9424 L 41.8465,-13.5967 L 40.9102,-16.1975 L 39.8124,-18.7343
 L 38.9198,-20.4861 L 23.085,-37.441 L 21.1972,-38.5575 L 18.7343,-39.8124 L 16.1975,-40.9102 L 15.5085,-41.1582
 L 39.9358,-15.0029 L 4.6156,-43.738 L 2.76277,-43.9132 L 0,-44 L -0.443008,-43.9861 L 38.0426,-12.6757
 L -11.1132,-42.568 L -13.5967,-41.8465 L -14.9182,-41.3707 L 36.4839,-10.1124 L -24.4293,-36.5708 L -25.8625,-35.5967
 L -27.2462,-34.5235 L 35.2887,-7.36079 L -34.7305,-26.9793 L -35.5967,-25.8625 L -36.5993,-24.3873 L 34.4793,-4.47206
 L -41.3779,-14.8984 L -41.8465,-13.5967 L -42.3108,-11.9984 L 34.0708,-1.5 L -43.9529,-1.5 L -44,-0
 L -43.9529,1.5 L 34.0708,1.5 L -42.3108,11.9984 L -41.8465,13.5967 L -41.3779,14.8984 L 34.4793,4.47206
 L -36.5993,24.3873 L -35.5967,25.8625 L -34.7305,26.9793 L 35.2887,7.36079 L -27.2462,34.5235 L -25.8625,35.5967
 L -24.4293,36.5708 L 36.4839,10.1124 L -14.9182,41.3707 L -13.5967,41.8465 L -11.1132,42.568 L 38.0426,12.6757
 L -0.443008,43.9861 L 0,44 z
" stroke="black" fill="lightgray" stroke-width="0.5"/>
</svg>
