<?xml version="1.0" standalone="no"?>
<!DOCTYPE svg PUBLIC "-//W3C//DTD SVG 1.1//EN" "http://www.w3.org/Graphics/SVG/1.1/DTD/svg11.dtd">
<svg width="88mm" height="88mm" viewBox="-44 -44 88 88" xmlns="http://www.w3.org/2000/svg" version="1.1">
<title>OpenSCAD Model</title>
<path d="
M 2.76277,43.9132 L 5.51465,43.653 L 8.24477,43.2206 L 10.9424,42.6176 L 13.5967,41.8465 L 16.1975,40.9102
 L 18.7343,39.8124 L 21.1972,38.5575 L 23.5764,37.1504 L 25.8625,35.5967 L 28.0466,33.9026 L 30.1201,32.0746
 L 32.0746,30.1201 L 33.9026,28.0466 L 35.5967,25.8625 L 37.1504,23.5764 L 38.5575,21.1972 L 39.8124,18.7343
 L 40.9102,16.1975 L 41.8465,13.5967 L 42.6176,10.9424 L 43.2206,8.24477 L 43.653,5.51465 L 43.9132,2.76277
 L 44,-0 L 43.9132,-2.76277 L 43.653,-5.51465 L 43.2206,-8.24477 L 42.6176,-10.9424 L 41.8465,-13.5967
 L 40.9102,-16.1975 L 39.8124,-18.7343 L 38.5575,-21.1972 L 37.1504,-23.5764 L 35.5967,-25.8625 L 33.9026,-28.0466
 L 32.0746,-30.1201 L 30.1201,-32.0746 L 28.0466,-33.9026 L 25.8625,-35.5967 L 23.5764,-37.1504 L 21.1972,-38.5575
 L 18.7343,-39.8124 L 16.1975,-40.9102 L 13.5967,-41.8465 L 10.9424,-42.6176 L 8.24477,-43.2206 L 5.51465,-43.653
 L 2.76277,-43.9132 L 0,-44 L -2.76277,-43.9132 L -5.51465,-43.653 L -8.24477,-43.2206 L -10.9424,-42.6176
 L -13.5967,-41.8465 L -16.1975,-40.9102 L -18.7343,-39.8124 L -21.1972,-38.5575 L -23.5764,-37.1504 L -25.8625,-35.5967
 L -28.0466,-33.9026 L -30.1201,-32.0746 L -32.0746,-30.1201 L -33.9026,-28.0466 L -35.5967,-25.8625 L -37.1504,-23.5764
 L -38.5575,-21.1972 L -39.8124,-18.7343 L -40.9102,-16.1975 L -41.8465,-13.5967 L -42.6176,-10.9424 L -43.2206,-8.24477
 L -43.653,-5.51465 L -43.9132,-2.76277 L -44,-0 L -43.9132,2.76277 L -43.653,5.51465 L -43.2206,8.24477
 L -42.6176,10.9424 L -41.8465,13.5967 L -40.9102,16.1975 L -39.8124,18.7343 L -38.5575,21.1972 L -37.1504,23.5764
 L -35.5967,25.8625 L -33.9026,28.0466 L -32.0746,30.1201 L -30.1201,32.0746 L -28.0466,33.9026 L -25.8625,35.5967
 L -23.5764,37.1504 L -21.1972,38.5575 L -18.7343,39.8124 L -16.1975,40.9102 L -13.5967,41.8465 L -10.9424,42.6176
 L -8.24477,43.2206 L -5.51465,43.653 L -2.76277,43.9132 L 0,44 z
M 2.06071,-40.9352 L 2.5744,-40.9191 L 5.13866,-40.6767 L 7.68263,-40.2738 L 10.1963,-39.7119 L 11.1061,-39.4476
 L 33.9358,-15.0029 z
M -11.6987,-39.2754 L -10.1963,-39.7119 L -7.68263,-40.2738 L -5.13866,-40.6767 L -2.66287,-40.9107 L 32.0426,-12.6757
 z
M -23.5143,-33.5672 L -21.9689,-34.6174 L -19.7519,-35.9286 L -17.4569,-37.0979 L -15.374,-37.9993 L 30.4839,-10.1124
 z
M 17.3705,-37.1353 L 17.4569,-37.0979 L 19.7519,-35.9286 L 21.9689,-34.6174 L 24.0992,-33.1697 L 25.5381,-32.0536
 L 36.1284,-17.0505 z
M -32.6844,-24.7248 L -31.591,-26.1344 L -29.8877,-28.0664 L -28.0664,-29.8877 L -26.2534,-31.4861 L 29.2887,-7.36079
 z
M -38.6241,-13.6952 L -38.1208,-15.0931 L -37.0979,-17.4569 L -35.9286,-19.7519 L -34.6174,-21.9689 L -34.5135,-22.1218
 L 28.4793,-4.47206 z
M -40.9191,-2.5744 L -40.6767,-5.13866 L -40.2738,-7.68263 L -39.7119,-10.1963 L -39.5386,-10.7927 L 28.0708,-1.5
 L -40.9529,-1.5 z
M -39.7119,10.1963 L -40.2738,7.68263 L -40.6767,5.13866 L -40.9191,2.5744 L -40.9529,1.5 L 28.0708,1.5
 L -39.5386,10.7927 z
M -34.6174,21.9689 L -35.9286,19.7519 L -37.0979,17.4569 L -38.1208,15.0931 L -38.6241,13.6952 L 28.4793,4.47206
 L -34.5135,22.1218 z
M -28.0664,29.8877 L -29.8877,28.0664 L -31.591,26.1344 L -32.6844,24.7248 L 29.2887,7.36079 L -26.2534,31.4861
 z
M -17.4569,37.0979 L -19.7519,35.9286 L -21.9689,34.6174 L -23.5143,33.5672 L 30.4839,10.1124 L -15.374,37.9993
 z
M -5.13866,40.6767 L -7.68263,40.2738 L -10.1963,39.7119 L -11.6987,39.2754 L 32.0426,12.6757 L -2.66287,40.9107
 z
M 33.9358,15.0029 L 11.1061,39.4476 L 10.1963,39.7119 L 7.68263,40.2738 L 5.13866,40.6767 L 2.5744,40.9191
 L 2.06071,40.9352 z
M 36.1284,17.0505 L 25.5381,32.0536 L 24.0992,33.1697 L 21.9689,34.6174 L 19.7519,35.9286 L 17.4569,37.0979
 L 17.3705,37.1353 z
" stroke="black" fill="lightgray" stroke-width="0.5"/>
</svg>
