  0
SECTION
  2
BLOCKS
  0
ENDSEC
  0
SECTION
  2
ENTITIES
  0
LINE
  8
0
 10
2.76277
 20
-43.9132
 11
2.84419
 21
-43.9055
  0
LINE
  8
0
 10
2.84419
 20
-43.9055
 11
20.5793
 21
-18.7805
  0
LINE
  8
0
 10
20.5793
 20
-18.7805
 11
7.88602
 21
-43.2775
  0
LINE
  8
0
 10
7.88602
 20
-43.2775
 11
8.24477
 21
-43.2206
  0
LINE
  8
0
 10
8.24477
 20
-43.2206
 11
10.9424
 21
-42.6176
  0
LINE
  8
0
 10
10.9424
 20
-42.6176
 11
11.7245
 21
-42.3904
  0
LINE
  8
0
 10
11.7245
 20
-42.3904
 11
23.243
 21
-20.1607
  0
LINE
  8
0
 10
23.243
 20
-20.1607
 11
15.8204
 21
-41.0459
  0
LINE
  8
0
 10
15.8204
 20
-41.0459
 11
16.1975
 21
-40.9102
  0
LINE
  8
0
 10
16.1975
 20
-40.9102
 11
18.7343
 21
-39.8124
  0
LINE
  8
0
 10
18.7343
 20
-39.8124
 11
19.5992
 21
-39.3717
  0
LINE
  8
0
 10
19.5992
 20
-39.3717
 11
26.0697
 21
-21.1654
  0
LINE
  8
0
 10
26.0697
 20
-21.1654
 11
22.6319
 21
-37.709
  0
LINE
  8
0
 10
22.6319
 20
-37.709
 11
23.5764
 21
-37.1504
  0
LINE
  8
0
 10
23.5764
 20
-37.1504
 11
25.8625
 21
-35.5967
  0
LINE
  8
0
 10
25.8625
 20
-35.5967
 11
26.1873
 21
-35.3448
  0
LINE
  8
0
 10
26.1873
 20
-35.3448
 11
29.007
 21
-21.7758
  0
LINE
  8
0
 10
29.007
 20
-21.7758
 11
28.1859
 21
-33.7798
  0
LINE
  8
0
 10
28.1859
 20
-33.7798
 11
30.1201
 21
-32.0746
  0
LINE
  8
0
 10
30.1201
 20
-32.0746
 11
31.3969
 21
-30.7978
  0
LINE
  8
0
 10
31.3969
 20
-30.7978
 11
32
 21
-21.9805
  0
LINE
  8
0
 10
32
 20
-21.9805
 11
32.522
 21
-29.6126
  0
LINE
  8
0
 10
32.522
 20
-29.6126
 11
33.9026
 21
-28.0466
  0
LINE
  8
0
 10
33.9026
 20
-28.0466
 11
35.2988
 21
-26.2466
  0
LINE
  8
0
 10
35.2988
 20
-26.2466
 11
34.993
 21
-21.7758
  0
LINE
  8
0
 10
34.993
 20
-21.7758
 11
35.7848
 21
-25.5859
  0
LINE
  8
0
 10
35.7848
 20
-25.5859
 11
37.1504
 21
-23.5764
  0
LINE
  8
0
 10
37.1504
 20
-23.5764
 11
38.0982
 21
-21.9737
  0
LINE
  8
0
 10
38.0982
 20
-21.9737
 11
37.9303
 21
-21.1654
  0
LINE
  8
0
 10
37.9303
 20
-21.1654
 11
38.1728
 21
-21.8477
  0
LINE
  8
0
 10
38.1728
 20
-21.8477
 11
38.5575
 21
-21.1972
  0
LINE
  8
0
 10
38.5575
 20
-21.1972
 11
39.8124
 21
-18.7343
  0
LINE
  8
0
 10
39.8124
 20
-18.7343
 11
40.9102
 21
-16.1975
  0
LINE
  8
0
 10
40.9102
 20
-16.1975
 11
41.8465
 21
-13.5967
  0
LINE
  8
0
 10
41.8465
 20
-13.5967
 11
42.6176
 21
-10.9424
  0
LINE
  8
0
 10
42.6176
 20
-10.9424
 11
43.2206
 21
-8.24477
  0
LINE
  8
0
 10
43.2206
 20
-8.24477
 11
43.653
 21
-5.51465
  0
LINE
  8
0
 10
43.653
 20
-5.51465
 11
43.9132
 21
-2.76277
  0
LINE
  8
0
 10
43.9132
 20
-2.76277
 11
44
 21
0
  0
LINE
  8
0
 10
44
 20
0
 11
43.9132
 21
2.76277
  0
LINE
  8
0
 10
43.9132
 20
2.76277
 11
43.653
 21
5.51465
  0
LINE
  8
0
 10
43.653
 20
5.51465
 11
43.2206
 21
8.24477
  0
LINE
  8
0
 10
43.2206
 20
8.24477
 11
42.6176
 21
10.9424
  0
LINE
  8
0
 10
42.6176
 20
10.9424
 11
41.8465
 21
13.5967
  0
LINE
  8
0
 10
41.8465
 20
13.5967
 11
40.9102
 21
16.1975
  0
LINE
  8
0
 10
40.9102
 20
16.1975
 11
39.8124
 21
18.7343
  0
LINE
  8
0
 10
39.8124
 20
18.7343
 11
38.5575
 21
21.1972
  0
LINE
  8
0
 10
38.5575
 20
21.1972
 11
38.1728
 21
21.8477
  0
LINE
  8
0
 10
38.1728
 20
21.8477
 11
37.9303
 21
21.1654
  0
LINE
  8
0
 10
37.9303
 20
21.1654
 11
38.0982
 21
21.9737
  0
LINE
  8
0
 10
38.0982
 20
21.9737
 11
37.1504
 21
23.5764
  0
LINE
  8
0
 10
37.1504
 20
23.5764
 11
35.7848
 21
25.5859
  0
LINE
  8
0
 10
35.7848
 20
25.5859
 11
34.993
 21
21.7758
  0
LINE
  8
0
 10
34.993
 20
21.7758
 11
35.2988
 21
26.2466
  0
LINE
  8
0
 10
35.2988
 20
26.2466
 11
33.9026
 21
28.0466
  0
LINE
  8
0
 10
33.9026
 20
28.0466
 11
32.522
 21
29.6126
  0
LINE
  8
0
 10
32.522
 20
29.6126
 11
32
 21
21.9805
  0
LINE
  8
0
 10
32
 20
21.9805
 11
31.3969
 21
30.7978
  0
LINE
  8
0
 10
31.3969
 20
30.7978
 11
30.1201
 21
32.0746
  0
LINE
  8
0
 10
30.1201
 20
32.0746
 11
28.1859
 21
33.7798
  0
LINE
  8
0
 10
28.1859
 20
33.7798
 11
29.007
 21
21.7758
  0
LINE
  8
0
 10
29.007
 20
21.7758
 11
26.1873
 21
35.3448
  0
LINE
  8
0
 10
26.1873
 20
35.3448
 11
25.8625
 21
35.5967
  0
LINE
  8
0
 10
25.8625
 20
35.5967
 11
23.5764
 21
37.1504
  0
LINE
  8
0
 10
23.5764
 20
37.1504
 11
22.6319
 21
37.709
  0
LINE
  8
0
 10
22.6319
 20
37.709
 11
26.0697
 21
21.1654
  0
LINE
  8
0
 10
26.0697
 20
21.1654
 11
19.5992
 21
39.3717
  0
LINE
  8
0
 10
19.5992
 20
39.3717
 11
18.7343
 21
39.8124
  0
LINE
  8
0
 10
18.7343
 20
39.8124
 11
16.1975
 21
40.9102
  0
LINE
  8
0
 10
16.1975
 20
40.9102
 11
15.8204
 21
41.0459
  0
LINE
  8
0
 10
15.8204
 20
41.0459
 11
23.243
 21
20.1607
  0
LINE
  8
0
 10
23.243
 20
20.1607
 11
11.7245
 21
42.3904
  0
LINE
  8
0
 10
11.7245
 20
42.3904
 11
10.9424
 21
42.6176
  0
LINE
  8
0
 10
10.9424
 20
42.6176
 11
8.24477
 21
43.2206
  0
LINE
  8
0
 10
8.24477
 20
43.2206
 11
7.88602
 21
43.2775
  0
LINE
  8
0
 10
7.88602
 20
43.2775
 11
20.5793
 21
18.7805
  0
LINE
  8
0
 10
20.5793
 20
18.7805
 11
2.84419
 21
43.9055
  0
LINE
  8
0
 10
2.84419
 20
43.9055
 11
2.76277
 21
43.9132
  0
LINE
  8
0
 10
2.76277
 20
43.9132
 11
0
 21
44
  0
LINE
  8
0
 10
0
 20
44
 11
-0.875229
 21
43.9725
  0
LINE
  8
0
 10
-0.875229
 20
43.9725
 11
18.1284
 21
17.0505
  0
LINE
  8
0
 10
18.1284
 20
17.0505
 11
-6.56175
 21
43.4872
  0
LINE
  8
0
 10
-6.56175
 20
43.4872
 11
-8.24477
 21
43.2206
  0
LINE
  8
0
 10
-8.24477
 20
43.2206
 11
-10.0424
 21
42.8188
  0
LINE
  8
0
 10
-10.0424
 20
42.8188
 11
15.9358
 21
15.0029
  0
LINE
  8
0
 10
15.9358
 20
15.0029
 11
-15.9971
 21
40.9823
  0
LINE
  8
0
 10
-15.9971
 20
40.9823
 11
-16.1975
 21
40.9102
  0
LINE
  8
0
 10
-16.1975
 20
40.9102
 11
-18.7343
 21
39.8124
  0
LINE
  8
0
 10
-18.7343
 20
39.8124
 11
-19.09
 21
39.6311
  0
LINE
  8
0
 10
-19.09
 20
39.6311
 11
14.0426
 21
12.6757
  0
LINE
  8
0
 10
14.0426
 20
12.6757
 11
-24.8174
 21
36.307
  0
LINE
  8
0
 10
-24.8174
 20
36.307
 11
-25.8625
 21
35.5967
  0
LINE
  8
0
 10
-25.8625
 20
35.5967
 11
-27.4273
 21
34.383
  0
LINE
  8
0
 10
-27.4273
 20
34.383
 11
12.4839
 21
10.1124
  0
LINE
  8
0
 10
12.4839
 20
10.1124
 11
-32.491
 21
29.6478
  0
LINE
  8
0
 10
-32.491
 20
29.6478
 11
-33.9026
 21
28.0466
  0
LINE
  8
0
 10
-33.9026
 20
28.0466
 11
-34.5156
 21
27.2564
  0
LINE
  8
0
 10
-34.5156
 20
27.2564
 11
11.2887
 21
7.36079
  0
LINE
  8
0
 10
11.2887
 20
7.36079
 11
-38.4916
 21
21.3086
  0
LINE
  8
0
 10
-38.4916
 20
21.3086
 11
-38.5575
 21
21.1972
  0
LINE
  8
0
 10
-38.5575
 20
21.1972
 11
-39.8124
 21
18.7343
  0
LINE
  8
0
 10
-39.8124
 20
18.7343
 11
-39.8784
 21
18.5816
  0
LINE
  8
0
 10
-39.8784
 20
18.5816
 11
10.4793
 21
4.47206
  0
LINE
  8
0
 10
10.4793
 20
4.47206
 11
-42.3864
 21
11.7383
  0
LINE
  8
0
 10
-42.3864
 20
11.7383
 11
-42.6176
 21
10.9424
  0
LINE
  8
0
 10
-42.6176
 20
10.9424
 11
-43.0948
 21
8.80745
  0
LINE
  8
0
 10
-43.0948
 20
8.80745
 11
10.0708
 21
1.5
  0
LINE
  8
0
 10
10.0708
 20
1.5
 11
-43.9529
 21
1.5
  0
LINE
  8
0
 10
-43.9529
 20
1.5
 11
-44
 21
0
  0
LINE
  8
0
 10
-44
 20
0
 11
-43.9529
 21
-1.5
  0
LINE
  8
0
 10
-43.9529
 20
-1.5
 11
10.0708
 21
-1.5
  0
LINE
  8
0
 10
10.0708
 20
-1.5
 11
-43.0948
 21
-8.80745
  0
LINE
  8
0
 10
-43.0948
 20
-8.80745
 11
-42.6176
 21
-10.9424
  0
LINE
  8
0
 10
-42.6176
 20
-10.9424
 11
-42.3864
 21
-11.7383
  0
LINE
  8
0
 10
-42.3864
 20
-11.7383
 11
10.4793
 21
-4.47206
  0
LINE
  8
0
 10
10.4793
 20
-4.47206
 11
-39.8784
 21
-18.5816
  0
LINE
  8
0
 10
-39.8784
 20
-18.5816
 11
-39.8124
 21
-18.7343
  0
LINE
  8
0
 10
-39.8124
 20
-18.7343
 11
-38.5575
 21
-21.1972
  0
LINE
  8
0
 10
-38.5575
 20
-21.1972
 11
-38.4916
 21
-21.3086
  0
LINE
  8
0
 10
-38.4916
 20
-21.3086
 11
11.2887
 21
-7.36079
  0
LINE
  8
0
 10
11.2887
 20
-7.36079
 11
-34.5156
 21
-27.2564
  0
LINE
  8
0
 10
-34.5156
 20
-27.2564
 11
-33.9026
 21
-28.0466
  0
LINE
  8
0
 10
-33.9026
 20
-28.0466
 11
-32.491
 21
-29.6478
  0
LINE
  8
0
 10
-32.491
 20
-29.6478
 11
12.4839
 21
-10.1124
  0
LINE
  8
0
 10
12.4839
 20
-10.1124
 11
-27.4273
 21
-34.383
  0
LINE
  8
0
 10
-27.4273
 20
-34.383
 11
-25.8625
 21
-35.5967
  0
LINE
  8
0
 10
-25.8625
 20
-35.5967
 11
-24.8174
 21
-36.307
  0
LINE
  8
0
 10
-24.8174
 20
-36.307
 11
14.0426
 21
-12.6757
  0
LINE
  8
0
 10
14.0426
 20
-12.6757
 11
-19.09
 21
-39.6311
  0
LINE
  8
0
 10
-19.09
 20
-39.6311
 11
-18.7343
 21
-39.8124
  0
LINE
  8
0
 10
-18.7343
 20
-39.8124
 11
-16.1975
 21
-40.9102
  0
LINE
  8
0
 10
-16.1975
 20
-40.9102
 11
-15.9971
 21
-40.9823
  0
LINE
  8
0
 10
-15.9971
 20
-40.9823
 11
15.9358
 21
-15.0029
  0
LINE
  8
0
 10
15.9358
 20
-15.0029
 11
-10.0424
 21
-42.8188
  0
LINE
  8
0
 10
-10.0424
 20
-42.8188
 11
-8.24477
 21
-43.2206
  0
LINE
  8
0
 10
-8.24477
 20
-43.2206
 11
-6.56175
 21
-43.4872
  0
LINE
  8
0
 10
-6.56175
 20
-43.4872
 11
18.1284
 21
-17.0505
  0
LINE
  8
0
 10
18.1284
 20
-17.0505
 11
-0.875229
 21
-43.9725
  0
LINE
  8
0
 10
-0.875229
 20
-43.9725
 11
0
 21
-44
  0
LINE
  8
0
 10
0
 20
-44
 11
2.76277
 21
-43.9132
  0
ENDSEC
  0
SECTION
  2
OBJECTS
  0
DICTIONARY
  0
ENDSEC
  0
EOF
