  0
SECTION
  2
BLOCKS
  0
ENDSEC
  0
SECTION
  2
ENTITIES
  0
LINE
  8
0
 10
191.5
 20
229.6
 11
0
 21
229.6
  0
LINE
  8
0
 10
0
 20
229.6
 11
0
 21
115.3
  0
LINE
  8
0
 10
0
 20
115.3
 11
191.5
 21
115.3
  0
LINE
  8
0
 10
191.5
 20
115.3
 11
191.5
 21
229.6
  0
LINE
  8
0
 10
4.26511
 20
223.478
 11
4.15565
 21
223.489
  0
LINE
  8
0
 10
4.15565
 20
223.489
 11
4.04707
 21
223.506
  0
LINE
  8
0
 10
4.04707
 20
223.506
 11
3.93979
 21
223.53
  0
LINE
  8
0
 10
3.93979
 20
223.53
 11
3.83421
 21
223.561
  0
LINE
  8
0
 10
3.83421
 20
223.561
 11
3.73077
 21
223.598
  0
LINE
  8
0
 10
3.73077
 20
223.598
 11
3.62988
 21
223.642
  0
LINE
  8
0
 10
3.62988
 20
223.642
 11
3.53192
 21
223.691
  0
LINE
  8
0
 10
3.53192
 20
223.691
 11
3.4373
 21
223.747
  0
LINE
  8
0
 10
3.4373
 20
223.747
 11
3.34637
 21
223.809
  0
LINE
  8
0
 10
3.34637
 20
223.809
 11
3.25951
 21
223.877
  0
LINE
  8
0
 10
3.25951
 20
223.877
 11
3.17703
 21
223.949
  0
LINE
  8
0
 10
3.17703
 20
223.949
 11
3.0993
 21
224.027
  0
LINE
  8
0
 10
3.0993
 20
224.027
 11
3.0266
 21
224.109
  0
LINE
  8
0
 10
3.0266
 20
224.109
 11
2.95921
 21
224.196
  0
LINE
  8
0
 10
2.95921
 20
224.196
 11
2.89742
 21
224.287
  0
LINE
  8
0
 10
2.89742
 20
224.287
 11
2.84146
 21
224.382
  0
LINE
  8
0
 10
2.84146
 20
224.382
 11
2.79155
 21
224.48
  0
LINE
  8
0
 10
2.79155
 20
224.48
 11
2.74788
 21
224.581
  0
LINE
  8
0
 10
2.74788
 20
224.581
 11
2.71065
 21
224.684
  0
LINE
  8
0
 10
2.71065
 20
224.684
 11
2.67998
 21
224.79
  0
LINE
  8
0
 10
2.67998
 20
224.79
 11
2.65599
 21
224.897
  0
LINE
  8
0
 10
2.65599
 20
224.897
 11
2.63879
 21
225.006
  0
LINE
  8
0
 10
2.63879
 20
225.006
 11
2.62845
 21
225.115
  0
LINE
  8
0
 10
2.62845
 20
225.115
 11
2.625
 21
225.225
  0
LINE
  8
0
 10
2.625
 20
225.225
 11
2.62845
 21
225.335
  0
LINE
  8
0
 10
2.62845
 20
225.335
 11
2.63879
 21
225.444
  0
LINE
  8
0
 10
2.63879
 20
225.444
 11
2.65599
 21
225.553
  0
LINE
  8
0
 10
2.65599
 20
225.553
 11
2.67998
 21
225.66
  0
LINE
  8
0
 10
2.67998
 20
225.66
 11
2.71065
 21
225.766
  0
LINE
  8
0
 10
2.71065
 20
225.766
 11
2.74788
 21
225.869
  0
LINE
  8
0
 10
2.74788
 20
225.869
 11
2.79155
 21
225.97
  0
LINE
  8
0
 10
2.79155
 20
225.97
 11
2.84146
 21
226.068
  0
LINE
  8
0
 10
2.84146
 20
226.068
 11
2.89742
 21
226.163
  0
LINE
  8
0
 10
2.89742
 20
226.163
 11
2.95921
 21
226.254
  0
LINE
  8
0
 10
2.95921
 20
226.254
 11
3.0266
 21
226.34
  0
LINE
  8
0
 10
3.0266
 20
226.34
 11
3.0993
 21
226.423
  0
LINE
  8
0
 10
3.0993
 20
226.423
 11
3.17703
 21
226.501
  0
LINE
  8
0
 10
3.17703
 20
226.501
 11
3.25951
 21
226.573
  0
LINE
  8
0
 10
3.25951
 20
226.573
 11
3.34637
 21
226.641
  0
LINE
  8
0
 10
3.34637
 20
226.641
 11
3.4373
 21
226.703
  0
LINE
  8
0
 10
3.4373
 20
226.703
 11
3.53192
 21
226.759
  0
LINE
  8
0
 10
3.53192
 20
226.759
 11
3.62988
 21
226.808
  0
LINE
  8
0
 10
3.62988
 20
226.808
 11
3.73077
 21
226.852
  0
LINE
  8
0
 10
3.73077
 20
226.852
 11
3.83421
 21
226.889
  0
LINE
  8
0
 10
3.83421
 20
226.889
 11
3.93979
 21
226.92
  0
LINE
  8
0
 10
3.93979
 20
226.92
 11
4.04707
 21
226.944
  0
LINE
  8
0
 10
4.04707
 20
226.944
 11
4.15565
 21
226.961
  0
LINE
  8
0
 10
4.15565
 20
226.961
 11
4.26511
 21
226.972
  0
LINE
  8
0
 10
4.26511
 20
226.972
 11
4.375
 21
226.975
  0
LINE
  8
0
 10
4.375
 20
226.975
 11
4.48488
 21
226.972
  0
LINE
  8
0
 10
4.48488
 20
226.972
 11
4.59433
 21
226.961
  0
LINE
  8
0
 10
4.59433
 20
226.961
 11
4.70291
 21
226.944
  0
LINE
  8
0
 10
4.70291
 20
226.944
 11
4.8102
 21
226.92
  0
LINE
  8
0
 10
4.8102
 20
226.92
 11
4.91577
 21
226.889
  0
LINE
  8
0
 10
4.91577
 20
226.889
 11
5.01921
 21
226.852
  0
LINE
  8
0
 10
5.01921
 20
226.852
 11
5.1201
 21
226.808
  0
LINE
  8
0
 10
5.1201
 20
226.808
 11
5.21806
 21
226.759
  0
LINE
  8
0
 10
5.21806
 20
226.759
 11
5.31268
 21
226.703
  0
LINE
  8
0
 10
5.31268
 20
226.703
 11
5.40361
 21
226.641
  0
LINE
  8
0
 10
5.40361
 20
226.641
 11
5.49048
 21
226.573
  0
LINE
  8
0
 10
5.49048
 20
226.573
 11
5.57295
 21
226.501
  0
LINE
  8
0
 10
5.57295
 20
226.501
 11
5.65068
 21
226.423
  0
LINE
  8
0
 10
5.65068
 20
226.423
 11
5.72339
 21
226.34
  0
LINE
  8
0
 10
5.72339
 20
226.34
 11
5.79077
 21
226.254
  0
LINE
  8
0
 10
5.79077
 20
226.254
 11
5.85257
 21
226.163
  0
LINE
  8
0
 10
5.85257
 20
226.163
 11
5.90852
 21
226.068
  0
LINE
  8
0
 10
5.90852
 20
226.068
 11
5.95844
 21
225.97
  0
LINE
  8
0
 10
5.95844
 20
225.97
 11
6.00211
 21
225.869
  0
LINE
  8
0
 10
6.00211
 20
225.869
 11
6.03934
 21
225.766
  0
LINE
  8
0
 10
6.03934
 20
225.766
 11
6.07001
 21
225.66
  0
LINE
  8
0
 10
6.07001
 20
225.66
 11
6.09399
 21
225.553
  0
LINE
  8
0
 10
6.09399
 20
225.553
 11
6.11119
 21
225.444
  0
LINE
  8
0
 10
6.11119
 20
225.444
 11
6.12154
 21
225.335
  0
LINE
  8
0
 10
6.12154
 20
225.335
 11
6.125
 21
225.225
  0
LINE
  8
0
 10
6.125
 20
225.225
 11
6.12154
 21
225.115
  0
LINE
  8
0
 10
6.12154
 20
225.115
 11
6.11119
 21
225.006
  0
LINE
  8
0
 10
6.11119
 20
225.006
 11
6.09399
 21
224.897
  0
LINE
  8
0
 10
6.09399
 20
224.897
 11
6.07001
 21
224.79
  0
LINE
  8
0
 10
6.07001
 20
224.79
 11
6.03934
 21
224.684
  0
LINE
  8
0
 10
6.03934
 20
224.684
 11
6.00211
 21
224.581
  0
LINE
  8
0
 10
6.00211
 20
224.581
 11
5.95844
 21
224.48
  0
LINE
  8
0
 10
5.95844
 20
224.48
 11
5.90852
 21
224.382
  0
LINE
  8
0
 10
5.90852
 20
224.382
 11
5.85257
 21
224.287
  0
LINE
  8
0
 10
5.85257
 20
224.287
 11
5.79077
 21
224.196
  0
LINE
  8
0
 10
5.79077
 20
224.196
 11
5.72339
 21
224.109
  0
LINE
  8
0
 10
5.72339
 20
224.109
 11
5.65068
 21
224.027
  0
LINE
  8
0
 10
5.65068
 20
224.027
 11
5.57295
 21
223.949
  0
LINE
  8
0
 10
5.57295
 20
223.949
 11
5.49048
 21
223.877
  0
LINE
  8
0
 10
5.49048
 20
223.877
 11
5.40361
 21
223.809
  0
LINE
  8
0
 10
5.40361
 20
223.809
 11
5.31268
 21
223.747
  0
LINE
  8
0
 10
5.31268
 20
223.747
 11
5.21806
 21
223.691
  0
LINE
  8
0
 10
5.21806
 20
223.691
 11
5.1201
 21
223.642
  0
LINE
  8
0
 10
5.1201
 20
223.642
 11
5.01921
 21
223.598
  0
LINE
  8
0
 10
5.01921
 20
223.598
 11
4.91577
 21
223.561
  0
LINE
  8
0
 10
4.91577
 20
223.561
 11
4.8102
 21
223.53
  0
LINE
  8
0
 10
4.8102
 20
223.53
 11
4.70291
 21
223.506
  0
LINE
  8
0
 10
4.70291
 20
223.506
 11
4.59433
 21
223.489
  0
LINE
  8
0
 10
4.59433
 20
223.489
 11
4.48488
 21
223.478
  0
LINE
  8
0
 10
4.48488
 20
223.478
 11
4.375
 21
223.475
  0
LINE
  8
0
 10
4.375
 20
223.475
 11
4.26511
 21
223.478
  0
LINE
  8
0
 10
187.015
 20
223.478
 11
186.906
 21
223.489
  0
LINE
  8
0
 10
186.906
 20
223.489
 11
186.797
 21
223.506
  0
LINE
  8
0
 10
186.797
 20
223.506
 11
186.69
 21
223.53
  0
LINE
  8
0
 10
186.69
 20
223.53
 11
186.584
 21
223.561
  0
LINE
  8
0
 10
186.584
 20
223.561
 11
186.481
 21
223.598
  0
LINE
  8
0
 10
186.481
 20
223.598
 11
186.38
 21
223.642
  0
LINE
  8
0
 10
186.38
 20
223.642
 11
186.282
 21
223.691
  0
LINE
  8
0
 10
186.282
 20
223.691
 11
186.187
 21
223.747
  0
LINE
  8
0
 10
186.187
 20
223.747
 11
186.096
 21
223.809
  0
LINE
  8
0
 10
186.096
 20
223.809
 11
186.01
 21
223.877
  0
LINE
  8
0
 10
186.01
 20
223.877
 11
185.927
 21
223.949
  0
LINE
  8
0
 10
185.927
 20
223.949
 11
185.849
 21
224.027
  0
LINE
  8
0
 10
185.849
 20
224.027
 11
185.777
 21
224.109
  0
LINE
  8
0
 10
185.777
 20
224.109
 11
185.709
 21
224.196
  0
LINE
  8
0
 10
185.709
 20
224.196
 11
185.647
 21
224.287
  0
LINE
  8
0
 10
185.647
 20
224.287
 11
185.591
 21
224.382
  0
LINE
  8
0
 10
185.591
 20
224.382
 11
185.542
 21
224.48
  0
LINE
  8
0
 10
185.542
 20
224.48
 11
185.498
 21
224.581
  0
LINE
  8
0
 10
185.498
 20
224.581
 11
185.461
 21
224.684
  0
LINE
  8
0
 10
185.461
 20
224.684
 11
185.43
 21
224.79
  0
LINE
  8
0
 10
185.43
 20
224.79
 11
185.406
 21
224.897
  0
LINE
  8
0
 10
185.406
 20
224.897
 11
185.389
 21
225.006
  0
LINE
  8
0
 10
185.389
 20
225.006
 11
185.378
 21
225.115
  0
LINE
  8
0
 10
185.378
 20
225.115
 11
185.375
 21
225.225
  0
LINE
  8
0
 10
185.375
 20
225.225
 11
185.378
 21
225.335
  0
LINE
  8
0
 10
185.378
 20
225.335
 11
185.389
 21
225.444
  0
LINE
  8
0
 10
185.389
 20
225.444
 11
185.406
 21
225.553
  0
LINE
  8
0
 10
185.406
 20
225.553
 11
185.43
 21
225.66
  0
LINE
  8
0
 10
185.43
 20
225.66
 11
185.461
 21
225.766
  0
LINE
  8
0
 10
185.461
 20
225.766
 11
185.498
 21
225.869
  0
LINE
  8
0
 10
185.498
 20
225.869
 11
185.542
 21
225.97
  0
LINE
  8
0
 10
185.542
 20
225.97
 11
185.591
 21
226.068
  0
LINE
  8
0
 10
185.591
 20
226.068
 11
185.647
 21
226.163
  0
LINE
  8
0
 10
185.647
 20
226.163
 11
185.709
 21
226.254
  0
LINE
  8
0
 10
185.709
 20
226.254
 11
185.777
 21
226.34
  0
LINE
  8
0
 10
185.777
 20
226.34
 11
185.849
 21
226.423
  0
LINE
  8
0
 10
185.849
 20
226.423
 11
185.927
 21
226.501
  0
LINE
  8
0
 10
185.927
 20
226.501
 11
186.01
 21
226.573
  0
LINE
  8
0
 10
186.01
 20
226.573
 11
186.096
 21
226.641
  0
LINE
  8
0
 10
186.096
 20
226.641
 11
186.187
 21
226.703
  0
LINE
  8
0
 10
186.187
 20
226.703
 11
186.282
 21
226.759
  0
LINE
  8
0
 10
186.282
 20
226.759
 11
186.38
 21
226.808
  0
LINE
  8
0
 10
186.38
 20
226.808
 11
186.481
 21
226.852
  0
LINE
  8
0
 10
186.481
 20
226.852
 11
186.584
 21
226.889
  0
LINE
  8
0
 10
186.584
 20
226.889
 11
186.69
 21
226.92
  0
LINE
  8
0
 10
186.69
 20
226.92
 11
186.797
 21
226.944
  0
LINE
  8
0
 10
186.797
 20
226.944
 11
186.906
 21
226.961
  0
LINE
  8
0
 10
186.906
 20
226.961
 11
187.015
 21
226.972
  0
LINE
  8
0
 10
187.015
 20
226.972
 11
187.125
 21
226.975
  0
LINE
  8
0
 10
187.125
 20
226.975
 11
187.235
 21
226.972
  0
LINE
  8
0
 10
187.235
 20
226.972
 11
187.344
 21
226.961
  0
LINE
  8
0
 10
187.344
 20
226.961
 11
187.453
 21
226.944
  0
LINE
  8
0
 10
187.453
 20
226.944
 11
187.56
 21
226.92
  0
LINE
  8
0
 10
187.56
 20
226.92
 11
187.666
 21
226.889
  0
LINE
  8
0
 10
187.666
 20
226.889
 11
187.769
 21
226.852
  0
LINE
  8
0
 10
187.769
 20
226.852
 11
187.87
 21
226.808
  0
LINE
  8
0
 10
187.87
 20
226.808
 11
187.968
 21
226.759
  0
LINE
  8
0
 10
187.968
 20
226.759
 11
188.063
 21
226.703
  0
LINE
  8
0
 10
188.063
 20
226.703
 11
188.154
 21
226.641
  0
LINE
  8
0
 10
188.154
 20
226.641
 11
188.24
 21
226.573
  0
LINE
  8
0
 10
188.24
 20
226.573
 11
188.323
 21
226.501
  0
LINE
  8
0
 10
188.323
 20
226.501
 11
188.401
 21
226.423
  0
LINE
  8
0
 10
188.401
 20
226.423
 11
188.473
 21
226.34
  0
LINE
  8
0
 10
188.473
 20
226.34
 11
188.541
 21
226.254
  0
LINE
  8
0
 10
188.541
 20
226.254
 11
188.603
 21
226.163
  0
LINE
  8
0
 10
188.603
 20
226.163
 11
188.659
 21
226.068
  0
LINE
  8
0
 10
188.659
 20
226.068
 11
188.708
 21
225.97
  0
LINE
  8
0
 10
188.708
 20
225.97
 11
188.752
 21
225.869
  0
LINE
  8
0
 10
188.752
 20
225.869
 11
188.789
 21
225.766
  0
LINE
  8
0
 10
188.789
 20
225.766
 11
188.82
 21
225.66
  0
LINE
  8
0
 10
188.82
 20
225.66
 11
188.844
 21
225.553
  0
LINE
  8
0
 10
188.844
 20
225.553
 11
188.861
 21
225.444
  0
LINE
  8
0
 10
188.861
 20
225.444
 11
188.872
 21
225.335
  0
LINE
  8
0
 10
188.872
 20
225.335
 11
188.875
 21
225.225
  0
LINE
  8
0
 10
188.875
 20
225.225
 11
188.872
 21
225.115
  0
LINE
  8
0
 10
188.872
 20
225.115
 11
188.861
 21
225.006
  0
LINE
  8
0
 10
188.861
 20
225.006
 11
188.844
 21
224.897
  0
LINE
  8
0
 10
188.844
 20
224.897
 11
188.82
 21
224.79
  0
LINE
  8
0
 10
188.82
 20
224.79
 11
188.789
 21
224.684
  0
LINE
  8
0
 10
188.789
 20
224.684
 11
188.752
 21
224.581
  0
LINE
  8
0
 10
188.752
 20
224.581
 11
188.708
 21
224.48
  0
LINE
  8
0
 10
188.708
 20
224.48
 11
188.659
 21
224.382
  0
LINE
  8
0
 10
188.659
 20
224.382
 11
188.603
 21
224.287
  0
LINE
  8
0
 10
188.603
 20
224.287
 11
188.541
 21
224.196
  0
LINE
  8
0
 10
188.541
 20
224.196
 11
188.473
 21
224.109
  0
LINE
  8
0
 10
188.473
 20
224.109
 11
188.401
 21
224.027
  0
LINE
  8
0
 10
188.401
 20
224.027
 11
188.323
 21
223.949
  0
LINE
  8
0
 10
188.323
 20
223.949
 11
188.24
 21
223.877
  0
LINE
  8
0
 10
188.24
 20
223.877
 11
188.154
 21
223.809
  0
LINE
  8
0
 10
188.154
 20
223.809
 11
188.063
 21
223.747
  0
LINE
  8
0
 10
188.063
 20
223.747
 11
187.968
 21
223.691
  0
LINE
  8
0
 10
187.968
 20
223.691
 11
187.87
 21
223.642
  0
LINE
  8
0
 10
187.87
 20
223.642
 11
187.769
 21
223.598
  0
LINE
  8
0
 10
187.769
 20
223.598
 11
187.666
 21
223.561
  0
LINE
  8
0
 10
187.666
 20
223.561
 11
187.56
 21
223.53
  0
LINE
  8
0
 10
187.56
 20
223.53
 11
187.453
 21
223.506
  0
LINE
  8
0
 10
187.453
 20
223.506
 11
187.344
 21
223.489
  0
LINE
  8
0
 10
187.344
 20
223.489
 11
187.235
 21
223.478
  0
LINE
  8
0
 10
187.235
 20
223.478
 11
187.125
 21
223.475
  0
LINE
  8
0
 10
187.125
 20
223.475
 11
187.015
 21
223.478
  0
LINE
  8
0
 10
152.75
 20
124.05
 11
152.75
 21
220.85
  0
LINE
  8
0
 10
152.75
 20
220.85
 11
158.75
 21
220.85
  0
LINE
  8
0
 10
158.75
 20
220.85
 11
158.75
 21
124.05
  0
LINE
  8
0
 10
158.75
 20
124.05
 11
152.75
 21
124.05
  0
LINE
  8
0
 10
44.75
 20
124.05
 11
44.75
 21
220.85
  0
LINE
  8
0
 10
44.75
 20
220.85
 11
50.75
 21
220.85
  0
LINE
  8
0
 10
50.75
 20
220.85
 11
50.75
 21
124.05
  0
LINE
  8
0
 10
50.75
 20
124.05
 11
44.75
 21
124.05
  0
LINE
  8
0
 10
56.75
 20
124.05
 11
56.75
 21
220.85
  0
LINE
  8
0
 10
56.75
 20
220.85
 11
62.75
 21
220.85
  0
LINE
  8
0
 10
62.75
 20
220.85
 11
62.75
 21
124.05
  0
LINE
  8
0
 10
62.75
 20
124.05
 11
56.75
 21
124.05
  0
LINE
  8
0
 10
68.75
 20
124.05
 11
68.75
 21
220.85
  0
LINE
  8
0
 10
68.75
 20
220.85
 11
74.75
 21
220.85
  0
LINE
  8
0
 10
74.75
 20
220.85
 11
74.75
 21
124.05
  0
LINE
  8
0
 10
74.75
 20
124.05
 11
68.75
 21
124.05
  0
LINE
  8
0
 10
80.75
 20
124.05
 11
80.75
 21
220.85
  0
LINE
  8
0
 10
80.75
 20
220.85
 11
86.75
 21
220.85
  0
LINE
  8
0
 10
86.75
 20
220.85
 11
86.75
 21
124.05
  0
LINE
  8
0
 10
86.75
 20
124.05
 11
80.75
 21
124.05
  0
LINE
  8
0
 10
92.75
 20
124.05
 11
92.75
 21
220.85
  0
LINE
  8
0
 10
92.75
 20
220.85
 11
98.75
 21
220.85
  0
LINE
  8
0
 10
98.75
 20
220.85
 11
98.75
 21
124.05
  0
LINE
  8
0
 10
98.75
 20
124.05
 11
92.75
 21
124.05
  0
LINE
  8
0
 10
104.75
 20
124.05
 11
104.75
 21
220.85
  0
LINE
  8
0
 10
104.75
 20
220.85
 11
110.75
 21
220.85
  0
LINE
  8
0
 10
110.75
 20
220.85
 11
110.75
 21
124.05
  0
LINE
  8
0
 10
110.75
 20
124.05
 11
104.75
 21
124.05
  0
LINE
  8
0
 10
116.75
 20
124.05
 11
116.75
 21
220.85
  0
LINE
  8
0
 10
116.75
 20
220.85
 11
122.75
 21
220.85
  0
LINE
  8
0
 10
122.75
 20
220.85
 11
122.75
 21
124.05
  0
LINE
  8
0
 10
122.75
 20
124.05
 11
116.75
 21
124.05
  0
LINE
  8
0
 10
128.75
 20
124.05
 11
128.75
 21
220.85
  0
LINE
  8
0
 10
128.75
 20
220.85
 11
134.75
 21
220.85
  0
LINE
  8
0
 10
134.75
 20
220.85
 11
134.75
 21
124.05
  0
LINE
  8
0
 10
134.75
 20
124.05
 11
128.75
 21
124.05
  0
LINE
  8
0
 10
140.75
 20
124.05
 11
140.75
 21
220.85
  0
LINE
  8
0
 10
140.75
 20
220.85
 11
146.75
 21
220.85
  0
LINE
  8
0
 10
146.75
 20
220.85
 11
146.75
 21
124.05
  0
LINE
  8
0
 10
146.75
 20
124.05
 11
140.75
 21
124.05
  0
LINE
  8
0
 10
164.75
 20
124.05
 11
164.75
 21
220.85
  0
LINE
  8
0
 10
164.75
 20
220.85
 11
170.75
 21
220.85
  0
LINE
  8
0
 10
170.75
 20
220.85
 11
170.75
 21
124.05
  0
LINE
  8
0
 10
170.75
 20
124.05
 11
164.75
 21
124.05
  0
LINE
  8
0
 10
176.75
 20
124.05
 11
176.75
 21
220.85
  0
LINE
  8
0
 10
176.75
 20
220.85
 11
182.75
 21
220.85
  0
LINE
  8
0
 10
182.75
 20
220.85
 11
182.75
 21
124.05
  0
LINE
  8
0
 10
182.75
 20
124.05
 11
176.75
 21
124.05
  0
LINE
  8
0
 10
32.75
 20
124.05
 11
32.75
 21
220.85
  0
LINE
  8
0
 10
32.75
 20
220.85
 11
38.75
 21
220.85
  0
LINE
  8
0
 10
38.75
 20
220.85
 11
38.75
 21
124.05
  0
LINE
  8
0
 10
38.75
 20
124.05
 11
32.75
 21
124.05
  0
LINE
  8
0
 10
20.75
 20
124.05
 11
20.75
 21
220.85
  0
LINE
  8
0
 10
20.75
 20
220.85
 11
26.75
 21
220.85
  0
LINE
  8
0
 10
26.75
 20
220.85
 11
26.75
 21
124.05
  0
LINE
  8
0
 10
26.75
 20
124.05
 11
20.75
 21
124.05
  0
LINE
  8
0
 10
8.75
 20
124.05
 11
8.75
 21
220.85
  0
LINE
  8
0
 10
8.75
 20
220.85
 11
14.75
 21
220.85
  0
LINE
  8
0
 10
14.75
 20
220.85
 11
14.75
 21
124.05
  0
LINE
  8
0
 10
14.75
 20
124.05
 11
8.75
 21
124.05
  0
LINE
  8
0
 10
4.26511
 20
117.928
 11
4.15565
 21
117.939
  0
LINE
  8
0
 10
4.15565
 20
117.939
 11
4.04707
 21
117.956
  0
LINE
  8
0
 10
4.04707
 20
117.956
 11
3.93979
 21
117.98
  0
LINE
  8
0
 10
3.93979
 20
117.98
 11
3.83421
 21
118.011
  0
LINE
  8
0
 10
3.83421
 20
118.011
 11
3.73077
 21
118.048
  0
LINE
  8
0
 10
3.73077
 20
118.048
 11
3.62988
 21
118.092
  0
LINE
  8
0
 10
3.62988
 20
118.092
 11
3.53192
 21
118.141
  0
LINE
  8
0
 10
3.53192
 20
118.141
 11
3.4373
 21
118.197
  0
LINE
  8
0
 10
3.4373
 20
118.197
 11
3.34637
 21
118.259
  0
LINE
  8
0
 10
3.34637
 20
118.259
 11
3.25951
 21
118.327
  0
LINE
  8
0
 10
3.25951
 20
118.327
 11
3.17703
 21
118.399
  0
LINE
  8
0
 10
3.17703
 20
118.399
 11
3.0993
 21
118.477
  0
LINE
  8
0
 10
3.0993
 20
118.477
 11
3.0266
 21
118.559
  0
LINE
  8
0
 10
3.0266
 20
118.559
 11
2.95921
 21
118.646
  0
LINE
  8
0
 10
2.95921
 20
118.646
 11
2.89742
 21
118.737
  0
LINE
  8
0
 10
2.89742
 20
118.737
 11
2.84146
 21
118.832
  0
LINE
  8
0
 10
2.84146
 20
118.832
 11
2.79155
 21
118.93
  0
LINE
  8
0
 10
2.79155
 20
118.93
 11
2.74788
 21
119.031
  0
LINE
  8
0
 10
2.74788
 20
119.031
 11
2.71065
 21
119.134
  0
LINE
  8
0
 10
2.71065
 20
119.134
 11
2.67998
 21
119.24
  0
LINE
  8
0
 10
2.67998
 20
119.24
 11
2.65599
 21
119.347
  0
LINE
  8
0
 10
2.65599
 20
119.347
 11
2.63879
 21
119.456
  0
LINE
  8
0
 10
2.63879
 20
119.456
 11
2.62845
 21
119.565
  0
LINE
  8
0
 10
2.62845
 20
119.565
 11
2.625
 21
119.675
  0
LINE
  8
0
 10
2.625
 20
119.675
 11
2.62845
 21
119.785
  0
LINE
  8
0
 10
2.62845
 20
119.785
 11
2.63879
 21
119.894
  0
LINE
  8
0
 10
2.63879
 20
119.894
 11
2.65599
 21
120.003
  0
LINE
  8
0
 10
2.65599
 20
120.003
 11
2.67998
 21
120.11
  0
LINE
  8
0
 10
2.67998
 20
120.11
 11
2.71065
 21
120.216
  0
LINE
  8
0
 10
2.71065
 20
120.216
 11
2.74788
 21
120.319
  0
LINE
  8
0
 10
2.74788
 20
120.319
 11
2.79155
 21
120.42
  0
LINE
  8
0
 10
2.79155
 20
120.42
 11
2.84146
 21
120.518
  0
LINE
  8
0
 10
2.84146
 20
120.518
 11
2.89742
 21
120.613
  0
LINE
  8
0
 10
2.89742
 20
120.613
 11
2.95921
 21
120.704
  0
LINE
  8
0
 10
2.95921
 20
120.704
 11
3.0266
 21
120.79
  0
LINE
  8
0
 10
3.0266
 20
120.79
 11
3.0993
 21
120.873
  0
LINE
  8
0
 10
3.0993
 20
120.873
 11
3.17703
 21
120.951
  0
LINE
  8
0
 10
3.17703
 20
120.951
 11
3.25951
 21
121.023
  0
LINE
  8
0
 10
3.25951
 20
121.023
 11
3.34637
 21
121.091
  0
LINE
  8
0
 10
3.34637
 20
121.091
 11
3.4373
 21
121.153
  0
LINE
  8
0
 10
3.4373
 20
121.153
 11
3.53192
 21
121.209
  0
LINE
  8
0
 10
3.53192
 20
121.209
 11
3.62988
 21
121.258
  0
LINE
  8
0
 10
3.62988
 20
121.258
 11
3.73077
 21
121.302
  0
LINE
  8
0
 10
3.73077
 20
121.302
 11
3.83421
 21
121.339
  0
LINE
  8
0
 10
3.83421
 20
121.339
 11
3.93979
 21
121.37
  0
LINE
  8
0
 10
3.93979
 20
121.37
 11
4.04707
 21
121.394
  0
LINE
  8
0
 10
4.04707
 20
121.394
 11
4.15565
 21
121.411
  0
LINE
  8
0
 10
4.15565
 20
121.411
 11
4.26511
 21
121.422
  0
LINE
  8
0
 10
4.26511
 20
121.422
 11
4.375
 21
121.425
  0
LINE
  8
0
 10
4.375
 20
121.425
 11
4.48488
 21
121.422
  0
LINE
  8
0
 10
4.48488
 20
121.422
 11
4.59433
 21
121.411
  0
LINE
  8
0
 10
4.59433
 20
121.411
 11
4.70291
 21
121.394
  0
LINE
  8
0
 10
4.70291
 20
121.394
 11
4.8102
 21
121.37
  0
LINE
  8
0
 10
4.8102
 20
121.37
 11
4.91577
 21
121.339
  0
LINE
  8
0
 10
4.91577
 20
121.339
 11
5.01921
 21
121.302
  0
LINE
  8
0
 10
5.01921
 20
121.302
 11
5.1201
 21
121.258
  0
LINE
  8
0
 10
5.1201
 20
121.258
 11
5.21806
 21
121.209
  0
LINE
  8
0
 10
5.21806
 20
121.209
 11
5.31268
 21
121.153
  0
LINE
  8
0
 10
5.31268
 20
121.153
 11
5.40361
 21
121.091
  0
LINE
  8
0
 10
5.40361
 20
121.091
 11
5.49048
 21
121.023
  0
LINE
  8
0
 10
5.49048
 20
121.023
 11
5.57295
 21
120.951
  0
LINE
  8
0
 10
5.57295
 20
120.951
 11
5.65068
 21
120.873
  0
LINE
  8
0
 10
5.65068
 20
120.873
 11
5.72339
 21
120.79
  0
LINE
  8
0
 10
5.72339
 20
120.79
 11
5.79077
 21
120.704
  0
LINE
  8
0
 10
5.79077
 20
120.704
 11
5.85257
 21
120.613
  0
LINE
  8
0
 10
5.85257
 20
120.613
 11
5.90852
 21
120.518
  0
LINE
  8
0
 10
5.90852
 20
120.518
 11
5.95844
 21
120.42
  0
LINE
  8
0
 10
5.95844
 20
120.42
 11
6.00211
 21
120.319
  0
LINE
  8
0
 10
6.00211
 20
120.319
 11
6.03934
 21
120.216
  0
LINE
  8
0
 10
6.03934
 20
120.216
 11
6.07001
 21
120.11
  0
LINE
  8
0
 10
6.07001
 20
120.11
 11
6.09399
 21
120.003
  0
LINE
  8
0
 10
6.09399
 20
120.003
 11
6.11119
 21
119.894
  0
LINE
  8
0
 10
6.11119
 20
119.894
 11
6.12154
 21
119.785
  0
LINE
  8
0
 10
6.12154
 20
119.785
 11
6.125
 21
119.675
  0
LINE
  8
0
 10
6.125
 20
119.675
 11
6.12154
 21
119.565
  0
LINE
  8
0
 10
6.12154
 20
119.565
 11
6.11119
 21
119.456
  0
LINE
  8
0
 10
6.11119
 20
119.456
 11
6.09399
 21
119.347
  0
LINE
  8
0
 10
6.09399
 20
119.347
 11
6.07001
 21
119.24
  0
LINE
  8
0
 10
6.07001
 20
119.24
 11
6.03934
 21
119.134
  0
LINE
  8
0
 10
6.03934
 20
119.134
 11
6.00211
 21
119.031
  0
LINE
  8
0
 10
6.00211
 20
119.031
 11
5.95844
 21
118.93
  0
LINE
  8
0
 10
5.95844
 20
118.93
 11
5.90852
 21
118.832
  0
LINE
  8
0
 10
5.90852
 20
118.832
 11
5.85257
 21
118.737
  0
LINE
  8
0
 10
5.85257
 20
118.737
 11
5.79077
 21
118.646
  0
LINE
  8
0
 10
5.79077
 20
118.646
 11
5.72339
 21
118.559
  0
LINE
  8
0
 10
5.72339
 20
118.559
 11
5.65068
 21
118.477
  0
LINE
  8
0
 10
5.65068
 20
118.477
 11
5.57295
 21
118.399
  0
LINE
  8
0
 10
5.57295
 20
118.399
 11
5.49048
 21
118.327
  0
LINE
  8
0
 10
5.49048
 20
118.327
 11
5.40361
 21
118.259
  0
LINE
  8
0
 10
5.40361
 20
118.259
 11
5.31268
 21
118.197
  0
LINE
  8
0
 10
5.31268
 20
118.197
 11
5.21806
 21
118.141
  0
LINE
  8
0
 10
5.21806
 20
118.141
 11
5.1201
 21
118.092
  0
LINE
  8
0
 10
5.1201
 20
118.092
 11
5.01921
 21
118.048
  0
LINE
  8
0
 10
5.01921
 20
118.048
 11
4.91577
 21
118.011
  0
LINE
  8
0
 10
4.91577
 20
118.011
 11
4.8102
 21
117.98
  0
LINE
  8
0
 10
4.8102
 20
117.98
 11
4.70291
 21
117.956
  0
LINE
  8
0
 10
4.70291
 20
117.956
 11
4.59433
 21
117.939
  0
LINE
  8
0
 10
4.59433
 20
117.939
 11
4.48488
 21
117.928
  0
LINE
  8
0
 10
4.48488
 20
117.928
 11
4.375
 21
117.925
  0
LINE
  8
0
 10
4.375
 20
117.925
 11
4.26511
 21
117.928
  0
LINE
  8
0
 10
187.015
 20
117.928
 11
186.906
 21
117.939
  0
LINE
  8
0
 10
186.906
 20
117.939
 11
186.797
 21
117.956
  0
LINE
  8
0
 10
186.797
 20
117.956
 11
186.69
 21
117.98
  0
LINE
  8
0
 10
186.69
 20
117.98
 11
186.584
 21
118.011
  0
LINE
  8
0
 10
186.584
 20
118.011
 11
186.481
 21
118.048
  0
LINE
  8
0
 10
186.481
 20
118.048
 11
186.38
 21
118.092
  0
LINE
  8
0
 10
186.38
 20
118.092
 11
186.282
 21
118.141
  0
LINE
  8
0
 10
186.282
 20
118.141
 11
186.187
 21
118.197
  0
LINE
  8
0
 10
186.187
 20
118.197
 11
186.096
 21
118.259
  0
LINE
  8
0
 10
186.096
 20
118.259
 11
186.01
 21
118.327
  0
LINE
  8
0
 10
186.01
 20
118.327
 11
185.927
 21
118.399
  0
LINE
  8
0
 10
185.927
 20
118.399
 11
185.849
 21
118.477
  0
LINE
  8
0
 10
185.849
 20
118.477
 11
185.777
 21
118.559
  0
LINE
  8
0
 10
185.777
 20
118.559
 11
185.709
 21
118.646
  0
LINE
  8
0
 10
185.709
 20
118.646
 11
185.647
 21
118.737
  0
LINE
  8
0
 10
185.647
 20
118.737
 11
185.591
 21
118.832
  0
LINE
  8
0
 10
185.591
 20
118.832
 11
185.542
 21
118.93
  0
LINE
  8
0
 10
185.542
 20
118.93
 11
185.498
 21
119.031
  0
LINE
  8
0
 10
185.498
 20
119.031
 11
185.461
 21
119.134
  0
LINE
  8
0
 10
185.461
 20
119.134
 11
185.43
 21
119.24
  0
LINE
  8
0
 10
185.43
 20
119.24
 11
185.406
 21
119.347
  0
LINE
  8
0
 10
185.406
 20
119.347
 11
185.389
 21
119.456
  0
LINE
  8
0
 10
185.389
 20
119.456
 11
185.378
 21
119.565
  0
LINE
  8
0
 10
185.378
 20
119.565
 11
185.375
 21
119.675
  0
LINE
  8
0
 10
185.375
 20
119.675
 11
185.378
 21
119.785
  0
LINE
  8
0
 10
185.378
 20
119.785
 11
185.389
 21
119.894
  0
LINE
  8
0
 10
185.389
 20
119.894
 11
185.406
 21
120.003
  0
LINE
  8
0
 10
185.406
 20
120.003
 11
185.43
 21
120.11
  0
LINE
  8
0
 10
185.43
 20
120.11
 11
185.461
 21
120.216
  0
LINE
  8
0
 10
185.461
 20
120.216
 11
185.498
 21
120.319
  0
LINE
  8
0
 10
185.498
 20
120.319
 11
185.542
 21
120.42
  0
LINE
  8
0
 10
185.542
 20
120.42
 11
185.591
 21
120.518
  0
LINE
  8
0
 10
185.591
 20
120.518
 11
185.647
 21
120.613
  0
LINE
  8
0
 10
185.647
 20
120.613
 11
185.709
 21
120.704
  0
LINE
  8
0
 10
185.709
 20
120.704
 11
185.777
 21
120.79
  0
LINE
  8
0
 10
185.777
 20
120.79
 11
185.849
 21
120.873
  0
LINE
  8
0
 10
185.849
 20
120.873
 11
185.927
 21
120.951
  0
LINE
  8
0
 10
185.927
 20
120.951
 11
186.01
 21
121.023
  0
LINE
  8
0
 10
186.01
 20
121.023
 11
186.096
 21
121.091
  0
LINE
  8
0
 10
186.096
 20
121.091
 11
186.187
 21
121.153
  0
LINE
  8
0
 10
186.187
 20
121.153
 11
186.282
 21
121.209
  0
LINE
  8
0
 10
186.282
 20
121.209
 11
186.38
 21
121.258
  0
LINE
  8
0
 10
186.38
 20
121.258
 11
186.481
 21
121.302
  0
LINE
  8
0
 10
186.481
 20
121.302
 11
186.584
 21
121.339
  0
LINE
  8
0
 10
186.584
 20
121.339
 11
186.69
 21
121.37
  0
LINE
  8
0
 10
186.69
 20
121.37
 11
186.797
 21
121.394
  0
LINE
  8
0
 10
186.797
 20
121.394
 11
186.906
 21
121.411
  0
LINE
  8
0
 10
186.906
 20
121.411
 11
187.015
 21
121.422
  0
LINE
  8
0
 10
187.015
 20
121.422
 11
187.125
 21
121.425
  0
LINE
  8
0
 10
187.125
 20
121.425
 11
187.235
 21
121.422
  0
LINE
  8
0
 10
187.235
 20
121.422
 11
187.344
 21
121.411
  0
LINE
  8
0
 10
187.344
 20
121.411
 11
187.453
 21
121.394
  0
LINE
  8
0
 10
187.453
 20
121.394
 11
187.56
 21
121.37
  0
LINE
  8
0
 10
187.56
 20
121.37
 11
187.666
 21
121.339
  0
LINE
  8
0
 10
187.666
 20
121.339
 11
187.769
 21
121.302
  0
LINE
  8
0
 10
187.769
 20
121.302
 11
187.87
 21
121.258
  0
LINE
  8
0
 10
187.87
 20
121.258
 11
187.968
 21
121.209
  0
LINE
  8
0
 10
187.968
 20
121.209
 11
188.063
 21
121.153
  0
LINE
  8
0
 10
188.063
 20
121.153
 11
188.154
 21
121.091
  0
LINE
  8
0
 10
188.154
 20
121.091
 11
188.24
 21
121.023
  0
LINE
  8
0
 10
188.24
 20
121.023
 11
188.323
 21
120.951
  0
LINE
  8
0
 10
188.323
 20
120.951
 11
188.401
 21
120.873
  0
LINE
  8
0
 10
188.401
 20
120.873
 11
188.473
 21
120.79
  0
LINE
  8
0
 10
188.473
 20
120.79
 11
188.541
 21
120.704
  0
LINE
  8
0
 10
188.541
 20
120.704
 11
188.603
 21
120.613
  0
LINE
  8
0
 10
188.603
 20
120.613
 11
188.659
 21
120.518
  0
LINE
  8
0
 10
188.659
 20
120.518
 11
188.708
 21
120.42
  0
LINE
  8
0
 10
188.708
 20
120.42
 11
188.752
 21
120.319
  0
LINE
  8
0
 10
188.752
 20
120.319
 11
188.789
 21
120.216
  0
LINE
  8
0
 10
188.789
 20
120.216
 11
188.82
 21
120.11
  0
LINE
  8
0
 10
188.82
 20
120.11
 11
188.844
 21
120.003
  0
LINE
  8
0
 10
188.844
 20
120.003
 11
188.861
 21
119.894
  0
LINE
  8
0
 10
188.861
 20
119.894
 11
188.872
 21
119.785
  0
LINE
  8
0
 10
188.872
 20
119.785
 11
188.875
 21
119.675
  0
LINE
  8
0
 10
188.875
 20
119.675
 11
188.872
 21
119.565
  0
LINE
  8
0
 10
188.872
 20
119.565
 11
188.861
 21
119.456
  0
LINE
  8
0
 10
188.861
 20
119.456
 11
188.844
 21
119.347
  0
LINE
  8
0
 10
188.844
 20
119.347
 11
188.82
 21
119.24
  0
LINE
  8
0
 10
188.82
 20
119.24
 11
188.789
 21
119.134
  0
LINE
  8
0
 10
188.789
 20
119.134
 11
188.752
 21
119.031
  0
LINE
  8
0
 10
188.752
 20
119.031
 11
188.708
 21
118.93
  0
LINE
  8
0
 10
188.708
 20
118.93
 11
188.659
 21
118.832
  0
LINE
  8
0
 10
188.659
 20
118.832
 11
188.603
 21
118.737
  0
LINE
  8
0
 10
188.603
 20
118.737
 11
188.541
 21
118.646
  0
LINE
  8
0
 10
188.541
 20
118.646
 11
188.473
 21
118.559
  0
LINE
  8
0
 10
188.473
 20
118.559
 11
188.401
 21
118.477
  0
LINE
  8
0
 10
188.401
 20
118.477
 11
188.323
 21
118.399
  0
LINE
  8
0
 10
188.323
 20
118.399
 11
188.24
 21
118.327
  0
LINE
  8
0
 10
188.24
 20
118.327
 11
188.154
 21
118.259
  0
LINE
  8
0
 10
188.154
 20
118.259
 11
188.063
 21
118.197
  0
LINE
  8
0
 10
188.063
 20
118.197
 11
187.968
 21
118.141
  0
LINE
  8
0
 10
187.968
 20
118.141
 11
187.87
 21
118.092
  0
LINE
  8
0
 10
187.87
 20
118.092
 11
187.769
 21
118.048
  0
LINE
  8
0
 10
187.769
 20
118.048
 11
187.666
 21
118.011
  0
LINE
  8
0
 10
187.666
 20
118.011
 11
187.56
 21
117.98
  0
LINE
  8
0
 10
187.56
 20
117.98
 11
187.453
 21
117.956
  0
LINE
  8
0
 10
187.453
 20
117.956
 11
187.344
 21
117.939
  0
LINE
  8
0
 10
187.344
 20
117.939
 11
187.235
 21
117.928
  0
LINE
  8
0
 10
187.235
 20
117.928
 11
187.125
 21
117.925
  0
LINE
  8
0
 10
187.125
 20
117.925
 11
187.015
 21
117.928
  0
LINE
  8
0
 10
191.5
 20
114.3
 11
0
 21
114.3
  0
LINE
  8
0
 10
0
 20
114.3
 11
0
 21
0
  0
LINE
  8
0
 10
0
 20
0
 11
191.5
 21
0
  0
LINE
  8
0
 10
191.5
 20
0
 11
191.5
 21
114.3
  0
LINE
  8
0
 10
187.015
 20
108.178
 11
186.906
 21
108.189
  0
LINE
  8
0
 10
186.906
 20
108.189
 11
186.797
 21
108.206
  0
LINE
  8
0
 10
186.797
 20
108.206
 11
186.69
 21
108.23
  0
LINE
  8
0
 10
186.69
 20
108.23
 11
186.584
 21
108.261
  0
LINE
  8
0
 10
186.584
 20
108.261
 11
186.481
 21
108.298
  0
LINE
  8
0
 10
186.481
 20
108.298
 11
186.38
 21
108.342
  0
LINE
  8
0
 10
186.38
 20
108.342
 11
186.282
 21
108.391
  0
LINE
  8
0
 10
186.282
 20
108.391
 11
186.187
 21
108.447
  0
LINE
  8
0
 10
186.187
 20
108.447
 11
186.096
 21
108.509
  0
LINE
  8
0
 10
186.096
 20
108.509
 11
186.01
 21
108.577
  0
LINE
  8
0
 10
186.01
 20
108.577
 11
185.927
 21
108.649
  0
LINE
  8
0
 10
185.927
 20
108.649
 11
185.849
 21
108.727
  0
LINE
  8
0
 10
185.849
 20
108.727
 11
185.777
 21
108.809
  0
LINE
  8
0
 10
185.777
 20
108.809
 11
185.709
 21
108.896
  0
LINE
  8
0
 10
185.709
 20
108.896
 11
185.647
 21
108.987
  0
LINE
  8
0
 10
185.647
 20
108.987
 11
185.591
 21
109.082
  0
LINE
  8
0
 10
185.591
 20
109.082
 11
185.542
 21
109.18
  0
LINE
  8
0
 10
185.542
 20
109.18
 11
185.498
 21
109.281
  0
LINE
  8
0
 10
185.498
 20
109.281
 11
185.461
 21
109.384
  0
LINE
  8
0
 10
185.461
 20
109.384
 11
185.43
 21
109.49
  0
LINE
  8
0
 10
185.43
 20
109.49
 11
185.406
 21
109.597
  0
LINE
  8
0
 10
185.406
 20
109.597
 11
185.389
 21
109.706
  0
LINE
  8
0
 10
185.389
 20
109.706
 11
185.378
 21
109.815
  0
LINE
  8
0
 10
185.378
 20
109.815
 11
185.375
 21
109.925
  0
LINE
  8
0
 10
185.375
 20
109.925
 11
185.378
 21
110.035
  0
LINE
  8
0
 10
185.378
 20
110.035
 11
185.389
 21
110.144
  0
LINE
  8
0
 10
185.389
 20
110.144
 11
185.406
 21
110.253
  0
LINE
  8
0
 10
185.406
 20
110.253
 11
185.43
 21
110.36
  0
LINE
  8
0
 10
185.43
 20
110.36
 11
185.461
 21
110.466
  0
LINE
  8
0
 10
185.461
 20
110.466
 11
185.498
 21
110.569
  0
LINE
  8
0
 10
185.498
 20
110.569
 11
185.542
 21
110.67
  0
LINE
  8
0
 10
185.542
 20
110.67
 11
185.591
 21
110.768
  0
LINE
  8
0
 10
185.591
 20
110.768
 11
185.647
 21
110.863
  0
LINE
  8
0
 10
185.647
 20
110.863
 11
185.709
 21
110.954
  0
LINE
  8
0
 10
185.709
 20
110.954
 11
185.777
 21
111.04
  0
LINE
  8
0
 10
185.777
 20
111.04
 11
185.849
 21
111.123
  0
LINE
  8
0
 10
185.849
 20
111.123
 11
185.927
 21
111.201
  0
LINE
  8
0
 10
185.927
 20
111.201
 11
186.01
 21
111.273
  0
LINE
  8
0
 10
186.01
 20
111.273
 11
186.096
 21
111.341
  0
LINE
  8
0
 10
186.096
 20
111.341
 11
186.187
 21
111.403
  0
LINE
  8
0
 10
186.187
 20
111.403
 11
186.282
 21
111.459
  0
LINE
  8
0
 10
186.282
 20
111.459
 11
186.38
 21
111.508
  0
LINE
  8
0
 10
186.38
 20
111.508
 11
186.481
 21
111.552
  0
LINE
  8
0
 10
186.481
 20
111.552
 11
186.584
 21
111.589
  0
LINE
  8
0
 10
186.584
 20
111.589
 11
186.69
 21
111.62
  0
LINE
  8
0
 10
186.69
 20
111.62
 11
186.797
 21
111.644
  0
LINE
  8
0
 10
186.797
 20
111.644
 11
186.906
 21
111.661
  0
LINE
  8
0
 10
186.906
 20
111.661
 11
187.015
 21
111.672
  0
LINE
  8
0
 10
187.015
 20
111.672
 11
187.125
 21
111.675
  0
LINE
  8
0
 10
187.125
 20
111.675
 11
187.235
 21
111.672
  0
LINE
  8
0
 10
187.235
 20
111.672
 11
187.344
 21
111.661
  0
LINE
  8
0
 10
187.344
 20
111.661
 11
187.453
 21
111.644
  0
LINE
  8
0
 10
187.453
 20
111.644
 11
187.56
 21
111.62
  0
LINE
  8
0
 10
187.56
 20
111.62
 11
187.666
 21
111.589
  0
LINE
  8
0
 10
187.666
 20
111.589
 11
187.769
 21
111.552
  0
LINE
  8
0
 10
187.769
 20
111.552
 11
187.87
 21
111.508
  0
LINE
  8
0
 10
187.87
 20
111.508
 11
187.968
 21
111.459
  0
LINE
  8
0
 10
187.968
 20
111.459
 11
188.063
 21
111.403
  0
LINE
  8
0
 10
188.063
 20
111.403
 11
188.154
 21
111.341
  0
LINE
  8
0
 10
188.154
 20
111.341
 11
188.24
 21
111.273
  0
LINE
  8
0
 10
188.24
 20
111.273
 11
188.323
 21
111.201
  0
LINE
  8
0
 10
188.323
 20
111.201
 11
188.401
 21
111.123
  0
LINE
  8
0
 10
188.401
 20
111.123
 11
188.473
 21
111.04
  0
LINE
  8
0
 10
188.473
 20
111.04
 11
188.541
 21
110.954
  0
LINE
  8
0
 10
188.541
 20
110.954
 11
188.603
 21
110.863
  0
LINE
  8
0
 10
188.603
 20
110.863
 11
188.659
 21
110.768
  0
LINE
  8
0
 10
188.659
 20
110.768
 11
188.708
 21
110.67
  0
LINE
  8
0
 10
188.708
 20
110.67
 11
188.752
 21
110.569
  0
LINE
  8
0
 10
188.752
 20
110.569
 11
188.789
 21
110.466
  0
LINE
  8
0
 10
188.789
 20
110.466
 11
188.82
 21
110.36
  0
LINE
  8
0
 10
188.82
 20
110.36
 11
188.844
 21
110.253
  0
LINE
  8
0
 10
188.844
 20
110.253
 11
188.861
 21
110.144
  0
LINE
  8
0
 10
188.861
 20
110.144
 11
188.872
 21
110.035
  0
LINE
  8
0
 10
188.872
 20
110.035
 11
188.875
 21
109.925
  0
LINE
  8
0
 10
188.875
 20
109.925
 11
188.872
 21
109.815
  0
LINE
  8
0
 10
188.872
 20
109.815
 11
188.861
 21
109.706
  0
LINE
  8
0
 10
188.861
 20
109.706
 11
188.844
 21
109.597
  0
LINE
  8
0
 10
188.844
 20
109.597
 11
188.82
 21
109.49
  0
LINE
  8
0
 10
188.82
 20
109.49
 11
188.789
 21
109.384
  0
LINE
  8
0
 10
188.789
 20
109.384
 11
188.752
 21
109.281
  0
LINE
  8
0
 10
188.752
 20
109.281
 11
188.708
 21
109.18
  0
LINE
  8
0
 10
188.708
 20
109.18
 11
188.659
 21
109.082
  0
LINE
  8
0
 10
188.659
 20
109.082
 11
188.603
 21
108.987
  0
LINE
  8
0
 10
188.603
 20
108.987
 11
188.541
 21
108.896
  0
LINE
  8
0
 10
188.541
 20
108.896
 11
188.473
 21
108.809
  0
LINE
  8
0
 10
188.473
 20
108.809
 11
188.401
 21
108.727
  0
LINE
  8
0
 10
188.401
 20
108.727
 11
188.323
 21
108.649
  0
LINE
  8
0
 10
188.323
 20
108.649
 11
188.24
 21
108.577
  0
LINE
  8
0
 10
188.24
 20
108.577
 11
188.154
 21
108.509
  0
LINE
  8
0
 10
188.154
 20
108.509
 11
188.063
 21
108.447
  0
LINE
  8
0
 10
188.063
 20
108.447
 11
187.968
 21
108.391
  0
LINE
  8
0
 10
187.968
 20
108.391
 11
187.87
 21
108.342
  0
LINE
  8
0
 10
187.87
 20
108.342
 11
187.769
 21
108.298
  0
LINE
  8
0
 10
187.769
 20
108.298
 11
187.666
 21
108.261
  0
LINE
  8
0
 10
187.666
 20
108.261
 11
187.56
 21
108.23
  0
LINE
  8
0
 10
187.56
 20
108.23
 11
187.453
 21
108.206
  0
LINE
  8
0
 10
187.453
 20
108.206
 11
187.344
 21
108.189
  0
LINE
  8
0
 10
187.344
 20
108.189
 11
187.235
 21
108.178
  0
LINE
  8
0
 10
187.235
 20
108.178
 11
187.125
 21
108.175
  0
LINE
  8
0
 10
187.125
 20
108.175
 11
187.015
 21
108.178
  0
LINE
  8
0
 10
4.26511
 20
108.178
 11
4.15565
 21
108.189
  0
LINE
  8
0
 10
4.15565
 20
108.189
 11
4.04707
 21
108.206
  0
LINE
  8
0
 10
4.04707
 20
108.206
 11
3.93979
 21
108.23
  0
LINE
  8
0
 10
3.93979
 20
108.23
 11
3.83421
 21
108.261
  0
LINE
  8
0
 10
3.83421
 20
108.261
 11
3.73077
 21
108.298
  0
LINE
  8
0
 10
3.73077
 20
108.298
 11
3.62988
 21
108.342
  0
LINE
  8
0
 10
3.62988
 20
108.342
 11
3.53192
 21
108.391
  0
LINE
  8
0
 10
3.53192
 20
108.391
 11
3.4373
 21
108.447
  0
LINE
  8
0
 10
3.4373
 20
108.447
 11
3.34637
 21
108.509
  0
LINE
  8
0
 10
3.34637
 20
108.509
 11
3.25951
 21
108.577
  0
LINE
  8
0
 10
3.25951
 20
108.577
 11
3.17703
 21
108.649
  0
LINE
  8
0
 10
3.17703
 20
108.649
 11
3.0993
 21
108.727
  0
LINE
  8
0
 10
3.0993
 20
108.727
 11
3.0266
 21
108.809
  0
LINE
  8
0
 10
3.0266
 20
108.809
 11
2.95921
 21
108.896
  0
LINE
  8
0
 10
2.95921
 20
108.896
 11
2.89742
 21
108.987
  0
LINE
  8
0
 10
2.89742
 20
108.987
 11
2.84146
 21
109.082
  0
LINE
  8
0
 10
2.84146
 20
109.082
 11
2.79155
 21
109.18
  0
LINE
  8
0
 10
2.79155
 20
109.18
 11
2.74788
 21
109.281
  0
LINE
  8
0
 10
2.74788
 20
109.281
 11
2.71065
 21
109.384
  0
LINE
  8
0
 10
2.71065
 20
109.384
 11
2.67998
 21
109.49
  0
LINE
  8
0
 10
2.67998
 20
109.49
 11
2.65599
 21
109.597
  0
LINE
  8
0
 10
2.65599
 20
109.597
 11
2.63879
 21
109.706
  0
LINE
  8
0
 10
2.63879
 20
109.706
 11
2.62845
 21
109.815
  0
LINE
  8
0
 10
2.62845
 20
109.815
 11
2.625
 21
109.925
  0
LINE
  8
0
 10
2.625
 20
109.925
 11
2.62845
 21
110.035
  0
LINE
  8
0
 10
2.62845
 20
110.035
 11
2.63879
 21
110.144
  0
LINE
  8
0
 10
2.63879
 20
110.144
 11
2.65599
 21
110.253
  0
LINE
  8
0
 10
2.65599
 20
110.253
 11
2.67998
 21
110.36
  0
LINE
  8
0
 10
2.67998
 20
110.36
 11
2.71065
 21
110.466
  0
LINE
  8
0
 10
2.71065
 20
110.466
 11
2.74788
 21
110.569
  0
LINE
  8
0
 10
2.74788
 20
110.569
 11
2.79155
 21
110.67
  0
LINE
  8
0
 10
2.79155
 20
110.67
 11
2.84146
 21
110.768
  0
LINE
  8
0
 10
2.84146
 20
110.768
 11
2.89742
 21
110.863
  0
LINE
  8
0
 10
2.89742
 20
110.863
 11
2.95921
 21
110.954
  0
LINE
  8
0
 10
2.95921
 20
110.954
 11
3.0266
 21
111.04
  0
LINE
  8
0
 10
3.0266
 20
111.04
 11
3.0993
 21
111.123
  0
LINE
  8
0
 10
3.0993
 20
111.123
 11
3.17703
 21
111.201
  0
LINE
  8
0
 10
3.17703
 20
111.201
 11
3.25951
 21
111.273
  0
LINE
  8
0
 10
3.25951
 20
111.273
 11
3.34637
 21
111.341
  0
LINE
  8
0
 10
3.34637
 20
111.341
 11
3.4373
 21
111.403
  0
LINE
  8
0
 10
3.4373
 20
111.403
 11
3.53192
 21
111.459
  0
LINE
  8
0
 10
3.53192
 20
111.459
 11
3.62988
 21
111.508
  0
LINE
  8
0
 10
3.62988
 20
111.508
 11
3.73077
 21
111.552
  0
LINE
  8
0
 10
3.73077
 20
111.552
 11
3.83421
 21
111.589
  0
LINE
  8
0
 10
3.83421
 20
111.589
 11
3.93979
 21
111.62
  0
LINE
  8
0
 10
3.93979
 20
111.62
 11
4.04707
 21
111.644
  0
LINE
  8
0
 10
4.04707
 20
111.644
 11
4.15565
 21
111.661
  0
LINE
  8
0
 10
4.15565
 20
111.661
 11
4.26511
 21
111.672
  0
LINE
  8
0
 10
4.26511
 20
111.672
 11
4.375
 21
111.675
  0
LINE
  8
0
 10
4.375
 20
111.675
 11
4.48488
 21
111.672
  0
LINE
  8
0
 10
4.48488
 20
111.672
 11
4.59433
 21
111.661
  0
LINE
  8
0
 10
4.59433
 20
111.661
 11
4.70291
 21
111.644
  0
LINE
  8
0
 10
4.70291
 20
111.644
 11
4.8102
 21
111.62
  0
LINE
  8
0
 10
4.8102
 20
111.62
 11
4.91577
 21
111.589
  0
LINE
  8
0
 10
4.91577
 20
111.589
 11
5.01921
 21
111.552
  0
LINE
  8
0
 10
5.01921
 20
111.552
 11
5.1201
 21
111.508
  0
LINE
  8
0
 10
5.1201
 20
111.508
 11
5.21806
 21
111.459
  0
LINE
  8
0
 10
5.21806
 20
111.459
 11
5.31268
 21
111.403
  0
LINE
  8
0
 10
5.31268
 20
111.403
 11
5.40361
 21
111.341
  0
LINE
  8
0
 10
5.40361
 20
111.341
 11
5.49048
 21
111.273
  0
LINE
  8
0
 10
5.49048
 20
111.273
 11
5.57295
 21
111.201
  0
LINE
  8
0
 10
5.57295
 20
111.201
 11
5.65068
 21
111.123
  0
LINE
  8
0
 10
5.65068
 20
111.123
 11
5.72339
 21
111.04
  0
LINE
  8
0
 10
5.72339
 20
111.04
 11
5.79077
 21
110.954
  0
LINE
  8
0
 10
5.79077
 20
110.954
 11
5.85257
 21
110.863
  0
LINE
  8
0
 10
5.85257
 20
110.863
 11
5.90852
 21
110.768
  0
LINE
  8
0
 10
5.90852
 20
110.768
 11
5.95844
 21
110.67
  0
LINE
  8
0
 10
5.95844
 20
110.67
 11
6.00211
 21
110.569
  0
LINE
  8
0
 10
6.00211
 20
110.569
 11
6.03934
 21
110.466
  0
LINE
  8
0
 10
6.03934
 20
110.466
 11
6.07001
 21
110.36
  0
LINE
  8
0
 10
6.07001
 20
110.36
 11
6.09399
 21
110.253
  0
LINE
  8
0
 10
6.09399
 20
110.253
 11
6.11119
 21
110.144
  0
LINE
  8
0
 10
6.11119
 20
110.144
 11
6.12154
 21
110.035
  0
LINE
  8
0
 10
6.12154
 20
110.035
 11
6.125
 21
109.925
  0
LINE
  8
0
 10
6.125
 20
109.925
 11
6.12154
 21
109.815
  0
LINE
  8
0
 10
6.12154
 20
109.815
 11
6.11119
 21
109.706
  0
LINE
  8
0
 10
6.11119
 20
109.706
 11
6.09399
 21
109.597
  0
LINE
  8
0
 10
6.09399
 20
109.597
 11
6.07001
 21
109.49
  0
LINE
  8
0
 10
6.07001
 20
109.49
 11
6.03934
 21
109.384
  0
LINE
  8
0
 10
6.03934
 20
109.384
 11
6.00211
 21
109.281
  0
LINE
  8
0
 10
6.00211
 20
109.281
 11
5.95844
 21
109.18
  0
LINE
  8
0
 10
5.95844
 20
109.18
 11
5.90852
 21
109.082
  0
LINE
  8
0
 10
5.90852
 20
109.082
 11
5.85257
 21
108.987
  0
LINE
  8
0
 10
5.85257
 20
108.987
 11
5.79077
 21
108.896
  0
LINE
  8
0
 10
5.79077
 20
108.896
 11
5.72339
 21
108.809
  0
LINE
  8
0
 10
5.72339
 20
108.809
 11
5.65068
 21
108.727
  0
LINE
  8
0
 10
5.65068
 20
108.727
 11
5.57295
 21
108.649
  0
LINE
  8
0
 10
5.57295
 20
108.649
 11
5.49048
 21
108.577
  0
LINE
  8
0
 10
5.49048
 20
108.577
 11
5.40361
 21
108.509
  0
LINE
  8
0
 10
5.40361
 20
108.509
 11
5.31268
 21
108.447
  0
LINE
  8
0
 10
5.31268
 20
108.447
 11
5.21806
 21
108.391
  0
LINE
  8
0
 10
5.21806
 20
108.391
 11
5.1201
 21
108.342
  0
LINE
  8
0
 10
5.1201
 20
108.342
 11
5.01921
 21
108.298
  0
LINE
  8
0
 10
5.01921
 20
108.298
 11
4.91577
 21
108.261
  0
LINE
  8
0
 10
4.91577
 20
108.261
 11
4.8102
 21
108.23
  0
LINE
  8
0
 10
4.8102
 20
108.23
 11
4.70291
 21
108.206
  0
LINE
  8
0
 10
4.70291
 20
108.206
 11
4.59433
 21
108.189
  0
LINE
  8
0
 10
4.59433
 20
108.189
 11
4.48488
 21
108.178
  0
LINE
  8
0
 10
4.48488
 20
108.178
 11
4.375
 21
108.175
  0
LINE
  8
0
 10
4.375
 20
108.175
 11
4.26511
 21
108.178
  0
LINE
  8
0
 10
187.015
 20
2.62845
 11
186.906
 21
2.63879
  0
LINE
  8
0
 10
186.906
 20
2.63879
 11
186.797
 21
2.65599
  0
LINE
  8
0
 10
186.797
 20
2.65599
 11
186.69
 21
2.67998
  0
LINE
  8
0
 10
186.69
 20
2.67998
 11
186.584
 21
2.71065
  0
LINE
  8
0
 10
186.584
 20
2.71065
 11
186.481
 21
2.74788
  0
LINE
  8
0
 10
186.481
 20
2.74788
 11
186.38
 21
2.79155
  0
LINE
  8
0
 10
186.38
 20
2.79155
 11
186.282
 21
2.84146
  0
LINE
  8
0
 10
186.282
 20
2.84146
 11
186.187
 21
2.89742
  0
LINE
  8
0
 10
186.187
 20
2.89742
 11
186.096
 21
2.95921
  0
LINE
  8
0
 10
186.096
 20
2.95921
 11
186.01
 21
3.0266
  0
LINE
  8
0
 10
186.01
 20
3.0266
 11
185.927
 21
3.0993
  0
LINE
  8
0
 10
185.927
 20
3.0993
 11
185.849
 21
3.17703
  0
LINE
  8
0
 10
185.849
 20
3.17703
 11
185.777
 21
3.25951
  0
LINE
  8
0
 10
185.777
 20
3.25951
 11
185.709
 21
3.34637
  0
LINE
  8
0
 10
185.709
 20
3.34637
 11
185.647
 21
3.4373
  0
LINE
  8
0
 10
185.647
 20
3.4373
 11
185.591
 21
3.53192
  0
LINE
  8
0
 10
185.591
 20
3.53192
 11
185.542
 21
3.62988
  0
LINE
  8
0
 10
185.542
 20
3.62988
 11
185.498
 21
3.73077
  0
LINE
  8
0
 10
185.498
 20
3.73077
 11
185.461
 21
3.83421
  0
LINE
  8
0
 10
185.461
 20
3.83421
 11
185.43
 21
3.93979
  0
LINE
  8
0
 10
185.43
 20
3.93979
 11
185.406
 21
4.04707
  0
LINE
  8
0
 10
185.406
 20
4.04707
 11
185.389
 21
4.15565
  0
LINE
  8
0
 10
185.389
 20
4.15565
 11
185.378
 21
4.26511
  0
LINE
  8
0
 10
185.378
 20
4.26511
 11
185.375
 21
4.375
  0
LINE
  8
0
 10
185.375
 20
4.375
 11
185.378
 21
4.48488
  0
LINE
  8
0
 10
185.378
 20
4.48488
 11
185.389
 21
4.59433
  0
LINE
  8
0
 10
185.389
 20
4.59433
 11
185.406
 21
4.70291
  0
LINE
  8
0
 10
185.406
 20
4.70291
 11
185.43
 21
4.8102
  0
LINE
  8
0
 10
185.43
 20
4.8102
 11
185.461
 21
4.91577
  0
LINE
  8
0
 10
185.461
 20
4.91577
 11
185.498
 21
5.01921
  0
LINE
  8
0
 10
185.498
 20
5.01921
 11
185.542
 21
5.1201
  0
LINE
  8
0
 10
185.542
 20
5.1201
 11
185.591
 21
5.21806
  0
LINE
  8
0
 10
185.591
 20
5.21806
 11
185.647
 21
5.31268
  0
LINE
  8
0
 10
185.647
 20
5.31268
 11
185.709
 21
5.40361
  0
LINE
  8
0
 10
185.709
 20
5.40361
 11
185.777
 21
5.49048
  0
LINE
  8
0
 10
185.777
 20
5.49048
 11
185.849
 21
5.57295
  0
LINE
  8
0
 10
185.849
 20
5.57295
 11
185.927
 21
5.65068
  0
LINE
  8
0
 10
185.927
 20
5.65068
 11
186.01
 21
5.72339
  0
LINE
  8
0
 10
186.01
 20
5.72339
 11
186.096
 21
5.79077
  0
LINE
  8
0
 10
186.096
 20
5.79077
 11
186.187
 21
5.85257
  0
LINE
  8
0
 10
186.187
 20
5.85257
 11
186.282
 21
5.90852
  0
LINE
  8
0
 10
186.282
 20
5.90852
 11
186.38
 21
5.95844
  0
LINE
  8
0
 10
186.38
 20
5.95844
 11
186.481
 21
6.00211
  0
LINE
  8
0
 10
186.481
 20
6.00211
 11
186.584
 21
6.03934
  0
LINE
  8
0
 10
186.584
 20
6.03934
 11
186.69
 21
6.07001
  0
LINE
  8
0
 10
186.69
 20
6.07001
 11
186.797
 21
6.09399
  0
LINE
  8
0
 10
186.797
 20
6.09399
 11
186.906
 21
6.11119
  0
LINE
  8
0
 10
186.906
 20
6.11119
 11
187.015
 21
6.12154
  0
LINE
  8
0
 10
187.015
 20
6.12154
 11
187.125
 21
6.125
  0
LINE
  8
0
 10
187.125
 20
6.125
 11
187.235
 21
6.12154
  0
LINE
  8
0
 10
187.235
 20
6.12154
 11
187.344
 21
6.11119
  0
LINE
  8
0
 10
187.344
 20
6.11119
 11
187.453
 21
6.09399
  0
LINE
  8
0
 10
187.453
 20
6.09399
 11
187.56
 21
6.07001
  0
LINE
  8
0
 10
187.56
 20
6.07001
 11
187.666
 21
6.03934
  0
LINE
  8
0
 10
187.666
 20
6.03934
 11
187.769
 21
6.00211
  0
LINE
  8
0
 10
187.769
 20
6.00211
 11
187.87
 21
5.95844
  0
LINE
  8
0
 10
187.87
 20
5.95844
 11
187.968
 21
5.90852
  0
LINE
  8
0
 10
187.968
 20
5.90852
 11
188.063
 21
5.85257
  0
LINE
  8
0
 10
188.063
 20
5.85257
 11
188.154
 21
5.79077
  0
LINE
  8
0
 10
188.154
 20
5.79077
 11
188.24
 21
5.72339
  0
LINE
  8
0
 10
188.24
 20
5.72339
 11
188.323
 21
5.65068
  0
LINE
  8
0
 10
188.323
 20
5.65068
 11
188.401
 21
5.57295
  0
LINE
  8
0
 10
188.401
 20
5.57295
 11
188.473
 21
5.49048
  0
LINE
  8
0
 10
188.473
 20
5.49048
 11
188.541
 21
5.40361
  0
LINE
  8
0
 10
188.541
 20
5.40361
 11
188.603
 21
5.31268
  0
LINE
  8
0
 10
188.603
 20
5.31268
 11
188.659
 21
5.21806
  0
LINE
  8
0
 10
188.659
 20
5.21806
 11
188.708
 21
5.1201
  0
LINE
  8
0
 10
188.708
 20
5.1201
 11
188.752
 21
5.01921
  0
LINE
  8
0
 10
188.752
 20
5.01921
 11
188.789
 21
4.91577
  0
LINE
  8
0
 10
188.789
 20
4.91577
 11
188.82
 21
4.8102
  0
LINE
  8
0
 10
188.82
 20
4.8102
 11
188.844
 21
4.70291
  0
LINE
  8
0
 10
188.844
 20
4.70291
 11
188.861
 21
4.59433
  0
LINE
  8
0
 10
188.861
 20
4.59433
 11
188.872
 21
4.48488
  0
LINE
  8
0
 10
188.872
 20
4.48488
 11
188.875
 21
4.375
  0
LINE
  8
0
 10
188.875
 20
4.375
 11
188.872
 21
4.26511
  0
LINE
  8
0
 10
188.872
 20
4.26511
 11
188.861
 21
4.15565
  0
LINE
  8
0
 10
188.861
 20
4.15565
 11
188.844
 21
4.04707
  0
LINE
  8
0
 10
188.844
 20
4.04707
 11
188.82
 21
3.93979
  0
LINE
  8
0
 10
188.82
 20
3.93979
 11
188.789
 21
3.83421
  0
LINE
  8
0
 10
188.789
 20
3.83421
 11
188.752
 21
3.73077
  0
LINE
  8
0
 10
188.752
 20
3.73077
 11
188.708
 21
3.62988
  0
LINE
  8
0
 10
188.708
 20
3.62988
 11
188.659
 21
3.53192
  0
LINE
  8
0
 10
188.659
 20
3.53192
 11
188.603
 21
3.4373
  0
LINE
  8
0
 10
188.603
 20
3.4373
 11
188.541
 21
3.34637
  0
LINE
  8
0
 10
188.541
 20
3.34637
 11
188.473
 21
3.25951
  0
LINE
  8
0
 10
188.473
 20
3.25951
 11
188.401
 21
3.17703
  0
LINE
  8
0
 10
188.401
 20
3.17703
 11
188.323
 21
3.0993
  0
LINE
  8
0
 10
188.323
 20
3.0993
 11
188.24
 21
3.0266
  0
LINE
  8
0
 10
188.24
 20
3.0266
 11
188.154
 21
2.95921
  0
LINE
  8
0
 10
188.154
 20
2.95921
 11
188.063
 21
2.89742
  0
LINE
  8
0
 10
188.063
 20
2.89742
 11
187.968
 21
2.84146
  0
LINE
  8
0
 10
187.968
 20
2.84146
 11
187.87
 21
2.79155
  0
LINE
  8
0
 10
187.87
 20
2.79155
 11
187.769
 21
2.74788
  0
LINE
  8
0
 10
187.769
 20
2.74788
 11
187.666
 21
2.71065
  0
LINE
  8
0
 10
187.666
 20
2.71065
 11
187.56
 21
2.67998
  0
LINE
  8
0
 10
187.56
 20
2.67998
 11
187.453
 21
2.65599
  0
LINE
  8
0
 10
187.453
 20
2.65599
 11
187.344
 21
2.63879
  0
LINE
  8
0
 10
187.344
 20
2.63879
 11
187.235
 21
2.62845
  0
LINE
  8
0
 10
187.235
 20
2.62845
 11
187.125
 21
2.625
  0
LINE
  8
0
 10
187.125
 20
2.625
 11
187.015
 21
2.62845
  0
LINE
  8
0
 10
4.26511
 20
2.62845
 11
4.15565
 21
2.63879
  0
LINE
  8
0
 10
4.15565
 20
2.63879
 11
4.04707
 21
2.65599
  0
LINE
  8
0
 10
4.04707
 20
2.65599
 11
3.93979
 21
2.67998
  0
LINE
  8
0
 10
3.93979
 20
2.67998
 11
3.83421
 21
2.71065
  0
LINE
  8
0
 10
3.83421
 20
2.71065
 11
3.73077
 21
2.74788
  0
LINE
  8
0
 10
3.73077
 20
2.74788
 11
3.62988
 21
2.79155
  0
LINE
  8
0
 10
3.62988
 20
2.79155
 11
3.53192
 21
2.84146
  0
LINE
  8
0
 10
3.53192
 20
2.84146
 11
3.4373
 21
2.89742
  0
LINE
  8
0
 10
3.4373
 20
2.89742
 11
3.34637
 21
2.95921
  0
LINE
  8
0
 10
3.34637
 20
2.95921
 11
3.25951
 21
3.0266
  0
LINE
  8
0
 10
3.25951
 20
3.0266
 11
3.17703
 21
3.0993
  0
LINE
  8
0
 10
3.17703
 20
3.0993
 11
3.0993
 21
3.17703
  0
LINE
  8
0
 10
3.0993
 20
3.17703
 11
3.0266
 21
3.25951
  0
LINE
  8
0
 10
3.0266
 20
3.25951
 11
2.95921
 21
3.34637
  0
LINE
  8
0
 10
2.95921
 20
3.34637
 11
2.89742
 21
3.4373
  0
LINE
  8
0
 10
2.89742
 20
3.4373
 11
2.84146
 21
3.53192
  0
LINE
  8
0
 10
2.84146
 20
3.53192
 11
2.79155
 21
3.62988
  0
LINE
  8
0
 10
2.79155
 20
3.62988
 11
2.74788
 21
3.73077
  0
LINE
  8
0
 10
2.74788
 20
3.73077
 11
2.71065
 21
3.83421
  0
LINE
  8
0
 10
2.71065
 20
3.83421
 11
2.67998
 21
3.93979
  0
LINE
  8
0
 10
2.67998
 20
3.93979
 11
2.65599
 21
4.04707
  0
LINE
  8
0
 10
2.65599
 20
4.04707
 11
2.63879
 21
4.15565
  0
LINE
  8
0
 10
2.63879
 20
4.15565
 11
2.62845
 21
4.26511
  0
LINE
  8
0
 10
2.62845
 20
4.26511
 11
2.625
 21
4.375
  0
LINE
  8
0
 10
2.625
 20
4.375
 11
2.62845
 21
4.48488
  0
LINE
  8
0
 10
2.62845
 20
4.48488
 11
2.63879
 21
4.59433
  0
LINE
  8
0
 10
2.63879
 20
4.59433
 11
2.65599
 21
4.70291
  0
LINE
  8
0
 10
2.65599
 20
4.70291
 11
2.67998
 21
4.8102
  0
LINE
  8
0
 10
2.67998
 20
4.8102
 11
2.71065
 21
4.91577
  0
LINE
  8
0
 10
2.71065
 20
4.91577
 11
2.74788
 21
5.01921
  0
LINE
  8
0
 10
2.74788
 20
5.01921
 11
2.79155
 21
5.1201
  0
LINE
  8
0
 10
2.79155
 20
5.1201
 11
2.84146
 21
5.21806
  0
LINE
  8
0
 10
2.84146
 20
5.21806
 11
2.89742
 21
5.31268
  0
LINE
  8
0
 10
2.89742
 20
5.31268
 11
2.95921
 21
5.40361
  0
LINE
  8
0
 10
2.95921
 20
5.40361
 11
3.0266
 21
5.49048
  0
LINE
  8
0
 10
3.0266
 20
5.49048
 11
3.0993
 21
5.57295
  0
LINE
  8
0
 10
3.0993
 20
5.57295
 11
3.17703
 21
5.65068
  0
LINE
  8
0
 10
3.17703
 20
5.65068
 11
3.25951
 21
5.72339
  0
LINE
  8
0
 10
3.25951
 20
5.72339
 11
3.34637
 21
5.79077
  0
LINE
  8
0
 10
3.34637
 20
5.79077
 11
3.4373
 21
5.85257
  0
LINE
  8
0
 10
3.4373
 20
5.85257
 11
3.53192
 21
5.90852
  0
LINE
  8
0
 10
3.53192
 20
5.90852
 11
3.62988
 21
5.95844
  0
LINE
  8
0
 10
3.62988
 20
5.95844
 11
3.73077
 21
6.00211
  0
LINE
  8
0
 10
3.73077
 20
6.00211
 11
3.83421
 21
6.03934
  0
LINE
  8
0
 10
3.83421
 20
6.03934
 11
3.93979
 21
6.07001
  0
LINE
  8
0
 10
3.93979
 20
6.07001
 11
4.04707
 21
6.09399
  0
LINE
  8
0
 10
4.04707
 20
6.09399
 11
4.15565
 21
6.11119
  0
LINE
  8
0
 10
4.15565
 20
6.11119
 11
4.26511
 21
6.12154
  0
LINE
  8
0
 10
4.26511
 20
6.12154
 11
4.375
 21
6.125
  0
LINE
  8
0
 10
4.375
 20
6.125
 11
4.48488
 21
6.12154
  0
LINE
  8
0
 10
4.48488
 20
6.12154
 11
4.59433
 21
6.11119
  0
LINE
  8
0
 10
4.59433
 20
6.11119
 11
4.70291
 21
6.09399
  0
LINE
  8
0
 10
4.70291
 20
6.09399
 11
4.8102
 21
6.07001
  0
LINE
  8
0
 10
4.8102
 20
6.07001
 11
4.91577
 21
6.03934
  0
LINE
  8
0
 10
4.91577
 20
6.03934
 11
5.01921
 21
6.00211
  0
LINE
  8
0
 10
5.01921
 20
6.00211
 11
5.1201
 21
5.95844
  0
LINE
  8
0
 10
5.1201
 20
5.95844
 11
5.21806
 21
5.90852
  0
LINE
  8
0
 10
5.21806
 20
5.90852
 11
5.31268
 21
5.85257
  0
LINE
  8
0
 10
5.31268
 20
5.85257
 11
5.40361
 21
5.79077
  0
LINE
  8
0
 10
5.40361
 20
5.79077
 11
5.49048
 21
5.72339
  0
LINE
  8
0
 10
5.49048
 20
5.72339
 11
5.57295
 21
5.65068
  0
LINE
  8
0
 10
5.57295
 20
5.65068
 11
5.65068
 21
5.57295
  0
LINE
  8
0
 10
5.65068
 20
5.57295
 11
5.72339
 21
5.49048
  0
LINE
  8
0
 10
5.72339
 20
5.49048
 11
5.79077
 21
5.40361
  0
LINE
  8
0
 10
5.79077
 20
5.40361
 11
5.85257
 21
5.31268
  0
LINE
  8
0
 10
5.85257
 20
5.31268
 11
5.90852
 21
5.21806
  0
LINE
  8
0
 10
5.90852
 20
5.21806
 11
5.95844
 21
5.1201
  0
LINE
  8
0
 10
5.95844
 20
5.1201
 11
6.00211
 21
5.01921
  0
LINE
  8
0
 10
6.00211
 20
5.01921
 11
6.03934
 21
4.91577
  0
LINE
  8
0
 10
6.03934
 20
4.91577
 11
6.07001
 21
4.8102
  0
LINE
  8
0
 10
6.07001
 20
4.8102
 11
6.09399
 21
4.70291
  0
LINE
  8
0
 10
6.09399
 20
4.70291
 11
6.11119
 21
4.59433
  0
LINE
  8
0
 10
6.11119
 20
4.59433
 11
6.12154
 21
4.48488
  0
LINE
  8
0
 10
6.12154
 20
4.48488
 11
6.125
 21
4.375
  0
LINE
  8
0
 10
6.125
 20
4.375
 11
6.12154
 21
4.26511
  0
LINE
  8
0
 10
6.12154
 20
4.26511
 11
6.11119
 21
4.15565
  0
LINE
  8
0
 10
6.11119
 20
4.15565
 11
6.09399
 21
4.04707
  0
LINE
  8
0
 10
6.09399
 20
4.04707
 11
6.07001
 21
3.93979
  0
LINE
  8
0
 10
6.07001
 20
3.93979
 11
6.03934
 21
3.83421
  0
LINE
  8
0
 10
6.03934
 20
3.83421
 11
6.00211
 21
3.73077
  0
LINE
  8
0
 10
6.00211
 20
3.73077
 11
5.95844
 21
3.62988
  0
LINE
  8
0
 10
5.95844
 20
3.62988
 11
5.90852
 21
3.53192
  0
LINE
  8
0
 10
5.90852
 20
3.53192
 11
5.85257
 21
3.4373
  0
LINE
  8
0
 10
5.85257
 20
3.4373
 11
5.79077
 21
3.34637
  0
LINE
  8
0
 10
5.79077
 20
3.34637
 11
5.72339
 21
3.25951
  0
LINE
  8
0
 10
5.72339
 20
3.25951
 11
5.65068
 21
3.17703
  0
LINE
  8
0
 10
5.65068
 20
3.17703
 11
5.57295
 21
3.0993
  0
LINE
  8
0
 10
5.57295
 20
3.0993
 11
5.49048
 21
3.0266
  0
LINE
  8
0
 10
5.49048
 20
3.0266
 11
5.40361
 21
2.95921
  0
LINE
  8
0
 10
5.40361
 20
2.95921
 11
5.31268
 21
2.89742
  0
LINE
  8
0
 10
5.31268
 20
2.89742
 11
5.21806
 21
2.84146
  0
LINE
  8
0
 10
5.21806
 20
2.84146
 11
5.1201
 21
2.79155
  0
LINE
  8
0
 10
5.1201
 20
2.79155
 11
5.01921
 21
2.74788
  0
LINE
  8
0
 10
5.01921
 20
2.74788
 11
4.91577
 21
2.71065
  0
LINE
  8
0
 10
4.91577
 20
2.71065
 11
4.8102
 21
2.67998
  0
LINE
  8
0
 10
4.8102
 20
2.67998
 11
4.70291
 21
2.65599
  0
LINE
  8
0
 10
4.70291
 20
2.65599
 11
4.59433
 21
2.63879
  0
LINE
  8
0
 10
4.59433
 20
2.63879
 11
4.48488
 21
2.62845
  0
LINE
  8
0
 10
4.48488
 20
2.62845
 11
4.375
 21
2.625
  0
LINE
  8
0
 10
4.375
 20
2.625
 11
4.26511
 21
2.62845
  0
ENDSEC
  0
SECTION
  2
OBJECTS
  0
DICTIONARY
  0
ENDSEC
  0
EOF
