<?xml version="1.0" standalone="no"?>
<!DOCTYPE svg PUBLIC "-//W3C//DTD SVG 1.1//EN" "http://www.w3.org/Graphics/SVG/1.1/DTD/svg11.dtd">
<svg width="192mm" height="230mm" viewBox="0 -230 192 230" xmlns="http://www.w3.org/2000/svg" version="1.1">
<title>OpenSCAD Model</title>
<path d="
M 191.5,-229.6 L 0,-229.6 L 0,-115.3 L 191.5,-115.3 z
M 4.26511,-223.478 L 4.15565,-223.489 L 4.04707,-223.506 L 3.93979,-223.53 L 3.83421,-223.561 L 3.73077,-223.598
 L 3.62988,-223.642 L 3.53192,-223.691 L 3.4373,-223.747 L 3.34637,-223.809 L 3.25951,-223.877 L 3.17703,-223.949
 L 3.0993,-224.027 L 3.0266,-224.109 L 2.95921,-224.196 L 2.89742,-224.287 L 2.84146,-224.382 L 2.79155,-224.48
 L 2.74788,-224.581 L 2.71065,-224.684 L 2.67998,-224.79 L 2.65599,-224.897 L 2.63879,-225.006 L 2.62845,-225.115
 L 2.625,-225.225 L 2.62845,-225.335 L 2.63879,-225.444 L 2.65599,-225.553 L 2.67998,-225.66 L 2.71065,-225.766
 L 2.74788,-225.869 L 2.79155,-225.97 L 2.84146,-226.068 L 2.89742,-226.163 L 2.95921,-226.254 L 3.0266,-226.34
 L 3.0993,-226.423 L 3.17703,-226.501 L 3.25951,-226.573 L 3.34637,-226.641 L 3.4373,-226.703 L 3.53192,-226.759
 L 3.62988,-226.808 L 3.73077,-226.852 L 3.83421,-226.889 L 3.93979,-226.92 L 4.04707,-226.944 L 4.15565,-226.961
 L 4.26511,-226.972 L 4.375,-226.975 L 4.48488,-226.972 L 4.59433,-226.961 L 4.70291,-226.944 L 4.8102,-226.92
 L 4.91577,-226.889 L 5.01921,-226.852 L 5.1201,-226.808 L 5.21806,-226.759 L 5.31268,-226.703 L 5.40361,-226.641
 L 5.49048,-226.573 L 5.57295,-226.501 L 5.65068,-226.423 L 5.72339,-226.34 L 5.79077,-226.254 L 5.85257,-226.163
 L 5.90852,-226.068 L 5.95844,-225.97 L 6.00211,-225.869 L 6.03934,-225.766 L 6.07001,-225.66 L 6.09399,-225.553
 L 6.11119,-225.444 L 6.12154,-225.335 L 6.125,-225.225 L 6.12154,-225.115 L 6.11119,-225.006 L 6.09399,-224.897
 L 6.07001,-224.79 L 6.03934,-224.684 L 6.00211,-224.581 L 5.95844,-224.48 L 5.90852,-224.382 L 5.85257,-224.287
 L 5.79077,-224.196 L 5.72339,-224.109 L 5.65068,-224.027 L 5.57295,-223.949 L 5.49048,-223.877 L 5.40361,-223.809
 L 5.31268,-223.747 L 5.21806,-223.691 L 5.1201,-223.642 L 5.01921,-223.598 L 4.91577,-223.561 L 4.8102,-223.53
 L 4.70291,-223.506 L 4.59433,-223.489 L 4.48488,-223.478 L 4.375,-223.475 z
M 187.015,-223.478 L 186.906,-223.489 L 186.797,-223.506 L 186.69,-223.53 L 186.584,-223.561 L 186.481,-223.598
 L 186.38,-223.642 L 186.282,-223.691 L 186.187,-223.747 L 186.096,-223.809 L 186.01,-223.877 L 185.927,-223.949
 L 185.849,-224.027 L 185.777,-224.109 L 185.709,-224.196 L 185.647,-224.287 L 185.591,-224.382 L 185.542,-224.48
 L 185.498,-224.581 L 185.461,-224.684 L 185.43,-224.79 L 185.406,-224.897 L 185.389,-225.006 L 185.378,-225.115
 L 185.375,-225.225 L 185.378,-225.335 L 185.389,-225.444 L 185.406,-225.553 L 185.43,-225.66 L 185.461,-225.766
 L 185.498,-225.869 L 185.542,-225.97 L 185.591,-226.068 L 185.647,-226.163 L 185.709,-226.254 L 185.777,-226.34
 L 185.849,-226.423 L 185.927,-226.501 L 186.01,-226.573 L 186.096,-226.641 L 186.187,-226.703 L 186.282,-226.759
 L 186.38,-226.808 L 186.481,-226.852 L 186.584,-226.889 L 186.69,-226.92 L 186.797,-226.944 L 186.906,-226.961
 L 187.015,-226.972 L 187.125,-226.975 L 187.235,-226.972 L 187.344,-226.961 L 187.453,-226.944 L 187.56,-226.92
 L 187.666,-226.889 L 187.769,-226.852 L 187.87,-226.808 L 187.968,-226.759 L 188.063,-226.703 L 188.154,-226.641
 L 188.24,-226.573 L 188.323,-226.501 L 188.401,-226.423 L 188.473,-226.34 L 188.541,-226.254 L 188.603,-226.163
 L 188.659,-226.068 L 188.708,-225.97 L 188.752,-225.869 L 188.789,-225.766 L 188.82,-225.66 L 188.844,-225.553
 L 188.861,-225.444 L 188.872,-225.335 L 188.875,-225.225 L 188.872,-225.115 L 188.861,-225.006 L 188.844,-224.897
 L 188.82,-224.79 L 188.789,-224.684 L 188.752,-224.581 L 188.708,-224.48 L 188.659,-224.382 L 188.603,-224.287
 L 188.541,-224.196 L 188.473,-224.109 L 188.401,-224.027 L 188.323,-223.949 L 188.24,-223.877 L 188.154,-223.809
 L 188.063,-223.747 L 187.968,-223.691 L 187.87,-223.642 L 187.769,-223.598 L 187.666,-223.561 L 187.56,-223.53
 L 187.453,-223.506 L 187.344,-223.489 L 187.235,-223.478 L 187.125,-223.475 z
M 152.75,-124.05 L 152.75,-220.85 L 158.75,-220.85 L 158.75,-124.05 z
M 44.75,-124.05 L 44.75,-220.85 L 50.75,-220.85 L 50.75,-124.05 z
M 56.75,-124.05 L 56.75,-220.85 L 62.75,-220.85 L 62.75,-124.05 z
M 68.75,-124.05 L 68.75,-220.85 L 74.75,-220.85 L 74.75,-124.05 z
M 80.75,-124.05 L 80.75,-220.85 L 86.75,-220.85 L 86.75,-124.05 z
M 92.75,-124.05 L 92.75,-220.85 L 98.75,-220.85 L 98.75,-124.05 z
M 104.75,-124.05 L 104.75,-220.85 L 110.75,-220.85 L 110.75,-124.05 z
M 116.75,-124.05 L 116.75,-220.85 L 122.75,-220.85 L 122.75,-124.05 z
M 128.75,-124.05 L 128.75,-220.85 L 134.75,-220.85 L 134.75,-124.05 z
M 140.75,-124.05 L 140.75,-220.85 L 146.75,-220.85 L 146.75,-124.05 z
M 164.75,-124.05 L 164.75,-220.85 L 170.75,-220.85 L 170.75,-124.05 z
M 176.75,-124.05 L 176.75,-220.85 L 182.75,-220.85 L 182.75,-124.05 z
M 32.75,-124.05 L 32.75,-220.85 L 38.75,-220.85 L 38.75,-124.05 z
M 20.75,-124.05 L 20.75,-220.85 L 26.75,-220.85 L 26.75,-124.05 z
M 8.75,-124.05 L 8.75,-220.85 L 14.75,-220.85 L 14.75,-124.05 z
M 4.26511,-117.928 L 4.15565,-117.939 L 4.04707,-117.956 L 3.93979,-117.98 L 3.83421,-118.011 L 3.73077,-118.048
 L 3.62988,-118.092 L 3.53192,-118.141 L 3.4373,-118.197 L 3.34637,-118.259 L 3.25951,-118.327 L 3.17703,-118.399
 L 3.0993,-118.477 L 3.0266,-118.559 L 2.95921,-118.646 L 2.89742,-118.737 L 2.84146,-118.832 L 2.79155,-118.93
 L 2.74788,-119.031 L 2.71065,-119.134 L 2.67998,-119.24 L 2.65599,-119.347 L 2.63879,-119.456 L 2.62845,-119.565
 L 2.625,-119.675 L 2.62845,-119.785 L 2.63879,-119.894 L 2.65599,-120.003 L 2.67998,-120.11 L 2.71065,-120.216
 L 2.74788,-120.319 L 2.79155,-120.42 L 2.84146,-120.518 L 2.89742,-120.613 L 2.95921,-120.704 L 3.0266,-120.79
 L 3.0993,-120.873 L 3.17703,-120.951 L 3.25951,-121.023 L 3.34637,-121.091 L 3.4373,-121.153 L 3.53192,-121.209
 L 3.62988,-121.258 L 3.73077,-121.302 L 3.83421,-121.339 L 3.93979,-121.37 L 4.04707,-121.394 L 4.15565,-121.411
 L 4.26511,-121.422 L 4.375,-121.425 L 4.48488,-121.422 L 4.59433,-121.411 L 4.70291,-121.394 L 4.8102,-121.37
 L 4.91577,-121.339 L 5.01921,-121.302 L 5.1201,-121.258 L 5.21806,-121.209 L 5.31268,-121.153 L 5.40361,-121.091
 L 5.49048,-121.023 L 5.57295,-120.951 L 5.65068,-120.873 L 5.72339,-120.79 L 5.79077,-120.704 L 5.85257,-120.613
 L 5.90852,-120.518 L 5.95844,-120.42 L 6.00211,-120.319 L 6.03934,-120.216 L 6.07001,-120.11 L 6.09399,-120.003
 L 6.11119,-119.894 L 6.12154,-119.785 L 6.125,-119.675 L 6.12154,-119.565 L 6.11119,-119.456 L 6.09399,-119.347
 L 6.07001,-119.24 L 6.03934,-119.134 L 6.00211,-119.031 L 5.95844,-118.93 L 5.90852,-118.832 L 5.85257,-118.737
 L 5.79077,-118.646 L 5.72339,-118.559 L 5.65068,-118.477 L 5.57295,-118.399 L 5.49048,-118.327 L 5.40361,-118.259
 L 5.31268,-118.197 L 5.21806,-118.141 L 5.1201,-118.092 L 5.01921,-118.048 L 4.91577,-118.011 L 4.8102,-117.98
 L 4.70291,-117.956 L 4.59433,-117.939 L 4.48488,-117.928 L 4.375,-117.925 z
M 187.015,-117.928 L 186.906,-117.939 L 186.797,-117.956 L 186.69,-117.98 L 186.584,-118.011 L 186.481,-118.048
 L 186.38,-118.092 L 186.282,-118.141 L 186.187,-118.197 L 186.096,-118.259 L 186.01,-118.327 L 185.927,-118.399
 L 185.849,-118.477 L 185.777,-118.559 L 185.709,-118.646 L 185.647,-118.737 L 185.591,-118.832 L 185.542,-118.93
 L 185.498,-119.031 L 185.461,-119.134 L 185.43,-119.24 L 185.406,-119.347 L 185.389,-119.456 L 185.378,-119.565
 L 185.375,-119.675 L 185.378,-119.785 L 185.389,-119.894 L 185.406,-120.003 L 185.43,-120.11 L 185.461,-120.216
 L 185.498,-120.319 L 185.542,-120.42 L 185.591,-120.518 L 185.647,-120.613 L 185.709,-120.704 L 185.777,-120.79
 L 185.849,-120.873 L 185.927,-120.951 L 186.01,-121.023 L 186.096,-121.091 L 186.187,-121.153 L 186.282,-121.209
 L 186.38,-121.258 L 186.481,-121.302 L 186.584,-121.339 L 186.69,-121.37 L 186.797,-121.394 L 186.906,-121.411
 L 187.015,-121.422 L 187.125,-121.425 L 187.235,-121.422 L 187.344,-121.411 L 187.453,-121.394 L 187.56,-121.37
 L 187.666,-121.339 L 187.769,-121.302 L 187.87,-121.258 L 187.968,-121.209 L 188.063,-121.153 L 188.154,-121.091
 L 188.24,-121.023 L 188.323,-120.951 L 188.401,-120.873 L 188.473,-120.79 L 188.541,-120.704 L 188.603,-120.613
 L 188.659,-120.518 L 188.708,-120.42 L 188.752,-120.319 L 188.789,-120.216 L 188.82,-120.11 L 188.844,-120.003
 L 188.861,-119.894 L 188.872,-119.785 L 188.875,-119.675 L 188.872,-119.565 L 188.861,-119.456 L 188.844,-119.347
 L 188.82,-119.24 L 188.789,-119.134 L 188.752,-119.031 L 188.708,-118.93 L 188.659,-118.832 L 188.603,-118.737
 L 188.541,-118.646 L 188.473,-118.559 L 188.401,-118.477 L 188.323,-118.399 L 188.24,-118.327 L 188.154,-118.259
 L 188.063,-118.197 L 187.968,-118.141 L 187.87,-118.092 L 187.769,-118.048 L 187.666,-118.011 L 187.56,-117.98
 L 187.453,-117.956 L 187.344,-117.939 L 187.235,-117.928 L 187.125,-117.925 z
M 191.5,-114.3 L 0,-114.3 L 0,-0 L 191.5,-0 z
M 187.015,-108.178 L 186.906,-108.189 L 186.797,-108.206 L 186.69,-108.23 L 186.584,-108.261 L 186.481,-108.298
 L 186.38,-108.342 L 186.282,-108.391 L 186.187,-108.447 L 186.096,-108.509 L 186.01,-108.577 L 185.927,-108.649
 L 185.849,-108.727 L 185.777,-108.809 L 185.709,-108.896 L 185.647,-108.987 L 185.591,-109.082 L 185.542,-109.18
 L 185.498,-109.281 L 185.461,-109.384 L 185.43,-109.49 L 185.406,-109.597 L 185.389,-109.706 L 185.378,-109.815
 L 185.375,-109.925 L 185.378,-110.035 L 185.389,-110.144 L 185.406,-110.253 L 185.43,-110.36 L 185.461,-110.466
 L 185.498,-110.569 L 185.542,-110.67 L 185.591,-110.768 L 185.647,-110.863 L 185.709,-110.954 L 185.777,-111.04
 L 185.849,-111.123 L 185.927,-111.201 L 186.01,-111.273 L 186.096,-111.341 L 186.187,-111.403 L 186.282,-111.459
 L 186.38,-111.508 L 186.481,-111.552 L 186.584,-111.589 L 186.69,-111.62 L 186.797,-111.644 L 186.906,-111.661
 L 187.015,-111.672 L 187.125,-111.675 L 187.235,-111.672 L 187.344,-111.661 L 187.453,-111.644 L 187.56,-111.62
 L 187.666,-111.589 L 187.769,-111.552 L 187.87,-111.508 L 187.968,-111.459 L 188.063,-111.403 L 188.154,-111.341
 L 188.24,-111.273 L 188.323,-111.201 L 188.401,-111.123 L 188.473,-111.04 L 188.541,-110.954 L 188.603,-110.863
 L 188.659,-110.768 L 188.708,-110.67 L 188.752,-110.569 L 188.789,-110.466 L 188.82,-110.36 L 188.844,-110.253
 L 188.861,-110.144 L 188.872,-110.035 L 188.875,-109.925 L 188.872,-109.815 L 188.861,-109.706 L 188.844,-109.597
 L 188.82,-109.49 L 188.789,-109.384 L 188.752,-109.281 L 188.708,-109.18 L 188.659,-109.082 L 188.603,-108.987
 L 188.541,-108.896 L 188.473,-108.809 L 188.401,-108.727 L 188.323,-108.649 L 188.24,-108.577 L 188.154,-108.509
 L 188.063,-108.447 L 187.968,-108.391 L 187.87,-108.342 L 187.769,-108.298 L 187.666,-108.261 L 187.56,-108.23
 L 187.453,-108.206 L 187.344,-108.189 L 187.235,-108.178 L 187.125,-108.175 z
M 4.26511,-108.178 L 4.15565,-108.189 L 4.04707,-108.206 L 3.93979,-108.23 L 3.83421,-108.261 L 3.73077,-108.298
 L 3.62988,-108.342 L 3.53192,-108.391 L 3.4373,-108.447 L 3.34637,-108.509 L 3.25951,-108.577 L 3.17703,-108.649
 L 3.0993,-108.727 L 3.0266,-108.809 L 2.95921,-108.896 L 2.89742,-108.987 L 2.84146,-109.082 L 2.79155,-109.18
 L 2.74788,-109.281 L 2.71065,-109.384 L 2.67998,-109.49 L 2.65599,-109.597 L 2.63879,-109.706 L 2.62845,-109.815
 L 2.625,-109.925 L 2.62845,-110.035 L 2.63879,-110.144 L 2.65599,-110.253 L 2.67998,-110.36 L 2.71065,-110.466
 L 2.74788,-110.569 L 2.79155,-110.67 L 2.84146,-110.768 L 2.89742,-110.863 L 2.95921,-110.954 L 3.0266,-111.04
 L 3.0993,-111.123 L 3.17703,-111.201 L 3.25951,-111.273 L 3.34637,-111.341 L 3.4373,-111.403 L 3.53192,-111.459
 L 3.62988,-111.508 L 3.73077,-111.552 L 3.83421,-111.589 L 3.93979,-111.62 L 4.04707,-111.644 L 4.15565,-111.661
 L 4.26511,-111.672 L 4.375,-111.675 L 4.48488,-111.672 L 4.59433,-111.661 L 4.70291,-111.644 L 4.8102,-111.62
 L 4.91577,-111.589 L 5.01921,-111.552 L 5.1201,-111.508 L 5.21806,-111.459 L 5.31268,-111.403 L 5.40361,-111.341
 L 5.49048,-111.273 L 5.57295,-111.201 L 5.65068,-111.123 L 5.72339,-111.04 L 5.79077,-110.954 L 5.85257,-110.863
 L 5.90852,-110.768 L 5.95844,-110.67 L 6.00211,-110.569 L 6.03934,-110.466 L 6.07001,-110.36 L 6.09399,-110.253
 L 6.11119,-110.144 L 6.12154,-110.035 L 6.125,-109.925 L 6.12154,-109.815 L 6.11119,-109.706 L 6.09399,-109.597
 L 6.07001,-109.49 L 6.03934,-109.384 L 6.00211,-109.281 L 5.95844,-109.18 L 5.90852,-109.082 L 5.85257,-108.987
 L 5.79077,-108.896 L 5.72339,-108.809 L 5.65068,-108.727 L 5.57295,-108.649 L 5.49048,-108.577 L 5.40361,-108.509
 L 5.31268,-108.447 L 5.21806,-108.391 L 5.1201,-108.342 L 5.01921,-108.298 L 4.91577,-108.261 L 4.8102,-108.23
 L 4.70291,-108.206 L 4.59433,-108.189 L 4.48488,-108.178 L 4.375,-108.175 z
M 187.015,-2.62845 L 186.906,-2.63879 L 186.797,-2.65599 L 186.69,-2.67998 L 186.584,-2.71065 L 186.481,-2.74788
 L 186.38,-2.79155 L 186.282,-2.84146 L 186.187,-2.89742 L 186.096,-2.95921 L 186.01,-3.0266 L 185.927,-3.0993
 L 185.849,-3.17703 L 185.777,-3.25951 L 185.709,-3.34637 L 185.647,-3.4373 L 185.591,-3.53192 L 185.542,-3.62988
 L 185.498,-3.73077 L 185.461,-3.83421 L 185.43,-3.93979 L 185.406,-4.04707 L 185.389,-4.15565 L 185.378,-4.26511
 L 185.375,-4.375 L 185.378,-4.48488 L 185.389,-4.59433 L 185.406,-4.70291 L 185.43,-4.8102 L 185.461,-4.91577
 L 185.498,-5.01921 L 185.542,-5.1201 L 185.591,-5.21806 L 185.647,-5.31268 L 185.709,-5.40361 L 185.777,-5.49048
 L 185.849,-5.57295 L 185.927,-5.65068 L 186.01,-5.72339 L 186.096,-5.79077 L 186.187,-5.85257 L 186.282,-5.90852
 L 186.38,-5.95844 L 186.481,-6.00211 L 186.584,-6.03934 L 186.69,-6.07001 L 186.797,-6.09399 L 186.906,-6.11119
 L 187.015,-6.12154 L 187.125,-6.125 L 187.235,-6.12154 L 187.344,-6.11119 L 187.453,-6.09399 L 187.56,-6.07001
 L 187.666,-6.03934 L 187.769,-6.00211 L 187.87,-5.95844 L 187.968,-5.90852 L 188.063,-5.85257 L 188.154,-5.79077
 L 188.24,-5.72339 L 188.323,-5.65068 L 188.401,-5.57295 L 188.473,-5.49048 L 188.541,-5.40361 L 188.603,-5.31268
 L 188.659,-5.21806 L 188.708,-5.1201 L 188.752,-5.01921 L 188.789,-4.91577 L 188.82,-4.8102 L 188.844,-4.70291
 L 188.861,-4.59433 L 188.872,-4.48488 L 188.875,-4.375 L 188.872,-4.26511 L 188.861,-4.15565 L 188.844,-4.04707
 L 188.82,-3.93979 L 188.789,-3.83421 L 188.752,-3.73077 L 188.708,-3.62988 L 188.659,-3.53192 L 188.603,-3.4373
 L 188.541,-3.34637 L 188.473,-3.25951 L 188.401,-3.17703 L 188.323,-3.0993 L 188.24,-3.0266 L 188.154,-2.95921
 L 188.063,-2.89742 L 187.968,-2.84146 L 187.87,-2.79155 L 187.769,-2.74788 L 187.666,-2.71065 L 187.56,-2.67998
 L 187.453,-2.65599 L 187.344,-2.63879 L 187.235,-2.62845 L 187.125,-2.625 z
M 4.26511,-2.62845 L 4.15565,-2.63879 L 4.04707,-2.65599 L 3.93979,-2.67998 L 3.83421,-2.71065 L 3.73077,-2.74788
 L 3.62988,-2.79155 L 3.53192,-2.84146 L 3.4373,-2.89742 L 3.34637,-2.95921 L 3.25951,-3.0266 L 3.17703,-3.0993
 L 3.0993,-3.17703 L 3.0266,-3.25951 L 2.95921,-3.34637 L 2.89742,-3.4373 L 2.84146,-3.53192 L 2.79155,-3.62988
 L 2.74788,-3.73077 L 2.71065,-3.83421 L 2.67998,-3.93979 L 2.65599,-4.04707 L 2.63879,-4.15565 L 2.62845,-4.26511
 L 2.625,-4.375 L 2.62845,-4.48488 L 2.63879,-4.59433 L 2.65599,-4.70291 L 2.67998,-4.8102 L 2.71065,-4.91577
 L 2.74788,-5.01921 L 2.79155,-5.1201 L 2.84146,-5.21806 L 2.89742,-5.31268 L 2.95921,-5.40361 L 3.0266,-5.49048
 L 3.0993,-5.57295 L 3.17703,-5.65068 L 3.25951,-5.72339 L 3.34637,-5.79077 L 3.4373,-5.85257 L 3.53192,-5.90852
 L 3.62988,-5.95844 L 3.73077,-6.00211 L 3.83421,-6.03934 L 3.93979,-6.07001 L 4.04707,-6.09399 L 4.15565,-6.11119
 L 4.26511,-6.12154 L 4.375,-6.125 L 4.48488,-6.12154 L 4.59433,-6.11119 L 4.70291,-6.09399 L 4.8102,-6.07001
 L 4.91577,-6.03934 L 5.01921,-6.00211 L 5.1201,-5.95844 L 5.21806,-5.90852 L 5.31268,-5.85257 L 5.40361,-5.79077
 L 5.49048,-5.72339 L 5.57295,-5.65068 L 5.65068,-5.57295 L 5.72339,-5.49048 L 5.79077,-5.40361 L 5.85257,-5.31268
 L 5.90852,-5.21806 L 5.95844,-5.1201 L 6.00211,-5.01921 L 6.03934,-4.91577 L 6.07001,-4.8102 L 6.09399,-4.70291
 L 6.11119,-4.59433 L 6.12154,-4.48488 L 6.125,-4.375 L 6.12154,-4.26511 L 6.11119,-4.15565 L 6.09399,-4.04707
 L 6.07001,-3.93979 L 6.03934,-3.83421 L 6.00211,-3.73077 L 5.95844,-3.62988 L 5.90852,-3.53192 L 5.85257,-3.4373
 L 5.79077,-3.34637 L 5.72339,-3.25951 L 5.65068,-3.17703 L 5.57295,-3.0993 L 5.49048,-3.0266 L 5.40361,-2.95921
 L 5.31268,-2.89742 L 5.21806,-2.84146 L 5.1201,-2.79155 L 5.01921,-2.74788 L 4.91577,-2.71065 L 4.8102,-2.67998
 L 4.70291,-2.65599 L 4.59433,-2.63879 L 4.48488,-2.62845 L 4.375,-2.625 z
" stroke="black" fill="lightgray" stroke-width="0.5"/>
</svg>
