<?xml version="1.0" standalone="no"?>
<!DOCTYPE svg PUBLIC "-//W3C//DTD SVG 1.1//EN" "http://www.w3.org/Graphics/SVG/1.1/DTD/svg11.dtd">
<svg width="88mm" height="88mm" viewBox="-44 -44 88 88" xmlns="http://www.w3.org/2000/svg" version="1.1">
<title>OpenSCAD Model</title>
<path d="
M -16.1975,40.9102 L -13.5967,41.8465 L -10.9424,42.6176 L -8.24477,43.2206 L -5.51465,43.653 L -2.76277,43.9132
 L 0,44 L 2.76277,43.9132 L 5.51465,43.653 L 8.24477,43.2206 L 10.9424,42.6176 L 13.5967,41.8465
 L 16.1975,40.9102 L 18.7343,39.8124 L 21.1972,38.5575 L 23.5764,37.1504 L 25.8625,35.5967 L 28.0466,33.9026
 L 30.1201,32.0746 L 32.0746,30.1201 L 33.9026,28.0466 L 35.5967,25.8625 L 37.1504,23.5764 L 38.5575,21.1972
 L 39.8124,18.7343 L 40.9102,16.1975 L 41.8465,13.5967 L 42.6176,10.9424 L 43.2206,8.24477 L 43.653,5.51465
 L 43.9132,2.76277 L 44,-0 L 43.9132,-2.76277 L 43.653,-5.51465 L 43.2206,-8.24477 L 42.6176,-10.9424
 L 41.8465,-13.5967 L 40.9102,-16.1975 L 39.8124,-18.7343 L 38.5575,-21.1972 L 37.1504,-23.5764 L 35.5967,-25.8625
 L 33.9026,-28.0466 L 32.0746,-30.1201 L 30.1201,-32.0746 L 28.0466,-33.9026 L 25.8625,-35.5967 L 23.5764,-37.1504
 L 21.1972,-38.5575 L 18.7343,-39.8124 L 16.1975,-40.9102 L 13.5967,-41.8465 L 10.9424,-42.6176 L 8.24477,-43.2206
 L 5.51465,-43.653 L 2.76277,-43.9132 L 0,-44 L -2.76277,-43.9132 L -5.51465,-43.653 L -8.24477,-43.2206
 L -10.9424,-42.6176 L -13.5967,-41.8465 L -16.1975,-40.9102 L -18.7343,-39.8124 L -21.1972,-38.5575 L -23.5764,-37.1504
 L -25.8625,-35.5967 L -28.0466,-33.9026 L -30.1201,-32.0746 L -32.0746,-30.1201 L -33.9026,-28.0466 L -35.5967,-25.8625
 L -37.1504,-23.5764 L -38.5575,-21.1972 L -39.8124,-18.7343 L -40.9102,-16.1975 L -41.8465,-13.5967 L -42.6176,-10.9424
 L -43.2206,-8.24477 L -43.653,-5.51465 L -43.9132,-2.76277 L -44,-0 L -43.9132,2.76277 L -43.653,5.51465
 L -43.2206,8.24477 L -42.6176,10.9424 L -41.8465,13.5967 L -40.9102,16.1975 L -39.8124,18.7343 L -38.5575,21.1972
 L -37.1504,23.5764 L -35.5967,25.8625 L -33.9026,28.0466 L -32.0746,30.1201 L -30.1201,32.0746 L -28.0466,33.9026
 L -25.8625,35.5967 L -23.5764,37.1504 L -21.1972,38.5575 L -18.7343,39.8124 z
M -4.76192,-40.7123 L -2.5744,-40.9191 L -0.75885,-40.9762 L -1.84642,-39.4473 z
M 0.966843,-38.2266 L 2.61153,-40.5387 L 4.36343,-38.099 L 3.98631,-37.8846 L 1.8918,-37.8252 z
M 6.3427,-40.486 L 7.68263,-40.2738 L 8.04625,-40.1925 L 6.98618,-39.5899 z
M -15.0931,-38.1208 L -12.6697,-38.9933 L -10.1963,-39.7119 L -10.0621,-39.7419 L -5.18257,-37.6246 L -17.0152,-37.289
 z
M 12.2313,-39.1207 L 12.6697,-38.9933 L 14.8257,-38.2171 L 14.7949,-38.1911 L 10.3756,-38.0658 z
M 13.1975,-32.9196 L 15.9277,-35.222 L 20.7169,-35.3579 L 20.8656,-35.2699 L 18.246,-30.729 z
M 10.2385,-35.0607 L 11.1123,-35.0855 L 10.557,-34.6172 z
M -27.5621,-30.3324 L -26.1344,-31.591 L -24.0992,-33.1697 L -22.6907,-34.1269 L -5.27977,-34.6206 L -7.67224,-31.2573
 L -19.1282,-24.7451 z
M -11.9879,-20.0148 L -5.6125,-28.9773 L 3.20055,-33.9871 L 7.5645,-32.0936 L -9.05905,-18.0746 z
M 21.0161,-29.5271 L 23.394,-33.649 L 24.0992,-33.1697 L 26.1344,-31.591 L 28.0664,-29.8877 L 29.8877,-28.0664
 L 31.591,-26.1344 L 32.9892,-24.3318 z
M -6.45287,-16.348 L 10.0118,-30.2331 L 14.4191,-24.0955 L 5.41418,-8.48639 z
M 14.5438,-29.0652 L 16.7371,-28.1135 L 16.0645,-26.9475 z
M -38.1208,-15.0931 L -37.0979,-17.4569 L -35.9286,-19.7519 L -34.6174,-21.9689 L -33.1697,-24.0992 L -31.591,-26.1344
 L -29.8877,-28.0664 L -29.7626,-28.1916 L -22.0517,-23.0833 L -38.6389,-13.6542 z
M 17.985,-24.2731 L 19.5072,-26.9116 L 35.9013,-19.798 L 35.9286,-19.7519 L 37.0979,-17.4569 L 38.1208,-15.0931
 L 38.8966,-12.9383 L 28.6893,-9.36629 z
M -16.3247,-22.8879 L -11.7934,-25.4638 L -14.4902,-21.6726 z
M 7.91995,-6.82637 L 16.3396,-21.421 L 25.7377,-8.33337 L 12.5902,-3.73247 z
M -34.5995,-2.58224 L -39.1336,-9.92215 L -19.2482,-21.2261 L -16.2301,-19.2266 L -29.0297,-1.23289 L -30.526,0.0289459
 z
M -13.7277,-17.5689 L -11.4489,-16.0592 L -19.8284,-8.99254 z
M -27.5862,1.91338 L -26.8053,0.815598 L -8.8427,-14.3326 L 3.9122,-5.88283 L 0.16275,0.616455 L -19.0957,7.35585
 z
M 30.5133,-6.82619 L 39.7432,-10.0562 L 40.2738,-7.68263 L 40.5742,-5.78607 L 36.6802,1.76172 z
M -40.4842,-6.35432 L -40.4784,-6.39072 L -40.4374,-6.32436 z
M 15.7296,-1.65268 L 27.5617,-5.79329 L 35.1361,4.75471 L 32.6565,9.561 z
M 6.41797,-4.22282 L 9.03574,-2.4886 L 4.50226,-0.902145 z
M -40.8504,3.30115 L -40.9191,2.5744 L -41,-0 L -40.9191,-2.5744 L -40.8749,-3.04141 L -36.7931,-0.424942
 L -34.4622,3.34845 L -38.1644,6.4706 z
M -5.34631,16.1693 L 2.20482,3.08023 L 12.1751,-0.408829 L 31.2729,12.243 L 20.6502,32.8333 z
M 38.6446,4.49733 L 40.998,-0.0643158 L 41,-0 L 40.9191,2.5744 L 40.6767,5.13866 L 40.3927,6.93173
 z
M -29.8535,5.10078 L -29.3271,4.36082 L -22.6917,8.61423 L -26.7959,10.0505 z
M -15.8883,9.41182 L -2.13469,4.59883 L -7.87473,14.5486 z
M 35.1724,11.2277 L 37.1005,7.49033 L 39.5194,10.8589 L 38.9933,12.6697 L 38.6767,13.5492 z
M -34.1758,11.1771 L -31.7408,7.75394 L -29.6954,11.0651 L -33.2242,12.3 z
M -36.2248,8.75928 L -36.0066,8.57524 L -36.1774,8.81529 z
M -25.1815,12.6639 L -19.4842,10.6702 L -9.37549,17.15 L -15.6702,28.0612 z
M -38.9933,12.6697 L -39.361,11.4041 L -38.5182,10.6933 L -37.9718,11.338 L -38.9684,12.7389 z
M -31.1467,14.7514 L -28.081,13.6786 L -17.3927,30.981 z
M 33.7887,13.9097 L 37.5536,16.4038 L 37.0979,17.4569 L 35.9286,19.7519 L 34.6174,21.9689 L 33.1697,24.0992
 L 31.591,26.1344 L 29.8877,28.0664 L 28.0664,29.8877 L 26.1344,31.591 L 24.0992,33.1697 L 23.7191,33.428
 z
M -31.0878,26.7052 L -31.591,26.1344 L -33.1697,24.0992 L -34.6174,21.9689 L -35.9286,19.7519 L -37.0979,17.4569
 L -37.332,16.916 L -34.1796,15.8128 L -22.2698,29.8663 z
M -12.3607,33.4185 L -13.8793,30.9603 L -6.84708,18.7707 L 19.2687,35.5111 L 18.8042,36.4115 L 17.4569,37.0979
 L 15.0931,38.1208 L 12.6697,38.9933 L 10.1963,39.7119 L 7.68263,40.2738 L 7.04414,40.3749 z
M -21.9689,34.6174 L -24.0992,33.1697 L -25.9503,31.7338 L -19.1875,34.1582 L -20.0926,35.7271 z
M -17.4274,37.1107 L -16.9021,36.2001 L -15.3794,37.9969 z
M -2.5744,40.9191 L -5.13866,40.6767 L -7.68263,40.2738 L -8.1971,40.1588 L -9.83212,37.512 L -0.112,40.9965
 z
" stroke="black" fill="lightgray" stroke-width="0.5"/>
</svg>
