<?xml version="1.0" standalone="no"?>
<!DOCTYPE svg PUBLIC "-//W3C//DTD SVG 1.1//EN" "http://www.w3.org/Graphics/SVG/1.1/DTD/svg11.dtd">
<svg width="88mm" height="88mm" viewBox="-44 -44 88 88" xmlns="http://www.w3.org/2000/svg" version="1.1">
<title>OpenSCAD Model</title>
<path d="
M 2.76277,43.9132 L 5.51465,43.653 L 8.24477,43.2206 L 10.9424,42.6176 L 13.5967,41.8465 L 16.1975,40.9102
 L 18.7343,39.8124 L 21.1972,38.5575 L 23.5764,37.1504 L 25.8625,35.5967 L 28.0466,33.9026 L 30.1201,32.0746
 L 32.0746,30.1201 L 33.9026,28.0466 L 35.5967,25.8625 L 37.1504,23.5764 L 38.5575,21.1972 L 39.8124,18.7343
 L 40.9102,16.1975 L 41.8465,13.5967 L 42.6176,10.9424 L 43.2206,8.24477 L 43.653,5.51465 L 43.9132,2.76277
 L 44,-0 L 43.9132,-2.76277 L 43.653,-5.51465 L 43.2206,-8.24477 L 42.6176,-10.9424 L 41.8465,-13.5967
 L 40.9102,-16.1975 L 39.8124,-18.7343 L 38.5575,-21.1972 L 37.1504,-23.5764 L 35.5967,-25.8625 L 33.9026,-28.0466
 L 32.0746,-30.1201 L 30.1201,-32.0746 L 28.0466,-33.9026 L 25.8625,-35.5967 L 23.5764,-37.1504 L 21.1972,-38.5575
 L 18.7343,-39.8124 L 16.1975,-40.9102 L 13.5967,-41.8465 L 10.9424,-42.6176 L 8.24477,-43.2206 L 5.51465,-43.653
 L 2.76277,-43.9132 L 0,-44 L -2.76277,-43.9132 L -5.51465,-43.653 L -8.24477,-43.2206 L -10.9424,-42.6176
 L -13.5967,-41.8465 L -16.1975,-40.9102 L -18.7343,-39.8124 L -21.1972,-38.5575 L -23.5764,-37.1504 L -25.8625,-35.5967
 L -28.0466,-33.9026 L -30.1201,-32.0746 L -32.0746,-30.1201 L -33.9026,-28.0466 L -35.5967,-25.8625 L -37.1504,-23.5764
 L -38.5575,-21.1972 L -39.8124,-18.7343 L -40.9102,-16.1975 L -41.8465,-13.5967 L -42.6176,-10.9424 L -43.2206,-8.24477
 L -43.653,-5.51465 L -43.9132,-2.76277 L -44,-0 L -43.9132,2.76277 L -43.653,5.51465 L -43.2206,8.24477
 L -42.6176,10.9424 L -41.8465,13.5967 L -40.9102,16.1975 L -39.8124,18.7343 L -38.5575,21.1972 L -37.1504,23.5764
 L -35.5967,25.8625 L -33.9026,28.0466 L -32.0746,30.1201 L -30.1201,32.0746 L -28.0466,33.9026 L -25.8625,35.5967
 L -23.5764,37.1504 L -21.1972,38.5575 L -18.7343,39.8124 L -16.1975,40.9102 L -13.5967,41.8465 L -10.9424,42.6176
 L -8.24477,43.2206 L -5.51465,43.653 L -2.76277,43.9132 L 0,44 z
M -4.96536,-40.6931 L -2.5744,-40.9191 L 0,-41 L 2.5744,-40.9191 L 3.18481,-40.8614 L -5.27646,-37.3069
 z
M -11.2672,-37.0496 L -10.8555,-39.5204 L -10.1963,-39.7119 L -8.02351,-40.1976 L -8.41002,-35.9905 L -9.16835,-35.6719
 z
M 10.7408,-22.944 L 7.58821,-39.4572 L 8.88965,-40.004 L 10.1963,-39.7119 L 12.6697,-38.9933 L 15.0931,-38.1208
 L 17.4569,-37.0979 L 19.6932,-35.9585 L 16.171,-20.7392 z
M -5.63947,-33.3555 L -5.5874,-33.9223 L 4.76079,-38.2695 L 7.32333,-24.8467 z
M -20.3573,-35.5705 L -19.7519,-35.9286 L -17.4569,-37.0979 L -17.0657,-37.2672 L -14.5477,-35.6144 L -14.9227,-33.364
 z
M -28.7522,-29.2019 L -28.0664,-29.8877 L -26.1344,-31.591 L -24.0992,-33.1697 L -23.4707,-33.5968 L -18.7096,-31.6637
 L -27.6881,-27.8919 z
M -10.8514,-31.7109 L -9.47917,-32.2874 L -8.79169,-31.8361 L -8.87685,-30.9092 z
M 26.026,-16.7378 L 26.9752,-30.8498 L 28.0664,-29.8877 L 29.8877,-28.0664 L 31.591,-26.1344 L 33.1697,-24.0992
 L 34.6174,-21.9689 L 35.9286,-19.7519 L 37.0979,-17.4569 L 38.1208,-15.0931 L 38.9933,-12.6697 L 39.3876,-11.3127
 z
M -5.97255,-29.73 L -5.95039,-29.9711 L -4.95157,-29.3154 z
M -25.7175,-25.4658 L -15.5254,-29.7474 L -17.8525,-15.7831 z
M -15.3289,-12.6762 L -12.5795,-29.1747 L -9.16362,-27.7878 L -11.0373,-7.39273 z
M 18.9858,-19.5963 L 20.7067,-27.0322 L 19.5822,-19.3541 z
M -30.8283,-26.9996 L -30.5698,-26.6813 L -31.4259,-26.3217 z
M 22.444,-18.1922 L 23.6886,-26.6903 L 23.0991,-17.9262 z
M -8.33081,-4.06067 L -6.25931,-26.6086 L 7.9801,-20.827 L 8.10658,-20.744 L 11.7524,-1.64676 L 11.2665,0.452911
 L 0.622055,3.95445 L -1.80449,3.97403 z
M -36.2328,-19.1548 L -35.9286,-19.7519 L -34.8078,-21.647 L -28.5991,-24.2552 L -18.5105,-11.8348 L -21.0129,3.18153
 z
M 11.5983,-18.452 L 15.1084,-16.1479 L 13.426,-8.87831 z
M 22.3125,-15.0077 L 22.8871,-14.7744 L 22.8778,-14.6366 z
M 14.818,-1.5873 L 17.7816,-14.3932 L 18.7615,-13.7501 L 16.9554,-1.41849 L 14.9746,-0.766876 z
M -36.5812,-14.3385 L -23.9812,4.15288 L -30.4882,4.20537 z
M 25.7575,-12.7464 L 25.814,-13.586 L 38.4041,-8.47412 L 34.3152,-7.12906 z
M -40.9191,2.5744 L -41,-0 L -40.9191,-2.5744 L -40.6767,-5.13866 L -40.2738,-7.68263 L -39.7119,-10.1963
 L -39.0859,-12.351 L -33.6376,4.23076 L -40.7571,4.28818 z
M 21.5275,-11.9344 L 22.6467,-11.1998 L 22.1026,-3.11168 L 20.1409,-2.46635 z
M 25.5263,-9.30957 L 30.6733,-5.93105 L 25.1775,-4.12315 z
M -15.9869,-8.72797 L -11.4301,-3.11797 L -12.0892,4.05698 L -18.1255,4.10565 z
M 37.5203,-5.02522 L 40.5375,-6.01775 L 40.6767,-5.13866 L 40.8969,-2.80876 z
M 24.9602,-0.893539 L 33.8784,-3.82721 L 38.7475,-0.631134 L 29.7117,3.71983 L 24.6472,3.76068 z
M 19.655,0.851639 L 21.8854,0.117935 L 21.6388,3.78494 L 19.2225,3.80444 z
M -8.72354,0.214081 L -5.6443,4.00499 L -9.07436,4.03265 z
M 40.9485,1.63869 L 40.9191,2.5744 L 40.8193,3.63025 L 36.7443,3.66312 z
M 15.5419,2.20467 L 16.4695,1.89952 L 16.1869,3.82892 L 15.8525,3.83162 z
M 10.4754,3.87131 L 10.4745,3.87498 L 10.4639,3.87508 z
M 24.249,9.67992 L 30.4078,6.71431 L 40.44,6.63341 L 40.2738,7.68263 L 39.7119,10.1963 L 38.9933,12.6697
 L 38.1208,15.0931 L 37.0979,17.4569 L 35.9286,19.7519 L 34.6174,21.9689 L 33.1697,24.0992 L 33.0531,24.2495
 L 23.1634,25.8198 z
M 18.7826,6.80807 L 21.4369,6.78667 L 21.3731,7.73508 L 18.44,9.14742 z
M 12.864,6.8558 L 13.3749,6.85168 L 14.2027,11.1878 L 11.5678,12.4566 z
M 0.718979,7.08072 L 1.11464,6.95056 L 9.77893,6.88069 L 8.10231,14.1253 L 6.90811,14.7003 z
M -9.35017,7.03497 L -8.72725,7.02994 L -9.36911,7.24109 z
M -18.3378,7.10745 L -12.3651,7.05928 L -12.4756,8.26299 L -16.6212,9.62668 z
M -29.505,7.19753 L -21.9482,7.13657 L -21.7262,7.46228 L -22.4039,11.5289 L -27.528,13.2145 z
M -38.1208,15.0931 L -38.9933,12.6697 L -39.7119,10.1963 L -40.2738,7.68263 L -40.3368,7.28487 L -32.6545,7.22292
 L -30.3778,14.152 L -37.5125,16.499 z
M -10.4238,18.7217 L -9.66829,10.4977 L -2.33104,8.08403 L 4.12982,16.0381 L -8.2052,21.9778 z
M 17.7573,13.8091 L 17.9154,12.7297 L 21.1416,11.1762 L 20.1289,26.2319 z
M -14.8633,12.2066 L -12.7748,11.5196 L -13.0786,14.8258 z
M -19.743,13.8118 L -17.8288,13.1821 L -13.5099,19.5204 L -13.9916,24.7641 L -22.2291,28.7307 z
M 10.1304,18.6674 L 10.7006,16.2038 L 14.6533,14.3005 L 13.4206,22.7179 z
M -26.5915,16.0646 L -22.9607,14.8703 L -24.3146,22.9944 z
M -28.0664,29.8877 L -29.8877,28.0664 L -31.591,26.1344 L -33.1697,24.0992 L -34.6174,21.9689 L -35.9286,19.7519
 L -36.1973,19.2245 L -29.4413,17.0021 L -25.3772,29.371 L -25.5358,30.3229 L -26.8532,30.9573 z
M -6.49689,24.4849 L 6.07399,18.4317 L 6.87692,19.4202 L 4.71808,28.7484 L -2.78047,29.939 z
M 9.27341,22.3705 L 12.8301,26.7493 L 12.7235,27.4774 L 7.91484,28.2408 z
M 15.9894,25.8805 L 16.4314,22.8622 L 17.1775,26.7702 L 16.7652,26.8356 z
M -11.1596,26.7301 L -9.23029,25.8011 L -6.0563,30.4591 L -11.5828,31.3366 z
M 22.611,34.0325 L 22.9569,28.8901 L 30.1714,27.7447 L 29.8877,28.0664 L 28.0664,29.8877 L 26.1344,31.591
 L 24.0992,33.1697 L 22.6888,34.1282 z
M -21.4578,31.6889 L -14.3117,28.2479 L -14.64,31.822 L -21.0782,32.8442 z
M 15.3722,30.0944 L 15.5273,30.0698 L 18.508,33.7395 L 18.9992,36.3121 L 17.4569,37.0979 L 15.0931,38.1208
 L 14.1468,38.4615 z
M 7.18503,31.3943 L 12.2681,30.5872 L 10.9644,39.4887 L 10.1963,39.7119 L 7.68263,40.2738 L 5.13866,40.6767
 L 5.03452,40.6865 z
M -0.912735,32.68 L 3.98827,31.9019 L 2.61128,37.8518 z
M -2.5744,40.9191 L -5.13866,40.6767 L -7.68263,40.2738 L -10.1963,39.7119 L -12.2962,39.1018 L -11.866,34.4191
 L -4.18858,33.2001 L 1.10258,40.9653 L 0,41 z
M -17.4569,37.0979 L -19.7519,35.9286 L -20.095,35.7257 L -14.9232,34.9045 L -15.2139,38.0686 z
" stroke="black" fill="lightgray" stroke-width="0.5"/>
</svg>
