<?xml version="1.0" standalone="no"?>
<!DOCTYPE svg PUBLIC "-//W3C//DTD SVG 1.1//EN" "http://www.w3.org/Graphics/SVG/1.1/DTD/svg11.dtd">
<svg width="88mm" height="88mm" viewBox="-44 -44 88 88" xmlns="http://www.w3.org/2000/svg" version="1.1">
<title>OpenSCAD Model</title>
<path d="
M 8.24477,-43.2206 L 5.51465,-43.653 L 2.76277,-43.9132 L 0,-44 L -2.76277,-43.9132 L -5.51465,-43.653
 L -8.24477,-43.2206 L -10.9424,-42.6176 L -13.5967,-41.8465 L -16.1975,-40.9102 L -18.7343,-39.8124 L -21.1972,-38.5575
 L -23.5764,-37.1504 L -25.8625,-35.5967 L -28.0466,-33.9026 L -30.1201,-32.0746 L -32.0746,-30.1201 L -33.9026,-28.0466
 L -35.5967,-25.8625 L -37.1504,-23.5764 L -38.5575,-21.1972 L -39.8124,-18.7343 L -40.9102,-16.1975 L -41.8465,-13.5967
 L -42.6176,-10.9424 L -43.2206,-8.24477 L -43.653,-5.51465 L -43.9132,-2.76277 L -44,-0 L -43.9132,2.76277
 L -43.653,5.51465 L -43.2206,8.24477 L -42.6176,10.9424 L -41.8465,13.5967 L -40.9102,16.1975 L -39.8124,18.7343
 L -38.5575,21.1972 L -37.1504,23.5764 L -35.5967,25.8625 L -33.9026,28.0466 L -32.0746,30.1201 L -30.1201,32.0746
 L -28.0466,33.9026 L -25.8625,35.5967 L -23.5764,37.1504 L -21.1972,38.5575 L -18.7343,39.8124 L -16.1975,40.9102
 L -13.5967,41.8465 L -10.9424,42.6176 L -8.24477,43.2206 L -5.51465,43.653 L -2.76277,43.9132 L 0,44
 L 2.76277,43.9132 L 5.51465,43.653 L 8.24477,43.2206 L 10.9424,42.6176 L 13.5967,41.8465 L 16.1975,40.9102
 L 18.7343,39.8124 L 21.1972,38.5575 L 23.5764,37.1504 L 25.8625,35.5967 L 28.0466,33.9026 L 30.1201,32.0746
 L 32.0746,30.1201 L 33.9026,28.0466 L 35.5967,25.8625 L 37.1504,23.5764 L 38.5575,21.1972 L 39.8124,18.7343
 L 40.9102,16.1975 L 41.8465,13.5967 L 42.6176,10.9424 L 43.2206,8.24477 L 43.653,5.51465 L 43.9132,2.76277
 L 44,-0 L 43.9132,-2.76277 L 43.653,-5.51465 L 43.2206,-8.24477 L 42.6176,-10.9424 L 41.8465,-13.5967
 L 40.9102,-16.1975 L 39.8124,-18.7343 L 38.5575,-21.1972 L 37.1504,-23.5764 L 35.5967,-25.8625 L 33.9026,-28.0466
 L 32.0746,-30.1201 L 30.1201,-32.0746 L 28.0466,-33.9026 L 25.8625,-35.5967 L 23.5764,-37.1504 L 21.1972,-38.5575
 L 18.7343,-39.8124 L 16.1975,-40.9102 L 13.5967,-41.8465 L 10.9424,-42.6176 z
M -5.63255,-40.5985 L -5.13866,-40.6767 L -2.5744,-40.9191 L -0.934875,-40.9706 L -2.62819,-36.6085 z
M -0.504776,-33.7885 L 2.26698,-40.9287 L 2.5744,-40.9191 L 5.13866,-40.6767 L 7.68263,-40.2738 L 10.1963,-39.7119
 L 10.7451,-39.5525 L 5.79208,-25.4259 z
M -26.864,-30.9477 L -26.1344,-31.591 L -24.0992,-33.1697 L -21.9689,-34.6174 L -19.7519,-35.9286 L -17.4569,-37.0979
 L -15.0931,-38.1208 L -12.6697,-38.9933 L -10.1963,-39.7119 L -8.93298,-39.9943 L -3.90562,-33.3177 L -7.32133,-24.5185
 z
M 13.6094,-38.655 L 15.0931,-38.1208 L 17.4569,-37.0979 L 19.7519,-35.9286 L 21.9689,-34.6174 L 24.0992,-33.1697
 L 26.1344,-31.591 L 28.0664,-29.8877 L 29.8877,-28.0664 L 30.3662,-27.5237 L 8.64569,-24.4977 z
M -4.46767,-23.5797 L -1.78223,-30.4977 L 3.29674,-23.7525 L -2.52678,-22.9412 z
M -30.5384,-24.6251 L -30.7695,-27.0663 L -30.0796,-27.8488 L -27.5438,-21.9497 z
M -26.7763,-27.7607 L -9.27074,-22.0017 L -23.4516,-20.0261 z
M 11.0183,-18.4851 L 8.75977,-21.4846 L 32.6194,-24.8086 L 32.6825,-24.7272 L 20.7833,-15.2726 z
M -35.9286,-19.7519 L -34.6174,-21.9689 L -33.6543,-23.386 L -33.4143,-23.1716 L -32.9908,-18.6971 L -36.7315,-18.176
 z
M 25.3758,-13.7617 L 35.1958,-20.991 L 35.9286,-19.7519 L 37.0979,-17.4569 L 37.8739,-15.6638 L 32.3974,-11.4518
 z
M 3.94125,-20.8133 L 4.18686,-20.8475 L 4.15071,-20.7444 z
M -30.1225,-20.2306 L -29.0246,-19.2497 L -30.0166,-19.1115 z
M -10.8564,-7.12164 L -6.08368,-19.4167 L -2.80269,-19.8738 L 3.15791,-17.9129 L -1.74214,-3.93721 z
M -22.1963,-17.172 L -9.48576,-18.9427 L -13.2692,-9.19624 z
M 1.08998,-2.94771 L 6.00819,-16.9752 L 9.18747,-15.9292 L 13.8375,-9.75372 L 3.99454,-1.93289 z
M -29.4982,-13.6349 L -29.7336,-16.1219 L -26.0916,-16.6293 L -24.7364,-15.4185 L -22.9927,-11.3619 z
M -34.6544,-15.4364 L -32.7078,-15.7076 L -32.6147,-14.7237 z
M 14.1794,-14.287 L 17.9724,-13.0392 L 16.1871,-11.6206 z
M -39.0258,-12.558 L -38.9933,-12.6697 L -38.64,-13.6511 L -32.3036,-11.4372 L -31.7037,-5.09872 z
M 35.8439,-10.3179 L 38.9735,-12.7248 L 38.9933,-12.6697 L 39.7119,-10.1963 L 39.9896,-8.95404 z
M 18.4269,-8.6461 L 22.4108,-11.579 L 29.5213,-9.23975 L 22.2126,-3.61848 z
M -19.1502,-10.0194 L -19.4351,-10.6821 L -18.3999,-9.75725 z
M -28.3687,-1.70131 L -29.1871,-10.3483 L -21.3853,-7.62248 L -17.4416,1.5522 L -19.6331,7.19778 z
M -35.1247,21.1111 L -35.9286,19.7519 L -37.0979,17.4569 L -38.1208,15.0931 L -38.9933,12.6697 L -39.7119,10.1963
 L -40.2738,7.68263 L -40.6767,5.13866 L -40.9191,2.5744 L -41,-0 L -40.9191,-2.5744 L -40.6767,-5.13866
 L -40.2738,-7.68263 L -39.9344,-9.201 L -31.2551,-0.359177 L -29.1787,21.5781 z
M 30.4388,7.30641 L 24.0172,-1.22179 L 32.9679,-8.10588 L 40.6047,-5.59354 L 40.6767,-5.13866 L 40.9191,-2.5744
 L 41,-0 L 40.9191,2.5744 L 40.6767,5.13866 L 40.2738,7.68263 L 39.7119,10.1963 L 39.6196,10.5141
 z
M 7.59778,-0.673965 L 16.0108,-6.86745 L 19.8344,-1.78943 L 15.0148,1.91745 z
M -17.5428,-6.27997 L -14.7765,-5.31343 L -15.8921,-2.43959 z
M -14.201,1.49435 L -12.0393,-4.07448 L -4.16168,2.96365 L -4.7733,4.70807 L -10.8855,9.20773 z
M -5.16431,-1.95505 L -2.73473,-1.10619 L -3.08763,-0.0996857 z
M 0.0973816,-0.116684 L 1.21658,0.274353 L 0.803772,0.602356 L -0.488205,1.55348 z
M 18.3985,3.09967 L 21.6391,0.607269 L 25.3427,5.52591 z
M 1.42999,3.93651 L 2.62686,2.98552 L 4.67043,1.48108 L 12.1736,4.10262 L 6.50003,8.46626 z
M -27.9201,3.03824 L -20.8245,10.2667 L -24.2256,19.0285 L -26.2645,20.5294 z
M 26.0285,25.9137 L 8.77647,10.5001 L 15.5573,5.28484 L 28.5898,9.83823 L 34.9999,18.3512 L 27.9916,26.0678
 z
M -17.327,9.5471 L -15.7506,5.48615 L -13.366,11.0338 L -14.8182,12.1029 z
M -2.38712,6.96942 L -0.953278,5.83015 L 4.08031,10.3273 L -6.3871,18.3779 z
M -9.43907,12.5726 L -6.79378,10.4708 L -8.38803,15.0178 z
M 33.6859,11.6187 L 38.7364,13.3833 L 38.2271,14.7979 L 37.0531,16.0906 z
M -3.54076,23.5915 L -5.56444,21.5299 L 6.35674,12.3612 L 21.0918,25.526 z
M -18.5183,12.616 L -17.2585,13.8994 L -19.7199,15.7115 z
M -12.2021,14.768 L -11.8732,14.5067 L -11.4171,15.5677 z
M -21.529,22.1788 L -14.5638,16.6446 L -10.4336,20.8521 L -10.7399,21.7258 L -12.274,22.9056 z
M -33.0254,24.2852 L -31.5262,24.403 L -32.4223,25.0627 z
M -25.3482,30.2104 L -23.3433,25.0456 L -15.8241,25.6361 L -22.3464,30.6525 L -25.288,30.8467 z
M -9.11659,26.1628 L -6.78404,26.346 L -5.41357,29.5343 L -10.4145,29.8645 z
M -0.340088,26.8521 L 15.8954,28.1271 L 1.82367,29.0564 z
M -12.5569,26.9079 L -13.6689,30.0794 L -16.9634,30.297 z
M -29.4676,28.4865 L -28.5908,27.7898 L -28.4262,29.5279 z
M -2.33287,29.1045 L -2.12425,29.3171 L -2.23828,29.3246 z
M 4.59528,31.8799 L 23.869,30.6071 L 18.6061,36.4018 L 18.2074,36.7155 L 17.4569,37.0979 L 15.0931,38.1208
 L 12.6697,38.9933 L 11.8202,39.2401 z
M -0.981598,32.2482 L 0.647354,32.1406 L 8.4604,40.0999 L 7.68263,40.2738 L 5.13866,40.6767 L 2.73889,40.9035
 z
M -2.5744,40.9191 L -5.13866,40.6767 L -7.68263,40.2738 L -10.1963,39.7119 L -12.6697,38.9933 L -13.5092,38.6911
 L -11.4936,32.9423 L -4.15689,32.4578 L -0.491699,40.9845 z
M -17.4569,37.0979 L -19.7519,35.9286 L -21.9689,34.6174 L -22.2937,34.3967 L -21.2396,33.5859 L -14.748,33.1572
 L -16.3045,37.5966 z
" stroke="black" fill="lightgray" stroke-width="0.5"/>
</svg>
