  0
SECTION
  2
BLOCKS
  0
ENDSEC
  0
SECTION
  2
ENTITIES
  0
LINE
  8
0
 10
2.76277
 20
-43.9132
 11
5.51465
 21
-43.653
  0
LINE
  8
0
 10
5.51465
 20
-43.653
 11
8.24477
 21
-43.2206
  0
LINE
  8
0
 10
8.24477
 20
-43.2206
 11
10.9424
 21
-42.6176
  0
LINE
  8
0
 10
10.9424
 20
-42.6176
 11
13.5967
 21
-41.8465
  0
LINE
  8
0
 10
13.5967
 20
-41.8465
 11
16.1975
 21
-40.9102
  0
LINE
  8
0
 10
16.1975
 20
-40.9102
 11
18.7343
 21
-39.8124
  0
LINE
  8
0
 10
18.7343
 20
-39.8124
 11
21.1972
 21
-38.5575
  0
LINE
  8
0
 10
21.1972
 20
-38.5575
 11
23.5764
 21
-37.1504
  0
LINE
  8
0
 10
23.5764
 20
-37.1504
 11
25.8625
 21
-35.5967
  0
LINE
  8
0
 10
25.8625
 20
-35.5967
 11
28.0466
 21
-33.9026
  0
LINE
  8
0
 10
28.0466
 20
-33.9026
 11
30.1201
 21
-32.0746
  0
LINE
  8
0
 10
30.1201
 20
-32.0746
 11
32.0746
 21
-30.1201
  0
LINE
  8
0
 10
32.0746
 20
-30.1201
 11
33.9026
 21
-28.0466
  0
LINE
  8
0
 10
33.9026
 20
-28.0466
 11
35.5967
 21
-25.8625
  0
LINE
  8
0
 10
35.5967
 20
-25.8625
 11
37.1504
 21
-23.5764
  0
LINE
  8
0
 10
37.1504
 20
-23.5764
 11
38.5575
 21
-21.1972
  0
LINE
  8
0
 10
38.5575
 20
-21.1972
 11
39.8124
 21
-18.7343
  0
LINE
  8
0
 10
39.8124
 20
-18.7343
 11
40.9102
 21
-16.1975
  0
LINE
  8
0
 10
40.9102
 20
-16.1975
 11
41.8465
 21
-13.5967
  0
LINE
  8
0
 10
41.8465
 20
-13.5967
 11
42.6176
 21
-10.9424
  0
LINE
  8
0
 10
42.6176
 20
-10.9424
 11
43.2206
 21
-8.24477
  0
LINE
  8
0
 10
43.2206
 20
-8.24477
 11
43.653
 21
-5.51465
  0
LINE
  8
0
 10
43.653
 20
-5.51465
 11
43.9132
 21
-2.76277
  0
LINE
  8
0
 10
43.9132
 20
-2.76277
 11
44
 21
0
  0
LINE
  8
0
 10
44
 20
0
 11
43.9132
 21
2.76277
  0
LINE
  8
0
 10
43.9132
 20
2.76277
 11
43.653
 21
5.51465
  0
LINE
  8
0
 10
43.653
 20
5.51465
 11
43.2206
 21
8.24477
  0
LINE
  8
0
 10
43.2206
 20
8.24477
 11
42.6176
 21
10.9424
  0
LINE
  8
0
 10
42.6176
 20
10.9424
 11
41.8465
 21
13.5967
  0
LINE
  8
0
 10
41.8465
 20
13.5967
 11
40.9102
 21
16.1975
  0
LINE
  8
0
 10
40.9102
 20
16.1975
 11
39.8124
 21
18.7343
  0
LINE
  8
0
 10
39.8124
 20
18.7343
 11
38.5575
 21
21.1972
  0
LINE
  8
0
 10
38.5575
 20
21.1972
 11
37.1504
 21
23.5764
  0
LINE
  8
0
 10
37.1504
 20
23.5764
 11
35.5967
 21
25.8625
  0
LINE
  8
0
 10
35.5967
 20
25.8625
 11
33.9026
 21
28.0466
  0
LINE
  8
0
 10
33.9026
 20
28.0466
 11
32.0746
 21
30.1201
  0
LINE
  8
0
 10
32.0746
 20
30.1201
 11
30.1201
 21
32.0746
  0
LINE
  8
0
 10
30.1201
 20
32.0746
 11
28.0466
 21
33.9026
  0
LINE
  8
0
 10
28.0466
 20
33.9026
 11
25.8625
 21
35.5967
  0
LINE
  8
0
 10
25.8625
 20
35.5967
 11
23.5764
 21
37.1504
  0
LINE
  8
0
 10
23.5764
 20
37.1504
 11
21.1972
 21
38.5575
  0
LINE
  8
0
 10
21.1972
 20
38.5575
 11
18.7343
 21
39.8124
  0
LINE
  8
0
 10
18.7343
 20
39.8124
 11
16.1975
 21
40.9102
  0
LINE
  8
0
 10
16.1975
 20
40.9102
 11
13.5967
 21
41.8465
  0
LINE
  8
0
 10
13.5967
 20
41.8465
 11
10.9424
 21
42.6176
  0
LINE
  8
0
 10
10.9424
 20
42.6176
 11
8.24477
 21
43.2206
  0
LINE
  8
0
 10
8.24477
 20
43.2206
 11
5.51465
 21
43.653
  0
LINE
  8
0
 10
5.51465
 20
43.653
 11
2.76277
 21
43.9132
  0
LINE
  8
0
 10
2.76277
 20
43.9132
 11
0
 21
44
  0
LINE
  8
0
 10
0
 20
44
 11
-2.76277
 21
43.9132
  0
LINE
  8
0
 10
-2.76277
 20
43.9132
 11
-5.51465
 21
43.653
  0
LINE
  8
0
 10
-5.51465
 20
43.653
 11
-8.24477
 21
43.2206
  0
LINE
  8
0
 10
-8.24477
 20
43.2206
 11
-10.9424
 21
42.6176
  0
LINE
  8
0
 10
-10.9424
 20
42.6176
 11
-13.5967
 21
41.8465
  0
LINE
  8
0
 10
-13.5967
 20
41.8465
 11
-16.1975
 21
40.9102
  0
LINE
  8
0
 10
-16.1975
 20
40.9102
 11
-18.7343
 21
39.8124
  0
LINE
  8
0
 10
-18.7343
 20
39.8124
 11
-21.1972
 21
38.5575
  0
LINE
  8
0
 10
-21.1972
 20
38.5575
 11
-23.5764
 21
37.1504
  0
LINE
  8
0
 10
-23.5764
 20
37.1504
 11
-25.8625
 21
35.5967
  0
LINE
  8
0
 10
-25.8625
 20
35.5967
 11
-28.0466
 21
33.9026
  0
LINE
  8
0
 10
-28.0466
 20
33.9026
 11
-30.1201
 21
32.0746
  0
LINE
  8
0
 10
-30.1201
 20
32.0746
 11
-32.0746
 21
30.1201
  0
LINE
  8
0
 10
-32.0746
 20
30.1201
 11
-33.9026
 21
28.0466
  0
LINE
  8
0
 10
-33.9026
 20
28.0466
 11
-35.5967
 21
25.8625
  0
LINE
  8
0
 10
-35.5967
 20
25.8625
 11
-37.1504
 21
23.5764
  0
LINE
  8
0
 10
-37.1504
 20
23.5764
 11
-38.5575
 21
21.1972
  0
LINE
  8
0
 10
-38.5575
 20
21.1972
 11
-39.8124
 21
18.7343
  0
LINE
  8
0
 10
-39.8124
 20
18.7343
 11
-40.9102
 21
16.1975
  0
LINE
  8
0
 10
-40.9102
 20
16.1975
 11
-41.8465
 21
13.5967
  0
LINE
  8
0
 10
-41.8465
 20
13.5967
 11
-42.6176
 21
10.9424
  0
LINE
  8
0
 10
-42.6176
 20
10.9424
 11
-43.2206
 21
8.24477
  0
LINE
  8
0
 10
-43.2206
 20
8.24477
 11
-43.653
 21
5.51465
  0
LINE
  8
0
 10
-43.653
 20
5.51465
 11
-43.9132
 21
2.76277
  0
LINE
  8
0
 10
-43.9132
 20
2.76277
 11
-44
 21
0
  0
LINE
  8
0
 10
-44
 20
0
 11
-43.9132
 21
-2.76277
  0
LINE
  8
0
 10
-43.9132
 20
-2.76277
 11
-43.653
 21
-5.51465
  0
LINE
  8
0
 10
-43.653
 20
-5.51465
 11
-43.2206
 21
-8.24477
  0
LINE
  8
0
 10
-43.2206
 20
-8.24477
 11
-42.6176
 21
-10.9424
  0
LINE
  8
0
 10
-42.6176
 20
-10.9424
 11
-41.8465
 21
-13.5967
  0
LINE
  8
0
 10
-41.8465
 20
-13.5967
 11
-40.9102
 21
-16.1975
  0
LINE
  8
0
 10
-40.9102
 20
-16.1975
 11
-39.8124
 21
-18.7343
  0
LINE
  8
0
 10
-39.8124
 20
-18.7343
 11
-38.5575
 21
-21.1972
  0
LINE
  8
0
 10
-38.5575
 20
-21.1972
 11
-37.1504
 21
-23.5764
  0
LINE
  8
0
 10
-37.1504
 20
-23.5764
 11
-35.5967
 21
-25.8625
  0
LINE
  8
0
 10
-35.5967
 20
-25.8625
 11
-33.9026
 21
-28.0466
  0
LINE
  8
0
 10
-33.9026
 20
-28.0466
 11
-32.0746
 21
-30.1201
  0
LINE
  8
0
 10
-32.0746
 20
-30.1201
 11
-30.1201
 21
-32.0746
  0
LINE
  8
0
 10
-30.1201
 20
-32.0746
 11
-28.0466
 21
-33.9026
  0
LINE
  8
0
 10
-28.0466
 20
-33.9026
 11
-25.8625
 21
-35.5967
  0
LINE
  8
0
 10
-25.8625
 20
-35.5967
 11
-23.5764
 21
-37.1504
  0
LINE
  8
0
 10
-23.5764
 20
-37.1504
 11
-21.1972
 21
-38.5575
  0
LINE
  8
0
 10
-21.1972
 20
-38.5575
 11
-18.7343
 21
-39.8124
  0
LINE
  8
0
 10
-18.7343
 20
-39.8124
 11
-16.1975
 21
-40.9102
  0
LINE
  8
0
 10
-16.1975
 20
-40.9102
 11
-13.5967
 21
-41.8465
  0
LINE
  8
0
 10
-13.5967
 20
-41.8465
 11
-10.9424
 21
-42.6176
  0
LINE
  8
0
 10
-10.9424
 20
-42.6176
 11
-8.24477
 21
-43.2206
  0
LINE
  8
0
 10
-8.24477
 20
-43.2206
 11
-5.51465
 21
-43.653
  0
LINE
  8
0
 10
-5.51465
 20
-43.653
 11
-2.76277
 21
-43.9132
  0
LINE
  8
0
 10
-2.76277
 20
-43.9132
 11
0
 21
-44
  0
LINE
  8
0
 10
0
 20
-44
 11
2.76277
 21
-43.9132
  0
LINE
  8
0
 10
-4.96536
 20
40.6931
 11
-2.5744
 21
40.9191
  0
LINE
  8
0
 10
-2.5744
 20
40.9191
 11
0
 21
41
  0
LINE
  8
0
 10
0
 20
41
 11
2.5744
 21
40.9191
  0
LINE
  8
0
 10
2.5744
 20
40.9191
 11
3.18481
 21
40.8614
  0
LINE
  8
0
 10
3.18481
 20
40.8614
 11
-5.27646
 21
37.3069
  0
LINE
  8
0
 10
-5.27646
 20
37.3069
 11
-4.96536
 21
40.6931
  0
LINE
  8
0
 10
-11.2672
 20
37.0496
 11
-10.8555
 21
39.5204
  0
LINE
  8
0
 10
-10.8555
 20
39.5204
 11
-10.1963
 21
39.7119
  0
LINE
  8
0
 10
-10.1963
 20
39.7119
 11
-8.02351
 21
40.1976
  0
LINE
  8
0
 10
-8.02351
 20
40.1976
 11
-8.41002
 21
35.9905
  0
LINE
  8
0
 10
-8.41002
 20
35.9905
 11
-9.16835
 21
35.6719
  0
LINE
  8
0
 10
-9.16835
 20
35.6719
 11
-11.2672
 21
37.0496
  0
LINE
  8
0
 10
10.7408
 20
22.944
 11
7.58821
 21
39.4572
  0
LINE
  8
0
 10
7.58821
 20
39.4572
 11
8.88965
 21
40.004
  0
LINE
  8
0
 10
8.88965
 20
40.004
 11
10.1963
 21
39.7119
  0
LINE
  8
0
 10
10.1963
 20
39.7119
 11
12.6697
 21
38.9933
  0
LINE
  8
0
 10
12.6697
 20
38.9933
 11
15.0931
 21
38.1208
  0
LINE
  8
0
 10
15.0931
 20
38.1208
 11
17.4569
 21
37.0979
  0
LINE
  8
0
 10
17.4569
 20
37.0979
 11
19.6932
 21
35.9585
  0
LINE
  8
0
 10
19.6932
 20
35.9585
 11
16.171
 21
20.7392
  0
LINE
  8
0
 10
16.171
 20
20.7392
 11
10.7408
 21
22.944
  0
LINE
  8
0
 10
-5.63947
 20
33.3555
 11
-5.5874
 21
33.9223
  0
LINE
  8
0
 10
-5.5874
 20
33.9223
 11
4.76079
 21
38.2695
  0
LINE
  8
0
 10
4.76079
 20
38.2695
 11
7.32333
 21
24.8467
  0
LINE
  8
0
 10
7.32333
 20
24.8467
 11
-5.63947
 21
33.3555
  0
LINE
  8
0
 10
-20.3573
 20
35.5705
 11
-19.7519
 21
35.9286
  0
LINE
  8
0
 10
-19.7519
 20
35.9286
 11
-17.4569
 21
37.0979
  0
LINE
  8
0
 10
-17.4569
 20
37.0979
 11
-17.0657
 21
37.2672
  0
LINE
  8
0
 10
-17.0657
 20
37.2672
 11
-14.5477
 21
35.6144
  0
LINE
  8
0
 10
-14.5477
 20
35.6144
 11
-14.9227
 21
33.364
  0
LINE
  8
0
 10
-14.9227
 20
33.364
 11
-20.3573
 21
35.5705
  0
LINE
  8
0
 10
-28.7522
 20
29.2019
 11
-28.0664
 21
29.8877
  0
LINE
  8
0
 10
-28.0664
 20
29.8877
 11
-26.1344
 21
31.591
  0
LINE
  8
0
 10
-26.1344
 20
31.591
 11
-24.0992
 21
33.1697
  0
LINE
  8
0
 10
-24.0992
 20
33.1697
 11
-23.4707
 21
33.5968
  0
LINE
  8
0
 10
-23.4707
 20
33.5968
 11
-18.7096
 21
31.6637
  0
LINE
  8
0
 10
-18.7096
 20
31.6637
 11
-27.6881
 21
27.8919
  0
LINE
  8
0
 10
-27.6881
 20
27.8919
 11
-28.7522
 21
29.2019
  0
LINE
  8
0
 10
-10.8514
 20
31.7109
 11
-9.47917
 21
32.2874
  0
LINE
  8
0
 10
-9.47917
 20
32.2874
 11
-8.79169
 21
31.8361
  0
LINE
  8
0
 10
-8.79169
 20
31.8361
 11
-8.87685
 21
30.9092
  0
LINE
  8
0
 10
-8.87685
 20
30.9092
 11
-10.8514
 21
31.7109
  0
LINE
  8
0
 10
26.026
 20
16.7378
 11
26.9752
 21
30.8498
  0
LINE
  8
0
 10
26.9752
 20
30.8498
 11
28.0664
 21
29.8877
  0
LINE
  8
0
 10
28.0664
 20
29.8877
 11
29.8877
 21
28.0664
  0
LINE
  8
0
 10
29.8877
 20
28.0664
 11
31.591
 21
26.1344
  0
LINE
  8
0
 10
31.591
 20
26.1344
 11
33.1697
 21
24.0992
  0
LINE
  8
0
 10
33.1697
 20
24.0992
 11
34.6174
 21
21.9689
  0
LINE
  8
0
 10
34.6174
 20
21.9689
 11
35.9286
 21
19.7519
  0
LINE
  8
0
 10
35.9286
 20
19.7519
 11
37.0979
 21
17.4569
  0
LINE
  8
0
 10
37.0979
 20
17.4569
 11
38.1208
 21
15.0931
  0
LINE
  8
0
 10
38.1208
 20
15.0931
 11
38.9933
 21
12.6697
  0
LINE
  8
0
 10
38.9933
 20
12.6697
 11
39.3876
 21
11.3127
  0
LINE
  8
0
 10
39.3876
 20
11.3127
 11
26.026
 21
16.7378
  0
LINE
  8
0
 10
-5.97255
 20
29.73
 11
-5.95039
 21
29.9711
  0
LINE
  8
0
 10
-5.95039
 20
29.9711
 11
-4.95157
 21
29.3154
  0
LINE
  8
0
 10
-4.95157
 20
29.3154
 11
-5.97255
 21
29.73
  0
LINE
  8
0
 10
-25.7175
 20
25.4658
 11
-15.5254
 21
29.7474
  0
LINE
  8
0
 10
-15.5254
 20
29.7474
 11
-17.8525
 21
15.7831
  0
LINE
  8
0
 10
-17.8525
 20
15.7831
 11
-25.7175
 21
25.4658
  0
LINE
  8
0
 10
-15.3289
 20
12.6762
 11
-12.5795
 21
29.1747
  0
LINE
  8
0
 10
-12.5795
 20
29.1747
 11
-9.16362
 21
27.7878
  0
LINE
  8
0
 10
-9.16362
 20
27.7878
 11
-11.0373
 21
7.39273
  0
LINE
  8
0
 10
-11.0373
 20
7.39273
 11
-15.3289
 21
12.6762
  0
LINE
  8
0
 10
18.9858
 20
19.5963
 11
20.7067
 21
27.0322
  0
LINE
  8
0
 10
20.7067
 20
27.0322
 11
19.5822
 21
19.3541
  0
LINE
  8
0
 10
19.5822
 20
19.3541
 11
18.9858
 21
19.5963
  0
LINE
  8
0
 10
-30.8283
 20
26.9996
 11
-30.5698
 21
26.6813
  0
LINE
  8
0
 10
-30.5698
 20
26.6813
 11
-31.4259
 21
26.3217
  0
LINE
  8
0
 10
-31.4259
 20
26.3217
 11
-30.8283
 21
26.9996
  0
LINE
  8
0
 10
22.444
 20
18.1922
 11
23.6886
 21
26.6903
  0
LINE
  8
0
 10
23.6886
 20
26.6903
 11
23.0991
 21
17.9262
  0
LINE
  8
0
 10
23.0991
 20
17.9262
 11
22.444
 21
18.1922
  0
LINE
  8
0
 10
-8.33081
 20
4.06067
 11
-6.25931
 21
26.6086
  0
LINE
  8
0
 10
-6.25931
 20
26.6086
 11
7.9801
 21
20.827
  0
LINE
  8
0
 10
7.9801
 20
20.827
 11
8.10658
 21
20.744
  0
LINE
  8
0
 10
8.10658
 20
20.744
 11
11.7524
 21
1.64676
  0
LINE
  8
0
 10
11.7524
 20
1.64676
 11
11.2665
 21
-0.452911
  0
LINE
  8
0
 10
11.2665
 20
-0.452911
 11
0.622055
 21
-3.95445
  0
LINE
  8
0
 10
0.622055
 20
-3.95445
 11
-1.80449
 21
-3.97403
  0
LINE
  8
0
 10
-1.80449
 20
-3.97403
 11
-8.33081
 21
4.06067
  0
LINE
  8
0
 10
-36.2328
 20
19.1548
 11
-35.9286
 21
19.7519
  0
LINE
  8
0
 10
-35.9286
 20
19.7519
 11
-34.8078
 21
21.647
  0
LINE
  8
0
 10
-34.8078
 20
21.647
 11
-28.5991
 21
24.2552
  0
LINE
  8
0
 10
-28.5991
 20
24.2552
 11
-18.5105
 21
11.8348
  0
LINE
  8
0
 10
-18.5105
 20
11.8348
 11
-21.0129
 21
-3.18153
  0
LINE
  8
0
 10
-21.0129
 20
-3.18153
 11
-36.2328
 21
19.1548
  0
LINE
  8
0
 10
11.5983
 20
18.452
 11
15.1084
 21
16.1479
  0
LINE
  8
0
 10
15.1084
 20
16.1479
 11
13.426
 21
8.87831
  0
LINE
  8
0
 10
13.426
 20
8.87831
 11
11.5983
 21
18.452
  0
LINE
  8
0
 10
22.3125
 20
15.0077
 11
22.8871
 21
14.7744
  0
LINE
  8
0
 10
22.8871
 20
14.7744
 11
22.8778
 21
14.6366
  0
LINE
  8
0
 10
22.8778
 20
14.6366
 11
22.3125
 21
15.0077
  0
LINE
  8
0
 10
14.818
 20
1.5873
 11
17.7816
 21
14.3932
  0
LINE
  8
0
 10
17.7816
 20
14.3932
 11
18.7615
 21
13.7501
  0
LINE
  8
0
 10
18.7615
 20
13.7501
 11
16.9554
 21
1.41849
  0
LINE
  8
0
 10
16.9554
 20
1.41849
 11
14.9746
 21
0.766876
  0
LINE
  8
0
 10
14.9746
 20
0.766876
 11
14.818
 21
1.5873
  0
LINE
  8
0
 10
-36.5812
 20
14.3385
 11
-23.9812
 21
-4.15288
  0
LINE
  8
0
 10
-23.9812
 20
-4.15288
 11
-30.4882
 21
-4.20537
  0
LINE
  8
0
 10
-30.4882
 20
-4.20537
 11
-36.5812
 21
14.3385
  0
LINE
  8
0
 10
25.7575
 20
12.7464
 11
25.814
 21
13.586
  0
LINE
  8
0
 10
25.814
 20
13.586
 11
38.4041
 21
8.47412
  0
LINE
  8
0
 10
38.4041
 20
8.47412
 11
34.3152
 21
7.12906
  0
LINE
  8
0
 10
34.3152
 20
7.12906
 11
25.7575
 21
12.7464
  0
LINE
  8
0
 10
-40.9191
 20
-2.5744
 11
-41
 21
0
  0
LINE
  8
0
 10
-41
 20
0
 11
-40.9191
 21
2.5744
  0
LINE
  8
0
 10
-40.9191
 20
2.5744
 11
-40.6767
 21
5.13866
  0
LINE
  8
0
 10
-40.6767
 20
5.13866
 11
-40.2738
 21
7.68263
  0
LINE
  8
0
 10
-40.2738
 20
7.68263
 11
-39.7119
 21
10.1963
  0
LINE
  8
0
 10
-39.7119
 20
10.1963
 11
-39.0859
 21
12.351
  0
LINE
  8
0
 10
-39.0859
 20
12.351
 11
-33.6376
 21
-4.23076
  0
LINE
  8
0
 10
-33.6376
 20
-4.23076
 11
-40.7571
 21
-4.28818
  0
LINE
  8
0
 10
-40.7571
 20
-4.28818
 11
-40.9191
 21
-2.5744
  0
LINE
  8
0
 10
21.5275
 20
11.9344
 11
22.6467
 21
11.1998
  0
LINE
  8
0
 10
22.6467
 20
11.1998
 11
22.1026
 21
3.11168
  0
LINE
  8
0
 10
22.1026
 20
3.11168
 11
20.1409
 21
2.46635
  0
LINE
  8
0
 10
20.1409
 20
2.46635
 11
21.5275
 21
11.9344
  0
LINE
  8
0
 10
25.5263
 20
9.30957
 11
30.6733
 21
5.93105
  0
LINE
  8
0
 10
30.6733
 20
5.93105
 11
25.1775
 21
4.12315
  0
LINE
  8
0
 10
25.1775
 20
4.12315
 11
25.5263
 21
9.30957
  0
LINE
  8
0
 10
-15.9869
 20
8.72797
 11
-11.4301
 21
3.11797
  0
LINE
  8
0
 10
-11.4301
 20
3.11797
 11
-12.0892
 21
-4.05698
  0
LINE
  8
0
 10
-12.0892
 20
-4.05698
 11
-18.1255
 21
-4.10565
  0
LINE
  8
0
 10
-18.1255
 20
-4.10565
 11
-15.9869
 21
8.72797
  0
LINE
  8
0
 10
37.5203
 20
5.02522
 11
40.5375
 21
6.01775
  0
LINE
  8
0
 10
40.5375
 20
6.01775
 11
40.6767
 21
5.13866
  0
LINE
  8
0
 10
40.6767
 20
5.13866
 11
40.8969
 21
2.80876
  0
LINE
  8
0
 10
40.8969
 20
2.80876
 11
37.5203
 21
5.02522
  0
LINE
  8
0
 10
24.9602
 20
0.893539
 11
33.8784
 21
3.82721
  0
LINE
  8
0
 10
33.8784
 20
3.82721
 11
38.7475
 21
0.631134
  0
LINE
  8
0
 10
38.7475
 20
0.631134
 11
29.7117
 21
-3.71983
  0
LINE
  8
0
 10
29.7117
 20
-3.71983
 11
24.6472
 21
-3.76068
  0
LINE
  8
0
 10
24.6472
 20
-3.76068
 11
24.9602
 21
0.893539
  0
LINE
  8
0
 10
19.655
 20
-0.851639
 11
21.8854
 21
-0.117935
  0
LINE
  8
0
 10
21.8854
 20
-0.117935
 11
21.6388
 21
-3.78494
  0
LINE
  8
0
 10
21.6388
 20
-3.78494
 11
19.2225
 21
-3.80444
  0
LINE
  8
0
 10
19.2225
 20
-3.80444
 11
19.655
 21
-0.851639
  0
LINE
  8
0
 10
-8.72354
 20
-0.214081
 11
-5.6443
 21
-4.00499
  0
LINE
  8
0
 10
-5.6443
 20
-4.00499
 11
-9.07436
 21
-4.03265
  0
LINE
  8
0
 10
-9.07436
 20
-4.03265
 11
-8.72354
 21
-0.214081
  0
LINE
  8
0
 10
40.9485
 20
-1.63869
 11
40.9191
 21
-2.5744
  0
LINE
  8
0
 10
40.9191
 20
-2.5744
 11
40.8193
 21
-3.63025
  0
LINE
  8
0
 10
40.8193
 20
-3.63025
 11
36.7443
 21
-3.66312
  0
LINE
  8
0
 10
36.7443
 20
-3.66312
 11
40.9485
 21
-1.63869
  0
LINE
  8
0
 10
15.5419
 20
-2.20467
 11
16.4695
 21
-1.89952
  0
LINE
  8
0
 10
16.4695
 20
-1.89952
 11
16.1869
 21
-3.82892
  0
LINE
  8
0
 10
16.1869
 20
-3.82892
 11
15.8525
 21
-3.83162
  0
LINE
  8
0
 10
15.8525
 20
-3.83162
 11
15.5419
 21
-2.20467
  0
LINE
  8
0
 10
10.4754
 20
-3.87131
 11
10.4745
 21
-3.87498
  0
LINE
  8
0
 10
10.4745
 20
-3.87498
 11
10.4639
 21
-3.87508
  0
LINE
  8
0
 10
10.4639
 20
-3.87508
 11
10.4754
 21
-3.87131
  0
LINE
  8
0
 10
24.249
 20
-9.67992
 11
30.4078
 21
-6.71431
  0
LINE
  8
0
 10
30.4078
 20
-6.71431
 11
40.44
 21
-6.63341
  0
LINE
  8
0
 10
40.44
 20
-6.63341
 11
40.2738
 21
-7.68263
  0
LINE
  8
0
 10
40.2738
 20
-7.68263
 11
39.7119
 21
-10.1963
  0
LINE
  8
0
 10
39.7119
 20
-10.1963
 11
38.9933
 21
-12.6697
  0
LINE
  8
0
 10
38.9933
 20
-12.6697
 11
38.1208
 21
-15.0931
  0
LINE
  8
0
 10
38.1208
 20
-15.0931
 11
37.0979
 21
-17.4569
  0
LINE
  8
0
 10
37.0979
 20
-17.4569
 11
35.9286
 21
-19.7519
  0
LINE
  8
0
 10
35.9286
 20
-19.7519
 11
34.6174
 21
-21.9689
  0
LINE
  8
0
 10
34.6174
 20
-21.9689
 11
33.1697
 21
-24.0992
  0
LINE
  8
0
 10
33.1697
 20
-24.0992
 11
33.0531
 21
-24.2495
  0
LINE
  8
0
 10
33.0531
 20
-24.2495
 11
23.1634
 21
-25.8198
  0
LINE
  8
0
 10
23.1634
 20
-25.8198
 11
24.249
 21
-9.67992
  0
LINE
  8
0
 10
18.7826
 20
-6.80807
 11
21.4369
 21
-6.78667
  0
LINE
  8
0
 10
21.4369
 20
-6.78667
 11
21.3731
 21
-7.73508
  0
LINE
  8
0
 10
21.3731
 20
-7.73508
 11
18.44
 21
-9.14742
  0
LINE
  8
0
 10
18.44
 20
-9.14742
 11
18.7826
 21
-6.80807
  0
LINE
  8
0
 10
12.864
 20
-6.8558
 11
13.3749
 21
-6.85168
  0
LINE
  8
0
 10
13.3749
 20
-6.85168
 11
14.2027
 21
-11.1878
  0
LINE
  8
0
 10
14.2027
 20
-11.1878
 11
11.5678
 21
-12.4566
  0
LINE
  8
0
 10
11.5678
 20
-12.4566
 11
12.864
 21
-6.8558
  0
LINE
  8
0
 10
0.718979
 20
-7.08072
 11
1.11464
 21
-6.95056
  0
LINE
  8
0
 10
1.11464
 20
-6.95056
 11
9.77893
 21
-6.88069
  0
LINE
  8
0
 10
9.77893
 20
-6.88069
 11
8.10231
 21
-14.1253
  0
LINE
  8
0
 10
8.10231
 20
-14.1253
 11
6.90811
 21
-14.7003
  0
LINE
  8
0
 10
6.90811
 20
-14.7003
 11
0.718979
 21
-7.08072
  0
LINE
  8
0
 10
-9.35017
 20
-7.03497
 11
-8.72725
 21
-7.02994
  0
LINE
  8
0
 10
-8.72725
 20
-7.02994
 11
-9.36911
 21
-7.24109
  0
LINE
  8
0
 10
-9.36911
 20
-7.24109
 11
-9.35017
 21
-7.03497
  0
LINE
  8
0
 10
-18.3378
 20
-7.10745
 11
-12.3651
 21
-7.05928
  0
LINE
  8
0
 10
-12.3651
 20
-7.05928
 11
-12.4756
 21
-8.26299
  0
LINE
  8
0
 10
-12.4756
 20
-8.26299
 11
-16.6212
 21
-9.62668
  0
LINE
  8
0
 10
-16.6212
 20
-9.62668
 11
-18.3378
 21
-7.10745
  0
LINE
  8
0
 10
-29.505
 20
-7.19753
 11
-21.9482
 21
-7.13657
  0
LINE
  8
0
 10
-21.9482
 20
-7.13657
 11
-21.7262
 21
-7.46228
  0
LINE
  8
0
 10
-21.7262
 20
-7.46228
 11
-22.4039
 21
-11.5289
  0
LINE
  8
0
 10
-22.4039
 20
-11.5289
 11
-27.528
 21
-13.2145
  0
LINE
  8
0
 10
-27.528
 20
-13.2145
 11
-29.505
 21
-7.19753
  0
LINE
  8
0
 10
-38.1208
 20
-15.0931
 11
-38.9933
 21
-12.6697
  0
LINE
  8
0
 10
-38.9933
 20
-12.6697
 11
-39.7119
 21
-10.1963
  0
LINE
  8
0
 10
-39.7119
 20
-10.1963
 11
-40.2738
 21
-7.68263
  0
LINE
  8
0
 10
-40.2738
 20
-7.68263
 11
-40.3368
 21
-7.28487
  0
LINE
  8
0
 10
-40.3368
 20
-7.28487
 11
-32.6545
 21
-7.22292
  0
LINE
  8
0
 10
-32.6545
 20
-7.22292
 11
-30.3778
 21
-14.152
  0
LINE
  8
0
 10
-30.3778
 20
-14.152
 11
-37.5125
 21
-16.499
  0
LINE
  8
0
 10
-37.5125
 20
-16.499
 11
-38.1208
 21
-15.0931
  0
LINE
  8
0
 10
-10.4238
 20
-18.7217
 11
-9.66829
 21
-10.4977
  0
LINE
  8
0
 10
-9.66829
 20
-10.4977
 11
-2.33104
 21
-8.08403
  0
LINE
  8
0
 10
-2.33104
 20
-8.08403
 11
4.12982
 21
-16.0381
  0
LINE
  8
0
 10
4.12982
 20
-16.0381
 11
-8.2052
 21
-21.9778
  0
LINE
  8
0
 10
-8.2052
 20
-21.9778
 11
-10.4238
 21
-18.7217
  0
LINE
  8
0
 10
17.7573
 20
-13.8091
 11
17.9154
 21
-12.7297
  0
LINE
  8
0
 10
17.9154
 20
-12.7297
 11
21.1416
 21
-11.1762
  0
LINE
  8
0
 10
21.1416
 20
-11.1762
 11
20.1289
 21
-26.2319
  0
LINE
  8
0
 10
20.1289
 20
-26.2319
 11
17.7573
 21
-13.8091
  0
LINE
  8
0
 10
-14.8633
 20
-12.2066
 11
-12.7748
 21
-11.5196
  0
LINE
  8
0
 10
-12.7748
 20
-11.5196
 11
-13.0786
 21
-14.8258
  0
LINE
  8
0
 10
-13.0786
 20
-14.8258
 11
-14.8633
 21
-12.2066
  0
LINE
  8
0
 10
-19.743
 20
-13.8118
 11
-17.8288
 21
-13.1821
  0
LINE
  8
0
 10
-17.8288
 20
-13.1821
 11
-13.5099
 21
-19.5204
  0
LINE
  8
0
 10
-13.5099
 20
-19.5204
 11
-13.9916
 21
-24.7641
  0
LINE
  8
0
 10
-13.9916
 20
-24.7641
 11
-22.2291
 21
-28.7307
  0
LINE
  8
0
 10
-22.2291
 20
-28.7307
 11
-19.743
 21
-13.8118
  0
LINE
  8
0
 10
10.1304
 20
-18.6674
 11
10.7006
 21
-16.2038
  0
LINE
  8
0
 10
10.7006
 20
-16.2038
 11
14.6533
 21
-14.3005
  0
LINE
  8
0
 10
14.6533
 20
-14.3005
 11
13.4206
 21
-22.7179
  0
LINE
  8
0
 10
13.4206
 20
-22.7179
 11
10.1304
 21
-18.6674
  0
LINE
  8
0
 10
-26.5915
 20
-16.0646
 11
-22.9607
 21
-14.8703
  0
LINE
  8
0
 10
-22.9607
 20
-14.8703
 11
-24.3146
 21
-22.9944
  0
LINE
  8
0
 10
-24.3146
 20
-22.9944
 11
-26.5915
 21
-16.0646
  0
LINE
  8
0
 10
-28.0664
 20
-29.8877
 11
-29.8877
 21
-28.0664
  0
LINE
  8
0
 10
-29.8877
 20
-28.0664
 11
-31.591
 21
-26.1344
  0
LINE
  8
0
 10
-31.591
 20
-26.1344
 11
-33.1697
 21
-24.0992
  0
LINE
  8
0
 10
-33.1697
 20
-24.0992
 11
-34.6174
 21
-21.9689
  0
LINE
  8
0
 10
-34.6174
 20
-21.9689
 11
-35.9286
 21
-19.7519
  0
LINE
  8
0
 10
-35.9286
 20
-19.7519
 11
-36.1973
 21
-19.2245
  0
LINE
  8
0
 10
-36.1973
 20
-19.2245
 11
-29.4413
 21
-17.0021
  0
LINE
  8
0
 10
-29.4413
 20
-17.0021
 11
-25.3772
 21
-29.371
  0
LINE
  8
0
 10
-25.3772
 20
-29.371
 11
-25.5358
 21
-30.3229
  0
LINE
  8
0
 10
-25.5358
 20
-30.3229
 11
-26.8532
 21
-30.9573
  0
LINE
  8
0
 10
-26.8532
 20
-30.9573
 11
-28.0664
 21
-29.8877
  0
LINE
  8
0
 10
-6.49689
 20
-24.4849
 11
6.07399
 21
-18.4317
  0
LINE
  8
0
 10
6.07399
 20
-18.4317
 11
6.87692
 21
-19.4202
  0
LINE
  8
0
 10
6.87692
 20
-19.4202
 11
4.71808
 21
-28.7484
  0
LINE
  8
0
 10
4.71808
 20
-28.7484
 11
-2.78047
 21
-29.939
  0
LINE
  8
0
 10
-2.78047
 20
-29.939
 11
-6.49689
 21
-24.4849
  0
LINE
  8
0
 10
9.27341
 20
-22.3705
 11
12.8301
 21
-26.7493
  0
LINE
  8
0
 10
12.8301
 20
-26.7493
 11
12.7235
 21
-27.4774
  0
LINE
  8
0
 10
12.7235
 20
-27.4774
 11
7.91484
 21
-28.2408
  0
LINE
  8
0
 10
7.91484
 20
-28.2408
 11
9.27341
 21
-22.3705
  0
LINE
  8
0
 10
15.9894
 20
-25.8805
 11
16.4314
 21
-22.8622
  0
LINE
  8
0
 10
16.4314
 20
-22.8622
 11
17.1775
 21
-26.7702
  0
LINE
  8
0
 10
17.1775
 20
-26.7702
 11
16.7652
 21
-26.8356
  0
LINE
  8
0
 10
16.7652
 20
-26.8356
 11
15.9894
 21
-25.8805
  0
LINE
  8
0
 10
-11.1596
 20
-26.7301
 11
-9.23029
 21
-25.8011
  0
LINE
  8
0
 10
-9.23029
 20
-25.8011
 11
-6.0563
 21
-30.4591
  0
LINE
  8
0
 10
-6.0563
 20
-30.4591
 11
-11.5828
 21
-31.3366
  0
LINE
  8
0
 10
-11.5828
 20
-31.3366
 11
-11.1596
 21
-26.7301
  0
LINE
  8
0
 10
22.611
 20
-34.0325
 11
22.9569
 21
-28.8901
  0
LINE
  8
0
 10
22.9569
 20
-28.8901
 11
30.1714
 21
-27.7447
  0
LINE
  8
0
 10
30.1714
 20
-27.7447
 11
29.8877
 21
-28.0664
  0
LINE
  8
0
 10
29.8877
 20
-28.0664
 11
28.0664
 21
-29.8877
  0
LINE
  8
0
 10
28.0664
 20
-29.8877
 11
26.1344
 21
-31.591
  0
LINE
  8
0
 10
26.1344
 20
-31.591
 11
24.0992
 21
-33.1697
  0
LINE
  8
0
 10
24.0992
 20
-33.1697
 11
22.6888
 21
-34.1282
  0
LINE
  8
0
 10
22.6888
 20
-34.1282
 11
22.611
 21
-34.0325
  0
LINE
  8
0
 10
-21.4578
 20
-31.6889
 11
-14.3117
 21
-28.2479
  0
LINE
  8
0
 10
-14.3117
 20
-28.2479
 11
-14.64
 21
-31.822
  0
LINE
  8
0
 10
-14.64
 20
-31.822
 11
-21.0782
 21
-32.8442
  0
LINE
  8
0
 10
-21.0782
 20
-32.8442
 11
-21.4578
 21
-31.6889
  0
LINE
  8
0
 10
15.3722
 20
-30.0944
 11
15.5273
 21
-30.0698
  0
LINE
  8
0
 10
15.5273
 20
-30.0698
 11
18.508
 21
-33.7395
  0
LINE
  8
0
 10
18.508
 20
-33.7395
 11
18.9992
 21
-36.3121
  0
LINE
  8
0
 10
18.9992
 20
-36.3121
 11
17.4569
 21
-37.0979
  0
LINE
  8
0
 10
17.4569
 20
-37.0979
 11
15.0931
 21
-38.1208
  0
LINE
  8
0
 10
15.0931
 20
-38.1208
 11
14.1468
 21
-38.4615
  0
LINE
  8
0
 10
14.1468
 20
-38.4615
 11
15.3722
 21
-30.0944
  0
LINE
  8
0
 10
7.18503
 20
-31.3943
 11
12.2681
 21
-30.5872
  0
LINE
  8
0
 10
12.2681
 20
-30.5872
 11
10.9644
 21
-39.4887
  0
LINE
  8
0
 10
10.9644
 20
-39.4887
 11
10.1963
 21
-39.7119
  0
LINE
  8
0
 10
10.1963
 20
-39.7119
 11
7.68263
 21
-40.2738
  0
LINE
  8
0
 10
7.68263
 20
-40.2738
 11
5.13866
 21
-40.6767
  0
LINE
  8
0
 10
5.13866
 20
-40.6767
 11
5.03452
 21
-40.6865
  0
LINE
  8
0
 10
5.03452
 20
-40.6865
 11
7.18503
 21
-31.3943
  0
LINE
  8
0
 10
-0.912735
 20
-32.68
 11
3.98827
 21
-31.9019
  0
LINE
  8
0
 10
3.98827
 20
-31.9019
 11
2.61128
 21
-37.8518
  0
LINE
  8
0
 10
2.61128
 20
-37.8518
 11
-0.912735
 21
-32.68
  0
LINE
  8
0
 10
-2.5744
 20
-40.9191
 11
-5.13866
 21
-40.6767
  0
LINE
  8
0
 10
-5.13866
 20
-40.6767
 11
-7.68263
 21
-40.2738
  0
LINE
  8
0
 10
-7.68263
 20
-40.2738
 11
-10.1963
 21
-39.7119
  0
LINE
  8
0
 10
-10.1963
 20
-39.7119
 11
-12.2962
 21
-39.1018
  0
LINE
  8
0
 10
-12.2962
 20
-39.1018
 11
-11.866
 21
-34.4191
  0
LINE
  8
0
 10
-11.866
 20
-34.4191
 11
-4.18858
 21
-33.2001
  0
LINE
  8
0
 10
-4.18858
 20
-33.2001
 11
1.10258
 21
-40.9653
  0
LINE
  8
0
 10
1.10258
 20
-40.9653
 11
0
 21
-41
  0
LINE
  8
0
 10
0
 20
-41
 11
-2.5744
 21
-40.9191
  0
LINE
  8
0
 10
-17.4569
 20
-37.0979
 11
-19.7519
 21
-35.9286
  0
LINE
  8
0
 10
-19.7519
 20
-35.9286
 11
-20.095
 21
-35.7257
  0
LINE
  8
0
 10
-20.095
 20
-35.7257
 11
-14.9232
 21
-34.9045
  0
LINE
  8
0
 10
-14.9232
 20
-34.9045
 11
-15.2139
 21
-38.0686
  0
LINE
  8
0
 10
-15.2139
 20
-38.0686
 11
-17.4569
 21
-37.0979
  0
ENDSEC
  0
SECTION
  2
OBJECTS
  0
DICTIONARY
  0
ENDSEC
  0
EOF
