<?xml version="1.0" standalone="no"?>
<!DOCTYPE svg PUBLIC "-//W3C//DTD SVG 1.1//EN" "http://www.w3.org/Graphics/SVG/1.1/DTD/svg11.dtd">
<svg width="88mm" height="88mm" viewBox="-44 -44 88 88" xmlns="http://www.w3.org/2000/svg" version="1.1">
<title>OpenSCAD Model</title>
<path d="
M 28.0466,-33.9026 L 25.8625,-35.5967 L 23.5764,-37.1504 L 21.1972,-38.5575 L 18.7343,-39.8124 L 16.1975,-40.9102
 L 13.5967,-41.8465 L 10.9424,-42.6176 L 8.24477,-43.2206 L 5.51465,-43.653 L 2.76277,-43.9132 L 0,-44
 L -2.76277,-43.9132 L -5.51465,-43.653 L -8.24477,-43.2206 L -10.9424,-42.6176 L -13.5967,-41.8465 L -16.1975,-40.9102
 L -18.7343,-39.8124 L -21.1972,-38.5575 L -23.5764,-37.1504 L -25.8625,-35.5967 L -28.0466,-33.9026 L -30.1201,-32.0746
 L -32.0746,-30.1201 L -33.9026,-28.0466 L -35.5967,-25.8625 L -37.1504,-23.5764 L -38.5575,-21.1972 L -39.8124,-18.7343
 L -40.9102,-16.1975 L -41.8465,-13.5967 L -42.6176,-10.9424 L -43.2206,-8.24477 L -43.653,-5.51465 L -43.9132,-2.76277
 L -44,-0 L -43.9132,2.76277 L -43.653,5.51465 L -43.2206,8.24477 L -42.6176,10.9424 L -41.8465,13.5967
 L -40.9102,16.1975 L -39.8124,18.7343 L -38.5575,21.1972 L -37.1504,23.5764 L -35.5967,25.8625 L -33.9026,28.0466
 L -32.0746,30.1201 L -30.1201,32.0746 L -28.0466,33.9026 L -25.8625,35.5967 L -23.5764,37.1504 L -21.1972,38.5575
 L -18.7343,39.8124 L -16.1975,40.9102 L -13.5967,41.8465 L -10.9424,42.6176 L -8.24477,43.2206 L -5.51465,43.653
 L -2.76277,43.9132 L 0,44 L 2.76277,43.9132 L 5.51465,43.653 L 8.24477,43.2206 L 10.9424,42.6176
 L 13.5967,41.8465 L 16.1975,40.9102 L 18.7343,39.8124 L 21.1972,38.5575 L 23.5764,37.1504 L 25.8625,35.5967
 L 28.0466,33.9026 L 30.1201,32.0746 L 32.0746,30.1201 L 33.9026,28.0466 L 35.5967,25.8625 L 37.1504,23.5764
 L 38.5575,21.1972 L 39.8124,18.7343 L 40.9102,16.1975 L 41.8465,13.5967 L 42.6176,10.9424 L 43.2206,8.24477
 L 43.653,5.51465 L 43.9132,2.76277 L 44,-0 L 43.9132,-2.76277 L 43.653,-5.51465 L 43.2206,-8.24477
 L 42.6176,-10.9424 L 41.8465,-13.5967 L 40.9102,-16.1975 L 39.8124,-18.7343 L 38.5575,-21.1972 L 37.1504,-23.5764
 L 35.5967,-25.8625 L 33.9026,-28.0466 L 32.0746,-30.1201 L 30.1201,-32.0746 z
M -2.4446,-35.1681 L -3.9079,-36.6823 L -3.7364,-40.8092 L -2.5744,-40.9191 L 0,-41 L 2.5744,-40.9191
 L 5.13866,-40.6767 L 7.68263,-40.2738 L 10.1963,-39.7119 L 12.6697,-38.9933 L 15.0931,-38.1208 L 17.4569,-37.0979
 L 19.7519,-35.9286 L 21.9689,-34.6174 L 22.3189,-34.3796 L 22.3834,-34.0843 z
M -7.41884,-40.3156 L -6.75514,-40.4207 L -6.7867,-39.6614 z
M -13.8449,-35.6657 L -15.3876,-37.9934 L -15.0931,-38.1208 L -12.6697,-38.9933 L -10.8296,-39.5279 L -6.95868,-35.5222
 L -6.96519,-35.3654 z
M -19.7598,-35.9239 L -19.7519,-35.9286 L -18.1569,-36.7413 L -17.5513,-35.8275 z
M -28.9436,-20.2972 L -22.3282,-33.0332 L -15.5016,-32.7352 L -7.57162,-20.7709 L -8.03226,-9.68513 z
M -11.7953,-32.5734 L -7.08974,-32.368 L -7.3593,-25.8807 z
M -4.53384,-21.6178 L -4.09261,-32.2372 L -3.7706,-32.2231 L 14.5829,-13.2305 L 3.52759,-9.45526 z
M 0.585007,-32.033 L 23.046,-31.0526 L 26.0826,-17.1576 L 17.7197,-14.3017 z
M -34.0072,-22.8668 L -33.1697,-24.0992 L -31.591,-26.1344 L -29.8877,-28.0664 L -28.0664,-29.8877 L -26.7312,-31.0649
 L -31.619,-21.6549 z
M 26.1464,-30.9172 L 26.9379,-30.8827 L 28.0664,-29.8877 L 29.8877,-28.0664 L 31.591,-26.1344 L 32.1663,-25.3927
 L 32.3883,-19.3109 L 28.9402,-18.1334 z
M 35.3377,-20.7509 L 35.5507,-20.3908 L 35.3533,-20.3234 z
M -40.0359,-8.74673 L -39.7119,-10.1963 L -38.9933,-12.6697 L -38.1208,-15.0931 L -37.0979,-17.4569 L -35.9286,-19.7519
 L -35.5984,-20.3102 L -33.0019,-18.9925 L -38.8726,-7.69022 z
M 35.4676,-17.1924 L 36.9711,-17.7058 L 37.0979,-17.4569 L 38.1208,-15.0931 L 38.9933,-12.6697 L 39.7119,-10.1963
 L 40.2738,-7.68263 L 40.6767,-5.13866 L 40.8125,-3.70148 L 36.0306,-1.76802 z
M -36.5755,-5.60414 L -30.3265,-17.6348 L -8.16916,-6.39041 L -8.20833,-5.44757 L -28.6985,1.54961 z
M -5.09167,-8.19286 L -4.74617,-16.508 L 0.592728,-8.45303 L -3.11163,-7.18803 z
M 29.5848,-15.1834 L 32.5026,-16.1798 L 33.0723,-0.571899 L 32.802,-0.462601 z
M 20.023,-11.9182 L 26.7273,-14.2076 L 29.3331,-2.2838 z
M 9.15697,-0.96199 L 5.24094,-6.87025 L 16.8862,-10.847 L 28.5734,1.24712 L 20.1897,4.63686 z
M 0.622421,-5.29308 L 2.30608,-5.86803 L 3.73364,-3.7142 z
M -40.6767,-5.13866 L -40.6577,-5.25885 L -40.3028,-4.93661 L -40.7832,-4.0118 z
M -6.03702,14.5579 L -5.29616,-3.27196 L -3.34027,-3.93987 L 7.09361,1.3551 L 11.5769,8.1192 L -5.00696,14.8245
 z
M -40.6018,5.61162 L -40.6767,5.13866 L -40.9044,2.72978 L -38.0058,-2.85054 L -31.9414,2.65703 L -40.597,5.61284
 z
M -17.6984,11.5396 L -26.1617,3.85342 L -8.34195,-2.23184 L -9.00764,13.789 z
M 36.2739,4.89871 L 36.147,1.42085 L 40.9832,-0.534531 L 41,-0 L 40.9191,2.5744 L 40.6767,5.13866
 L 40.2738,7.68263 L 40.0278,8.78323 z
M 23.7386,6.43787 L 30.6302,3.65143 L 32.1748,10.719 z
M 12.5169,4.1073 L 16.5001,6.12865 L 14.4154,6.97154 z
M -35.3163,6.97963 L -29.4046,4.96085 L -23.9393,9.92429 z
M 16.1069,9.52357 L 20.049,7.92967 L 32.9596,14.4815 L 23.4404,20.588 z
M -33.1697,24.0992 L -34.6174,21.9689 L -35.9286,19.7519 L -37.0979,17.4569 L -38.1208,15.0931 L -38.9933,12.6697
 L -39.7119,10.1963 L -40.0098,8.86371 L -19.1671,14.2583 L -14.3736,18.6116 L -31.9225,25.7071 z
M 36.4377,9.38531 L 38.1469,11.154 L 36.5399,12.1848 z
M -0.127304,16.0874 L 13.2684,10.6712 L 20.3756,21.3941 z
M -12.9261,15.8736 L -9.6799,16.7139 L -11.2859,17.3632 z
M 36.7352,17.535 L 36.6929,16.3761 L 37.4085,16.7392 L 37.0979,17.4569 L 36.8321,17.9786 z
M 25.6227,22.7522 L 33.6756,17.5864 L 33.747,17.913 L 33.9318,22.9777 L 33.1697,24.0992 L 32.778,24.6042
 z
M -6.34021,21.8548 L -6.20264,18.5438 L -4.80025,17.9768 L 18.2219,23.9355 L 5.75578,31.9324 L 4.88676,32.0508
 z
M -21.9689,34.6174 L -24.0992,33.1697 L -26.1344,31.591 L -28.0664,29.8877 L -29.8493,28.1048 L -11.9081,20.8507
 L -9.39587,23.1322 L -9.84991,34.0593 L -20.4661,35.5062 z
M 22.1808,24.9602 L 22.8549,25.1347 L 25.5705,29.2318 L 12.8109,30.9708 z
M -6.50247,25.7599 L 1.00674,32.5796 L -6.83023,33.6477 z
M 27.1993,26.2591 L 30.6855,27.1615 L 29.8877,28.0664 L 29.2197,28.7345 L 28.8714,28.7819 z
M 7.78561,34.6835 L 25.209,32.3088 L 24.0992,33.1697 L 21.9689,34.6174 L 19.7519,35.9286 L 17.4569,37.0979
 L 15.0931,38.1208 L 12.6697,38.9933 L 12.5648,39.0238 z
M -6.95676,36.6927 L -0.237411,35.7769 L -7.10167,40.1803 z
M -2.5744,40.9191 L -2.68147,40.909 L 4.85495,36.0744 L 9.12408,39.9516 L 7.68263,40.2738 L 5.13866,40.6767
 L 2.5744,40.9191 L 0,41 z
M -10.1963,39.7119 L -12.6697,38.9933 L -15.0931,38.1208 L -15.6541,37.8781 L -9.97644,37.1043 L -10.0858,39.7366
 z
" stroke="black" fill="lightgray" stroke-width="0.5"/>
</svg>
