  0
SECTION
  2
BLOCKS
  0
ENDSEC
  0
SECTION
  2
ENTITIES
  0
LINE
  8
0
 10
28.0466
 20
33.9026
 11
25.8625
 21
35.5967
  0
LINE
  8
0
 10
25.8625
 20
35.5967
 11
23.5764
 21
37.1504
  0
LINE
  8
0
 10
23.5764
 20
37.1504
 11
21.1972
 21
38.5575
  0
LINE
  8
0
 10
21.1972
 20
38.5575
 11
18.7343
 21
39.8124
  0
LINE
  8
0
 10
18.7343
 20
39.8124
 11
16.1975
 21
40.9102
  0
LINE
  8
0
 10
16.1975
 20
40.9102
 11
13.5967
 21
41.8465
  0
LINE
  8
0
 10
13.5967
 20
41.8465
 11
10.9424
 21
42.6176
  0
LINE
  8
0
 10
10.9424
 20
42.6176
 11
8.24477
 21
43.2206
  0
LINE
  8
0
 10
8.24477
 20
43.2206
 11
5.51465
 21
43.653
  0
LINE
  8
0
 10
5.51465
 20
43.653
 11
2.76277
 21
43.9132
  0
LINE
  8
0
 10
2.76277
 20
43.9132
 11
0
 21
44
  0
LINE
  8
0
 10
0
 20
44
 11
-2.76277
 21
43.9132
  0
LINE
  8
0
 10
-2.76277
 20
43.9132
 11
-5.51465
 21
43.653
  0
LINE
  8
0
 10
-5.51465
 20
43.653
 11
-8.24477
 21
43.2206
  0
LINE
  8
0
 10
-8.24477
 20
43.2206
 11
-10.9424
 21
42.6176
  0
LINE
  8
0
 10
-10.9424
 20
42.6176
 11
-13.5967
 21
41.8465
  0
LINE
  8
0
 10
-13.5967
 20
41.8465
 11
-16.1975
 21
40.9102
  0
LINE
  8
0
 10
-16.1975
 20
40.9102
 11
-18.7343
 21
39.8124
  0
LINE
  8
0
 10
-18.7343
 20
39.8124
 11
-21.1972
 21
38.5575
  0
LINE
  8
0
 10
-21.1972
 20
38.5575
 11
-23.5764
 21
37.1504
  0
LINE
  8
0
 10
-23.5764
 20
37.1504
 11
-25.8625
 21
35.5967
  0
LINE
  8
0
 10
-25.8625
 20
35.5967
 11
-28.0466
 21
33.9026
  0
LINE
  8
0
 10
-28.0466
 20
33.9026
 11
-30.1201
 21
32.0746
  0
LINE
  8
0
 10
-30.1201
 20
32.0746
 11
-32.0746
 21
30.1201
  0
LINE
  8
0
 10
-32.0746
 20
30.1201
 11
-33.9026
 21
28.0466
  0
LINE
  8
0
 10
-33.9026
 20
28.0466
 11
-35.5967
 21
25.8625
  0
LINE
  8
0
 10
-35.5967
 20
25.8625
 11
-37.1504
 21
23.5764
  0
LINE
  8
0
 10
-37.1504
 20
23.5764
 11
-38.5575
 21
21.1972
  0
LINE
  8
0
 10
-38.5575
 20
21.1972
 11
-39.8124
 21
18.7343
  0
LINE
  8
0
 10
-39.8124
 20
18.7343
 11
-40.9102
 21
16.1975
  0
LINE
  8
0
 10
-40.9102
 20
16.1975
 11
-41.8465
 21
13.5967
  0
LINE
  8
0
 10
-41.8465
 20
13.5967
 11
-42.6176
 21
10.9424
  0
LINE
  8
0
 10
-42.6176
 20
10.9424
 11
-43.2206
 21
8.24477
  0
LINE
  8
0
 10
-43.2206
 20
8.24477
 11
-43.653
 21
5.51465
  0
LINE
  8
0
 10
-43.653
 20
5.51465
 11
-43.9132
 21
2.76277
  0
LINE
  8
0
 10
-43.9132
 20
2.76277
 11
-44
 21
0
  0
LINE
  8
0
 10
-44
 20
0
 11
-43.9132
 21
-2.76277
  0
LINE
  8
0
 10
-43.9132
 20
-2.76277
 11
-43.653
 21
-5.51465
  0
LINE
  8
0
 10
-43.653
 20
-5.51465
 11
-43.2206
 21
-8.24477
  0
LINE
  8
0
 10
-43.2206
 20
-8.24477
 11
-42.6176
 21
-10.9424
  0
LINE
  8
0
 10
-42.6176
 20
-10.9424
 11
-41.8465
 21
-13.5967
  0
LINE
  8
0
 10
-41.8465
 20
-13.5967
 11
-40.9102
 21
-16.1975
  0
LINE
  8
0
 10
-40.9102
 20
-16.1975
 11
-39.8124
 21
-18.7343
  0
LINE
  8
0
 10
-39.8124
 20
-18.7343
 11
-38.5575
 21
-21.1972
  0
LINE
  8
0
 10
-38.5575
 20
-21.1972
 11
-37.1504
 21
-23.5764
  0
LINE
  8
0
 10
-37.1504
 20
-23.5764
 11
-35.5967
 21
-25.8625
  0
LINE
  8
0
 10
-35.5967
 20
-25.8625
 11
-33.9026
 21
-28.0466
  0
LINE
  8
0
 10
-33.9026
 20
-28.0466
 11
-32.0746
 21
-30.1201
  0
LINE
  8
0
 10
-32.0746
 20
-30.1201
 11
-30.1201
 21
-32.0746
  0
LINE
  8
0
 10
-30.1201
 20
-32.0746
 11
-28.0466
 21
-33.9026
  0
LINE
  8
0
 10
-28.0466
 20
-33.9026
 11
-25.8625
 21
-35.5967
  0
LINE
  8
0
 10
-25.8625
 20
-35.5967
 11
-23.5764
 21
-37.1504
  0
LINE
  8
0
 10
-23.5764
 20
-37.1504
 11
-21.1972
 21
-38.5575
  0
LINE
  8
0
 10
-21.1972
 20
-38.5575
 11
-18.7343
 21
-39.8124
  0
LINE
  8
0
 10
-18.7343
 20
-39.8124
 11
-16.1975
 21
-40.9102
  0
LINE
  8
0
 10
-16.1975
 20
-40.9102
 11
-13.5967
 21
-41.8465
  0
LINE
  8
0
 10
-13.5967
 20
-41.8465
 11
-10.9424
 21
-42.6176
  0
LINE
  8
0
 10
-10.9424
 20
-42.6176
 11
-8.24477
 21
-43.2206
  0
LINE
  8
0
 10
-8.24477
 20
-43.2206
 11
-5.51465
 21
-43.653
  0
LINE
  8
0
 10
-5.51465
 20
-43.653
 11
-2.76277
 21
-43.9132
  0
LINE
  8
0
 10
-2.76277
 20
-43.9132
 11
0
 21
-44
  0
LINE
  8
0
 10
0
 20
-44
 11
2.76277
 21
-43.9132
  0
LINE
  8
0
 10
2.76277
 20
-43.9132
 11
5.51465
 21
-43.653
  0
LINE
  8
0
 10
5.51465
 20
-43.653
 11
8.24477
 21
-43.2206
  0
LINE
  8
0
 10
8.24477
 20
-43.2206
 11
10.9424
 21
-42.6176
  0
LINE
  8
0
 10
10.9424
 20
-42.6176
 11
13.5967
 21
-41.8465
  0
LINE
  8
0
 10
13.5967
 20
-41.8465
 11
16.1975
 21
-40.9102
  0
LINE
  8
0
 10
16.1975
 20
-40.9102
 11
18.7343
 21
-39.8124
  0
LINE
  8
0
 10
18.7343
 20
-39.8124
 11
21.1972
 21
-38.5575
  0
LINE
  8
0
 10
21.1972
 20
-38.5575
 11
23.5764
 21
-37.1504
  0
LINE
  8
0
 10
23.5764
 20
-37.1504
 11
25.8625
 21
-35.5967
  0
LINE
  8
0
 10
25.8625
 20
-35.5967
 11
28.0466
 21
-33.9026
  0
LINE
  8
0
 10
28.0466
 20
-33.9026
 11
30.1201
 21
-32.0746
  0
LINE
  8
0
 10
30.1201
 20
-32.0746
 11
32.0746
 21
-30.1201
  0
LINE
  8
0
 10
32.0746
 20
-30.1201
 11
33.9026
 21
-28.0466
  0
LINE
  8
0
 10
33.9026
 20
-28.0466
 11
35.5967
 21
-25.8625
  0
LINE
  8
0
 10
35.5967
 20
-25.8625
 11
37.1504
 21
-23.5764
  0
LINE
  8
0
 10
37.1504
 20
-23.5764
 11
38.5575
 21
-21.1972
  0
LINE
  8
0
 10
38.5575
 20
-21.1972
 11
39.8124
 21
-18.7343
  0
LINE
  8
0
 10
39.8124
 20
-18.7343
 11
40.9102
 21
-16.1975
  0
LINE
  8
0
 10
40.9102
 20
-16.1975
 11
41.8465
 21
-13.5967
  0
LINE
  8
0
 10
41.8465
 20
-13.5967
 11
42.6176
 21
-10.9424
  0
LINE
  8
0
 10
42.6176
 20
-10.9424
 11
43.2206
 21
-8.24477
  0
LINE
  8
0
 10
43.2206
 20
-8.24477
 11
43.653
 21
-5.51465
  0
LINE
  8
0
 10
43.653
 20
-5.51465
 11
43.9132
 21
-2.76277
  0
LINE
  8
0
 10
43.9132
 20
-2.76277
 11
44
 21
0
  0
LINE
  8
0
 10
44
 20
0
 11
43.9132
 21
2.76277
  0
LINE
  8
0
 10
43.9132
 20
2.76277
 11
43.653
 21
5.51465
  0
LINE
  8
0
 10
43.653
 20
5.51465
 11
43.2206
 21
8.24477
  0
LINE
  8
0
 10
43.2206
 20
8.24477
 11
42.6176
 21
10.9424
  0
LINE
  8
0
 10
42.6176
 20
10.9424
 11
41.8465
 21
13.5967
  0
LINE
  8
0
 10
41.8465
 20
13.5967
 11
40.9102
 21
16.1975
  0
LINE
  8
0
 10
40.9102
 20
16.1975
 11
39.8124
 21
18.7343
  0
LINE
  8
0
 10
39.8124
 20
18.7343
 11
38.5575
 21
21.1972
  0
LINE
  8
0
 10
38.5575
 20
21.1972
 11
37.1504
 21
23.5764
  0
LINE
  8
0
 10
37.1504
 20
23.5764
 11
35.5967
 21
25.8625
  0
LINE
  8
0
 10
35.5967
 20
25.8625
 11
33.9026
 21
28.0466
  0
LINE
  8
0
 10
33.9026
 20
28.0466
 11
32.0746
 21
30.1201
  0
LINE
  8
0
 10
32.0746
 20
30.1201
 11
30.1201
 21
32.0746
  0
LINE
  8
0
 10
30.1201
 20
32.0746
 11
28.0466
 21
33.9026
  0
LINE
  8
0
 10
-8.77901
 20
30.1021
 11
-15.9562
 21
37.7473
  0
LINE
  8
0
 10
-15.9562
 20
37.7473
 11
-15.0931
 21
38.1208
  0
LINE
  8
0
 10
-15.0931
 20
38.1208
 11
-12.6697
 21
38.9933
  0
LINE
  8
0
 10
-12.6697
 20
38.9933
 11
-10.1963
 21
39.7119
  0
LINE
  8
0
 10
-10.1963
 20
39.7119
 11
-7.68263
 21
40.2738
  0
LINE
  8
0
 10
-7.68263
 20
40.2738
 11
-5.13866
 21
40.6767
  0
LINE
  8
0
 10
-5.13866
 20
40.6767
 11
-2.5744
 21
40.9191
  0
LINE
  8
0
 10
-2.5744
 20
40.9191
 11
0
 21
41
  0
LINE
  8
0
 10
0
 20
41
 11
2.5744
 21
40.9191
  0
LINE
  8
0
 10
2.5744
 20
40.9191
 11
5.13866
 21
40.6767
  0
LINE
  8
0
 10
5.13866
 20
40.6767
 11
7.68263
 21
40.2738
  0
LINE
  8
0
 10
7.68263
 20
40.2738
 11
10.1963
 21
39.7119
  0
LINE
  8
0
 10
10.1963
 20
39.7119
 11
12.6697
 21
38.9933
  0
LINE
  8
0
 10
12.6697
 20
38.9933
 11
15.0931
 21
38.1208
  0
LINE
  8
0
 10
15.0931
 20
38.1208
 11
17.4569
 21
37.0979
  0
LINE
  8
0
 10
17.4569
 20
37.0979
 11
19.7519
 21
35.9286
  0
LINE
  8
0
 10
19.7519
 20
35.9286
 11
21.9689
 21
34.6174
  0
LINE
  8
0
 10
21.9689
 20
34.6174
 11
24.0992
 21
33.1697
  0
LINE
  8
0
 10
24.0992
 20
33.1697
 11
26.1344
 21
31.591
  0
LINE
  8
0
 10
26.1344
 20
31.591
 11
28.0664
 21
29.8877
  0
LINE
  8
0
 10
28.0664
 20
29.8877
 11
29.4307
 21
28.5234
  0
LINE
  8
0
 10
29.4307
 20
28.5234
 11
26.6686
 21
25.7087
  0
LINE
  8
0
 10
26.6686
 20
25.7087
 11
-8.77901
 21
30.1021
  0
LINE
  8
0
 10
-18.7431
 20
31.337
 11
-18.0759
 21
35.6221
  0
LINE
  8
0
 10
-18.0759
 20
35.6221
 11
-13.4356
 21
30.6792
  0
LINE
  8
0
 10
-13.4356
 20
30.6792
 11
-18.7431
 21
31.337
  0
LINE
  8
0
 10
-25.3985
 20
32.1619
 11
-24.0992
 21
33.1697
  0
LINE
  8
0
 10
-24.0992
 20
33.1697
 11
-21.9689
 21
34.6174
  0
LINE
  8
0
 10
-21.9689
 20
34.6174
 11
-21.1974
 21
35.0737
  0
LINE
  8
0
 10
-21.1974
 20
35.0737
 11
-21.7217
 21
31.7062
  0
LINE
  8
0
 10
-21.7217
 20
31.7062
 11
-25.3985
 21
32.1619
  0
LINE
  8
0
 10
-28.9951
 20
21.3077
 11
-28.7577
 21
29.1964
  0
LINE
  8
0
 10
-28.7577
 20
29.1964
 11
-28.4385
 21
29.5157
  0
LINE
  8
0
 10
-28.4385
 20
29.5157
 11
-22.1835
 21
28.7404
  0
LINE
  8
0
 10
-22.1835
 20
28.7404
 11
-23.4269
 21
20.7549
  0
LINE
  8
0
 10
-23.4269
 20
20.7549
 11
-26.7456
 21
20.4635
  0
LINE
  8
0
 10
-26.7456
 20
20.4635
 11
-28.9951
 21
21.3077
  0
LINE
  8
0
 10
-19.2048
 20
28.3713
 11
-10.2241
 21
27.2582
  0
LINE
  8
0
 10
-10.2241
 20
27.2582
 11
-5.58929
 21
22.3212
  0
LINE
  8
0
 10
-5.58929
 20
22.3212
 11
-20.3486
 21
21.0252
  0
LINE
  8
0
 10
-20.3486
 20
21.0252
 11
-19.2048
 21
28.3713
  0
LINE
  8
0
 10
-5.56746
 20
26.6811
 11
15.0135
 21
24.1303
  0
LINE
  8
0
 10
15.0135
 20
24.1303
 11
-1.78784
 21
22.655
  0
LINE
  8
0
 10
-1.78784
 20
22.655
 11
-5.56746
 21
26.6811
  0
LINE
  8
0
 10
31.6735
 20
26.0281
 11
31.9893
 21
25.6209
  0
LINE
  8
0
 10
31.9893
 20
25.6209
 11
31.2054
 21
25.5521
  0
LINE
  8
0
 10
31.2054
 20
25.5521
 11
31.6735
 21
26.0281
  0
LINE
  8
0
 10
-32.1749
 20
23.6398
 11
-31.9095
 21
24.1974
  0
LINE
  8
0
 10
-31.9095
 20
24.1974
 11
-31.9364
 21
23.3038
  0
LINE
  8
0
 10
-31.9364
 20
23.3038
 11
-32.1749
 21
23.6398
  0
LINE
  8
0
 10
14.9654
 20
4.80916
 11
12.9359
 21
6.97099
  0
LINE
  8
0
 10
12.9359
 20
6.97099
 11
27.9646
 21
22.256
  0
LINE
  8
0
 10
27.9646
 20
22.256
 11
29.2358
 21
22.3676
  0
LINE
  8
0
 10
29.2358
 20
22.3676
 11
34.7887
 21
21.6794
  0
LINE
  8
0
 10
34.7887
 20
21.6794
 11
35.9286
 21
19.7519
  0
LINE
  8
0
 10
35.9286
 20
19.7519
 11
36.0199
 21
19.5726
  0
LINE
  8
0
 10
36.0199
 20
19.5726
 11
34.0112
 21
6.69344
  0
LINE
  8
0
 10
34.0112
 20
6.69344
 11
24.0237
 21
1.40956
  0
LINE
  8
0
 10
24.0237
 20
1.40956
 11
14.9654
 21
4.80916
  0
LINE
  8
0
 10
0.824036
 20
19.8728
 11
22.8386
 21
21.8058
  0
LINE
  8
0
 10
22.8386
 20
21.8058
 11
10.6599
 21
9.39543
  0
LINE
  8
0
 10
10.6599
 20
9.39543
 11
0.824036
 21
19.8728
  0
LINE
  8
0
 10
-20.2427
 20
18.0229
 11
-2.97742
 21
19.539
  0
LINE
  8
0
 10
-2.97742
 20
19.539
 11
8.55692
 21
7.25241
  0
LINE
  8
0
 10
8.55692
 20
7.25241
 11
8.52959
 21
7.22455
  0
LINE
  8
0
 10
8.52959
 20
7.22455
 11
-20.2427
 21
18.0229
  0
LINE
  8
0
 10
-27.7225
 20
17.3661
 11
-27.1618
 21
17.4154
  0
LINE
  8
0
 10
-27.1618
 20
17.4154
 11
-24.1243
 21
16.2754
  0
LINE
  8
0
 10
-24.1243
 20
16.2754
 11
-24.6324
 21
13.0121
  0
LINE
  8
0
 10
-24.6324
 20
13.0121
 11
-27.7225
 21
17.3661
  0
LINE
  8
0
 10
-33.6218
 20
3.19879
 11
-38.9509
 21
9.40157
  0
LINE
  8
0
 10
-38.9509
 20
9.40157
 11
-35.485
 21
16.6845
  0
LINE
  8
0
 10
-35.485
 20
16.6845
 11
-35.2754
 21
16.7029
  0
LINE
  8
0
 10
-35.2754
 20
16.7029
 11
-32.3299
 21
10.2307
  0
LINE
  8
0
 10
-32.3299
 20
10.2307
 11
-32.5567
 21
2.69739
  0
LINE
  8
0
 10
-32.5567
 20
2.69739
 11
-33.6218
 21
3.19879
  0
LINE
  8
0
 10
-9.66336
 20
-8.08006
 11
-22.1426
 21
9.50374
  0
LINE
  8
0
 10
-22.1426
 20
9.50374
 11
-21.2558
 21
15.1988
  0
LINE
  8
0
 10
-21.2558
 20
15.1988
 11
6.23148
 21
4.88272
  0
LINE
  8
0
 10
6.23148
 20
4.88272
 11
-7.49225
 21
-9.10216
  0
LINE
  8
0
 10
-7.49225
 20
-9.10216
 11
-9.66336
 21
-8.08006
  0
LINE
  8
0
 10
38.286
 20
14.6343
 11
38.9933
 21
12.6697
  0
LINE
  8
0
 10
38.9933
 20
12.6697
 11
39.7119
 21
10.1963
  0
LINE
  8
0
 10
39.7119
 20
10.1963
 11
39.8092
 21
9.76088
  0
LINE
  8
0
 10
39.8092
 20
9.76088
 11
37.3205
 21
8.44424
  0
LINE
  8
0
 10
37.3205
 20
8.44424
 11
38.286
 21
14.6343
  0
LINE
  8
0
 10
-29.3103
 20
10.838
 11
-29.2069
 21
14.2742
  0
LINE
  8
0
 10
-29.2069
 20
14.2742
 11
-25.2943
 21
8.76122
  0
LINE
  8
0
 10
-25.2943
 20
8.76122
 11
-26.0771
 21
3.73363
  0
LINE
  8
0
 10
-26.0771
 20
3.73363
 11
-29.3103
 21
10.838
  0
LINE
  8
0
 10
35.5487
 20
-2.91583
 11
36.7436
 21
4.74503
  0
LINE
  8
0
 10
36.7436
 20
4.74503
 11
40.4301
 21
6.6954
  0
LINE
  8
0
 10
40.4301
 20
6.6954
 11
40.6767
 21
5.13866
  0
LINE
  8
0
 10
40.6767
 20
5.13866
 11
40.9191
 21
2.5744
  0
LINE
  8
0
 10
40.9191
 20
2.5744
 11
41
 21
0
  0
LINE
  8
0
 10
41
 20
0
 11
40.9191
 21
-2.5744
  0
LINE
  8
0
 10
40.9191
 20
-2.5744
 11
40.7039
 21
-4.85062
  0
LINE
  8
0
 10
40.7039
 20
-4.85062
 11
35.5487
 21
-2.91583
  0
LINE
  8
0
 10
-23.7103
 20
-1.46724
 11
-23.815
 21
-1.23717
  0
LINE
  8
0
 10
-23.815
 20
-1.23717
 11
-22.8044
 21
5.25285
  0
LINE
  8
0
 10
-22.8044
 20
5.25285
 11
-15.1878
 21
-5.47932
  0
LINE
  8
0
 10
-15.1878
 20
-5.47932
 11
-23.7103
 21
-1.46724
  0
LINE
  8
0
 10
-29.5973
 20
1.30418
 11
-29.5148
 21
4.0448
  0
LINE
  8
0
 10
-29.5148
 20
4.0448
 11
-27.905
 21
0.507507
  0
LINE
  8
0
 10
-27.905
 20
0.507507
 11
-29.5973
 21
1.30418
  0
LINE
  8
0
 10
-4.33098
 20
-10.5904
 11
9.62895
 21
3.60764
  0
LINE
  8
0
 10
9.62895
 20
3.60764
 11
13.2567
 21
2.24612
  0
LINE
  8
0
 10
13.2567
 20
2.24612
 11
17.3544
 21
-2.11879
  0
LINE
  8
0
 10
17.3544
 20
-2.11879
 11
-1.32941
 21
-12.0034
  0
LINE
  8
0
 10
-1.32941
 20
-12.0034
 11
-4.33098
 21
-10.5904
  0
LINE
  8
0
 10
27.7766
 20
0.00106812
 11
33.4342
 21
2.99423
  0
LINE
  8
0
 10
33.4342
 20
2.99423
 11
32.6803
 21
-1.83932
  0
LINE
  8
0
 10
32.6803
 20
-1.83932
 11
27.7766
 21
0.00106812
  0
LINE
  8
0
 10
-40.5599
 20
-5.87593
 11
-40.6767
 21
-5.13866
  0
LINE
  8
0
 10
-40.6767
 20
-5.13866
 11
-40.9191
 21
-2.5744
  0
LINE
  8
0
 10
-40.9191
 20
-2.5744
 11
-41
 21
0
  0
LINE
  8
0
 10
-41
 20
0
 11
-40.9243
 21
2.40729
  0
LINE
  8
0
 10
-40.9243
 20
2.40729
 11
-32.9835
 21
-7.36305
  0
LINE
  8
0
 10
-32.9835
 20
-7.36305
 11
-40.5599
 21
-5.87593
  0
LINE
  8
0
 10
-35.8652
 20
0.939117
 11
-35.4796
 21
0.757568
  0
LINE
  8
0
 10
-35.4796
 20
0.757568
 11
-32.7121
 21
-2.46361
  0
LINE
  8
0
 10
-32.7121
 20
-2.46361
 11
-32.7259
 21
-2.92346
  0
LINE
  8
0
 10
-32.7259
 20
-2.92346
 11
-35.8652
 21
0.939117
  0
LINE
  8
0
 10
19.61
 20
-0.138275
 11
20.4804
 21
-0.464966
  0
LINE
  8
0
 10
20.4804
 20
-0.464966
 11
20.1037
 21
-0.664261
  0
LINE
  8
0
 10
20.1037
 20
-0.664261
 11
19.61
 21
-0.138275
  0
LINE
  8
0
 10
22.2326
 20
-2.93196
 11
24.2334
 21
-1.87346
  0
LINE
  8
0
 10
24.2334
 20
-1.87346
 11
32.2082
 21
-4.86644
  0
LINE
  8
0
 10
32.2082
 20
-4.86644
 11
31.0457
 21
-12.3198
  0
LINE
  8
0
 10
31.0457
 20
-12.3198
 11
22.2326
 21
-2.93196
  0
LINE
  8
0
 10
-28.8382
 20
-2.36897
 11
-27.151
 21
-3.16325
  0
LINE
  8
0
 10
-27.151
 20
-3.16325
 11
-27.3051
 21
-4.15334
  0
LINE
  8
0
 10
-27.3051
 20
-4.15334
 11
-28.8382
 21
-2.36897
  0
LINE
  8
0
 10
4.40074
 20
-14.701
 11
2.06519
 21
-13.6015
  0
LINE
  8
0
 10
2.06519
 20
-13.6015
 11
19.4833
 21
-4.38649
  0
LINE
  8
0
 10
19.4833
 20
-4.38649
 11
30.4594
 21
-16.0785
  0
LINE
  8
0
 10
30.4594
 20
-16.0785
 11
29.8938
 21
-19.7049
  0
LINE
  8
0
 10
29.8938
 20
-19.7049
 11
4.40074
 21
-14.701
  0
LINE
  8
0
 10
-19.8543
 20
-9.94011
 11
-21.7898
 21
-5.68713
  0
LINE
  8
0
 10
-21.7898
 20
-5.68713
 11
-11.6539
 21
-10.4588
  0
LINE
  8
0
 10
-11.6539
 20
-10.4588
 11
-10.7544
 21
-11.7263
  0
LINE
  8
0
 10
-10.7544
 20
-11.7263
 11
-19.8543
 21
-9.94011
  0
LINE
  8
0
 10
-28.3839
 20
-8.26588
 11
-29.8317
 21
-6.48445
  0
LINE
  8
0
 10
-29.8317
 20
-6.48445
 11
-29.8123
 21
-5.83873
  0
LINE
  8
0
 10
-29.8123
 20
-5.83873
 11
-27.912
 21
-8.0506
  0
LINE
  8
0
 10
-27.912
 20
-8.0506
 11
-27.9585
 21
-8.34938
  0
LINE
  8
0
 10
-27.9585
 20
-8.34938
 11
-28.3839
 21
-8.26588
  0
LINE
  8
0
 10
33.6494
 20
-15.0933
 11
35.0766
 21
-5.94296
  0
LINE
  8
0
 10
35.0766
 20
-5.94296
 11
40.2303
 21
-7.87718
  0
LINE
  8
0
 10
40.2303
 20
-7.87718
 11
39.7119
 21
-10.1963
  0
LINE
  8
0
 10
39.7119
 20
-10.1963
 11
38.9933
 21
-12.6697
  0
LINE
  8
0
 10
38.9933
 20
-12.6697
 11
38.1208
 21
-15.0931
  0
LINE
  8
0
 10
38.1208
 20
-15.0931
 11
37.0979
 21
-17.4569
  0
LINE
  8
0
 10
37.0979
 20
-17.4569
 11
36.6653
 21
-18.3059
  0
LINE
  8
0
 10
36.6653
 20
-18.3059
 11
33.6494
 21
-15.0933
  0
LINE
  8
0
 10
-24.7348
 20
-7.14503
 11
-24.6552
 21
-6.6335
  0
LINE
  8
0
 10
-24.6552
 20
-6.6335
 11
-24.0705
 21
-7.91829
  0
LINE
  8
0
 10
-24.0705
 20
-7.91829
 11
-24.7348
 21
-7.14503
  0
LINE
  8
0
 10
-35.8171
 20
-19.9404
 11
-35.9286
 21
-19.7519
  0
LINE
  8
0
 10
-35.9286
 20
-19.7519
 11
-37.0979
 21
-17.4569
  0
LINE
  8
0
 10
-37.0979
 20
-17.4569
 11
-38.1208
 21
-15.0931
  0
LINE
  8
0
 10
-38.1208
 20
-15.0931
 11
-38.9933
 21
-12.6697
  0
LINE
  8
0
 10
-38.9933
 20
-12.6697
 11
-39.7119
 21
-10.1963
  0
LINE
  8
0
 10
-39.7119
 20
-10.1963
 11
-39.9683
 21
-9.04929
  0
LINE
  8
0
 10
-39.9683
 20
-9.04929
 11
-32.9518
 21
-10.4265
  0
LINE
  8
0
 10
-32.9518
 20
-10.4265
 11
-33.2479
 21
-20.2654
  0
LINE
  8
0
 10
-33.2479
 20
-20.2654
 11
-35.8171
 21
-19.9404
  0
LINE
  8
0
 10
-30.2579
 20
-20.6435
 11
-29.9698
 21
-11.0711
  0
LINE
  8
0
 10
-29.9698
 20
-11.0711
 11
-28.6375
 21
-12.7104
  0
LINE
  8
0
 10
-28.6375
 20
-12.7104
 11
-29.8801
 21
-20.6913
  0
LINE
  8
0
 10
-29.8801
 20
-20.6913
 11
-30.2579
 21
-20.6435
  0
LINE
  8
0
 10
-25.4275
 20
-11.9034
 11
-24.4343
 21
-12.0984
  0
LINE
  8
0
 10
-24.4343
 20
-12.0984
 11
-19.6158
 21
-17.7068
  0
LINE
  8
0
 10
-19.6158
 20
-17.7068
 11
-18.45
 21
-20.2684
  0
LINE
  8
0
 10
-18.45
 20
-20.2684
 11
-18.5479
 21
-20.3681
  0
LINE
  8
0
 10
-18.5479
 20
-20.3681
 11
-25.4275
 21
-11.9034
  0
LINE
  8
0
 10
-17.0621
 20
-16.0755
 11
-18.3265
 21
-13.2972
  0
LINE
  8
0
 10
-18.3265
 20
-13.2972
 11
-12.6939
 21
-14.4028
  0
LINE
  8
0
 10
-12.6939
 20
-14.4028
 11
-15.7893
 21
-17.5571
  0
LINE
  8
0
 10
-15.7893
 20
-17.5571
 11
-17.0621
 21
-16.0755
  0
LINE
  8
0
 10
-8.82597
 20
-15.162
 11
-8.23349
 21
-15.2784
  0
LINE
  8
0
 10
-8.23349
 20
-15.2784
 11
-8.03862
 21
-15.5529
  0
LINE
  8
0
 10
-8.03862
 20
-15.5529
 11
-10.4805
 21
-16.8448
  0
LINE
  8
0
 10
-10.4805
 20
-16.8448
 11
-8.82597
 21
-15.162
  0
LINE
  8
0
 10
-26.9026
 20
-21.0678
 11
-26.0895
 21
-15.8455
  0
LINE
  8
0
 10
-26.0895
 20
-15.8455
 11
-21.2657
 21
-21.7807
  0
LINE
  8
0
 10
-21.2657
 20
-21.7807
 11
-26.9026
 21
-21.0678
  0
LINE
  8
0
 10
2.16272
 20
-24.7436
 11
-3.6129
 21
-16.6055
  0
LINE
  8
0
 10
-3.6129
 20
-16.6055
 11
-3.03362
 21
-16.299
  0
LINE
  8
0
 10
-3.03362
 20
-16.299
 11
3.45876
 21
-17.5733
  0
LINE
  8
0
 10
3.45876
 20
-17.5733
 11
24.415
 21
-27.4389
  0
LINE
  8
0
 10
24.415
 20
-27.4389
 11
24.2363
 21
-27.5352
  0
LINE
  8
0
 10
24.2363
 20
-27.5352
 11
2.16272
 21
-24.7436
  0
LINE
  8
0
 10
-11.0506
 20
-23.0726
 11
-12.5463
 21
-21.3317
  0
LINE
  8
0
 10
-12.5463
 20
-21.3317
 11
-6.28743
 21
-18.0204
  0
LINE
  8
0
 10
-6.28743
 20
-18.0204
 11
-1.87874
 21
-24.2325
  0
LINE
  8
0
 10
-1.87874
 20
-24.2325
 11
-11.0506
 21
-23.0726
  0
LINE
  8
0
 10
32.8399
 20
-20.2832
 11
33.0631
 21
-18.852
  0
LINE
  8
0
 10
33.0631
 20
-18.852
 11
34.7606
 21
-20.6602
  0
LINE
  8
0
 10
34.7606
 20
-20.6602
 11
32.8399
 21
-20.2832
  0
LINE
  8
0
 10
15.5389
 20
-19.9445
 11
29.4312
 21
-22.6713
  0
LINE
  8
0
 10
29.4312
 20
-22.6713
 11
29.0797
 21
-24.9248
  0
LINE
  8
0
 10
29.0797
 20
-24.9248
 11
27.6989
 21
-25.669
  0
LINE
  8
0
 10
27.6989
 20
-25.669
 11
15.5389
 21
-19.9445
  0
LINE
  8
0
 10
-33.7645
 20
-23.2239
 11
-33.3386
 21
-23.2778
  0
LINE
  8
0
 10
-33.3386
 20
-23.2778
 11
-33.3551
 21
-23.8263
  0
LINE
  8
0
 10
-33.3551
 20
-23.8263
 11
-33.7645
 21
-23.2239
  0
LINE
  8
0
 10
-30.3486
 20
-23.6559
 11
-30.3419
 21
-23.6568
  0
LINE
  8
0
 10
-30.3419
 20
-23.6568
 11
-30.3503
 21
-23.7107
  0
LINE
  8
0
 10
-30.3503
 20
-23.7107
 11
-30.3486
 21
-23.6559
  0
LINE
  8
0
 10
-27.3644
 20
-24.0333
 11
-24.7041
 21
-24.3698
  0
LINE
  8
0
 10
-24.7041
 20
-24.3698
 11
-27.6603
 21
-25.9337
  0
LINE
  8
0
 10
-27.6603
 20
-25.9337
 11
-27.3644
 21
-24.0333
  0
LINE
  8
0
 10
-10.1963
 20
-39.7119
 11
-12.6697
 21
-38.9933
  0
LINE
  8
0
 10
-12.6697
 20
-38.9933
 11
-15.0931
 21
-38.1208
  0
LINE
  8
0
 10
-15.0931
 20
-38.1208
 11
-17.4569
 21
-37.0979
  0
LINE
  8
0
 10
-17.4569
 20
-37.0979
 11
-19.7519
 21
-35.9286
  0
LINE
  8
0
 10
-19.7519
 20
-35.9286
 11
-21.9689
 21
-34.6174
  0
LINE
  8
0
 10
-21.9689
 20
-34.6174
 11
-24.0992
 21
-33.1697
  0
LINE
  8
0
 10
-24.0992
 20
-33.1697
 11
-25.4792
 21
-32.0993
  0
LINE
  8
0
 10
-25.4792
 20
-32.0993
 11
-18.634
 21
-25.1374
  0
LINE
  8
0
 10
-18.634
 20
-25.1374
 11
-18.5265
 21
-25.151
  0
LINE
  8
0
 10
-18.5265
 20
-25.151
 11
-13.3033
 21
-31.5776
  0
LINE
  8
0
 10
-13.3033
 20
-31.5776
 11
-9.53404
 21
-39.8599
  0
LINE
  8
0
 10
-9.53404
 20
-39.8599
 11
-10.1963
 21
-39.7119
  0
LINE
  8
0
 10
-1.82605
 20
-40.9426
 11
-10.7323
 21
-29.9844
  0
LINE
  8
0
 10
-10.7323
 20
-29.9844
 11
-12.5903
 21
-25.9017
  0
LINE
  8
0
 10
-12.5903
 20
-25.9017
 11
-12.5732
 21
-25.9039
  0
LINE
  8
0
 10
-12.5732
 20
-25.9039
 11
0.0349274
 21
-40.5789
  0
LINE
  8
0
 10
0.0349274
 20
-40.5789
 11
-0.705276
 21
-40.9778
  0
LINE
  8
0
 10
-0.705276
 20
-40.9778
 11
-1.82605
 21
-40.9426
  0
LINE
  8
0
 10
-8.13588
 20
-26.4651
 11
0.478928
 21
-27.5546
  0
LINE
  8
0
 10
0.478928
 20
-27.5546
 11
7.04204
 21
-36.8023
  0
LINE
  8
0
 10
7.04204
 20
-36.8023
 11
2.7383
 21
-39.1219
  0
LINE
  8
0
 10
2.7383
 20
-39.1219
 11
-8.13588
 21
-26.4651
  0
LINE
  8
0
 10
4.52039
 20
-28.0657
 11
19.6921
 21
-29.9844
  0
LINE
  8
0
 10
19.6921
 20
-29.9844
 11
9.70296
 21
-35.3682
  0
LINE
  8
0
 10
9.70296
 20
-35.3682
 11
4.52039
 21
-28.0657
  0
LINE
  8
0
 10
-28.0664
 20
-29.8877
 11
-28.2477
 21
-29.7064
  0
LINE
  8
0
 10
-28.2477
 20
-29.7064
 11
-28.2362
 21
-29.6324
  0
LINE
  8
0
 10
-28.2362
 20
-29.6324
 11
-26.9944
 21
-28.9754
  0
LINE
  8
0
 10
-26.9944
 20
-28.9754
 11
-27.9716
 21
-29.9713
  0
LINE
  8
0
 10
-27.9716
 20
-29.9713
 11
-28.0664
 21
-29.8877
  0
LINE
  8
0
 10
11.4524
 20
-37.8332
 11
24.8135
 21
-30.6321
  0
LINE
  8
0
 10
24.8135
 20
-30.6321
 11
26.9199
 21
-30.8985
  0
LINE
  8
0
 10
26.9199
 20
-30.8985
 11
26.1344
 21
-31.591
  0
LINE
  8
0
 10
26.1344
 20
-31.591
 11
24.0992
 21
-33.1697
  0
LINE
  8
0
 10
24.0992
 20
-33.1697
 11
21.9689
 21
-34.6174
  0
LINE
  8
0
 10
21.9689
 20
-34.6174
 11
19.7519
 21
-35.9286
  0
LINE
  8
0
 10
19.7519
 20
-35.9286
 11
17.4569
 21
-37.0979
  0
LINE
  8
0
 10
17.4569
 20
-37.0979
 11
15.0931
 21
-38.1208
  0
LINE
  8
0
 10
15.0931
 20
-38.1208
 11
12.6697
 21
-38.9933
  0
LINE
  8
0
 10
12.6697
 20
-38.9933
 11
12.3431
 21
-39.0882
  0
LINE
  8
0
 10
12.3431
 20
-39.0882
 11
11.4524
 21
-37.8332
  0
LINE
  8
0
 10
8.79149
 20
-39.2674
 11
9.2561
 21
-39.9221
  0
LINE
  8
0
 10
9.2561
 20
-39.9221
 11
7.68263
 21
-40.2738
  0
LINE
  8
0
 10
7.68263
 20
-40.2738
 11
6.60861
 21
-40.4439
  0
LINE
  8
0
 10
6.60861
 20
-40.4439
 11
8.79149
 21
-39.2674
  0
ENDSEC
  0
SECTION
  2
OBJECTS
  0
DICTIONARY
  0
ENDSEC
  0
EOF
