  0
SECTION
  2
BLOCKS
  0
ENDSEC
  0
SECTION
  2
ENTITIES
  0
LINE
  8
0
 10
28.0466
 20
33.9026
 11
25.8625
 21
35.5967
  0
LINE
  8
0
 10
25.8625
 20
35.5967
 11
23.5764
 21
37.1504
  0
LINE
  8
0
 10
23.5764
 20
37.1504
 11
21.1972
 21
38.5575
  0
LINE
  8
0
 10
21.1972
 20
38.5575
 11
18.7343
 21
39.8124
  0
LINE
  8
0
 10
18.7343
 20
39.8124
 11
16.1975
 21
40.9102
  0
LINE
  8
0
 10
16.1975
 20
40.9102
 11
13.5967
 21
41.8465
  0
LINE
  8
0
 10
13.5967
 20
41.8465
 11
10.9424
 21
42.6176
  0
LINE
  8
0
 10
10.9424
 20
42.6176
 11
8.24477
 21
43.2206
  0
LINE
  8
0
 10
8.24477
 20
43.2206
 11
5.51465
 21
43.653
  0
LINE
  8
0
 10
5.51465
 20
43.653
 11
2.76277
 21
43.9132
  0
LINE
  8
0
 10
2.76277
 20
43.9132
 11
0
 21
44
  0
LINE
  8
0
 10
0
 20
44
 11
-2.76277
 21
43.9132
  0
LINE
  8
0
 10
-2.76277
 20
43.9132
 11
-5.51465
 21
43.653
  0
LINE
  8
0
 10
-5.51465
 20
43.653
 11
-8.24477
 21
43.2206
  0
LINE
  8
0
 10
-8.24477
 20
43.2206
 11
-10.9424
 21
42.6176
  0
LINE
  8
0
 10
-10.9424
 20
42.6176
 11
-13.5967
 21
41.8465
  0
LINE
  8
0
 10
-13.5967
 20
41.8465
 11
-16.1975
 21
40.9102
  0
LINE
  8
0
 10
-16.1975
 20
40.9102
 11
-18.7343
 21
39.8124
  0
LINE
  8
0
 10
-18.7343
 20
39.8124
 11
-21.1972
 21
38.5575
  0
LINE
  8
0
 10
-21.1972
 20
38.5575
 11
-23.5764
 21
37.1504
  0
LINE
  8
0
 10
-23.5764
 20
37.1504
 11
-25.8625
 21
35.5967
  0
LINE
  8
0
 10
-25.8625
 20
35.5967
 11
-28.0466
 21
33.9026
  0
LINE
  8
0
 10
-28.0466
 20
33.9026
 11
-30.1201
 21
32.0746
  0
LINE
  8
0
 10
-30.1201
 20
32.0746
 11
-32.0746
 21
30.1201
  0
LINE
  8
0
 10
-32.0746
 20
30.1201
 11
-33.9026
 21
28.0466
  0
LINE
  8
0
 10
-33.9026
 20
28.0466
 11
-35.5967
 21
25.8625
  0
LINE
  8
0
 10
-35.5967
 20
25.8625
 11
-37.1504
 21
23.5764
  0
LINE
  8
0
 10
-37.1504
 20
23.5764
 11
-38.5575
 21
21.1972
  0
LINE
  8
0
 10
-38.5575
 20
21.1972
 11
-39.8124
 21
18.7343
  0
LINE
  8
0
 10
-39.8124
 20
18.7343
 11
-40.9102
 21
16.1975
  0
LINE
  8
0
 10
-40.9102
 20
16.1975
 11
-41.8465
 21
13.5967
  0
LINE
  8
0
 10
-41.8465
 20
13.5967
 11
-42.6176
 21
10.9424
  0
LINE
  8
0
 10
-42.6176
 20
10.9424
 11
-43.2206
 21
8.24477
  0
LINE
  8
0
 10
-43.2206
 20
8.24477
 11
-43.653
 21
5.51465
  0
LINE
  8
0
 10
-43.653
 20
5.51465
 11
-43.9132
 21
2.76277
  0
LINE
  8
0
 10
-43.9132
 20
2.76277
 11
-44
 21
0
  0
LINE
  8
0
 10
-44
 20
0
 11
-43.9132
 21
-2.76277
  0
LINE
  8
0
 10
-43.9132
 20
-2.76277
 11
-43.653
 21
-5.51465
  0
LINE
  8
0
 10
-43.653
 20
-5.51465
 11
-43.2206
 21
-8.24477
  0
LINE
  8
0
 10
-43.2206
 20
-8.24477
 11
-42.6176
 21
-10.9424
  0
LINE
  8
0
 10
-42.6176
 20
-10.9424
 11
-41.8465
 21
-13.5967
  0
LINE
  8
0
 10
-41.8465
 20
-13.5967
 11
-40.9102
 21
-16.1975
  0
LINE
  8
0
 10
-40.9102
 20
-16.1975
 11
-39.8124
 21
-18.7343
  0
LINE
  8
0
 10
-39.8124
 20
-18.7343
 11
-38.5575
 21
-21.1972
  0
LINE
  8
0
 10
-38.5575
 20
-21.1972
 11
-37.1504
 21
-23.5764
  0
LINE
  8
0
 10
-37.1504
 20
-23.5764
 11
-35.5967
 21
-25.8625
  0
LINE
  8
0
 10
-35.5967
 20
-25.8625
 11
-33.9026
 21
-28.0466
  0
LINE
  8
0
 10
-33.9026
 20
-28.0466
 11
-32.0746
 21
-30.1201
  0
LINE
  8
0
 10
-32.0746
 20
-30.1201
 11
-30.1201
 21
-32.0746
  0
LINE
  8
0
 10
-30.1201
 20
-32.0746
 11
-28.0466
 21
-33.9026
  0
LINE
  8
0
 10
-28.0466
 20
-33.9026
 11
-25.8625
 21
-35.5967
  0
LINE
  8
0
 10
-25.8625
 20
-35.5967
 11
-23.5764
 21
-37.1504
  0
LINE
  8
0
 10
-23.5764
 20
-37.1504
 11
-21.1972
 21
-38.5575
  0
LINE
  8
0
 10
-21.1972
 20
-38.5575
 11
-18.7343
 21
-39.8124
  0
LINE
  8
0
 10
-18.7343
 20
-39.8124
 11
-16.1975
 21
-40.9102
  0
LINE
  8
0
 10
-16.1975
 20
-40.9102
 11
-13.5967
 21
-41.8465
  0
LINE
  8
0
 10
-13.5967
 20
-41.8465
 11
-10.9424
 21
-42.6176
  0
LINE
  8
0
 10
-10.9424
 20
-42.6176
 11
-8.24477
 21
-43.2206
  0
LINE
  8
0
 10
-8.24477
 20
-43.2206
 11
-5.51465
 21
-43.653
  0
LINE
  8
0
 10
-5.51465
 20
-43.653
 11
-2.76277
 21
-43.9132
  0
LINE
  8
0
 10
-2.76277
 20
-43.9132
 11
0
 21
-44
  0
LINE
  8
0
 10
0
 20
-44
 11
2.76277
 21
-43.9132
  0
LINE
  8
0
 10
2.76277
 20
-43.9132
 11
5.51465
 21
-43.653
  0
LINE
  8
0
 10
5.51465
 20
-43.653
 11
8.24477
 21
-43.2206
  0
LINE
  8
0
 10
8.24477
 20
-43.2206
 11
10.9424
 21
-42.6176
  0
LINE
  8
0
 10
10.9424
 20
-42.6176
 11
13.5967
 21
-41.8465
  0
LINE
  8
0
 10
13.5967
 20
-41.8465
 11
16.1975
 21
-40.9102
  0
LINE
  8
0
 10
16.1975
 20
-40.9102
 11
18.7343
 21
-39.8124
  0
LINE
  8
0
 10
18.7343
 20
-39.8124
 11
21.1972
 21
-38.5575
  0
LINE
  8
0
 10
21.1972
 20
-38.5575
 11
23.5764
 21
-37.1504
  0
LINE
  8
0
 10
23.5764
 20
-37.1504
 11
25.8625
 21
-35.5967
  0
LINE
  8
0
 10
25.8625
 20
-35.5967
 11
28.0466
 21
-33.9026
  0
LINE
  8
0
 10
28.0466
 20
-33.9026
 11
30.1201
 21
-32.0746
  0
LINE
  8
0
 10
30.1201
 20
-32.0746
 11
32.0746
 21
-30.1201
  0
LINE
  8
0
 10
32.0746
 20
-30.1201
 11
33.9026
 21
-28.0466
  0
LINE
  8
0
 10
33.9026
 20
-28.0466
 11
35.5967
 21
-25.8625
  0
LINE
  8
0
 10
35.5967
 20
-25.8625
 11
37.1504
 21
-23.5764
  0
LINE
  8
0
 10
37.1504
 20
-23.5764
 11
38.5575
 21
-21.1972
  0
LINE
  8
0
 10
38.5575
 20
-21.1972
 11
39.8124
 21
-18.7343
  0
LINE
  8
0
 10
39.8124
 20
-18.7343
 11
40.9102
 21
-16.1975
  0
LINE
  8
0
 10
40.9102
 20
-16.1975
 11
41.8465
 21
-13.5967
  0
LINE
  8
0
 10
41.8465
 20
-13.5967
 11
42.6176
 21
-10.9424
  0
LINE
  8
0
 10
42.6176
 20
-10.9424
 11
43.2206
 21
-8.24477
  0
LINE
  8
0
 10
43.2206
 20
-8.24477
 11
43.653
 21
-5.51465
  0
LINE
  8
0
 10
43.653
 20
-5.51465
 11
43.9132
 21
-2.76277
  0
LINE
  8
0
 10
43.9132
 20
-2.76277
 11
44
 21
0
  0
LINE
  8
0
 10
44
 20
0
 11
43.9132
 21
2.76277
  0
LINE
  8
0
 10
43.9132
 20
2.76277
 11
43.653
 21
5.51465
  0
LINE
  8
0
 10
43.653
 20
5.51465
 11
43.2206
 21
8.24477
  0
LINE
  8
0
 10
43.2206
 20
8.24477
 11
42.6176
 21
10.9424
  0
LINE
  8
0
 10
42.6176
 20
10.9424
 11
41.8465
 21
13.5967
  0
LINE
  8
0
 10
41.8465
 20
13.5967
 11
40.9102
 21
16.1975
  0
LINE
  8
0
 10
40.9102
 20
16.1975
 11
39.8124
 21
18.7343
  0
LINE
  8
0
 10
39.8124
 20
18.7343
 11
38.5575
 21
21.1972
  0
LINE
  8
0
 10
38.5575
 20
21.1972
 11
37.1504
 21
23.5764
  0
LINE
  8
0
 10
37.1504
 20
23.5764
 11
35.5967
 21
25.8625
  0
LINE
  8
0
 10
35.5967
 20
25.8625
 11
33.9026
 21
28.0466
  0
LINE
  8
0
 10
33.9026
 20
28.0466
 11
32.0746
 21
30.1201
  0
LINE
  8
0
 10
32.0746
 20
30.1201
 11
30.1201
 21
32.0746
  0
LINE
  8
0
 10
30.1201
 20
32.0746
 11
28.0466
 21
33.9026
  0
LINE
  8
0
 10
-1.23367
 20
34.9418
 11
0.79039
 21
40.9752
  0
LINE
  8
0
 10
0.79039
 20
40.9752
 11
2.5744
 21
40.9191
  0
LINE
  8
0
 10
2.5744
 20
40.9191
 11
5.13866
 21
40.6767
  0
LINE
  8
0
 10
5.13866
 20
40.6767
 11
5.82065
 21
40.5687
  0
LINE
  8
0
 10
5.82065
 20
40.5687
 11
6.68785
 21
39.9667
  0
LINE
  8
0
 10
6.68785
 20
39.9667
 11
11.2713
 21
34.3453
  0
LINE
  8
0
 10
11.2713
 20
34.3453
 11
5.28853
 21
26.3741
  0
LINE
  8
0
 10
5.28853
 20
26.3741
 11
-1.23367
 21
34.9418
  0
LINE
  8
0
 10
-5.54985
 20
40.6116
 11
-5.13866
 21
40.6767
  0
LINE
  8
0
 10
-5.13866
 20
40.6767
 11
-2.5744
 21
40.9191
  0
LINE
  8
0
 10
-2.5744
 20
40.9191
 11
-2.39081
 21
40.9249
  0
LINE
  8
0
 10
-2.39081
 20
40.9249
 11
-3.43007
 21
37.827
  0
LINE
  8
0
 10
-3.43007
 20
37.827
 11
-5.54985
 21
40.6116
  0
LINE
  8
0
 10
-7.97855
 20
29.1479
 11
-12.1858
 21
39.1339
  0
LINE
  8
0
 10
-12.1858
 20
39.1339
 11
-10.1963
 21
39.7119
  0
LINE
  8
0
 10
-10.1963
 20
39.7119
 11
-8.86232
 21
40.0101
  0
LINE
  8
0
 10
-8.86232
 20
40.0101
 11
-4.58337
 21
34.3892
  0
LINE
  8
0
 10
-4.58337
 20
34.3892
 11
-6.68958
 21
28.111
  0
LINE
  8
0
 10
-6.68958
 20
28.111
 11
-7.97855
 21
29.1479
  0
LINE
  8
0
 10
14.0856
 20
38.4835
 11
14.3153
 21
38.4008
  0
LINE
  8
0
 10
14.3153
 20
38.4008
 11
14.2775
 21
38.3504
  0
LINE
  8
0
 10
14.2775
 20
38.3504
 11
14.0856
 21
38.4835
  0
LINE
  8
0
 10
-17.7047
 20
36.9716
 11
-17.4569
 21
37.0979
  0
LINE
  8
0
 10
-17.4569
 20
37.0979
 11
-15.0931
 21
38.1208
  0
LINE
  8
0
 10
-15.0931
 20
38.1208
 11
-15.0248
 21
38.1454
  0
LINE
  8
0
 10
-15.0248
 20
38.1454
 11
-12.9028
 21
33.109
  0
LINE
  8
0
 10
-12.9028
 20
33.109
 11
-17.7047
 21
36.9716
  0
LINE
  8
0
 10
16.7436
 20
36.6385
 11
17.1788
 21
37.2183
  0
LINE
  8
0
 10
17.1788
 20
37.2183
 11
17.4569
 21
37.0979
  0
LINE
  8
0
 10
17.4569
 20
37.0979
 11
18.0676
 21
36.7868
  0
LINE
  8
0
 10
18.0676
 20
36.7868
 11
18.4598
 21
35.4473
  0
LINE
  8
0
 10
18.4598
 20
35.4473
 11
16.7436
 21
36.6385
  0
LINE
  8
0
 10
-20.3615
 20
11.6466
 11
-29.1806
 21
28.7736
  0
LINE
  8
0
 10
-29.1806
 20
28.7736
 11
-28.0664
 21
29.8877
  0
LINE
  8
0
 10
-28.0664
 20
29.8877
 11
-26.1344
 21
31.591
  0
LINE
  8
0
 10
-26.1344
 20
31.591
 11
-24.0992
 21
33.1697
  0
LINE
  8
0
 10
-24.0992
 20
33.1697
 11
-21.9689
 21
34.6174
  0
LINE
  8
0
 10
-21.9689
 20
34.6174
 11
-20.5832
 21
35.437
  0
LINE
  8
0
 10
-20.5832
 20
35.437
 11
-10.4491
 21
27.285
  0
LINE
  8
0
 10
-10.4491
 20
27.285
 11
-8.51038
 21
22.6835
  0
LINE
  8
0
 10
-8.51038
 20
22.6835
 11
-11.7146
 21
13.1322
  0
LINE
  8
0
 10
-11.7146
 20
13.1322
 11
-15.9173
 21
10.5452
  0
LINE
  8
0
 10
-15.9173
 20
10.5452
 11
-20.3615
 21
11.6466
  0
LINE
  8
0
 10
21.7995
 20
34.7176
 11
21.9689
 21
34.6174
  0
LINE
  8
0
 10
21.9689
 20
34.6174
 11
22.5484
 21
34.2236
  0
LINE
  8
0
 10
22.5484
 20
34.2236
 11
22.0365
 21
33.9084
  0
LINE
  8
0
 10
22.0365
 20
33.9084
 11
21.7995
 21
34.7176
  0
LINE
  8
0
 10
24.0056
 20
31.5977
 11
25.1877
 21
32.3254
  0
LINE
  8
0
 10
25.1877
 20
32.3254
 11
26.1344
 21
31.591
  0
LINE
  8
0
 10
26.1344
 20
31.591
 11
28.0664
 21
29.8877
  0
LINE
  8
0
 10
28.0664
 20
29.8877
 11
29.8877
 21
28.0664
  0
LINE
  8
0
 10
29.8877
 20
28.0664
 11
31.1411
 21
26.6447
  0
LINE
  8
0
 10
31.1411
 20
26.6447
 11
24.0056
 21
31.5977
  0
LINE
  8
0
 10
13.2245
 20
31.9498
 11
15.106
 21
29.6422
  0
LINE
  8
0
 10
15.106
 20
29.6422
 11
8.38905
 21
25.5074
  0
LINE
  8
0
 10
8.38905
 20
25.5074
 11
13.2245
 21
31.9498
  0
LINE
  8
0
 10
-4.19771
 20
26.1065
 11
-2.38698
 21
31.504
  0
LINE
  8
0
 10
-2.38698
 20
31.504
 11
3.4167
 21
23.8802
  0
LINE
  8
0
 10
3.4167
 20
23.8802
 11
1.59207
 21
21.4492
  0
LINE
  8
0
 10
1.59207
 20
21.4492
 11
-4.19771
 21
26.1065
  0
LINE
  8
0
 10
25.6059
 20
26.835
 11
34.045
 21
20.9771
  0
LINE
  8
0
 10
34.045
 20
20.9771
 11
34.9823
 21
17.603
  0
LINE
  8
0
 10
34.9823
 20
17.603
 11
25.6059
 21
26.835
  0
LINE
  8
0
 10
-34.0798
 20
15.0465
 11
-36.0073
 21
19.5974
  0
LINE
  8
0
 10
-36.0073
 20
19.5974
 11
-35.9286
 21
19.7519
  0
LINE
  8
0
 10
-35.9286
 20
19.7519
 11
-34.6174
 21
21.9689
  0
LINE
  8
0
 10
-34.6174
 20
21.9689
 11
-33.1697
 21
24.0992
  0
LINE
  8
0
 10
-33.1697
 20
24.0992
 11
-31.591
 21
26.1344
  0
LINE
  8
0
 10
-31.591
 20
26.1344
 11
-31.3416
 21
26.4173
  0
LINE
  8
0
 10
-31.3416
 20
26.4173
 11
-24.2295
 21
12.6052
  0
LINE
  8
0
 10
-24.2295
 20
12.6052
 11
-34.0798
 21
15.0465
  0
LINE
  8
0
 10
8.55319
 20
22.0857
 11
15.3742
 21
26.2845
  0
LINE
  8
0
 10
15.3742
 20
26.2845
 11
12.1322
 21
17.3843
  0
LINE
  8
0
 10
12.1322
 20
17.3843
 11
8.55319
 21
22.0857
  0
LINE
  8
0
 10
20.7997
 20
5.99846
 11
14.2917
 21
14.5475
  0
LINE
  8
0
 10
14.2917
 20
14.5475
 11
18.3437
 21
25.6713
  0
LINE
  8
0
 10
18.3437
 20
25.6713
 11
22.9921
 21
19.9703
  0
LINE
  8
0
 10
22.9921
 20
19.9703
 11
26.7034
 21
7.29671
  0
LINE
  8
0
 10
26.7034
 20
7.29671
 11
23.3845
 21
3.91925
  0
LINE
  8
0
 10
23.3845
 20
3.91925
 11
20.7997
 21
5.99846
  0
LINE
  8
0
 10
-5.30569
 20
22.8038
 11
-5.21487
 21
23.0746
  0
LINE
  8
0
 10
-5.21487
 20
23.0746
 11
-1.03076
 21
19.7089
  0
LINE
  8
0
 10
-1.03076
 20
19.7089
 11
-3.38988
 21
18.2567
  0
LINE
  8
0
 10
-3.38988
 20
18.2567
 11
-5.30569
 21
22.8038
  0
LINE
  8
0
 10
25.7006
 20
21.3958
 11
25.2332
 21
22.9919
  0
LINE
  8
0
 10
25.2332
 20
22.9919
 11
33.8191
 21
14.5381
  0
LINE
  8
0
 10
33.8191
 20
14.5381
 11
32.438
 21
13.1326
  0
LINE
  8
0
 10
32.438
 20
13.1326
 11
25.7006
 21
21.3958
  0
LINE
  8
0
 10
4.16156
 20
19.3823
 11
5.98589
 21
20.5053
  0
LINE
  8
0
 10
5.98589
 20
20.5053
 11
10.9119
 21
14.0344
  0
LINE
  8
0
 10
10.9119
 20
14.0344
 11
10.8887
 21
13.9709
  0
LINE
  8
0
 10
10.8887
 20
13.9709
 11
4.16156
 21
19.3823
  0
LINE
  8
0
 10
-6.74876
 20
18.5023
 11
-5.97485
 21
16.6654
  0
LINE
  8
0
 10
-5.97485
 20
16.6654
 11
-7.72679
 21
15.587
  0
LINE
  8
0
 10
-7.72679
 20
15.587
 11
-6.74876
 21
18.5023
  0
LINE
  8
0
 10
1.6985
 20
6.17938
 11
-1.11166
 21
12.8493
  0
LINE
  8
0
 10
-1.11166
 20
12.8493
 11
2.12909
 21
17.1671
  0
LINE
  8
0
 10
2.12909
 20
17.1671
 11
9.80409
 21
10.9933
  0
LINE
  8
0
 10
9.80409
 20
10.9933
 11
7.52457
 21
4.73549
  0
LINE
  8
0
 10
7.52457
 20
4.73549
 11
1.6985
 21
6.17938
  0
LINE
  8
0
 10
-37.7477
 20
15.9555
 11
-37.7351
 21
15.9845
  0
LINE
  8
0
 10
-37.7351
 20
15.9845
 11
-37.7198
 21
15.9486
  0
LINE
  8
0
 10
-37.7198
 20
15.9486
 11
-37.7477
 21
15.9555
  0
LINE
  8
0
 10
27.8699
 20
13.9878
 11
30.3225
 21
10.9798
  0
LINE
  8
0
 10
30.3225
 20
10.9798
 11
29.1116
 21
9.74753
  0
LINE
  8
0
 10
29.1116
 20
9.74753
 11
27.8699
 21
13.9878
  0
LINE
  8
0
 10
-9.9171
 20
9.05812
 11
-9.21622
 21
11.1473
  0
LINE
  8
0
 10
-9.21622
 20
11.1473
 11
-4.79628
 21
13.8681
  0
LINE
  8
0
 10
-4.79628
 20
13.8681
 11
-4.54524
 21
13.2722
  0
LINE
  8
0
 10
-4.54524
 20
13.2722
 11
-8.05464
 21
8.59654
  0
LINE
  8
0
 10
-8.05464
 20
8.59654
 11
-9.9171
 21
9.05812
  0
LINE
  8
0
 10
-37.0097
 20
12.6818
 11
-36.2572
 21
12.4954
  0
LINE
  8
0
 10
-36.2572
 20
12.4954
 11
-31.3957
 21
1.01707
  0
LINE
  8
0
 10
-31.3957
 20
1.01707
 11
-32.9508
 21
0.0597992
  0
LINE
  8
0
 10
-32.9508
 20
0.0597992
 11
-37.0097
 21
12.6818
  0
LINE
  8
0
 10
34.3453
 20
10.7934
 11
35.9568
 21
12.4333
  0
LINE
  8
0
 10
35.9568
 20
12.4333
 11
36.592
 21
11.8079
  0
LINE
  8
0
 10
36.592
 20
11.8079
 11
38.1804
 21
6.08987
  0
LINE
  8
0
 10
38.1804
 20
6.08987
 11
34.3453
 21
10.7934
  0
LINE
  8
0
 10
-32.6172
 20
11.5932
 11
-22.4052
 21
9.06233
  0
LINE
  8
0
 10
-22.4052
 20
9.06233
 11
-21.4234
 21
7.15575
  0
LINE
  8
0
 10
-21.4234
 20
7.15575
 11
-28.8115
 21
2.60785
  0
LINE
  8
0
 10
-28.8115
 20
2.60785
 11
-32.6172
 21
11.5932
  0
LINE
  8
0
 10
-40.9191
 20
-2.5744
 11
-41
 21
0
  0
LINE
  8
0
 10
-41
 20
0
 11
-40.9191
 21
2.5744
  0
LINE
  8
0
 10
-40.9191
 20
2.5744
 11
-40.6767
 21
5.13866
  0
LINE
  8
0
 10
-40.6767
 20
5.13866
 11
-40.2738
 21
7.68263
  0
LINE
  8
0
 10
-40.2738
 20
7.68263
 11
-39.7119
 21
10.1963
  0
LINE
  8
0
 10
-39.7119
 20
10.1963
 11
-39.5457
 21
10.7684
  0
LINE
  8
0
 10
-39.5457
 20
10.7684
 11
-35.5814
 21
-1.55951
  0
LINE
  8
0
 10
-35.5814
 20
-1.55951
 11
-40.7162
 21
-4.72038
  0
LINE
  8
0
 10
-40.7162
 20
-4.72038
 11
-40.9191
 21
-2.5744
  0
LINE
  8
0
 10
-4.89194
 20
7.81271
 11
-3.19666
 21
10.0714
  0
LINE
  8
0
 10
-3.19666
 20
10.0714
 11
-1.93643
 21
7.08025
  0
LINE
  8
0
 10
-1.93643
 20
7.08025
 11
-4.89194
 21
7.81271
  0
LINE
  8
0
 10
10.453
 20
4.00972
 11
12.2734
 21
9.00696
  0
LINE
  8
0
 10
12.2734
 20
9.00696
 11
18.6343
 21
3.89017
  0
LINE
  8
0
 10
18.6343
 20
3.89017
 11
20.4246
 21
1.53841
  0
LINE
  8
0
 10
20.4246
 20
1.53841
 11
10.453
 21
4.00972
  0
LINE
  8
0
 10
32.3835
 20
-1.4254
 11
30.0773
 21
6.44997
  0
LINE
  8
0
 10
30.0773
 20
6.44997
 11
32.2299
 21
8.64053
  0
LINE
  8
0
 10
32.2299
 20
8.64053
 11
40.1805
 21
-1.1106
  0
LINE
  8
0
 10
40.1805
 20
-1.1106
 11
40.8348
 21
-3.46608
  0
LINE
  8
0
 10
40.8348
 20
-3.46608
 11
40.8298
 21
-3.51869
  0
LINE
  8
0
 10
40.8298
 20
-3.51869
 11
32.3835
 21
-1.4254
  0
LINE
  8
0
 10
-17.4838
 20
6.05801
 11
-15.4168
 21
7.3304
  0
LINE
  8
0
 10
-15.4168
 20
7.3304
 11
-13.7958
 21
6.92865
  0
LINE
  8
0
 10
-13.7958
 20
6.92865
 11
-15.4276
 21
2.06468
  0
LINE
  8
0
 10
-15.4276
 20
2.06468
 11
-17.4838
 21
6.05801
  0
LINE
  8
0
 10
-10.8744
 20
6.20462
 11
-10.0106
 21
5.99054
  0
LINE
  8
0
 10
-10.0106
 20
5.99054
 11
-11.7024
 21
3.73656
  0
LINE
  8
0
 10
-11.7024
 20
3.73656
 11
-10.8744
 21
6.20462
  0
LINE
  8
0
 10
-12.8961
 20
-2.85152
 11
-6.8479
 21
5.20673
  0
LINE
  8
0
 10
-6.8479
 20
5.20673
 11
-0.482422
 21
3.62914
  0
LINE
  8
0
 10
-0.482422
 20
3.62914
 11
3.59566
 21
-6.05019
  0
LINE
  8
0
 10
3.59566
 20
-6.05019
 11
-2.29063
 21
-22.2093
  0
LINE
  8
0
 10
-2.29063
 20
-22.2093
 11
-2.70906
 21
-22.6351
  0
LINE
  8
0
 10
-2.70906
 20
-22.6351
 11
-12.8961
 21
-2.85152
  0
LINE
  8
0
 10
-27.628
 20
-0.186447
 11
-20.046
 21
4.4808
  0
LINE
  8
0
 10
-20.046
 20
4.4808
 11
-16.7587
 21
-1.90329
  0
LINE
  8
0
 10
-16.7587
 20
-1.90329
 11
-17.4241
 21
-3.88676
  0
LINE
  8
0
 10
-17.4241
 20
-3.88676
 11
-22.9452
 21
-11.2427
  0
LINE
  8
0
 10
-22.9452
 20
-11.2427
 11
-27.628
 21
-0.186447
  0
LINE
  8
0
 10
28.9802
 20
-0.581955
 11
25.7336
 21
2.0296
  0
LINE
  8
0
 10
25.7336
 20
2.0296
 11
27.669
 21
3.99913
  0
LINE
  8
0
 10
27.669
 20
3.99913
 11
29.0129
 21
-0.590057
  0
LINE
  8
0
 10
29.0129
 20
-0.590057
 11
28.9802
 21
-0.581955
  0
LINE
  8
0
 10
3.15251
 20
2.72827
 11
6.49193
 21
1.90065
  0
LINE
  8
0
 10
6.49193
 20
1.90065
 11
5.10515
 21
-1.90631
  0
LINE
  8
0
 10
5.10515
 20
-1.90631
 11
3.15251
 21
2.72827
  0
LINE
  8
0
 10
6.8175
 20
-5.97058
 11
9.42038
 21
1.17488
  0
LINE
  8
0
 10
9.42038
 20
1.17488
 11
18.4812
 21
-1.07069
  0
LINE
  8
0
 10
18.4812
 20
-1.07069
 11
8.87277
 21
-10.8488
  0
LINE
  8
0
 10
8.87277
 20
-10.8488
 11
6.8175
 21
-5.97058
  0
LINE
  8
0
 10
-32.0052
 20
-2.88092
 11
-30.2122
 21
-1.77722
  0
LINE
  8
0
 10
-30.2122
 20
-1.77722
 11
-25.0279
 21
-14.0175
  0
LINE
  8
0
 10
-25.0279
 20
-14.0175
 11
-27.4054
 21
-17.1851
  0
LINE
  8
0
 10
-27.4054
 20
-17.1851
 11
-32.0052
 21
-2.88092
  0
LINE
  8
0
 10
10.135
 20
-13.8446
 11
21.8635
 21
-1.90894
  0
LINE
  8
0
 10
21.8635
 20
-1.90894
 11
23.3246
 21
-2.27107
  0
LINE
  8
0
 10
23.3246
 20
-2.27107
 11
31.6916
 21
-13.262
  0
LINE
  8
0
 10
31.6916
 20
-13.262
 11
14.5739
 21
-24.3804
  0
LINE
  8
0
 10
14.5739
 20
-24.3804
 11
10.135
 21
-13.8446
  0
LINE
  8
0
 10
28.3608
 20
-3.93387
 11
30.4947
 21
-5.65041
  0
LINE
  8
0
 10
30.4947
 20
-5.65041
 11
31.0119
 21
-7.41631
  0
LINE
  8
0
 10
31.0119
 20
-7.41631
 11
28.3608
 21
-3.93387
  0
LINE
  8
0
 10
-33.1697
 20
-24.0992
 11
-34.6174
 21
-21.9689
  0
LINE
  8
0
 10
-34.6174
 20
-21.9689
 11
-35.9286
 21
-19.7519
  0
LINE
  8
0
 10
-35.9286
 20
-19.7519
 11
-37.0979
 21
-17.4569
  0
LINE
  8
0
 10
-37.0979
 20
-17.4569
 11
-38.1208
 21
-15.0931
  0
LINE
  8
0
 10
-38.1208
 20
-15.0931
 11
-38.9933
 21
-12.6697
  0
LINE
  8
0
 10
-38.9933
 20
-12.6697
 11
-39.7119
 21
-10.1963
  0
LINE
  8
0
 10
-39.7119
 20
-10.1963
 11
-40.2171
 21
-7.93597
  0
LINE
  8
0
 10
-40.2171
 20
-7.93597
 11
-34.6357
 21
-4.50021
  0
LINE
  8
0
 10
-34.6357
 20
-4.50021
 11
-29.6115
 21
-20.1244
  0
LINE
  8
0
 10
-29.6115
 20
-20.1244
 11
-32.8775
 21
-24.4759
  0
LINE
  8
0
 10
-32.8775
 20
-24.4759
 11
-33.1697
 21
-24.0992
  0
LINE
  8
0
 10
34.5334
 20
-5.04898
 11
40.4583
 21
-6.51738
  0
LINE
  8
0
 10
40.4583
 20
-6.51738
 11
40.2738
 21
-7.68263
  0
LINE
  8
0
 10
40.2738
 20
-7.68263
 11
40.2725
 21
-7.68843
  0
LINE
  8
0
 10
40.2725
 20
-7.68843
 11
38.9127
 21
-8.57167
  0
LINE
  8
0
 10
38.9127
 20
-8.57167
 11
34.5334
 21
-5.04898
  0
LINE
  8
0
 10
-19.4757
 20
-19.4343
 11
-14.8427
 21
-5.62425
  0
LINE
  8
0
 10
-14.8427
 20
-5.62425
 11
-4.92317
 21
-24.8884
  0
LINE
  8
0
 10
-4.92317
 20
-24.8884
 11
-13.4782
 21
-33.5945
  0
LINE
  8
0
 10
-13.4782
 20
-33.5945
 11
-19.4757
 21
-19.4343
  0
LINE
  8
0
 10
34.584
 20
-8.93982
 11
36.2646
 21
-10.2917
  0
LINE
  8
0
 10
36.2646
 20
-10.2917
 11
35.1852
 21
-10.9928
  0
LINE
  8
0
 10
35.1852
 20
-10.9928
 11
34.584
 21
-8.93982
  0
LINE
  8
0
 10
5.30801
 20
-10.1145
 11
6.59431
 21
-13.1675
  0
LINE
  8
0
 10
6.59431
 20
-13.1675
 11
2.78304
 21
-17.0461
  0
LINE
  8
0
 10
2.78304
 20
-17.0461
 11
5.30801
 21
-10.1145
  0
LINE
  8
0
 10
36.0921
 20
-14.0897
 11
36.0653
 21
-13.9984
  0
LINE
  8
0
 10
36.0653
 20
-13.9984
 11
38.725
 21
-12.2709
  0
LINE
  8
0
 10
38.725
 20
-12.2709
 11
39.0364
 21
-12.5214
  0
LINE
  8
0
 10
39.0364
 20
-12.5214
 11
38.9933
 21
-12.6697
  0
LINE
  8
0
 10
38.9933
 20
-12.6697
 11
38.1208
 21
-15.0931
  0
LINE
  8
0
 10
38.1208
 20
-15.0931
 11
37.6624
 21
-16.1525
  0
LINE
  8
0
 10
37.6624
 20
-16.1525
 11
36.0921
 21
-14.0897
  0
LINE
  8
0
 10
-21.5921
 20
-14.4375
 11
-20.4558
 21
-12.9236
  0
LINE
  8
0
 10
-20.4558
 20
-12.9236
 11
-21.2414
 21
-15.2654
  0
LINE
  8
0
 10
-21.2414
 20
-15.2654
 11
-21.5921
 21
-14.4375
  0
LINE
  8
0
 10
15.7572
 20
-27.1891
 11
33.4389
 21
-15.7043
  0
LINE
  8
0
 10
33.4389
 20
-15.7043
 11
35.0562
 21
-21.2271
  0
LINE
  8
0
 10
35.0562
 20
-21.2271
 11
34.6174
 21
-21.9689
  0
LINE
  8
0
 10
34.6174
 20
-21.9689
 11
33.1697
 21
-24.0992
  0
LINE
  8
0
 10
33.1697
 20
-24.0992
 11
31.591
 21
-26.1344
  0
LINE
  8
0
 10
31.591
 20
-26.1344
 11
29.8877
 21
-28.0664
  0
LINE
  8
0
 10
29.8877
 20
-28.0664
 11
28.0664
 21
-29.8877
  0
LINE
  8
0
 10
28.0664
 20
-29.8877
 11
26.1344
 21
-31.591
  0
LINE
  8
0
 10
26.1344
 20
-31.591
 11
24.0992
 21
-33.1697
  0
LINE
  8
0
 10
24.0992
 20
-33.1697
 11
21.9689
 21
-34.6174
  0
LINE
  8
0
 10
21.9689
 20
-34.6174
 11
19.7519
 21
-35.9286
  0
LINE
  8
0
 10
19.7519
 20
-35.9286
 11
19.4946
 21
-36.0597
  0
LINE
  8
0
 10
19.4946
 20
-36.0597
 11
15.7572
 21
-27.1891
  0
LINE
  8
0
 10
-0.684875
 20
-26.5662
 11
0.305374
 21
-23.8478
  0
LINE
  8
0
 10
0.305374
 20
-23.8478
 11
7.85649
 21
-16.1633
  0
LINE
  8
0
 10
7.85649
 20
-16.1633
 11
12.018
 21
-26.0406
  0
LINE
  8
0
 10
12.018
 20
-26.0406
 11
2.29605
 21
-32.3553
  0
LINE
  8
0
 10
2.29605
 20
-32.3553
 11
-0.684875
 21
-26.5662
  0
LINE
  8
0
 10
-26.2803
 20
-20.6838
 11
-23.6748
 21
-17.2123
  0
LINE
  8
0
 10
-23.6748
 20
-17.2123
 11
-22.6814
 21
-19.5577
  0
LINE
  8
0
 10
-22.6814
 20
-19.5577
 11
-24.7038
 21
-25.5862
  0
LINE
  8
0
 10
-24.7038
 20
-25.5862
 11
-26.2803
 21
-20.6838
  0
LINE
  8
0
 10
-28.0664
 20
-29.8877
 11
-29.8877
 21
-28.0664
  0
LINE
  8
0
 10
-29.8877
 20
-28.0664
 11
-30.9322
 21
-26.8817
  0
LINE
  8
0
 10
-30.9322
 20
-26.8817
 11
-28.4864
 21
-23.6231
  0
LINE
  8
0
 10
-28.4864
 20
-23.6231
 11
-26.3128
 21
-30.3824
  0
LINE
  8
0
 10
-26.3128
 20
-30.3824
 11
-26.585
 21
-31.1937
  0
LINE
  8
0
 10
-26.585
 20
-31.1937
 11
-28.0664
 21
-29.8877
  0
LINE
  8
0
 10
-17.4569
 20
-37.0979
 11
-19.7519
 21
-35.9286
  0
LINE
  8
0
 10
-19.7519
 20
-35.9286
 11
-21.7599
 21
-34.741
  0
LINE
  8
0
 10
-21.7599
 20
-34.741
 11
-23.1552
 21
-30.4022
  0
LINE
  8
0
 10
-23.1552
 20
-30.4022
 11
-20.9157
 21
-23.7267
  0
LINE
  8
0
 10
-20.9157
 20
-23.7267
 11
-15.7549
 21
-35.9114
  0
LINE
  8
0
 10
-15.7549
 20
-35.9114
 11
-17.0808
 21
-37.2607
  0
LINE
  8
0
 10
-17.0808
 20
-37.2607
 11
-17.4569
 21
-37.0979
  0
LINE
  8
0
 10
3.67641
 20
-35.036
 11
13.2013
 21
-28.8492
  0
LINE
  8
0
 10
13.2013
 20
-28.8492
 11
16.797
 21
-37.3835
  0
LINE
  8
0
 10
16.797
 20
-37.3835
 11
15.0931
 21
-38.1208
  0
LINE
  8
0
 10
15.0931
 20
-38.1208
 11
12.6697
 21
-38.9933
  0
LINE
  8
0
 10
12.6697
 20
-38.9933
 11
10.1963
 21
-39.7119
  0
LINE
  8
0
 10
10.1963
 20
-39.7119
 11
7.68263
 21
-40.2738
  0
LINE
  8
0
 10
7.68263
 20
-40.2738
 11
6.47218
 21
-40.4655
  0
LINE
  8
0
 10
6.47218
 20
-40.4655
 11
3.67641
 21
-35.036
  0
LINE
  8
0
 10
-10.1963
 20
-39.7119
 11
-10.9842
 21
-39.483
  0
LINE
  8
0
 10
-10.9842
 20
-39.483
 11
-12.2114
 21
-36.5856
  0
LINE
  8
0
 10
-12.2114
 20
-36.5856
 11
-4.7683
 21
-29.011
  0
LINE
  8
0
 10
-4.7683
 20
-29.011
 11
-8.55356
 21
-39.4024
  0
LINE
  8
0
 10
-8.55356
 20
-39.4024
 11
-9.32864
 21
-39.9058
  0
LINE
  8
0
 10
-9.32864
 20
-39.9058
 11
-10.1963
 21
-39.7119
  0
LINE
  8
0
 10
-2.08295
 20
-30.4042
 11
-0.23259
 21
-33.9977
  0
LINE
  8
0
 10
-0.23259
 20
-33.9977
 11
-4.37114
 21
-36.6858
  0
LINE
  8
0
 10
-4.37114
 20
-36.6858
 11
-2.08295
 21
-30.4042
  0
LINE
  8
0
 10
-2.5744
 20
-40.9191
 11
-5.02455
 21
-40.6875
  0
LINE
  8
0
 10
-5.02455
 20
-40.6875
 11
1.14777
 21
-36.6784
  0
LINE
  8
0
 10
1.14777
 20
-36.6784
 11
3.29625
 21
-40.8508
  0
LINE
  8
0
 10
3.29625
 20
-40.8508
 11
2.5744
 21
-40.9191
  0
LINE
  8
0
 10
2.5744
 20
-40.9191
 11
0
 21
-41
  0
LINE
  8
0
 10
0
 20
-41
 11
-2.5744
 21
-40.9191
  0
ENDSEC
  0
SECTION
  2
OBJECTS
  0
DICTIONARY
  0
ENDSEC
  0
EOF
