  0
SECTION
  2
BLOCKS
  0
ENDSEC
  0
SECTION
  2
ENTITIES
  0
LINE
  8
0
 10
8.24477
 20
43.2206
 11
5.51465
 21
43.653
  0
LINE
  8
0
 10
5.51465
 20
43.653
 11
2.76277
 21
43.9132
  0
LINE
  8
0
 10
2.76277
 20
43.9132
 11
0
 21
44
  0
LINE
  8
0
 10
0
 20
44
 11
-2.76277
 21
43.9132
  0
LINE
  8
0
 10
-2.76277
 20
43.9132
 11
-5.51465
 21
43.653
  0
LINE
  8
0
 10
-5.51465
 20
43.653
 11
-8.24477
 21
43.2206
  0
LINE
  8
0
 10
-8.24477
 20
43.2206
 11
-10.9424
 21
42.6176
  0
LINE
  8
0
 10
-10.9424
 20
42.6176
 11
-13.5967
 21
41.8465
  0
LINE
  8
0
 10
-13.5967
 20
41.8465
 11
-16.1975
 21
40.9102
  0
LINE
  8
0
 10
-16.1975
 20
40.9102
 11
-18.7343
 21
39.8124
  0
LINE
  8
0
 10
-18.7343
 20
39.8124
 11
-21.1972
 21
38.5575
  0
LINE
  8
0
 10
-21.1972
 20
38.5575
 11
-23.5764
 21
37.1504
  0
LINE
  8
0
 10
-23.5764
 20
37.1504
 11
-25.8625
 21
35.5967
  0
LINE
  8
0
 10
-25.8625
 20
35.5967
 11
-28.0466
 21
33.9026
  0
LINE
  8
0
 10
-28.0466
 20
33.9026
 11
-30.1201
 21
32.0746
  0
LINE
  8
0
 10
-30.1201
 20
32.0746
 11
-32.0746
 21
30.1201
  0
LINE
  8
0
 10
-32.0746
 20
30.1201
 11
-33.9026
 21
28.0466
  0
LINE
  8
0
 10
-33.9026
 20
28.0466
 11
-35.5967
 21
25.8625
  0
LINE
  8
0
 10
-35.5967
 20
25.8625
 11
-37.1504
 21
23.5764
  0
LINE
  8
0
 10
-37.1504
 20
23.5764
 11
-38.5575
 21
21.1972
  0
LINE
  8
0
 10
-38.5575
 20
21.1972
 11
-39.8124
 21
18.7343
  0
LINE
  8
0
 10
-39.8124
 20
18.7343
 11
-40.9102
 21
16.1975
  0
LINE
  8
0
 10
-40.9102
 20
16.1975
 11
-41.8465
 21
13.5967
  0
LINE
  8
0
 10
-41.8465
 20
13.5967
 11
-42.6176
 21
10.9424
  0
LINE
  8
0
 10
-42.6176
 20
10.9424
 11
-43.2206
 21
8.24477
  0
LINE
  8
0
 10
-43.2206
 20
8.24477
 11
-43.653
 21
5.51465
  0
LINE
  8
0
 10
-43.653
 20
5.51465
 11
-43.9132
 21
2.76277
  0
LINE
  8
0
 10
-43.9132
 20
2.76277
 11
-44
 21
0
  0
LINE
  8
0
 10
-44
 20
0
 11
-43.9132
 21
-2.76277
  0
LINE
  8
0
 10
-43.9132
 20
-2.76277
 11
-43.653
 21
-5.51465
  0
LINE
  8
0
 10
-43.653
 20
-5.51465
 11
-43.2206
 21
-8.24477
  0
LINE
  8
0
 10
-43.2206
 20
-8.24477
 11
-42.6176
 21
-10.9424
  0
LINE
  8
0
 10
-42.6176
 20
-10.9424
 11
-41.8465
 21
-13.5967
  0
LINE
  8
0
 10
-41.8465
 20
-13.5967
 11
-40.9102
 21
-16.1975
  0
LINE
  8
0
 10
-40.9102
 20
-16.1975
 11
-39.8124
 21
-18.7343
  0
LINE
  8
0
 10
-39.8124
 20
-18.7343
 11
-38.5575
 21
-21.1972
  0
LINE
  8
0
 10
-38.5575
 20
-21.1972
 11
-37.1504
 21
-23.5764
  0
LINE
  8
0
 10
-37.1504
 20
-23.5764
 11
-35.5967
 21
-25.8625
  0
LINE
  8
0
 10
-35.5967
 20
-25.8625
 11
-33.9026
 21
-28.0466
  0
LINE
  8
0
 10
-33.9026
 20
-28.0466
 11
-32.0746
 21
-30.1201
  0
LINE
  8
0
 10
-32.0746
 20
-30.1201
 11
-30.1201
 21
-32.0746
  0
LINE
  8
0
 10
-30.1201
 20
-32.0746
 11
-28.0466
 21
-33.9026
  0
LINE
  8
0
 10
-28.0466
 20
-33.9026
 11
-25.8625
 21
-35.5967
  0
LINE
  8
0
 10
-25.8625
 20
-35.5967
 11
-23.5764
 21
-37.1504
  0
LINE
  8
0
 10
-23.5764
 20
-37.1504
 11
-21.1972
 21
-38.5575
  0
LINE
  8
0
 10
-21.1972
 20
-38.5575
 11
-18.7343
 21
-39.8124
  0
LINE
  8
0
 10
-18.7343
 20
-39.8124
 11
-16.1975
 21
-40.9102
  0
LINE
  8
0
 10
-16.1975
 20
-40.9102
 11
-13.5967
 21
-41.8465
  0
LINE
  8
0
 10
-13.5967
 20
-41.8465
 11
-10.9424
 21
-42.6176
  0
LINE
  8
0
 10
-10.9424
 20
-42.6176
 11
-8.24477
 21
-43.2206
  0
LINE
  8
0
 10
-8.24477
 20
-43.2206
 11
-5.51465
 21
-43.653
  0
LINE
  8
0
 10
-5.51465
 20
-43.653
 11
-2.76277
 21
-43.9132
  0
LINE
  8
0
 10
-2.76277
 20
-43.9132
 11
0
 21
-44
  0
LINE
  8
0
 10
0
 20
-44
 11
2.76277
 21
-43.9132
  0
LINE
  8
0
 10
2.76277
 20
-43.9132
 11
5.51465
 21
-43.653
  0
LINE
  8
0
 10
5.51465
 20
-43.653
 11
8.24477
 21
-43.2206
  0
LINE
  8
0
 10
8.24477
 20
-43.2206
 11
10.9424
 21
-42.6176
  0
LINE
  8
0
 10
10.9424
 20
-42.6176
 11
13.5967
 21
-41.8465
  0
LINE
  8
0
 10
13.5967
 20
-41.8465
 11
16.1975
 21
-40.9102
  0
LINE
  8
0
 10
16.1975
 20
-40.9102
 11
18.7343
 21
-39.8124
  0
LINE
  8
0
 10
18.7343
 20
-39.8124
 11
21.1972
 21
-38.5575
  0
LINE
  8
0
 10
21.1972
 20
-38.5575
 11
23.5764
 21
-37.1504
  0
LINE
  8
0
 10
23.5764
 20
-37.1504
 11
25.8625
 21
-35.5967
  0
LINE
  8
0
 10
25.8625
 20
-35.5967
 11
28.0466
 21
-33.9026
  0
LINE
  8
0
 10
28.0466
 20
-33.9026
 11
30.1201
 21
-32.0746
  0
LINE
  8
0
 10
30.1201
 20
-32.0746
 11
32.0746
 21
-30.1201
  0
LINE
  8
0
 10
32.0746
 20
-30.1201
 11
33.9026
 21
-28.0466
  0
LINE
  8
0
 10
33.9026
 20
-28.0466
 11
35.5967
 21
-25.8625
  0
LINE
  8
0
 10
35.5967
 20
-25.8625
 11
37.1504
 21
-23.5764
  0
LINE
  8
0
 10
37.1504
 20
-23.5764
 11
38.5575
 21
-21.1972
  0
LINE
  8
0
 10
38.5575
 20
-21.1972
 11
39.8124
 21
-18.7343
  0
LINE
  8
0
 10
39.8124
 20
-18.7343
 11
40.9102
 21
-16.1975
  0
LINE
  8
0
 10
40.9102
 20
-16.1975
 11
41.8465
 21
-13.5967
  0
LINE
  8
0
 10
41.8465
 20
-13.5967
 11
42.6176
 21
-10.9424
  0
LINE
  8
0
 10
42.6176
 20
-10.9424
 11
43.2206
 21
-8.24477
  0
LINE
  8
0
 10
43.2206
 20
-8.24477
 11
43.653
 21
-5.51465
  0
LINE
  8
0
 10
43.653
 20
-5.51465
 11
43.9132
 21
-2.76277
  0
LINE
  8
0
 10
43.9132
 20
-2.76277
 11
44
 21
0
  0
LINE
  8
0
 10
44
 20
0
 11
43.9132
 21
2.76277
  0
LINE
  8
0
 10
43.9132
 20
2.76277
 11
43.653
 21
5.51465
  0
LINE
  8
0
 10
43.653
 20
5.51465
 11
43.2206
 21
8.24477
  0
LINE
  8
0
 10
43.2206
 20
8.24477
 11
42.6176
 21
10.9424
  0
LINE
  8
0
 10
42.6176
 20
10.9424
 11
41.8465
 21
13.5967
  0
LINE
  8
0
 10
41.8465
 20
13.5967
 11
40.9102
 21
16.1975
  0
LINE
  8
0
 10
40.9102
 20
16.1975
 11
39.8124
 21
18.7343
  0
LINE
  8
0
 10
39.8124
 20
18.7343
 11
38.5575
 21
21.1972
  0
LINE
  8
0
 10
38.5575
 20
21.1972
 11
37.1504
 21
23.5764
  0
LINE
  8
0
 10
37.1504
 20
23.5764
 11
35.5967
 21
25.8625
  0
LINE
  8
0
 10
35.5967
 20
25.8625
 11
33.9026
 21
28.0466
  0
LINE
  8
0
 10
33.9026
 20
28.0466
 11
32.0746
 21
30.1201
  0
LINE
  8
0
 10
32.0746
 20
30.1201
 11
30.1201
 21
32.0746
  0
LINE
  8
0
 10
30.1201
 20
32.0746
 11
28.0466
 21
33.9026
  0
LINE
  8
0
 10
28.0466
 20
33.9026
 11
25.8625
 21
35.5967
  0
LINE
  8
0
 10
25.8625
 20
35.5967
 11
23.5764
 21
37.1504
  0
LINE
  8
0
 10
23.5764
 20
37.1504
 11
21.1972
 21
38.5575
  0
LINE
  8
0
 10
21.1972
 20
38.5575
 11
18.7343
 21
39.8124
  0
LINE
  8
0
 10
18.7343
 20
39.8124
 11
16.1975
 21
40.9102
  0
LINE
  8
0
 10
16.1975
 20
40.9102
 11
13.5967
 21
41.8465
  0
LINE
  8
0
 10
13.5967
 20
41.8465
 11
10.9424
 21
42.6176
  0
LINE
  8
0
 10
10.9424
 20
42.6176
 11
8.24477
 21
43.2206
  0
LINE
  8
0
 10
-5.63255
 20
40.5985
 11
-5.13866
 21
40.6767
  0
LINE
  8
0
 10
-5.13866
 20
40.6767
 11
-2.5744
 21
40.9191
  0
LINE
  8
0
 10
-2.5744
 20
40.9191
 11
-0.934875
 21
40.9706
  0
LINE
  8
0
 10
-0.934875
 20
40.9706
 11
-2.62819
 21
36.6085
  0
LINE
  8
0
 10
-2.62819
 20
36.6085
 11
-5.63255
 21
40.5985
  0
LINE
  8
0
 10
-0.504776
 20
33.7885
 11
2.26698
 21
40.9287
  0
LINE
  8
0
 10
2.26698
 20
40.9287
 11
2.5744
 21
40.9191
  0
LINE
  8
0
 10
2.5744
 20
40.9191
 11
5.13866
 21
40.6767
  0
LINE
  8
0
 10
5.13866
 20
40.6767
 11
7.68263
 21
40.2738
  0
LINE
  8
0
 10
7.68263
 20
40.2738
 11
10.1963
 21
39.7119
  0
LINE
  8
0
 10
10.1963
 20
39.7119
 11
10.7451
 21
39.5525
  0
LINE
  8
0
 10
10.7451
 20
39.5525
 11
5.79208
 21
25.4259
  0
LINE
  8
0
 10
5.79208
 20
25.4259
 11
-0.504776
 21
33.7885
  0
LINE
  8
0
 10
-26.864
 20
30.9477
 11
-26.1344
 21
31.591
  0
LINE
  8
0
 10
-26.1344
 20
31.591
 11
-24.0992
 21
33.1697
  0
LINE
  8
0
 10
-24.0992
 20
33.1697
 11
-21.9689
 21
34.6174
  0
LINE
  8
0
 10
-21.9689
 20
34.6174
 11
-19.7519
 21
35.9286
  0
LINE
  8
0
 10
-19.7519
 20
35.9286
 11
-17.4569
 21
37.0979
  0
LINE
  8
0
 10
-17.4569
 20
37.0979
 11
-15.0931
 21
38.1208
  0
LINE
  8
0
 10
-15.0931
 20
38.1208
 11
-12.6697
 21
38.9933
  0
LINE
  8
0
 10
-12.6697
 20
38.9933
 11
-10.1963
 21
39.7119
  0
LINE
  8
0
 10
-10.1963
 20
39.7119
 11
-8.93298
 21
39.9943
  0
LINE
  8
0
 10
-8.93298
 20
39.9943
 11
-3.90562
 21
33.3177
  0
LINE
  8
0
 10
-3.90562
 20
33.3177
 11
-7.32133
 21
24.5185
  0
LINE
  8
0
 10
-7.32133
 20
24.5185
 11
-26.864
 21
30.9477
  0
LINE
  8
0
 10
13.6094
 20
38.655
 11
15.0931
 21
38.1208
  0
LINE
  8
0
 10
15.0931
 20
38.1208
 11
17.4569
 21
37.0979
  0
LINE
  8
0
 10
17.4569
 20
37.0979
 11
19.7519
 21
35.9286
  0
LINE
  8
0
 10
19.7519
 20
35.9286
 11
21.9689
 21
34.6174
  0
LINE
  8
0
 10
21.9689
 20
34.6174
 11
24.0992
 21
33.1697
  0
LINE
  8
0
 10
24.0992
 20
33.1697
 11
26.1344
 21
31.591
  0
LINE
  8
0
 10
26.1344
 20
31.591
 11
28.0664
 21
29.8877
  0
LINE
  8
0
 10
28.0664
 20
29.8877
 11
29.8877
 21
28.0664
  0
LINE
  8
0
 10
29.8877
 20
28.0664
 11
30.3662
 21
27.5237
  0
LINE
  8
0
 10
30.3662
 20
27.5237
 11
8.64569
 21
24.4977
  0
LINE
  8
0
 10
8.64569
 20
24.4977
 11
13.6094
 21
38.655
  0
LINE
  8
0
 10
-4.46767
 20
23.5797
 11
-1.78223
 21
30.4977
  0
LINE
  8
0
 10
-1.78223
 20
30.4977
 11
3.29674
 21
23.7525
  0
LINE
  8
0
 10
3.29674
 20
23.7525
 11
-2.52678
 21
22.9412
  0
LINE
  8
0
 10
-2.52678
 20
22.9412
 11
-4.46767
 21
23.5797
  0
LINE
  8
0
 10
-30.5384
 20
24.6251
 11
-30.7695
 21
27.0663
  0
LINE
  8
0
 10
-30.7695
 20
27.0663
 11
-30.0796
 21
27.8488
  0
LINE
  8
0
 10
-30.0796
 20
27.8488
 11
-27.5438
 21
21.9497
  0
LINE
  8
0
 10
-27.5438
 20
21.9497
 11
-30.5384
 21
24.6251
  0
LINE
  8
0
 10
-26.7763
 20
27.7607
 11
-9.27074
 21
22.0017
  0
LINE
  8
0
 10
-9.27074
 20
22.0017
 11
-23.4516
 21
20.0261
  0
LINE
  8
0
 10
-23.4516
 20
20.0261
 11
-26.7763
 21
27.7607
  0
LINE
  8
0
 10
11.0183
 20
18.4851
 11
8.75977
 21
21.4846
  0
LINE
  8
0
 10
8.75977
 20
21.4846
 11
32.6194
 21
24.8086
  0
LINE
  8
0
 10
32.6194
 20
24.8086
 11
32.6825
 21
24.7272
  0
LINE
  8
0
 10
32.6825
 20
24.7272
 11
20.7833
 21
15.2726
  0
LINE
  8
0
 10
20.7833
 20
15.2726
 11
11.0183
 21
18.4851
  0
LINE
  8
0
 10
-35.9286
 20
19.7519
 11
-34.6174
 21
21.9689
  0
LINE
  8
0
 10
-34.6174
 20
21.9689
 11
-33.6543
 21
23.386
  0
LINE
  8
0
 10
-33.6543
 20
23.386
 11
-33.4143
 21
23.1716
  0
LINE
  8
0
 10
-33.4143
 20
23.1716
 11
-32.9908
 21
18.6971
  0
LINE
  8
0
 10
-32.9908
 20
18.6971
 11
-36.7315
 21
18.176
  0
LINE
  8
0
 10
-36.7315
 20
18.176
 11
-35.9286
 21
19.7519
  0
LINE
  8
0
 10
25.3758
 20
13.7617
 11
35.1958
 21
20.991
  0
LINE
  8
0
 10
35.1958
 20
20.991
 11
35.9286
 21
19.7519
  0
LINE
  8
0
 10
35.9286
 20
19.7519
 11
37.0979
 21
17.4569
  0
LINE
  8
0
 10
37.0979
 20
17.4569
 11
37.8739
 21
15.6638
  0
LINE
  8
0
 10
37.8739
 20
15.6638
 11
32.3974
 21
11.4518
  0
LINE
  8
0
 10
32.3974
 20
11.4518
 11
25.3758
 21
13.7617
  0
LINE
  8
0
 10
3.94125
 20
20.8133
 11
4.18686
 21
20.8475
  0
LINE
  8
0
 10
4.18686
 20
20.8475
 11
4.15071
 21
20.7444
  0
LINE
  8
0
 10
4.15071
 20
20.7444
 11
3.94125
 21
20.8133
  0
LINE
  8
0
 10
-30.1225
 20
20.2306
 11
-29.0246
 21
19.2497
  0
LINE
  8
0
 10
-29.0246
 20
19.2497
 11
-30.0166
 21
19.1115
  0
LINE
  8
0
 10
-30.0166
 20
19.1115
 11
-30.1225
 21
20.2306
  0
LINE
  8
0
 10
-10.8564
 20
7.12164
 11
-6.08368
 21
19.4167
  0
LINE
  8
0
 10
-6.08368
 20
19.4167
 11
-2.80269
 21
19.8738
  0
LINE
  8
0
 10
-2.80269
 20
19.8738
 11
3.15791
 21
17.9129
  0
LINE
  8
0
 10
3.15791
 20
17.9129
 11
-1.74214
 21
3.93721
  0
LINE
  8
0
 10
-1.74214
 20
3.93721
 11
-10.8564
 21
7.12164
  0
LINE
  8
0
 10
-22.1963
 20
17.172
 11
-9.48576
 21
18.9427
  0
LINE
  8
0
 10
-9.48576
 20
18.9427
 11
-13.2692
 21
9.19624
  0
LINE
  8
0
 10
-13.2692
 20
9.19624
 11
-22.1963
 21
17.172
  0
LINE
  8
0
 10
1.08998
 20
2.94771
 11
6.00819
 21
16.9752
  0
LINE
  8
0
 10
6.00819
 20
16.9752
 11
9.18747
 21
15.9292
  0
LINE
  8
0
 10
9.18747
 20
15.9292
 11
13.8375
 21
9.75372
  0
LINE
  8
0
 10
13.8375
 20
9.75372
 11
3.99454
 21
1.93289
  0
LINE
  8
0
 10
3.99454
 20
1.93289
 11
1.08998
 21
2.94771
  0
LINE
  8
0
 10
-29.4982
 20
13.6349
 11
-29.7336
 21
16.1219
  0
LINE
  8
0
 10
-29.7336
 20
16.1219
 11
-26.0916
 21
16.6293
  0
LINE
  8
0
 10
-26.0916
 20
16.6293
 11
-24.7364
 21
15.4185
  0
LINE
  8
0
 10
-24.7364
 20
15.4185
 11
-22.9927
 21
11.3619
  0
LINE
  8
0
 10
-22.9927
 20
11.3619
 11
-29.4982
 21
13.6349
  0
LINE
  8
0
 10
-34.6544
 20
15.4364
 11
-32.7078
 21
15.7076
  0
LINE
  8
0
 10
-32.7078
 20
15.7076
 11
-32.6147
 21
14.7237
  0
LINE
  8
0
 10
-32.6147
 20
14.7237
 11
-34.6544
 21
15.4364
  0
LINE
  8
0
 10
14.1794
 20
14.287
 11
17.9724
 21
13.0392
  0
LINE
  8
0
 10
17.9724
 20
13.0392
 11
16.1871
 21
11.6206
  0
LINE
  8
0
 10
16.1871
 20
11.6206
 11
14.1794
 21
14.287
  0
LINE
  8
0
 10
-39.0258
 20
12.558
 11
-38.9933
 21
12.6697
  0
LINE
  8
0
 10
-38.9933
 20
12.6697
 11
-38.64
 21
13.6511
  0
LINE
  8
0
 10
-38.64
 20
13.6511
 11
-32.3036
 21
11.4372
  0
LINE
  8
0
 10
-32.3036
 20
11.4372
 11
-31.7037
 21
5.09872
  0
LINE
  8
0
 10
-31.7037
 20
5.09872
 11
-39.0258
 21
12.558
  0
LINE
  8
0
 10
35.8439
 20
10.3179
 11
38.9735
 21
12.7248
  0
LINE
  8
0
 10
38.9735
 20
12.7248
 11
38.9933
 21
12.6697
  0
LINE
  8
0
 10
38.9933
 20
12.6697
 11
39.7119
 21
10.1963
  0
LINE
  8
0
 10
39.7119
 20
10.1963
 11
39.9896
 21
8.95404
  0
LINE
  8
0
 10
39.9896
 20
8.95404
 11
35.8439
 21
10.3179
  0
LINE
  8
0
 10
18.4269
 20
8.6461
 11
22.4108
 21
11.579
  0
LINE
  8
0
 10
22.4108
 20
11.579
 11
29.5213
 21
9.23975
  0
LINE
  8
0
 10
29.5213
 20
9.23975
 11
22.2126
 21
3.61848
  0
LINE
  8
0
 10
22.2126
 20
3.61848
 11
18.4269
 21
8.6461
  0
LINE
  8
0
 10
-19.1502
 20
10.0194
 11
-19.4351
 21
10.6821
  0
LINE
  8
0
 10
-19.4351
 20
10.6821
 11
-18.3999
 21
9.75725
  0
LINE
  8
0
 10
-18.3999
 20
9.75725
 11
-19.1502
 21
10.0194
  0
LINE
  8
0
 10
-28.3687
 20
1.70131
 11
-29.1871
 21
10.3483
  0
LINE
  8
0
 10
-29.1871
 20
10.3483
 11
-21.3853
 21
7.62248
  0
LINE
  8
0
 10
-21.3853
 20
7.62248
 11
-17.4416
 21
-1.5522
  0
LINE
  8
0
 10
-17.4416
 20
-1.5522
 11
-19.6331
 21
-7.19778
  0
LINE
  8
0
 10
-19.6331
 20
-7.19778
 11
-28.3687
 21
1.70131
  0
LINE
  8
0
 10
-35.1247
 20
-21.1111
 11
-35.9286
 21
-19.7519
  0
LINE
  8
0
 10
-35.9286
 20
-19.7519
 11
-37.0979
 21
-17.4569
  0
LINE
  8
0
 10
-37.0979
 20
-17.4569
 11
-38.1208
 21
-15.0931
  0
LINE
  8
0
 10
-38.1208
 20
-15.0931
 11
-38.9933
 21
-12.6697
  0
LINE
  8
0
 10
-38.9933
 20
-12.6697
 11
-39.7119
 21
-10.1963
  0
LINE
  8
0
 10
-39.7119
 20
-10.1963
 11
-40.2738
 21
-7.68263
  0
LINE
  8
0
 10
-40.2738
 20
-7.68263
 11
-40.6767
 21
-5.13866
  0
LINE
  8
0
 10
-40.6767
 20
-5.13866
 11
-40.9191
 21
-2.5744
  0
LINE
  8
0
 10
-40.9191
 20
-2.5744
 11
-41
 21
0
  0
LINE
  8
0
 10
-41
 20
0
 11
-40.9191
 21
2.5744
  0
LINE
  8
0
 10
-40.9191
 20
2.5744
 11
-40.6767
 21
5.13866
  0
LINE
  8
0
 10
-40.6767
 20
5.13866
 11
-40.2738
 21
7.68263
  0
LINE
  8
0
 10
-40.2738
 20
7.68263
 11
-39.9344
 21
9.201
  0
LINE
  8
0
 10
-39.9344
 20
9.201
 11
-31.2551
 21
0.359177
  0
LINE
  8
0
 10
-31.2551
 20
0.359177
 11
-29.1787
 21
-21.5781
  0
LINE
  8
0
 10
-29.1787
 20
-21.5781
 11
-35.1247
 21
-21.1111
  0
LINE
  8
0
 10
30.4388
 20
-7.30641
 11
24.0172
 21
1.22179
  0
LINE
  8
0
 10
24.0172
 20
1.22179
 11
32.9679
 21
8.10588
  0
LINE
  8
0
 10
32.9679
 20
8.10588
 11
40.6047
 21
5.59354
  0
LINE
  8
0
 10
40.6047
 20
5.59354
 11
40.6767
 21
5.13866
  0
LINE
  8
0
 10
40.6767
 20
5.13866
 11
40.9191
 21
2.5744
  0
LINE
  8
0
 10
40.9191
 20
2.5744
 11
41
 21
0
  0
LINE
  8
0
 10
41
 20
0
 11
40.9191
 21
-2.5744
  0
LINE
  8
0
 10
40.9191
 20
-2.5744
 11
40.6767
 21
-5.13866
  0
LINE
  8
0
 10
40.6767
 20
-5.13866
 11
40.2738
 21
-7.68263
  0
LINE
  8
0
 10
40.2738
 20
-7.68263
 11
39.7119
 21
-10.1963
  0
LINE
  8
0
 10
39.7119
 20
-10.1963
 11
39.6196
 21
-10.5141
  0
LINE
  8
0
 10
39.6196
 20
-10.5141
 11
30.4388
 21
-7.30641
  0
LINE
  8
0
 10
7.59778
 20
0.673965
 11
16.0108
 21
6.86745
  0
LINE
  8
0
 10
16.0108
 20
6.86745
 11
19.8344
 21
1.78943
  0
LINE
  8
0
 10
19.8344
 20
1.78943
 11
15.0148
 21
-1.91745
  0
LINE
  8
0
 10
15.0148
 20
-1.91745
 11
7.59778
 21
0.673965
  0
LINE
  8
0
 10
-17.5428
 20
6.27997
 11
-14.7765
 21
5.31343
  0
LINE
  8
0
 10
-14.7765
 20
5.31343
 11
-15.8921
 21
2.43959
  0
LINE
  8
0
 10
-15.8921
 20
2.43959
 11
-17.5428
 21
6.27997
  0
LINE
  8
0
 10
-14.201
 20
-1.49435
 11
-12.0393
 21
4.07448
  0
LINE
  8
0
 10
-12.0393
 20
4.07448
 11
-4.16168
 21
-2.96365
  0
LINE
  8
0
 10
-4.16168
 20
-2.96365
 11
-4.7733
 21
-4.70807
  0
LINE
  8
0
 10
-4.7733
 20
-4.70807
 11
-10.8855
 21
-9.20773
  0
LINE
  8
0
 10
-10.8855
 20
-9.20773
 11
-14.201
 21
-1.49435
  0
LINE
  8
0
 10
-5.16431
 20
1.95505
 11
-2.73473
 21
1.10619
  0
LINE
  8
0
 10
-2.73473
 20
1.10619
 11
-3.08763
 21
0.0996857
  0
LINE
  8
0
 10
-3.08763
 20
0.0996857
 11
-5.16431
 21
1.95505
  0
LINE
  8
0
 10
0.0973816
 20
0.116684
 11
1.21658
 21
-0.274353
  0
LINE
  8
0
 10
1.21658
 20
-0.274353
 11
0.803772
 21
-0.602356
  0
LINE
  8
0
 10
0.803772
 20
-0.602356
 11
-0.488205
 21
-1.55348
  0
LINE
  8
0
 10
-0.488205
 20
-1.55348
 11
0.0973816
 21
0.116684
  0
LINE
  8
0
 10
18.3985
 20
-3.09967
 11
21.6391
 21
-0.607269
  0
LINE
  8
0
 10
21.6391
 20
-0.607269
 11
25.3427
 21
-5.52591
  0
LINE
  8
0
 10
25.3427
 20
-5.52591
 11
18.3985
 21
-3.09967
  0
LINE
  8
0
 10
1.42999
 20
-3.93651
 11
2.62686
 21
-2.98552
  0
LINE
  8
0
 10
2.62686
 20
-2.98552
 11
4.67043
 21
-1.48108
  0
LINE
  8
0
 10
4.67043
 20
-1.48108
 11
12.1736
 21
-4.10262
  0
LINE
  8
0
 10
12.1736
 20
-4.10262
 11
6.50003
 21
-8.46626
  0
LINE
  8
0
 10
6.50003
 20
-8.46626
 11
1.42999
 21
-3.93651
  0
LINE
  8
0
 10
-27.9201
 20
-3.03824
 11
-20.8245
 21
-10.2667
  0
LINE
  8
0
 10
-20.8245
 20
-10.2667
 11
-24.2256
 21
-19.0285
  0
LINE
  8
0
 10
-24.2256
 20
-19.0285
 11
-26.2645
 21
-20.5294
  0
LINE
  8
0
 10
-26.2645
 20
-20.5294
 11
-27.9201
 21
-3.03824
  0
LINE
  8
0
 10
26.0285
 20
-25.9137
 11
8.77647
 21
-10.5001
  0
LINE
  8
0
 10
8.77647
 20
-10.5001
 11
15.5573
 21
-5.28484
  0
LINE
  8
0
 10
15.5573
 20
-5.28484
 11
28.5898
 21
-9.83823
  0
LINE
  8
0
 10
28.5898
 20
-9.83823
 11
34.9999
 21
-18.3512
  0
LINE
  8
0
 10
34.9999
 20
-18.3512
 11
27.9916
 21
-26.0678
  0
LINE
  8
0
 10
27.9916
 20
-26.0678
 11
26.0285
 21
-25.9137
  0
LINE
  8
0
 10
-17.327
 20
-9.5471
 11
-15.7506
 21
-5.48615
  0
LINE
  8
0
 10
-15.7506
 20
-5.48615
 11
-13.366
 21
-11.0338
  0
LINE
  8
0
 10
-13.366
 20
-11.0338
 11
-14.8182
 21
-12.1029
  0
LINE
  8
0
 10
-14.8182
 20
-12.1029
 11
-17.327
 21
-9.5471
  0
LINE
  8
0
 10
-2.38712
 20
-6.96942
 11
-0.953278
 21
-5.83015
  0
LINE
  8
0
 10
-0.953278
 20
-5.83015
 11
4.08031
 21
-10.3273
  0
LINE
  8
0
 10
4.08031
 20
-10.3273
 11
-6.3871
 21
-18.3779
  0
LINE
  8
0
 10
-6.3871
 20
-18.3779
 11
-2.38712
 21
-6.96942
  0
LINE
  8
0
 10
-9.43907
 20
-12.5726
 11
-6.79378
 21
-10.4708
  0
LINE
  8
0
 10
-6.79378
 20
-10.4708
 11
-8.38803
 21
-15.0178
  0
LINE
  8
0
 10
-8.38803
 20
-15.0178
 11
-9.43907
 21
-12.5726
  0
LINE
  8
0
 10
33.6859
 20
-11.6187
 11
38.7364
 21
-13.3833
  0
LINE
  8
0
 10
38.7364
 20
-13.3833
 11
38.2271
 21
-14.7979
  0
LINE
  8
0
 10
38.2271
 20
-14.7979
 11
37.0531
 21
-16.0906
  0
LINE
  8
0
 10
37.0531
 20
-16.0906
 11
33.6859
 21
-11.6187
  0
LINE
  8
0
 10
-3.54076
 20
-23.5915
 11
-5.56444
 21
-21.5299
  0
LINE
  8
0
 10
-5.56444
 20
-21.5299
 11
6.35674
 21
-12.3612
  0
LINE
  8
0
 10
6.35674
 20
-12.3612
 11
21.0918
 21
-25.526
  0
LINE
  8
0
 10
21.0918
 20
-25.526
 11
-3.54076
 21
-23.5915
  0
LINE
  8
0
 10
-18.5183
 20
-12.616
 11
-17.2585
 21
-13.8994
  0
LINE
  8
0
 10
-17.2585
 20
-13.8994
 11
-19.7199
 21
-15.7115
  0
LINE
  8
0
 10
-19.7199
 20
-15.7115
 11
-18.5183
 21
-12.616
  0
LINE
  8
0
 10
-12.2021
 20
-14.768
 11
-11.8732
 21
-14.5067
  0
LINE
  8
0
 10
-11.8732
 20
-14.5067
 11
-11.4171
 21
-15.5677
  0
LINE
  8
0
 10
-11.4171
 20
-15.5677
 11
-12.2021
 21
-14.768
  0
LINE
  8
0
 10
-21.529
 20
-22.1788
 11
-14.5638
 21
-16.6446
  0
LINE
  8
0
 10
-14.5638
 20
-16.6446
 11
-10.4336
 21
-20.8521
  0
LINE
  8
0
 10
-10.4336
 20
-20.8521
 11
-10.7399
 21
-21.7258
  0
LINE
  8
0
 10
-10.7399
 20
-21.7258
 11
-12.274
 21
-22.9056
  0
LINE
  8
0
 10
-12.274
 20
-22.9056
 11
-21.529
 21
-22.1788
  0
LINE
  8
0
 10
-33.0254
 20
-24.2852
 11
-31.5262
 21
-24.403
  0
LINE
  8
0
 10
-31.5262
 20
-24.403
 11
-32.4223
 21
-25.0627
  0
LINE
  8
0
 10
-32.4223
 20
-25.0627
 11
-33.0254
 21
-24.2852
  0
LINE
  8
0
 10
-25.3482
 20
-30.2104
 11
-23.3433
 21
-25.0456
  0
LINE
  8
0
 10
-23.3433
 20
-25.0456
 11
-15.8241
 21
-25.6361
  0
LINE
  8
0
 10
-15.8241
 20
-25.6361
 11
-22.3464
 21
-30.6525
  0
LINE
  8
0
 10
-22.3464
 20
-30.6525
 11
-25.288
 21
-30.8467
  0
LINE
  8
0
 10
-25.288
 20
-30.8467
 11
-25.3482
 21
-30.2104
  0
LINE
  8
0
 10
-9.11659
 20
-26.1628
 11
-6.78404
 21
-26.346
  0
LINE
  8
0
 10
-6.78404
 20
-26.346
 11
-5.41357
 21
-29.5343
  0
LINE
  8
0
 10
-5.41357
 20
-29.5343
 11
-10.4145
 21
-29.8645
  0
LINE
  8
0
 10
-10.4145
 20
-29.8645
 11
-9.11659
 21
-26.1628
  0
LINE
  8
0
 10
-0.340088
 20
-26.8521
 11
15.8954
 21
-28.1271
  0
LINE
  8
0
 10
15.8954
 20
-28.1271
 11
1.82367
 21
-29.0564
  0
LINE
  8
0
 10
1.82367
 20
-29.0564
 11
-0.340088
 21
-26.8521
  0
LINE
  8
0
 10
-12.5569
 20
-26.9079
 11
-13.6689
 21
-30.0794
  0
LINE
  8
0
 10
-13.6689
 20
-30.0794
 11
-16.9634
 21
-30.297
  0
LINE
  8
0
 10
-16.9634
 20
-30.297
 11
-12.5569
 21
-26.9079
  0
LINE
  8
0
 10
-29.4676
 20
-28.4865
 11
-28.5908
 21
-27.7898
  0
LINE
  8
0
 10
-28.5908
 20
-27.7898
 11
-28.4262
 21
-29.5279
  0
LINE
  8
0
 10
-28.4262
 20
-29.5279
 11
-29.4676
 21
-28.4865
  0
LINE
  8
0
 10
-2.33287
 20
-29.1045
 11
-2.12425
 21
-29.3171
  0
LINE
  8
0
 10
-2.12425
 20
-29.3171
 11
-2.23828
 21
-29.3246
  0
LINE
  8
0
 10
-2.23828
 20
-29.3246
 11
-2.33287
 21
-29.1045
  0
LINE
  8
0
 10
4.59528
 20
-31.8799
 11
23.869
 21
-30.6071
  0
LINE
  8
0
 10
23.869
 20
-30.6071
 11
18.6061
 21
-36.4018
  0
LINE
  8
0
 10
18.6061
 20
-36.4018
 11
18.2074
 21
-36.7155
  0
LINE
  8
0
 10
18.2074
 20
-36.7155
 11
17.4569
 21
-37.0979
  0
LINE
  8
0
 10
17.4569
 20
-37.0979
 11
15.0931
 21
-38.1208
  0
LINE
  8
0
 10
15.0931
 20
-38.1208
 11
12.6697
 21
-38.9933
  0
LINE
  8
0
 10
12.6697
 20
-38.9933
 11
11.8202
 21
-39.2401
  0
LINE
  8
0
 10
11.8202
 20
-39.2401
 11
4.59528
 21
-31.8799
  0
LINE
  8
0
 10
-0.981598
 20
-32.2482
 11
0.647354
 21
-32.1406
  0
LINE
  8
0
 10
0.647354
 20
-32.1406
 11
8.4604
 21
-40.0999
  0
LINE
  8
0
 10
8.4604
 20
-40.0999
 11
7.68263
 21
-40.2738
  0
LINE
  8
0
 10
7.68263
 20
-40.2738
 11
5.13866
 21
-40.6767
  0
LINE
  8
0
 10
5.13866
 20
-40.6767
 11
2.73889
 21
-40.9035
  0
LINE
  8
0
 10
2.73889
 20
-40.9035
 11
-0.981598
 21
-32.2482
  0
LINE
  8
0
 10
-2.5744
 20
-40.9191
 11
-5.13866
 21
-40.6767
  0
LINE
  8
0
 10
-5.13866
 20
-40.6767
 11
-7.68263
 21
-40.2738
  0
LINE
  8
0
 10
-7.68263
 20
-40.2738
 11
-10.1963
 21
-39.7119
  0
LINE
  8
0
 10
-10.1963
 20
-39.7119
 11
-12.6697
 21
-38.9933
  0
LINE
  8
0
 10
-12.6697
 20
-38.9933
 11
-13.5092
 21
-38.6911
  0
LINE
  8
0
 10
-13.5092
 20
-38.6911
 11
-11.4936
 21
-32.9423
  0
LINE
  8
0
 10
-11.4936
 20
-32.9423
 11
-4.15689
 21
-32.4578
  0
LINE
  8
0
 10
-4.15689
 20
-32.4578
 11
-0.491699
 21
-40.9845
  0
LINE
  8
0
 10
-0.491699
 20
-40.9845
 11
-2.5744
 21
-40.9191
  0
LINE
  8
0
 10
-17.4569
 20
-37.0979
 11
-19.7519
 21
-35.9286
  0
LINE
  8
0
 10
-19.7519
 20
-35.9286
 11
-21.9689
 21
-34.6174
  0
LINE
  8
0
 10
-21.9689
 20
-34.6174
 11
-22.2937
 21
-34.3967
  0
LINE
  8
0
 10
-22.2937
 20
-34.3967
 11
-21.2396
 21
-33.5859
  0
LINE
  8
0
 10
-21.2396
 20
-33.5859
 11
-14.748
 21
-33.1572
  0
LINE
  8
0
 10
-14.748
 20
-33.1572
 11
-16.3045
 21
-37.5966
  0
LINE
  8
0
 10
-16.3045
 20
-37.5966
 11
-17.4569
 21
-37.0979
  0
ENDSEC
  0
SECTION
  2
OBJECTS
  0
DICTIONARY
  0
ENDSEC
  0
EOF
