<?xml version="1.0" standalone="no"?>
<!DOCTYPE svg PUBLIC "-//W3C//DTD SVG 1.1//EN" "http://www.w3.org/Graphics/SVG/1.1/DTD/svg11.dtd">
<svg width="88mm" height="88mm" viewBox="-44 -44 88 88" xmlns="http://www.w3.org/2000/svg" version="1.1">
<title>OpenSCAD Model</title>
<path d="
M 28.0466,-33.9026 L 25.8625,-35.5967 L 23.5764,-37.1504 L 21.1972,-38.5575 L 18.7343,-39.8124 L 16.1975,-40.9102
 L 13.5967,-41.8465 L 10.9424,-42.6176 L 8.24477,-43.2206 L 5.51465,-43.653 L 2.76277,-43.9132 L 0,-44
 L -2.76277,-43.9132 L -5.51465,-43.653 L -8.24477,-43.2206 L -10.9424,-42.6176 L -13.5967,-41.8465 L -16.1975,-40.9102
 L -18.7343,-39.8124 L -21.1972,-38.5575 L -23.5764,-37.1504 L -25.8625,-35.5967 L -28.0466,-33.9026 L -30.1201,-32.0746
 L -32.0746,-30.1201 L -33.9026,-28.0466 L -35.5967,-25.8625 L -37.1504,-23.5764 L -38.5575,-21.1972 L -39.8124,-18.7343
 L -40.9102,-16.1975 L -41.8465,-13.5967 L -42.6176,-10.9424 L -43.2206,-8.24477 L -43.653,-5.51465 L -43.9132,-2.76277
 L -44,-0 L -43.9132,2.76277 L -43.653,5.51465 L -43.2206,8.24477 L -42.6176,10.9424 L -41.8465,13.5967
 L -40.9102,16.1975 L -39.8124,18.7343 L -38.5575,21.1972 L -37.1504,23.5764 L -35.5967,25.8625 L -33.9026,28.0466
 L -32.0746,30.1201 L -30.1201,32.0746 L -28.0466,33.9026 L -25.8625,35.5967 L -23.5764,37.1504 L -21.1972,38.5575
 L -18.7343,39.8124 L -16.1975,40.9102 L -13.5967,41.8465 L -10.9424,42.6176 L -8.24477,43.2206 L -5.51465,43.653
 L -2.76277,43.9132 L 0,44 L 2.76277,43.9132 L 5.51465,43.653 L 8.24477,43.2206 L 10.9424,42.6176
 L 13.5967,41.8465 L 16.1975,40.9102 L 18.7343,39.8124 L 21.1972,38.5575 L 23.5764,37.1504 L 25.8625,35.5967
 L 28.0466,33.9026 L 30.1201,32.0746 L 32.0746,30.1201 L 33.9026,28.0466 L 35.5967,25.8625 L 37.1504,23.5764
 L 38.5575,21.1972 L 39.8124,18.7343 L 40.9102,16.1975 L 41.8465,13.5967 L 42.6176,10.9424 L 43.2206,8.24477
 L 43.653,5.51465 L 43.9132,2.76277 L 44,-0 L 43.9132,-2.76277 L 43.653,-5.51465 L 43.2206,-8.24477
 L 42.6176,-10.9424 L 41.8465,-13.5967 L 40.9102,-16.1975 L 39.8124,-18.7343 L 38.5575,-21.1972 L 37.1504,-23.5764
 L 35.5967,-25.8625 L 33.9026,-28.0466 L 32.0746,-30.1201 L 30.1201,-32.0746 z
M -8.77901,-30.1021 L -15.9562,-37.7473 L -15.0931,-38.1208 L -12.6697,-38.9933 L -10.1963,-39.7119 L -7.68263,-40.2738
 L -5.13866,-40.6767 L -2.5744,-40.9191 L 0,-41 L 2.5744,-40.9191 L 5.13866,-40.6767 L 7.68263,-40.2738
 L 10.1963,-39.7119 L 12.6697,-38.9933 L 15.0931,-38.1208 L 17.4569,-37.0979 L 19.7519,-35.9286 L 21.9689,-34.6174
 L 24.0992,-33.1697 L 26.1344,-31.591 L 28.0664,-29.8877 L 29.4307,-28.5234 L 26.6686,-25.7087 z
M -18.7431,-31.337 L -18.0759,-35.6221 L -13.4356,-30.6792 z
M -25.3985,-32.1619 L -24.0992,-33.1697 L -21.9689,-34.6174 L -21.1974,-35.0737 L -21.7217,-31.7062 z
M -28.9951,-21.3077 L -28.7577,-29.1964 L -28.4385,-29.5157 L -22.1835,-28.7404 L -23.4269,-20.7549 L -26.7456,-20.4635
 z
M -19.2048,-28.3713 L -10.2241,-27.2582 L -5.58929,-22.3212 L -20.3486,-21.0252 z
M -5.56746,-26.6811 L 15.0135,-24.1303 L -1.78784,-22.655 z
M 31.6735,-26.0281 L 31.9893,-25.6209 L 31.2054,-25.5521 z
M -32.1749,-23.6398 L -31.9095,-24.1974 L -31.9364,-23.3038 z
M 14.9654,-4.80916 L 12.9359,-6.97099 L 27.9646,-22.256 L 29.2358,-22.3676 L 34.7887,-21.6794 L 35.9286,-19.7519
 L 36.0199,-19.5726 L 34.0112,-6.69344 L 24.0237,-1.40956 z
M 0.824036,-19.8728 L 22.8386,-21.8058 L 10.6599,-9.39543 z
M -20.2427,-18.0229 L -2.97742,-19.539 L 8.55692,-7.25241 L 8.52959,-7.22455 z
M -27.7225,-17.3661 L -27.1618,-17.4154 L -24.1243,-16.2754 L -24.6324,-13.0121 z
M -33.6218,-3.19879 L -38.9509,-9.40157 L -35.485,-16.6845 L -35.2754,-16.7029 L -32.3299,-10.2307 L -32.5567,-2.69739
 z
M -9.66336,8.08006 L -22.1426,-9.50374 L -21.2558,-15.1988 L 6.23148,-4.88272 L -7.49225,9.10216 z
M 38.286,-14.6343 L 38.9933,-12.6697 L 39.7119,-10.1963 L 39.8092,-9.76088 L 37.3205,-8.44424 z
M -29.3103,-10.838 L -29.2069,-14.2742 L -25.2943,-8.76122 L -26.0771,-3.73363 z
M 35.5487,2.91583 L 36.7436,-4.74503 L 40.4301,-6.6954 L 40.6767,-5.13866 L 40.9191,-2.5744 L 41,-0
 L 40.9191,2.5744 L 40.7039,4.85062 z
M -23.7103,1.46724 L -23.815,1.23717 L -22.8044,-5.25285 L -15.1878,5.47932 z
M -29.5973,-1.30418 L -29.5148,-4.0448 L -27.905,-0.507507 z
M -4.33098,10.5904 L 9.62895,-3.60764 L 13.2567,-2.24612 L 17.3544,2.11879 L -1.32941,12.0034 z
M 27.7766,-0.00106812 L 33.4342,-2.99423 L 32.6803,1.83932 z
M -40.5599,5.87593 L -40.6767,5.13866 L -40.9191,2.5744 L -41,-0 L -40.9243,-2.40729 L -32.9835,7.36305
 z
M -35.8652,-0.939117 L -35.4796,-0.757568 L -32.7121,2.46361 L -32.7259,2.92346 z
M 19.61,0.138275 L 20.4804,0.464966 L 20.1037,0.664261 z
M 22.2326,2.93196 L 24.2334,1.87346 L 32.2082,4.86644 L 31.0457,12.3198 z
M -28.8382,2.36897 L -27.151,3.16325 L -27.3051,4.15334 z
M 4.40074,14.701 L 2.06519,13.6015 L 19.4833,4.38649 L 30.4594,16.0785 L 29.8938,19.7049 z
M -19.8543,9.94011 L -21.7898,5.68713 L -11.6539,10.4588 L -10.7544,11.7263 z
M -28.3839,8.26588 L -29.8317,6.48445 L -29.8123,5.83873 L -27.912,8.0506 L -27.9585,8.34938 z
M 33.6494,15.0933 L 35.0766,5.94296 L 40.2303,7.87718 L 39.7119,10.1963 L 38.9933,12.6697 L 38.1208,15.0931
 L 37.0979,17.4569 L 36.6653,18.3059 z
M -24.7348,7.14503 L -24.6552,6.6335 L -24.0705,7.91829 z
M -35.8171,19.9404 L -35.9286,19.7519 L -37.0979,17.4569 L -38.1208,15.0931 L -38.9933,12.6697 L -39.7119,10.1963
 L -39.9683,9.04929 L -32.9518,10.4265 L -33.2479,20.2654 z
M -30.2579,20.6435 L -29.9698,11.0711 L -28.6375,12.7104 L -29.8801,20.6913 z
M -25.4275,11.9034 L -24.4343,12.0984 L -19.6158,17.7068 L -18.45,20.2684 L -18.5479,20.3681 z
M -17.0621,16.0755 L -18.3265,13.2972 L -12.6939,14.4028 L -15.7893,17.5571 z
M -8.82597,15.162 L -8.23349,15.2784 L -8.03862,15.5529 L -10.4805,16.8448 z
M -26.9026,21.0678 L -26.0895,15.8455 L -21.2657,21.7807 z
M 2.16272,24.7436 L -3.6129,16.6055 L -3.03362,16.299 L 3.45876,17.5733 L 24.415,27.4389 L 24.2363,27.5352
 z
M -11.0506,23.0726 L -12.5463,21.3317 L -6.28743,18.0204 L -1.87874,24.2325 z
M 32.8399,20.2832 L 33.0631,18.852 L 34.7606,20.6602 z
M 15.5389,19.9445 L 29.4312,22.6713 L 29.0797,24.9248 L 27.6989,25.669 z
M -33.7645,23.2239 L -33.3386,23.2778 L -33.3551,23.8263 z
M -30.3486,23.6559 L -30.3419,23.6568 L -30.3503,23.7107 z
M -27.3644,24.0333 L -24.7041,24.3698 L -27.6603,25.9337 z
M -10.1963,39.7119 L -12.6697,38.9933 L -15.0931,38.1208 L -17.4569,37.0979 L -19.7519,35.9286 L -21.9689,34.6174
 L -24.0992,33.1697 L -25.4792,32.0993 L -18.634,25.1374 L -18.5265,25.151 L -13.3033,31.5776 L -9.53404,39.8599
 z
M -1.82605,40.9426 L -10.7323,29.9844 L -12.5903,25.9017 L -12.5732,25.9039 L 0.0349274,40.5789 L -0.705276,40.9778
 z
M -8.13588,26.4651 L 0.478928,27.5546 L 7.04204,36.8023 L 2.7383,39.1219 z
M 4.52039,28.0657 L 19.6921,29.9844 L 9.70296,35.3682 z
M -28.0664,29.8877 L -28.2477,29.7064 L -28.2362,29.6324 L -26.9944,28.9754 L -27.9716,29.9713 z
M 11.4524,37.8332 L 24.8135,30.6321 L 26.9199,30.8985 L 26.1344,31.591 L 24.0992,33.1697 L 21.9689,34.6174
 L 19.7519,35.9286 L 17.4569,37.0979 L 15.0931,38.1208 L 12.6697,38.9933 L 12.3431,39.0882 z
M 8.79149,39.2674 L 9.2561,39.9221 L 7.68263,40.2738 L 6.60861,40.4439 z
" stroke="black" fill="lightgray" stroke-width="0.5"/>
</svg>
