  0
SECTION
  2
BLOCKS
  0
ENDSEC
  0
SECTION
  2
ENTITIES
  0
LINE
  8
0
 10
-16.1975
 20
-40.9102
 11
-13.5967
 21
-41.8465
  0
LINE
  8
0
 10
-13.5967
 20
-41.8465
 11
-10.9424
 21
-42.6176
  0
LINE
  8
0
 10
-10.9424
 20
-42.6176
 11
-8.24477
 21
-43.2206
  0
LINE
  8
0
 10
-8.24477
 20
-43.2206
 11
-5.51465
 21
-43.653
  0
LINE
  8
0
 10
-5.51465
 20
-43.653
 11
-2.76277
 21
-43.9132
  0
LINE
  8
0
 10
-2.76277
 20
-43.9132
 11
0
 21
-44
  0
LINE
  8
0
 10
0
 20
-44
 11
2.76277
 21
-43.9132
  0
LINE
  8
0
 10
2.76277
 20
-43.9132
 11
5.51465
 21
-43.653
  0
LINE
  8
0
 10
5.51465
 20
-43.653
 11
8.24477
 21
-43.2206
  0
LINE
  8
0
 10
8.24477
 20
-43.2206
 11
10.9424
 21
-42.6176
  0
LINE
  8
0
 10
10.9424
 20
-42.6176
 11
13.5967
 21
-41.8465
  0
LINE
  8
0
 10
13.5967
 20
-41.8465
 11
16.1975
 21
-40.9102
  0
LINE
  8
0
 10
16.1975
 20
-40.9102
 11
18.7343
 21
-39.8124
  0
LINE
  8
0
 10
18.7343
 20
-39.8124
 11
21.1972
 21
-38.5575
  0
LINE
  8
0
 10
21.1972
 20
-38.5575
 11
23.5764
 21
-37.1504
  0
LINE
  8
0
 10
23.5764
 20
-37.1504
 11
25.8625
 21
-35.5967
  0
LINE
  8
0
 10
25.8625
 20
-35.5967
 11
28.0466
 21
-33.9026
  0
LINE
  8
0
 10
28.0466
 20
-33.9026
 11
30.1201
 21
-32.0746
  0
LINE
  8
0
 10
30.1201
 20
-32.0746
 11
32.0746
 21
-30.1201
  0
LINE
  8
0
 10
32.0746
 20
-30.1201
 11
33.9026
 21
-28.0466
  0
LINE
  8
0
 10
33.9026
 20
-28.0466
 11
35.5967
 21
-25.8625
  0
LINE
  8
0
 10
35.5967
 20
-25.8625
 11
37.1504
 21
-23.5764
  0
LINE
  8
0
 10
37.1504
 20
-23.5764
 11
38.5575
 21
-21.1972
  0
LINE
  8
0
 10
38.5575
 20
-21.1972
 11
39.8124
 21
-18.7343
  0
LINE
  8
0
 10
39.8124
 20
-18.7343
 11
40.9102
 21
-16.1975
  0
LINE
  8
0
 10
40.9102
 20
-16.1975
 11
41.8465
 21
-13.5967
  0
LINE
  8
0
 10
41.8465
 20
-13.5967
 11
42.6176
 21
-10.9424
  0
LINE
  8
0
 10
42.6176
 20
-10.9424
 11
43.2206
 21
-8.24477
  0
LINE
  8
0
 10
43.2206
 20
-8.24477
 11
43.653
 21
-5.51465
  0
LINE
  8
0
 10
43.653
 20
-5.51465
 11
43.9132
 21
-2.76277
  0
LINE
  8
0
 10
43.9132
 20
-2.76277
 11
44
 21
0
  0
LINE
  8
0
 10
44
 20
0
 11
43.9132
 21
2.76277
  0
LINE
  8
0
 10
43.9132
 20
2.76277
 11
43.653
 21
5.51465
  0
LINE
  8
0
 10
43.653
 20
5.51465
 11
43.2206
 21
8.24477
  0
LINE
  8
0
 10
43.2206
 20
8.24477
 11
42.6176
 21
10.9424
  0
LINE
  8
0
 10
42.6176
 20
10.9424
 11
41.8465
 21
13.5967
  0
LINE
  8
0
 10
41.8465
 20
13.5967
 11
40.9102
 21
16.1975
  0
LINE
  8
0
 10
40.9102
 20
16.1975
 11
39.8124
 21
18.7343
  0
LINE
  8
0
 10
39.8124
 20
18.7343
 11
38.5575
 21
21.1972
  0
LINE
  8
0
 10
38.5575
 20
21.1972
 11
37.1504
 21
23.5764
  0
LINE
  8
0
 10
37.1504
 20
23.5764
 11
35.5967
 21
25.8625
  0
LINE
  8
0
 10
35.5967
 20
25.8625
 11
33.9026
 21
28.0466
  0
LINE
  8
0
 10
33.9026
 20
28.0466
 11
32.0746
 21
30.1201
  0
LINE
  8
0
 10
32.0746
 20
30.1201
 11
30.1201
 21
32.0746
  0
LINE
  8
0
 10
30.1201
 20
32.0746
 11
28.0466
 21
33.9026
  0
LINE
  8
0
 10
28.0466
 20
33.9026
 11
25.8625
 21
35.5967
  0
LINE
  8
0
 10
25.8625
 20
35.5967
 11
23.5764
 21
37.1504
  0
LINE
  8
0
 10
23.5764
 20
37.1504
 11
21.1972
 21
38.5575
  0
LINE
  8
0
 10
21.1972
 20
38.5575
 11
18.7343
 21
39.8124
  0
LINE
  8
0
 10
18.7343
 20
39.8124
 11
16.1975
 21
40.9102
  0
LINE
  8
0
 10
16.1975
 20
40.9102
 11
13.5967
 21
41.8465
  0
LINE
  8
0
 10
13.5967
 20
41.8465
 11
10.9424
 21
42.6176
  0
LINE
  8
0
 10
10.9424
 20
42.6176
 11
8.24477
 21
43.2206
  0
LINE
  8
0
 10
8.24477
 20
43.2206
 11
5.51465
 21
43.653
  0
LINE
  8
0
 10
5.51465
 20
43.653
 11
2.76277
 21
43.9132
  0
LINE
  8
0
 10
2.76277
 20
43.9132
 11
0
 21
44
  0
LINE
  8
0
 10
0
 20
44
 11
-2.76277
 21
43.9132
  0
LINE
  8
0
 10
-2.76277
 20
43.9132
 11
-5.51465
 21
43.653
  0
LINE
  8
0
 10
-5.51465
 20
43.653
 11
-8.24477
 21
43.2206
  0
LINE
  8
0
 10
-8.24477
 20
43.2206
 11
-10.9424
 21
42.6176
  0
LINE
  8
0
 10
-10.9424
 20
42.6176
 11
-13.5967
 21
41.8465
  0
LINE
  8
0
 10
-13.5967
 20
41.8465
 11
-16.1975
 21
40.9102
  0
LINE
  8
0
 10
-16.1975
 20
40.9102
 11
-18.7343
 21
39.8124
  0
LINE
  8
0
 10
-18.7343
 20
39.8124
 11
-21.1972
 21
38.5575
  0
LINE
  8
0
 10
-21.1972
 20
38.5575
 11
-23.5764
 21
37.1504
  0
LINE
  8
0
 10
-23.5764
 20
37.1504
 11
-25.8625
 21
35.5967
  0
LINE
  8
0
 10
-25.8625
 20
35.5967
 11
-28.0466
 21
33.9026
  0
LINE
  8
0
 10
-28.0466
 20
33.9026
 11
-30.1201
 21
32.0746
  0
LINE
  8
0
 10
-30.1201
 20
32.0746
 11
-32.0746
 21
30.1201
  0
LINE
  8
0
 10
-32.0746
 20
30.1201
 11
-33.9026
 21
28.0466
  0
LINE
  8
0
 10
-33.9026
 20
28.0466
 11
-35.5967
 21
25.8625
  0
LINE
  8
0
 10
-35.5967
 20
25.8625
 11
-37.1504
 21
23.5764
  0
LINE
  8
0
 10
-37.1504
 20
23.5764
 11
-38.5575
 21
21.1972
  0
LINE
  8
0
 10
-38.5575
 20
21.1972
 11
-39.8124
 21
18.7343
  0
LINE
  8
0
 10
-39.8124
 20
18.7343
 11
-40.9102
 21
16.1975
  0
LINE
  8
0
 10
-40.9102
 20
16.1975
 11
-41.8465
 21
13.5967
  0
LINE
  8
0
 10
-41.8465
 20
13.5967
 11
-42.6176
 21
10.9424
  0
LINE
  8
0
 10
-42.6176
 20
10.9424
 11
-43.2206
 21
8.24477
  0
LINE
  8
0
 10
-43.2206
 20
8.24477
 11
-43.653
 21
5.51465
  0
LINE
  8
0
 10
-43.653
 20
5.51465
 11
-43.9132
 21
2.76277
  0
LINE
  8
0
 10
-43.9132
 20
2.76277
 11
-44
 21
0
  0
LINE
  8
0
 10
-44
 20
0
 11
-43.9132
 21
-2.76277
  0
LINE
  8
0
 10
-43.9132
 20
-2.76277
 11
-43.653
 21
-5.51465
  0
LINE
  8
0
 10
-43.653
 20
-5.51465
 11
-43.2206
 21
-8.24477
  0
LINE
  8
0
 10
-43.2206
 20
-8.24477
 11
-42.6176
 21
-10.9424
  0
LINE
  8
0
 10
-42.6176
 20
-10.9424
 11
-41.8465
 21
-13.5967
  0
LINE
  8
0
 10
-41.8465
 20
-13.5967
 11
-40.9102
 21
-16.1975
  0
LINE
  8
0
 10
-40.9102
 20
-16.1975
 11
-39.8124
 21
-18.7343
  0
LINE
  8
0
 10
-39.8124
 20
-18.7343
 11
-38.5575
 21
-21.1972
  0
LINE
  8
0
 10
-38.5575
 20
-21.1972
 11
-37.1504
 21
-23.5764
  0
LINE
  8
0
 10
-37.1504
 20
-23.5764
 11
-35.5967
 21
-25.8625
  0
LINE
  8
0
 10
-35.5967
 20
-25.8625
 11
-33.9026
 21
-28.0466
  0
LINE
  8
0
 10
-33.9026
 20
-28.0466
 11
-32.0746
 21
-30.1201
  0
LINE
  8
0
 10
-32.0746
 20
-30.1201
 11
-30.1201
 21
-32.0746
  0
LINE
  8
0
 10
-30.1201
 20
-32.0746
 11
-28.0466
 21
-33.9026
  0
LINE
  8
0
 10
-28.0466
 20
-33.9026
 11
-25.8625
 21
-35.5967
  0
LINE
  8
0
 10
-25.8625
 20
-35.5967
 11
-23.5764
 21
-37.1504
  0
LINE
  8
0
 10
-23.5764
 20
-37.1504
 11
-21.1972
 21
-38.5575
  0
LINE
  8
0
 10
-21.1972
 20
-38.5575
 11
-18.7343
 21
-39.8124
  0
LINE
  8
0
 10
-18.7343
 20
-39.8124
 11
-16.1975
 21
-40.9102
  0
LINE
  8
0
 10
-4.76192
 20
40.7123
 11
-2.5744
 21
40.9191
  0
LINE
  8
0
 10
-2.5744
 20
40.9191
 11
-0.75885
 21
40.9762
  0
LINE
  8
0
 10
-0.75885
 20
40.9762
 11
-1.84642
 21
39.4473
  0
LINE
  8
0
 10
-1.84642
 20
39.4473
 11
-4.76192
 21
40.7123
  0
LINE
  8
0
 10
0.966843
 20
38.2266
 11
2.61153
 21
40.5387
  0
LINE
  8
0
 10
2.61153
 20
40.5387
 11
4.36343
 21
38.099
  0
LINE
  8
0
 10
4.36343
 20
38.099
 11
3.98631
 21
37.8846
  0
LINE
  8
0
 10
3.98631
 20
37.8846
 11
1.8918
 21
37.8252
  0
LINE
  8
0
 10
1.8918
 20
37.8252
 11
0.966843
 21
38.2266
  0
LINE
  8
0
 10
6.3427
 20
40.486
 11
7.68263
 21
40.2738
  0
LINE
  8
0
 10
7.68263
 20
40.2738
 11
8.04625
 21
40.1925
  0
LINE
  8
0
 10
8.04625
 20
40.1925
 11
6.98618
 21
39.5899
  0
LINE
  8
0
 10
6.98618
 20
39.5899
 11
6.3427
 21
40.486
  0
LINE
  8
0
 10
-15.0931
 20
38.1208
 11
-12.6697
 21
38.9933
  0
LINE
  8
0
 10
-12.6697
 20
38.9933
 11
-10.1963
 21
39.7119
  0
LINE
  8
0
 10
-10.1963
 20
39.7119
 11
-10.0621
 21
39.7419
  0
LINE
  8
0
 10
-10.0621
 20
39.7419
 11
-5.18257
 21
37.6246
  0
LINE
  8
0
 10
-5.18257
 20
37.6246
 11
-17.0152
 21
37.289
  0
LINE
  8
0
 10
-17.0152
 20
37.289
 11
-15.0931
 21
38.1208
  0
LINE
  8
0
 10
12.2313
 20
39.1207
 11
12.6697
 21
38.9933
  0
LINE
  8
0
 10
12.6697
 20
38.9933
 11
14.8257
 21
38.2171
  0
LINE
  8
0
 10
14.8257
 20
38.2171
 11
14.7949
 21
38.1911
  0
LINE
  8
0
 10
14.7949
 20
38.1911
 11
10.3756
 21
38.0658
  0
LINE
  8
0
 10
10.3756
 20
38.0658
 11
12.2313
 21
39.1207
  0
LINE
  8
0
 10
13.1975
 20
32.9196
 11
15.9277
 21
35.222
  0
LINE
  8
0
 10
15.9277
 20
35.222
 11
20.7169
 21
35.3579
  0
LINE
  8
0
 10
20.7169
 20
35.3579
 11
20.8656
 21
35.2699
  0
LINE
  8
0
 10
20.8656
 20
35.2699
 11
18.246
 21
30.729
  0
LINE
  8
0
 10
18.246
 20
30.729
 11
13.1975
 21
32.9196
  0
LINE
  8
0
 10
10.2385
 20
35.0607
 11
11.1123
 21
35.0855
  0
LINE
  8
0
 10
11.1123
 20
35.0855
 11
10.557
 21
34.6172
  0
LINE
  8
0
 10
10.557
 20
34.6172
 11
10.2385
 21
35.0607
  0
LINE
  8
0
 10
-27.5621
 20
30.3324
 11
-26.1344
 21
31.591
  0
LINE
  8
0
 10
-26.1344
 20
31.591
 11
-24.0992
 21
33.1697
  0
LINE
  8
0
 10
-24.0992
 20
33.1697
 11
-22.6907
 21
34.1269
  0
LINE
  8
0
 10
-22.6907
 20
34.1269
 11
-5.27977
 21
34.6206
  0
LINE
  8
0
 10
-5.27977
 20
34.6206
 11
-7.67224
 21
31.2573
  0
LINE
  8
0
 10
-7.67224
 20
31.2573
 11
-19.1282
 21
24.7451
  0
LINE
  8
0
 10
-19.1282
 20
24.7451
 11
-27.5621
 21
30.3324
  0
LINE
  8
0
 10
-11.9879
 20
20.0148
 11
-5.6125
 21
28.9773
  0
LINE
  8
0
 10
-5.6125
 20
28.9773
 11
3.20055
 21
33.9871
  0
LINE
  8
0
 10
3.20055
 20
33.9871
 11
7.5645
 21
32.0936
  0
LINE
  8
0
 10
7.5645
 20
32.0936
 11
-9.05905
 21
18.0746
  0
LINE
  8
0
 10
-9.05905
 20
18.0746
 11
-11.9879
 21
20.0148
  0
LINE
  8
0
 10
21.0161
 20
29.5271
 11
23.394
 21
33.649
  0
LINE
  8
0
 10
23.394
 20
33.649
 11
24.0992
 21
33.1697
  0
LINE
  8
0
 10
24.0992
 20
33.1697
 11
26.1344
 21
31.591
  0
LINE
  8
0
 10
26.1344
 20
31.591
 11
28.0664
 21
29.8877
  0
LINE
  8
0
 10
28.0664
 20
29.8877
 11
29.8877
 21
28.0664
  0
LINE
  8
0
 10
29.8877
 20
28.0664
 11
31.591
 21
26.1344
  0
LINE
  8
0
 10
31.591
 20
26.1344
 11
32.9892
 21
24.3318
  0
LINE
  8
0
 10
32.9892
 20
24.3318
 11
21.0161
 21
29.5271
  0
LINE
  8
0
 10
-6.45287
 20
16.348
 11
10.0118
 21
30.2331
  0
LINE
  8
0
 10
10.0118
 20
30.2331
 11
14.4191
 21
24.0955
  0
LINE
  8
0
 10
14.4191
 20
24.0955
 11
5.41418
 21
8.48639
  0
LINE
  8
0
 10
5.41418
 20
8.48639
 11
-6.45287
 21
16.348
  0
LINE
  8
0
 10
14.5438
 20
29.0652
 11
16.7371
 21
28.1135
  0
LINE
  8
0
 10
16.7371
 20
28.1135
 11
16.0645
 21
26.9475
  0
LINE
  8
0
 10
16.0645
 20
26.9475
 11
14.5438
 21
29.0652
  0
LINE
  8
0
 10
-38.1208
 20
15.0931
 11
-37.0979
 21
17.4569
  0
LINE
  8
0
 10
-37.0979
 20
17.4569
 11
-35.9286
 21
19.7519
  0
LINE
  8
0
 10
-35.9286
 20
19.7519
 11
-34.6174
 21
21.9689
  0
LINE
  8
0
 10
-34.6174
 20
21.9689
 11
-33.1697
 21
24.0992
  0
LINE
  8
0
 10
-33.1697
 20
24.0992
 11
-31.591
 21
26.1344
  0
LINE
  8
0
 10
-31.591
 20
26.1344
 11
-29.8877
 21
28.0664
  0
LINE
  8
0
 10
-29.8877
 20
28.0664
 11
-29.7626
 21
28.1916
  0
LINE
  8
0
 10
-29.7626
 20
28.1916
 11
-22.0517
 21
23.0833
  0
LINE
  8
0
 10
-22.0517
 20
23.0833
 11
-38.6389
 21
13.6542
  0
LINE
  8
0
 10
-38.6389
 20
13.6542
 11
-38.1208
 21
15.0931
  0
LINE
  8
0
 10
17.985
 20
24.2731
 11
19.5072
 21
26.9116
  0
LINE
  8
0
 10
19.5072
 20
26.9116
 11
35.9013
 21
19.798
  0
LINE
  8
0
 10
35.9013
 20
19.798
 11
35.9286
 21
19.7519
  0
LINE
  8
0
 10
35.9286
 20
19.7519
 11
37.0979
 21
17.4569
  0
LINE
  8
0
 10
37.0979
 20
17.4569
 11
38.1208
 21
15.0931
  0
LINE
  8
0
 10
38.1208
 20
15.0931
 11
38.8966
 21
12.9383
  0
LINE
  8
0
 10
38.8966
 20
12.9383
 11
28.6893
 21
9.36629
  0
LINE
  8
0
 10
28.6893
 20
9.36629
 11
17.985
 21
24.2731
  0
LINE
  8
0
 10
-16.3247
 20
22.8879
 11
-11.7934
 21
25.4638
  0
LINE
  8
0
 10
-11.7934
 20
25.4638
 11
-14.4902
 21
21.6726
  0
LINE
  8
0
 10
-14.4902
 20
21.6726
 11
-16.3247
 21
22.8879
  0
LINE
  8
0
 10
7.91995
 20
6.82637
 11
16.3396
 21
21.421
  0
LINE
  8
0
 10
16.3396
 20
21.421
 11
25.7377
 21
8.33337
  0
LINE
  8
0
 10
25.7377
 20
8.33337
 11
12.5902
 21
3.73247
  0
LINE
  8
0
 10
12.5902
 20
3.73247
 11
7.91995
 21
6.82637
  0
LINE
  8
0
 10
-34.5995
 20
2.58224
 11
-39.1336
 21
9.92215
  0
LINE
  8
0
 10
-39.1336
 20
9.92215
 11
-19.2482
 21
21.2261
  0
LINE
  8
0
 10
-19.2482
 20
21.2261
 11
-16.2301
 21
19.2266
  0
LINE
  8
0
 10
-16.2301
 20
19.2266
 11
-29.0297
 21
1.23289
  0
LINE
  8
0
 10
-29.0297
 20
1.23289
 11
-30.526
 21
-0.0289459
  0
LINE
  8
0
 10
-30.526
 20
-0.0289459
 11
-34.5995
 21
2.58224
  0
LINE
  8
0
 10
-13.7277
 20
17.5689
 11
-11.4489
 21
16.0592
  0
LINE
  8
0
 10
-11.4489
 20
16.0592
 11
-19.8284
 21
8.99254
  0
LINE
  8
0
 10
-19.8284
 20
8.99254
 11
-13.7277
 21
17.5689
  0
LINE
  8
0
 10
-27.5862
 20
-1.91338
 11
-26.8053
 21
-0.815598
  0
LINE
  8
0
 10
-26.8053
 20
-0.815598
 11
-8.8427
 21
14.3326
  0
LINE
  8
0
 10
-8.8427
 20
14.3326
 11
3.9122
 21
5.88283
  0
LINE
  8
0
 10
3.9122
 20
5.88283
 11
0.16275
 21
-0.616455
  0
LINE
  8
0
 10
0.16275
 20
-0.616455
 11
-19.0957
 21
-7.35585
  0
LINE
  8
0
 10
-19.0957
 20
-7.35585
 11
-27.5862
 21
-1.91338
  0
LINE
  8
0
 10
30.5133
 20
6.82619
 11
39.7432
 21
10.0562
  0
LINE
  8
0
 10
39.7432
 20
10.0562
 11
40.2738
 21
7.68263
  0
LINE
  8
0
 10
40.2738
 20
7.68263
 11
40.5742
 21
5.78607
  0
LINE
  8
0
 10
40.5742
 20
5.78607
 11
36.6802
 21
-1.76172
  0
LINE
  8
0
 10
36.6802
 20
-1.76172
 11
30.5133
 21
6.82619
  0
LINE
  8
0
 10
-40.4842
 20
6.35432
 11
-40.4784
 21
6.39072
  0
LINE
  8
0
 10
-40.4784
 20
6.39072
 11
-40.4374
 21
6.32436
  0
LINE
  8
0
 10
-40.4374
 20
6.32436
 11
-40.4842
 21
6.35432
  0
LINE
  8
0
 10
15.7296
 20
1.65268
 11
27.5617
 21
5.79329
  0
LINE
  8
0
 10
27.5617
 20
5.79329
 11
35.1361
 21
-4.75471
  0
LINE
  8
0
 10
35.1361
 20
-4.75471
 11
32.6565
 21
-9.561
  0
LINE
  8
0
 10
32.6565
 20
-9.561
 11
15.7296
 21
1.65268
  0
LINE
  8
0
 10
6.41797
 20
4.22282
 11
9.03574
 21
2.4886
  0
LINE
  8
0
 10
9.03574
 20
2.4886
 11
4.50226
 21
0.902145
  0
LINE
  8
0
 10
4.50226
 20
0.902145
 11
6.41797
 21
4.22282
  0
LINE
  8
0
 10
-40.8504
 20
-3.30115
 11
-40.9191
 21
-2.5744
  0
LINE
  8
0
 10
-40.9191
 20
-2.5744
 11
-41
 21
0
  0
LINE
  8
0
 10
-41
 20
0
 11
-40.9191
 21
2.5744
  0
LINE
  8
0
 10
-40.9191
 20
2.5744
 11
-40.8749
 21
3.04141
  0
LINE
  8
0
 10
-40.8749
 20
3.04141
 11
-36.7931
 21
0.424942
  0
LINE
  8
0
 10
-36.7931
 20
0.424942
 11
-34.4622
 21
-3.34845
  0
LINE
  8
0
 10
-34.4622
 20
-3.34845
 11
-38.1644
 21
-6.4706
  0
LINE
  8
0
 10
-38.1644
 20
-6.4706
 11
-40.8504
 21
-3.30115
  0
LINE
  8
0
 10
-5.34631
 20
-16.1693
 11
2.20482
 21
-3.08023
  0
LINE
  8
0
 10
2.20482
 20
-3.08023
 11
12.1751
 21
0.408829
  0
LINE
  8
0
 10
12.1751
 20
0.408829
 11
31.2729
 21
-12.243
  0
LINE
  8
0
 10
31.2729
 20
-12.243
 11
20.6502
 21
-32.8333
  0
LINE
  8
0
 10
20.6502
 20
-32.8333
 11
-5.34631
 21
-16.1693
  0
LINE
  8
0
 10
38.6446
 20
-4.49733
 11
40.998
 21
0.0643158
  0
LINE
  8
0
 10
40.998
 20
0.0643158
 11
41
 21
0
  0
LINE
  8
0
 10
41
 20
0
 11
40.9191
 21
-2.5744
  0
LINE
  8
0
 10
40.9191
 20
-2.5744
 11
40.6767
 21
-5.13866
  0
LINE
  8
0
 10
40.6767
 20
-5.13866
 11
40.3927
 21
-6.93173
  0
LINE
  8
0
 10
40.3927
 20
-6.93173
 11
38.6446
 21
-4.49733
  0
LINE
  8
0
 10
-29.8535
 20
-5.10078
 11
-29.3271
 21
-4.36082
  0
LINE
  8
0
 10
-29.3271
 20
-4.36082
 11
-22.6917
 21
-8.61423
  0
LINE
  8
0
 10
-22.6917
 20
-8.61423
 11
-26.7959
 21
-10.0505
  0
LINE
  8
0
 10
-26.7959
 20
-10.0505
 11
-29.8535
 21
-5.10078
  0
LINE
  8
0
 10
-15.8883
 20
-9.41182
 11
-2.13469
 21
-4.59883
  0
LINE
  8
0
 10
-2.13469
 20
-4.59883
 11
-7.87473
 21
-14.5486
  0
LINE
  8
0
 10
-7.87473
 20
-14.5486
 11
-15.8883
 21
-9.41182
  0
LINE
  8
0
 10
35.1724
 20
-11.2277
 11
37.1005
 21
-7.49033
  0
LINE
  8
0
 10
37.1005
 20
-7.49033
 11
39.5194
 21
-10.8589
  0
LINE
  8
0
 10
39.5194
 20
-10.8589
 11
38.9933
 21
-12.6697
  0
LINE
  8
0
 10
38.9933
 20
-12.6697
 11
38.6767
 21
-13.5492
  0
LINE
  8
0
 10
38.6767
 20
-13.5492
 11
35.1724
 21
-11.2277
  0
LINE
  8
0
 10
-34.1758
 20
-11.1771
 11
-31.7408
 21
-7.75394
  0
LINE
  8
0
 10
-31.7408
 20
-7.75394
 11
-29.6954
 21
-11.0651
  0
LINE
  8
0
 10
-29.6954
 20
-11.0651
 11
-33.2242
 21
-12.3
  0
LINE
  8
0
 10
-33.2242
 20
-12.3
 11
-34.1758
 21
-11.1771
  0
LINE
  8
0
 10
-36.2248
 20
-8.75928
 11
-36.0066
 21
-8.57524
  0
LINE
  8
0
 10
-36.0066
 20
-8.57524
 11
-36.1774
 21
-8.81529
  0
LINE
  8
0
 10
-36.1774
 20
-8.81529
 11
-36.2248
 21
-8.75928
  0
LINE
  8
0
 10
-25.1815
 20
-12.6639
 11
-19.4842
 21
-10.6702
  0
LINE
  8
0
 10
-19.4842
 20
-10.6702
 11
-9.37549
 21
-17.15
  0
LINE
  8
0
 10
-9.37549
 20
-17.15
 11
-15.6702
 21
-28.0612
  0
LINE
  8
0
 10
-15.6702
 20
-28.0612
 11
-25.1815
 21
-12.6639
  0
LINE
  8
0
 10
-38.9933
 20
-12.6697
 11
-39.361
 21
-11.4041
  0
LINE
  8
0
 10
-39.361
 20
-11.4041
 11
-38.5182
 21
-10.6933
  0
LINE
  8
0
 10
-38.5182
 20
-10.6933
 11
-37.9718
 21
-11.338
  0
LINE
  8
0
 10
-37.9718
 20
-11.338
 11
-38.9684
 21
-12.7389
  0
LINE
  8
0
 10
-38.9684
 20
-12.7389
 11
-38.9933
 21
-12.6697
  0
LINE
  8
0
 10
-31.1467
 20
-14.7514
 11
-28.081
 21
-13.6786
  0
LINE
  8
0
 10
-28.081
 20
-13.6786
 11
-17.3927
 21
-30.981
  0
LINE
  8
0
 10
-17.3927
 20
-30.981
 11
-31.1467
 21
-14.7514
  0
LINE
  8
0
 10
33.7887
 20
-13.9097
 11
37.5536
 21
-16.4038
  0
LINE
  8
0
 10
37.5536
 20
-16.4038
 11
37.0979
 21
-17.4569
  0
LINE
  8
0
 10
37.0979
 20
-17.4569
 11
35.9286
 21
-19.7519
  0
LINE
  8
0
 10
35.9286
 20
-19.7519
 11
34.6174
 21
-21.9689
  0
LINE
  8
0
 10
34.6174
 20
-21.9689
 11
33.1697
 21
-24.0992
  0
LINE
  8
0
 10
33.1697
 20
-24.0992
 11
31.591
 21
-26.1344
  0
LINE
  8
0
 10
31.591
 20
-26.1344
 11
29.8877
 21
-28.0664
  0
LINE
  8
0
 10
29.8877
 20
-28.0664
 11
28.0664
 21
-29.8877
  0
LINE
  8
0
 10
28.0664
 20
-29.8877
 11
26.1344
 21
-31.591
  0
LINE
  8
0
 10
26.1344
 20
-31.591
 11
24.0992
 21
-33.1697
  0
LINE
  8
0
 10
24.0992
 20
-33.1697
 11
23.7191
 21
-33.428
  0
LINE
  8
0
 10
23.7191
 20
-33.428
 11
33.7887
 21
-13.9097
  0
LINE
  8
0
 10
-31.0878
 20
-26.7052
 11
-31.591
 21
-26.1344
  0
LINE
  8
0
 10
-31.591
 20
-26.1344
 11
-33.1697
 21
-24.0992
  0
LINE
  8
0
 10
-33.1697
 20
-24.0992
 11
-34.6174
 21
-21.9689
  0
LINE
  8
0
 10
-34.6174
 20
-21.9689
 11
-35.9286
 21
-19.7519
  0
LINE
  8
0
 10
-35.9286
 20
-19.7519
 11
-37.0979
 21
-17.4569
  0
LINE
  8
0
 10
-37.0979
 20
-17.4569
 11
-37.332
 21
-16.916
  0
LINE
  8
0
 10
-37.332
 20
-16.916
 11
-34.1796
 21
-15.8128
  0
LINE
  8
0
 10
-34.1796
 20
-15.8128
 11
-22.2698
 21
-29.8663
  0
LINE
  8
0
 10
-22.2698
 20
-29.8663
 11
-31.0878
 21
-26.7052
  0
LINE
  8
0
 10
-12.3607
 20
-33.4185
 11
-13.8793
 21
-30.9603
  0
LINE
  8
0
 10
-13.8793
 20
-30.9603
 11
-6.84708
 21
-18.7707
  0
LINE
  8
0
 10
-6.84708
 20
-18.7707
 11
19.2687
 21
-35.5111
  0
LINE
  8
0
 10
19.2687
 20
-35.5111
 11
18.8042
 21
-36.4115
  0
LINE
  8
0
 10
18.8042
 20
-36.4115
 11
17.4569
 21
-37.0979
  0
LINE
  8
0
 10
17.4569
 20
-37.0979
 11
15.0931
 21
-38.1208
  0
LINE
  8
0
 10
15.0931
 20
-38.1208
 11
12.6697
 21
-38.9933
  0
LINE
  8
0
 10
12.6697
 20
-38.9933
 11
10.1963
 21
-39.7119
  0
LINE
  8
0
 10
10.1963
 20
-39.7119
 11
7.68263
 21
-40.2738
  0
LINE
  8
0
 10
7.68263
 20
-40.2738
 11
7.04414
 21
-40.3749
  0
LINE
  8
0
 10
7.04414
 20
-40.3749
 11
-12.3607
 21
-33.4185
  0
LINE
  8
0
 10
-21.9689
 20
-34.6174
 11
-24.0992
 21
-33.1697
  0
LINE
  8
0
 10
-24.0992
 20
-33.1697
 11
-25.9503
 21
-31.7338
  0
LINE
  8
0
 10
-25.9503
 20
-31.7338
 11
-19.1875
 21
-34.1582
  0
LINE
  8
0
 10
-19.1875
 20
-34.1582
 11
-20.0926
 21
-35.7271
  0
LINE
  8
0
 10
-20.0926
 20
-35.7271
 11
-21.9689
 21
-34.6174
  0
LINE
  8
0
 10
-17.4274
 20
-37.1107
 11
-16.9021
 21
-36.2001
  0
LINE
  8
0
 10
-16.9021
 20
-36.2001
 11
-15.3794
 21
-37.9969
  0
LINE
  8
0
 10
-15.3794
 20
-37.9969
 11
-17.4274
 21
-37.1107
  0
LINE
  8
0
 10
-2.5744
 20
-40.9191
 11
-5.13866
 21
-40.6767
  0
LINE
  8
0
 10
-5.13866
 20
-40.6767
 11
-7.68263
 21
-40.2738
  0
LINE
  8
0
 10
-7.68263
 20
-40.2738
 11
-8.1971
 21
-40.1588
  0
LINE
  8
0
 10
-8.1971
 20
-40.1588
 11
-9.83212
 21
-37.512
  0
LINE
  8
0
 10
-9.83212
 20
-37.512
 11
-0.112
 21
-40.9965
  0
LINE
  8
0
 10
-0.112
 20
-40.9965
 11
-2.5744
 21
-40.9191
  0
ENDSEC
  0
SECTION
  2
OBJECTS
  0
DICTIONARY
  0
ENDSEC
  0
EOF
