  0
SECTION
  2
BLOCKS
  0
ENDSEC
  0
SECTION
  2
ENTITIES
  0
LINE
  8
0
 10
28.0466
 20
33.9026
 11
25.8625
 21
35.5967
  0
LINE
  8
0
 10
25.8625
 20
35.5967
 11
23.5764
 21
37.1504
  0
LINE
  8
0
 10
23.5764
 20
37.1504
 11
21.1972
 21
38.5575
  0
LINE
  8
0
 10
21.1972
 20
38.5575
 11
18.7343
 21
39.8124
  0
LINE
  8
0
 10
18.7343
 20
39.8124
 11
16.1975
 21
40.9102
  0
LINE
  8
0
 10
16.1975
 20
40.9102
 11
13.5967
 21
41.8465
  0
LINE
  8
0
 10
13.5967
 20
41.8465
 11
10.9424
 21
42.6176
  0
LINE
  8
0
 10
10.9424
 20
42.6176
 11
8.24477
 21
43.2206
  0
LINE
  8
0
 10
8.24477
 20
43.2206
 11
5.51465
 21
43.653
  0
LINE
  8
0
 10
5.51465
 20
43.653
 11
2.76277
 21
43.9132
  0
LINE
  8
0
 10
2.76277
 20
43.9132
 11
0
 21
44
  0
LINE
  8
0
 10
0
 20
44
 11
-2.76277
 21
43.9132
  0
LINE
  8
0
 10
-2.76277
 20
43.9132
 11
-5.51465
 21
43.653
  0
LINE
  8
0
 10
-5.51465
 20
43.653
 11
-8.24477
 21
43.2206
  0
LINE
  8
0
 10
-8.24477
 20
43.2206
 11
-10.9424
 21
42.6176
  0
LINE
  8
0
 10
-10.9424
 20
42.6176
 11
-13.5967
 21
41.8465
  0
LINE
  8
0
 10
-13.5967
 20
41.8465
 11
-16.1975
 21
40.9102
  0
LINE
  8
0
 10
-16.1975
 20
40.9102
 11
-18.7343
 21
39.8124
  0
LINE
  8
0
 10
-18.7343
 20
39.8124
 11
-21.1972
 21
38.5575
  0
LINE
  8
0
 10
-21.1972
 20
38.5575
 11
-23.5764
 21
37.1504
  0
LINE
  8
0
 10
-23.5764
 20
37.1504
 11
-25.8625
 21
35.5967
  0
LINE
  8
0
 10
-25.8625
 20
35.5967
 11
-28.0466
 21
33.9026
  0
LINE
  8
0
 10
-28.0466
 20
33.9026
 11
-30.1201
 21
32.0746
  0
LINE
  8
0
 10
-30.1201
 20
32.0746
 11
-32.0746
 21
30.1201
  0
LINE
  8
0
 10
-32.0746
 20
30.1201
 11
-33.9026
 21
28.0466
  0
LINE
  8
0
 10
-33.9026
 20
28.0466
 11
-35.5967
 21
25.8625
  0
LINE
  8
0
 10
-35.5967
 20
25.8625
 11
-37.1504
 21
23.5764
  0
LINE
  8
0
 10
-37.1504
 20
23.5764
 11
-38.5575
 21
21.1972
  0
LINE
  8
0
 10
-38.5575
 20
21.1972
 11
-39.8124
 21
18.7343
  0
LINE
  8
0
 10
-39.8124
 20
18.7343
 11
-40.9102
 21
16.1975
  0
LINE
  8
0
 10
-40.9102
 20
16.1975
 11
-41.8465
 21
13.5967
  0
LINE
  8
0
 10
-41.8465
 20
13.5967
 11
-42.6176
 21
10.9424
  0
LINE
  8
0
 10
-42.6176
 20
10.9424
 11
-43.2206
 21
8.24477
  0
LINE
  8
0
 10
-43.2206
 20
8.24477
 11
-43.653
 21
5.51465
  0
LINE
  8
0
 10
-43.653
 20
5.51465
 11
-43.9132
 21
2.76277
  0
LINE
  8
0
 10
-43.9132
 20
2.76277
 11
-44
 21
0
  0
LINE
  8
0
 10
-44
 20
0
 11
-43.9132
 21
-2.76277
  0
LINE
  8
0
 10
-43.9132
 20
-2.76277
 11
-43.653
 21
-5.51465
  0
LINE
  8
0
 10
-43.653
 20
-5.51465
 11
-43.2206
 21
-8.24477
  0
LINE
  8
0
 10
-43.2206
 20
-8.24477
 11
-42.6176
 21
-10.9424
  0
LINE
  8
0
 10
-42.6176
 20
-10.9424
 11
-41.8465
 21
-13.5967
  0
LINE
  8
0
 10
-41.8465
 20
-13.5967
 11
-40.9102
 21
-16.1975
  0
LINE
  8
0
 10
-40.9102
 20
-16.1975
 11
-39.8124
 21
-18.7343
  0
LINE
  8
0
 10
-39.8124
 20
-18.7343
 11
-38.5575
 21
-21.1972
  0
LINE
  8
0
 10
-38.5575
 20
-21.1972
 11
-37.1504
 21
-23.5764
  0
LINE
  8
0
 10
-37.1504
 20
-23.5764
 11
-35.5967
 21
-25.8625
  0
LINE
  8
0
 10
-35.5967
 20
-25.8625
 11
-33.9026
 21
-28.0466
  0
LINE
  8
0
 10
-33.9026
 20
-28.0466
 11
-32.0746
 21
-30.1201
  0
LINE
  8
0
 10
-32.0746
 20
-30.1201
 11
-30.1201
 21
-32.0746
  0
LINE
  8
0
 10
-30.1201
 20
-32.0746
 11
-28.0466
 21
-33.9026
  0
LINE
  8
0
 10
-28.0466
 20
-33.9026
 11
-25.8625
 21
-35.5967
  0
LINE
  8
0
 10
-25.8625
 20
-35.5967
 11
-23.5764
 21
-37.1504
  0
LINE
  8
0
 10
-23.5764
 20
-37.1504
 11
-21.1972
 21
-38.5575
  0
LINE
  8
0
 10
-21.1972
 20
-38.5575
 11
-18.7343
 21
-39.8124
  0
LINE
  8
0
 10
-18.7343
 20
-39.8124
 11
-16.1975
 21
-40.9102
  0
LINE
  8
0
 10
-16.1975
 20
-40.9102
 11
-13.5967
 21
-41.8465
  0
LINE
  8
0
 10
-13.5967
 20
-41.8465
 11
-10.9424
 21
-42.6176
  0
LINE
  8
0
 10
-10.9424
 20
-42.6176
 11
-8.24477
 21
-43.2206
  0
LINE
  8
0
 10
-8.24477
 20
-43.2206
 11
-5.51465
 21
-43.653
  0
LINE
  8
0
 10
-5.51465
 20
-43.653
 11
-2.76277
 21
-43.9132
  0
LINE
  8
0
 10
-2.76277
 20
-43.9132
 11
0
 21
-44
  0
LINE
  8
0
 10
0
 20
-44
 11
2.76277
 21
-43.9132
  0
LINE
  8
0
 10
2.76277
 20
-43.9132
 11
5.51465
 21
-43.653
  0
LINE
  8
0
 10
5.51465
 20
-43.653
 11
8.24477
 21
-43.2206
  0
LINE
  8
0
 10
8.24477
 20
-43.2206
 11
10.9424
 21
-42.6176
  0
LINE
  8
0
 10
10.9424
 20
-42.6176
 11
13.5967
 21
-41.8465
  0
LINE
  8
0
 10
13.5967
 20
-41.8465
 11
16.1975
 21
-40.9102
  0
LINE
  8
0
 10
16.1975
 20
-40.9102
 11
18.7343
 21
-39.8124
  0
LINE
  8
0
 10
18.7343
 20
-39.8124
 11
21.1972
 21
-38.5575
  0
LINE
  8
0
 10
21.1972
 20
-38.5575
 11
23.5764
 21
-37.1504
  0
LINE
  8
0
 10
23.5764
 20
-37.1504
 11
25.8625
 21
-35.5967
  0
LINE
  8
0
 10
25.8625
 20
-35.5967
 11
28.0466
 21
-33.9026
  0
LINE
  8
0
 10
28.0466
 20
-33.9026
 11
30.1201
 21
-32.0746
  0
LINE
  8
0
 10
30.1201
 20
-32.0746
 11
32.0746
 21
-30.1201
  0
LINE
  8
0
 10
32.0746
 20
-30.1201
 11
33.9026
 21
-28.0466
  0
LINE
  8
0
 10
33.9026
 20
-28.0466
 11
35.5967
 21
-25.8625
  0
LINE
  8
0
 10
35.5967
 20
-25.8625
 11
37.1504
 21
-23.5764
  0
LINE
  8
0
 10
37.1504
 20
-23.5764
 11
38.5575
 21
-21.1972
  0
LINE
  8
0
 10
38.5575
 20
-21.1972
 11
39.8124
 21
-18.7343
  0
LINE
  8
0
 10
39.8124
 20
-18.7343
 11
40.9102
 21
-16.1975
  0
LINE
  8
0
 10
40.9102
 20
-16.1975
 11
41.8465
 21
-13.5967
  0
LINE
  8
0
 10
41.8465
 20
-13.5967
 11
42.6176
 21
-10.9424
  0
LINE
  8
0
 10
42.6176
 20
-10.9424
 11
43.2206
 21
-8.24477
  0
LINE
  8
0
 10
43.2206
 20
-8.24477
 11
43.653
 21
-5.51465
  0
LINE
  8
0
 10
43.653
 20
-5.51465
 11
43.9132
 21
-2.76277
  0
LINE
  8
0
 10
43.9132
 20
-2.76277
 11
44
 21
0
  0
LINE
  8
0
 10
44
 20
0
 11
43.9132
 21
2.76277
  0
LINE
  8
0
 10
43.9132
 20
2.76277
 11
43.653
 21
5.51465
  0
LINE
  8
0
 10
43.653
 20
5.51465
 11
43.2206
 21
8.24477
  0
LINE
  8
0
 10
43.2206
 20
8.24477
 11
42.6176
 21
10.9424
  0
LINE
  8
0
 10
42.6176
 20
10.9424
 11
41.8465
 21
13.5967
  0
LINE
  8
0
 10
41.8465
 20
13.5967
 11
40.9102
 21
16.1975
  0
LINE
  8
0
 10
40.9102
 20
16.1975
 11
39.8124
 21
18.7343
  0
LINE
  8
0
 10
39.8124
 20
18.7343
 11
38.5575
 21
21.1972
  0
LINE
  8
0
 10
38.5575
 20
21.1972
 11
37.1504
 21
23.5764
  0
LINE
  8
0
 10
37.1504
 20
23.5764
 11
35.5967
 21
25.8625
  0
LINE
  8
0
 10
35.5967
 20
25.8625
 11
33.9026
 21
28.0466
  0
LINE
  8
0
 10
33.9026
 20
28.0466
 11
32.0746
 21
30.1201
  0
LINE
  8
0
 10
32.0746
 20
30.1201
 11
30.1201
 21
32.0746
  0
LINE
  8
0
 10
30.1201
 20
32.0746
 11
28.0466
 21
33.9026
  0
LINE
  8
0
 10
-2.4446
 20
35.1681
 11
-3.9079
 21
36.6823
  0
LINE
  8
0
 10
-3.9079
 20
36.6823
 11
-3.7364
 21
40.8092
  0
LINE
  8
0
 10
-3.7364
 20
40.8092
 11
-2.5744
 21
40.9191
  0
LINE
  8
0
 10
-2.5744
 20
40.9191
 11
0
 21
41
  0
LINE
  8
0
 10
0
 20
41
 11
2.5744
 21
40.9191
  0
LINE
  8
0
 10
2.5744
 20
40.9191
 11
5.13866
 21
40.6767
  0
LINE
  8
0
 10
5.13866
 20
40.6767
 11
7.68263
 21
40.2738
  0
LINE
  8
0
 10
7.68263
 20
40.2738
 11
10.1963
 21
39.7119
  0
LINE
  8
0
 10
10.1963
 20
39.7119
 11
12.6697
 21
38.9933
  0
LINE
  8
0
 10
12.6697
 20
38.9933
 11
15.0931
 21
38.1208
  0
LINE
  8
0
 10
15.0931
 20
38.1208
 11
17.4569
 21
37.0979
  0
LINE
  8
0
 10
17.4569
 20
37.0979
 11
19.7519
 21
35.9286
  0
LINE
  8
0
 10
19.7519
 20
35.9286
 11
21.9689
 21
34.6174
  0
LINE
  8
0
 10
21.9689
 20
34.6174
 11
22.3189
 21
34.3796
  0
LINE
  8
0
 10
22.3189
 20
34.3796
 11
22.3834
 21
34.0843
  0
LINE
  8
0
 10
22.3834
 20
34.0843
 11
-2.4446
 21
35.1681
  0
LINE
  8
0
 10
-7.41884
 20
40.3156
 11
-6.75514
 21
40.4207
  0
LINE
  8
0
 10
-6.75514
 20
40.4207
 11
-6.7867
 21
39.6614
  0
LINE
  8
0
 10
-6.7867
 20
39.6614
 11
-7.41884
 21
40.3156
  0
LINE
  8
0
 10
-13.8449
 20
35.6657
 11
-15.3876
 21
37.9934
  0
LINE
  8
0
 10
-15.3876
 20
37.9934
 11
-15.0931
 21
38.1208
  0
LINE
  8
0
 10
-15.0931
 20
38.1208
 11
-12.6697
 21
38.9933
  0
LINE
  8
0
 10
-12.6697
 20
38.9933
 11
-10.8296
 21
39.5279
  0
LINE
  8
0
 10
-10.8296
 20
39.5279
 11
-6.95868
 21
35.5222
  0
LINE
  8
0
 10
-6.95868
 20
35.5222
 11
-6.96519
 21
35.3654
  0
LINE
  8
0
 10
-6.96519
 20
35.3654
 11
-13.8449
 21
35.6657
  0
LINE
  8
0
 10
-19.7598
 20
35.9239
 11
-19.7519
 21
35.9286
  0
LINE
  8
0
 10
-19.7519
 20
35.9286
 11
-18.1569
 21
36.7413
  0
LINE
  8
0
 10
-18.1569
 20
36.7413
 11
-17.5513
 21
35.8275
  0
LINE
  8
0
 10
-17.5513
 20
35.8275
 11
-19.7598
 21
35.9239
  0
LINE
  8
0
 10
-28.9436
 20
20.2972
 11
-22.3282
 21
33.0332
  0
LINE
  8
0
 10
-22.3282
 20
33.0332
 11
-15.5016
 21
32.7352
  0
LINE
  8
0
 10
-15.5016
 20
32.7352
 11
-7.57162
 21
20.7709
  0
LINE
  8
0
 10
-7.57162
 20
20.7709
 11
-8.03226
 21
9.68513
  0
LINE
  8
0
 10
-8.03226
 20
9.68513
 11
-28.9436
 21
20.2972
  0
LINE
  8
0
 10
-11.7953
 20
32.5734
 11
-7.08974
 21
32.368
  0
LINE
  8
0
 10
-7.08974
 20
32.368
 11
-7.3593
 21
25.8807
  0
LINE
  8
0
 10
-7.3593
 20
25.8807
 11
-11.7953
 21
32.5734
  0
LINE
  8
0
 10
-4.53384
 20
21.6178
 11
-4.09261
 21
32.2372
  0
LINE
  8
0
 10
-4.09261
 20
32.2372
 11
-3.7706
 21
32.2231
  0
LINE
  8
0
 10
-3.7706
 20
32.2231
 11
14.5829
 21
13.2305
  0
LINE
  8
0
 10
14.5829
 20
13.2305
 11
3.52759
 21
9.45526
  0
LINE
  8
0
 10
3.52759
 20
9.45526
 11
-4.53384
 21
21.6178
  0
LINE
  8
0
 10
0.585007
 20
32.033
 11
23.046
 21
31.0526
  0
LINE
  8
0
 10
23.046
 20
31.0526
 11
26.0826
 21
17.1576
  0
LINE
  8
0
 10
26.0826
 20
17.1576
 11
17.7197
 21
14.3017
  0
LINE
  8
0
 10
17.7197
 20
14.3017
 11
0.585007
 21
32.033
  0
LINE
  8
0
 10
-34.0072
 20
22.8668
 11
-33.1697
 21
24.0992
  0
LINE
  8
0
 10
-33.1697
 20
24.0992
 11
-31.591
 21
26.1344
  0
LINE
  8
0
 10
-31.591
 20
26.1344
 11
-29.8877
 21
28.0664
  0
LINE
  8
0
 10
-29.8877
 20
28.0664
 11
-28.0664
 21
29.8877
  0
LINE
  8
0
 10
-28.0664
 20
29.8877
 11
-26.7312
 21
31.0649
  0
LINE
  8
0
 10
-26.7312
 20
31.0649
 11
-31.619
 21
21.6549
  0
LINE
  8
0
 10
-31.619
 20
21.6549
 11
-34.0072
 21
22.8668
  0
LINE
  8
0
 10
26.1464
 20
30.9172
 11
26.9379
 21
30.8827
  0
LINE
  8
0
 10
26.9379
 20
30.8827
 11
28.0664
 21
29.8877
  0
LINE
  8
0
 10
28.0664
 20
29.8877
 11
29.8877
 21
28.0664
  0
LINE
  8
0
 10
29.8877
 20
28.0664
 11
31.591
 21
26.1344
  0
LINE
  8
0
 10
31.591
 20
26.1344
 11
32.1663
 21
25.3927
  0
LINE
  8
0
 10
32.1663
 20
25.3927
 11
32.3883
 21
19.3109
  0
LINE
  8
0
 10
32.3883
 20
19.3109
 11
28.9402
 21
18.1334
  0
LINE
  8
0
 10
28.9402
 20
18.1334
 11
26.1464
 21
30.9172
  0
LINE
  8
0
 10
35.3377
 20
20.7509
 11
35.5507
 21
20.3908
  0
LINE
  8
0
 10
35.5507
 20
20.3908
 11
35.3533
 21
20.3234
  0
LINE
  8
0
 10
35.3533
 20
20.3234
 11
35.3377
 21
20.7509
  0
LINE
  8
0
 10
-40.0359
 20
8.74673
 11
-39.7119
 21
10.1963
  0
LINE
  8
0
 10
-39.7119
 20
10.1963
 11
-38.9933
 21
12.6697
  0
LINE
  8
0
 10
-38.9933
 20
12.6697
 11
-38.1208
 21
15.0931
  0
LINE
  8
0
 10
-38.1208
 20
15.0931
 11
-37.0979
 21
17.4569
  0
LINE
  8
0
 10
-37.0979
 20
17.4569
 11
-35.9286
 21
19.7519
  0
LINE
  8
0
 10
-35.9286
 20
19.7519
 11
-35.5984
 21
20.3102
  0
LINE
  8
0
 10
-35.5984
 20
20.3102
 11
-33.0019
 21
18.9925
  0
LINE
  8
0
 10
-33.0019
 20
18.9925
 11
-38.8726
 21
7.69022
  0
LINE
  8
0
 10
-38.8726
 20
7.69022
 11
-40.0359
 21
8.74673
  0
LINE
  8
0
 10
35.4676
 20
17.1924
 11
36.9711
 21
17.7058
  0
LINE
  8
0
 10
36.9711
 20
17.7058
 11
37.0979
 21
17.4569
  0
LINE
  8
0
 10
37.0979
 20
17.4569
 11
38.1208
 21
15.0931
  0
LINE
  8
0
 10
38.1208
 20
15.0931
 11
38.9933
 21
12.6697
  0
LINE
  8
0
 10
38.9933
 20
12.6697
 11
39.7119
 21
10.1963
  0
LINE
  8
0
 10
39.7119
 20
10.1963
 11
40.2738
 21
7.68263
  0
LINE
  8
0
 10
40.2738
 20
7.68263
 11
40.6767
 21
5.13866
  0
LINE
  8
0
 10
40.6767
 20
5.13866
 11
40.8125
 21
3.70148
  0
LINE
  8
0
 10
40.8125
 20
3.70148
 11
36.0306
 21
1.76802
  0
LINE
  8
0
 10
36.0306
 20
1.76802
 11
35.4676
 21
17.1924
  0
LINE
  8
0
 10
-36.5755
 20
5.60414
 11
-30.3265
 21
17.6348
  0
LINE
  8
0
 10
-30.3265
 20
17.6348
 11
-8.16916
 21
6.39041
  0
LINE
  8
0
 10
-8.16916
 20
6.39041
 11
-8.20833
 21
5.44757
  0
LINE
  8
0
 10
-8.20833
 20
5.44757
 11
-28.6985
 21
-1.54961
  0
LINE
  8
0
 10
-28.6985
 20
-1.54961
 11
-36.5755
 21
5.60414
  0
LINE
  8
0
 10
-5.09167
 20
8.19286
 11
-4.74617
 21
16.508
  0
LINE
  8
0
 10
-4.74617
 20
16.508
 11
0.592728
 21
8.45303
  0
LINE
  8
0
 10
0.592728
 20
8.45303
 11
-3.11163
 21
7.18803
  0
LINE
  8
0
 10
-3.11163
 20
7.18803
 11
-5.09167
 21
8.19286
  0
LINE
  8
0
 10
29.5848
 20
15.1834
 11
32.5026
 21
16.1798
  0
LINE
  8
0
 10
32.5026
 20
16.1798
 11
33.0723
 21
0.571899
  0
LINE
  8
0
 10
33.0723
 20
0.571899
 11
32.802
 21
0.462601
  0
LINE
  8
0
 10
32.802
 20
0.462601
 11
29.5848
 21
15.1834
  0
LINE
  8
0
 10
20.023
 20
11.9182
 11
26.7273
 21
14.2076
  0
LINE
  8
0
 10
26.7273
 20
14.2076
 11
29.3331
 21
2.2838
  0
LINE
  8
0
 10
29.3331
 20
2.2838
 11
20.023
 21
11.9182
  0
LINE
  8
0
 10
9.15697
 20
0.96199
 11
5.24094
 21
6.87025
  0
LINE
  8
0
 10
5.24094
 20
6.87025
 11
16.8862
 21
10.847
  0
LINE
  8
0
 10
16.8862
 20
10.847
 11
28.5734
 21
-1.24712
  0
LINE
  8
0
 10
28.5734
 20
-1.24712
 11
20.1897
 21
-4.63686
  0
LINE
  8
0
 10
20.1897
 20
-4.63686
 11
9.15697
 21
0.96199
  0
LINE
  8
0
 10
0.622421
 20
5.29308
 11
2.30608
 21
5.86803
  0
LINE
  8
0
 10
2.30608
 20
5.86803
 11
3.73364
 21
3.7142
  0
LINE
  8
0
 10
3.73364
 20
3.7142
 11
0.622421
 21
5.29308
  0
LINE
  8
0
 10
-40.6767
 20
5.13866
 11
-40.6577
 21
5.25885
  0
LINE
  8
0
 10
-40.6577
 20
5.25885
 11
-40.3028
 21
4.93661
  0
LINE
  8
0
 10
-40.3028
 20
4.93661
 11
-40.7832
 21
4.0118
  0
LINE
  8
0
 10
-40.7832
 20
4.0118
 11
-40.6767
 21
5.13866
  0
LINE
  8
0
 10
-6.03702
 20
-14.5579
 11
-5.29616
 21
3.27196
  0
LINE
  8
0
 10
-5.29616
 20
3.27196
 11
-3.34027
 21
3.93987
  0
LINE
  8
0
 10
-3.34027
 20
3.93987
 11
7.09361
 21
-1.3551
  0
LINE
  8
0
 10
7.09361
 20
-1.3551
 11
11.5769
 21
-8.1192
  0
LINE
  8
0
 10
11.5769
 20
-8.1192
 11
-5.00696
 21
-14.8245
  0
LINE
  8
0
 10
-5.00696
 20
-14.8245
 11
-6.03702
 21
-14.5579
  0
LINE
  8
0
 10
-40.6018
 20
-5.61162
 11
-40.6767
 21
-5.13866
  0
LINE
  8
0
 10
-40.6767
 20
-5.13866
 11
-40.9044
 21
-2.72978
  0
LINE
  8
0
 10
-40.9044
 20
-2.72978
 11
-38.0058
 21
2.85054
  0
LINE
  8
0
 10
-38.0058
 20
2.85054
 11
-31.9414
 21
-2.65703
  0
LINE
  8
0
 10
-31.9414
 20
-2.65703
 11
-40.597
 21
-5.61284
  0
LINE
  8
0
 10
-40.597
 20
-5.61284
 11
-40.6018
 21
-5.61162
  0
LINE
  8
0
 10
-17.6984
 20
-11.5396
 11
-26.1617
 21
-3.85342
  0
LINE
  8
0
 10
-26.1617
 20
-3.85342
 11
-8.34195
 21
2.23184
  0
LINE
  8
0
 10
-8.34195
 20
2.23184
 11
-9.00764
 21
-13.789
  0
LINE
  8
0
 10
-9.00764
 20
-13.789
 11
-17.6984
 21
-11.5396
  0
LINE
  8
0
 10
36.2739
 20
-4.89871
 11
36.147
 21
-1.42085
  0
LINE
  8
0
 10
36.147
 20
-1.42085
 11
40.9832
 21
0.534531
  0
LINE
  8
0
 10
40.9832
 20
0.534531
 11
41
 21
0
  0
LINE
  8
0
 10
41
 20
0
 11
40.9191
 21
-2.5744
  0
LINE
  8
0
 10
40.9191
 20
-2.5744
 11
40.6767
 21
-5.13866
  0
LINE
  8
0
 10
40.6767
 20
-5.13866
 11
40.2738
 21
-7.68263
  0
LINE
  8
0
 10
40.2738
 20
-7.68263
 11
40.0278
 21
-8.78323
  0
LINE
  8
0
 10
40.0278
 20
-8.78323
 11
36.2739
 21
-4.89871
  0
LINE
  8
0
 10
23.7386
 20
-6.43787
 11
30.6302
 21
-3.65143
  0
LINE
  8
0
 10
30.6302
 20
-3.65143
 11
32.1748
 21
-10.719
  0
LINE
  8
0
 10
32.1748
 20
-10.719
 11
23.7386
 21
-6.43787
  0
LINE
  8
0
 10
12.5169
 20
-4.1073
 11
16.5001
 21
-6.12865
  0
LINE
  8
0
 10
16.5001
 20
-6.12865
 11
14.4154
 21
-6.97154
  0
LINE
  8
0
 10
14.4154
 20
-6.97154
 11
12.5169
 21
-4.1073
  0
LINE
  8
0
 10
-35.3163
 20
-6.97963
 11
-29.4046
 21
-4.96085
  0
LINE
  8
0
 10
-29.4046
 20
-4.96085
 11
-23.9393
 21
-9.92429
  0
LINE
  8
0
 10
-23.9393
 20
-9.92429
 11
-35.3163
 21
-6.97963
  0
LINE
  8
0
 10
16.1069
 20
-9.52357
 11
20.049
 21
-7.92967
  0
LINE
  8
0
 10
20.049
 20
-7.92967
 11
32.9596
 21
-14.4815
  0
LINE
  8
0
 10
32.9596
 20
-14.4815
 11
23.4404
 21
-20.588
  0
LINE
  8
0
 10
23.4404
 20
-20.588
 11
16.1069
 21
-9.52357
  0
LINE
  8
0
 10
-33.1697
 20
-24.0992
 11
-34.6174
 21
-21.9689
  0
LINE
  8
0
 10
-34.6174
 20
-21.9689
 11
-35.9286
 21
-19.7519
  0
LINE
  8
0
 10
-35.9286
 20
-19.7519
 11
-37.0979
 21
-17.4569
  0
LINE
  8
0
 10
-37.0979
 20
-17.4569
 11
-38.1208
 21
-15.0931
  0
LINE
  8
0
 10
-38.1208
 20
-15.0931
 11
-38.9933
 21
-12.6697
  0
LINE
  8
0
 10
-38.9933
 20
-12.6697
 11
-39.7119
 21
-10.1963
  0
LINE
  8
0
 10
-39.7119
 20
-10.1963
 11
-40.0098
 21
-8.86371
  0
LINE
  8
0
 10
-40.0098
 20
-8.86371
 11
-19.1671
 21
-14.2583
  0
LINE
  8
0
 10
-19.1671
 20
-14.2583
 11
-14.3736
 21
-18.6116
  0
LINE
  8
0
 10
-14.3736
 20
-18.6116
 11
-31.9225
 21
-25.7071
  0
LINE
  8
0
 10
-31.9225
 20
-25.7071
 11
-33.1697
 21
-24.0992
  0
LINE
  8
0
 10
36.4377
 20
-9.38531
 11
38.1469
 21
-11.154
  0
LINE
  8
0
 10
38.1469
 20
-11.154
 11
36.5399
 21
-12.1848
  0
LINE
  8
0
 10
36.5399
 20
-12.1848
 11
36.4377
 21
-9.38531
  0
LINE
  8
0
 10
-0.127304
 20
-16.0874
 11
13.2684
 21
-10.6712
  0
LINE
  8
0
 10
13.2684
 20
-10.6712
 11
20.3756
 21
-21.3941
  0
LINE
  8
0
 10
20.3756
 20
-21.3941
 11
-0.127304
 21
-16.0874
  0
LINE
  8
0
 10
-12.9261
 20
-15.8736
 11
-9.6799
 21
-16.7139
  0
LINE
  8
0
 10
-9.6799
 20
-16.7139
 11
-11.2859
 21
-17.3632
  0
LINE
  8
0
 10
-11.2859
 20
-17.3632
 11
-12.9261
 21
-15.8736
  0
LINE
  8
0
 10
36.7352
 20
-17.535
 11
36.6929
 21
-16.3761
  0
LINE
  8
0
 10
36.6929
 20
-16.3761
 11
37.4085
 21
-16.7392
  0
LINE
  8
0
 10
37.4085
 20
-16.7392
 11
37.0979
 21
-17.4569
  0
LINE
  8
0
 10
37.0979
 20
-17.4569
 11
36.8321
 21
-17.9786
  0
LINE
  8
0
 10
36.8321
 20
-17.9786
 11
36.7352
 21
-17.535
  0
LINE
  8
0
 10
25.6227
 20
-22.7522
 11
33.6756
 21
-17.5864
  0
LINE
  8
0
 10
33.6756
 20
-17.5864
 11
33.747
 21
-17.913
  0
LINE
  8
0
 10
33.747
 20
-17.913
 11
33.9318
 21
-22.9777
  0
LINE
  8
0
 10
33.9318
 20
-22.9777
 11
33.1697
 21
-24.0992
  0
LINE
  8
0
 10
33.1697
 20
-24.0992
 11
32.778
 21
-24.6042
  0
LINE
  8
0
 10
32.778
 20
-24.6042
 11
25.6227
 21
-22.7522
  0
LINE
  8
0
 10
-6.34021
 20
-21.8548
 11
-6.20264
 21
-18.5438
  0
LINE
  8
0
 10
-6.20264
 20
-18.5438
 11
-4.80025
 21
-17.9768
  0
LINE
  8
0
 10
-4.80025
 20
-17.9768
 11
18.2219
 21
-23.9355
  0
LINE
  8
0
 10
18.2219
 20
-23.9355
 11
5.75578
 21
-31.9324
  0
LINE
  8
0
 10
5.75578
 20
-31.9324
 11
4.88676
 21
-32.0508
  0
LINE
  8
0
 10
4.88676
 20
-32.0508
 11
-6.34021
 21
-21.8548
  0
LINE
  8
0
 10
-21.9689
 20
-34.6174
 11
-24.0992
 21
-33.1697
  0
LINE
  8
0
 10
-24.0992
 20
-33.1697
 11
-26.1344
 21
-31.591
  0
LINE
  8
0
 10
-26.1344
 20
-31.591
 11
-28.0664
 21
-29.8877
  0
LINE
  8
0
 10
-28.0664
 20
-29.8877
 11
-29.8493
 21
-28.1048
  0
LINE
  8
0
 10
-29.8493
 20
-28.1048
 11
-11.9081
 21
-20.8507
  0
LINE
  8
0
 10
-11.9081
 20
-20.8507
 11
-9.39587
 21
-23.1322
  0
LINE
  8
0
 10
-9.39587
 20
-23.1322
 11
-9.84991
 21
-34.0593
  0
LINE
  8
0
 10
-9.84991
 20
-34.0593
 11
-20.4661
 21
-35.5062
  0
LINE
  8
0
 10
-20.4661
 20
-35.5062
 11
-21.9689
 21
-34.6174
  0
LINE
  8
0
 10
22.1808
 20
-24.9602
 11
22.8549
 21
-25.1347
  0
LINE
  8
0
 10
22.8549
 20
-25.1347
 11
25.5705
 21
-29.2318
  0
LINE
  8
0
 10
25.5705
 20
-29.2318
 11
12.8109
 21
-30.9708
  0
LINE
  8
0
 10
12.8109
 20
-30.9708
 11
22.1808
 21
-24.9602
  0
LINE
  8
0
 10
-6.50247
 20
-25.7599
 11
1.00674
 21
-32.5796
  0
LINE
  8
0
 10
1.00674
 20
-32.5796
 11
-6.83023
 21
-33.6477
  0
LINE
  8
0
 10
-6.83023
 20
-33.6477
 11
-6.50247
 21
-25.7599
  0
LINE
  8
0
 10
27.1993
 20
-26.2591
 11
30.6855
 21
-27.1615
  0
LINE
  8
0
 10
30.6855
 20
-27.1615
 11
29.8877
 21
-28.0664
  0
LINE
  8
0
 10
29.8877
 20
-28.0664
 11
29.2197
 21
-28.7345
  0
LINE
  8
0
 10
29.2197
 20
-28.7345
 11
28.8714
 21
-28.7819
  0
LINE
  8
0
 10
28.8714
 20
-28.7819
 11
27.1993
 21
-26.2591
  0
LINE
  8
0
 10
7.78561
 20
-34.6835
 11
25.209
 21
-32.3088
  0
LINE
  8
0
 10
25.209
 20
-32.3088
 11
24.0992
 21
-33.1697
  0
LINE
  8
0
 10
24.0992
 20
-33.1697
 11
21.9689
 21
-34.6174
  0
LINE
  8
0
 10
21.9689
 20
-34.6174
 11
19.7519
 21
-35.9286
  0
LINE
  8
0
 10
19.7519
 20
-35.9286
 11
17.4569
 21
-37.0979
  0
LINE
  8
0
 10
17.4569
 20
-37.0979
 11
15.0931
 21
-38.1208
  0
LINE
  8
0
 10
15.0931
 20
-38.1208
 11
12.6697
 21
-38.9933
  0
LINE
  8
0
 10
12.6697
 20
-38.9933
 11
12.5648
 21
-39.0238
  0
LINE
  8
0
 10
12.5648
 20
-39.0238
 11
7.78561
 21
-34.6835
  0
LINE
  8
0
 10
-6.95676
 20
-36.6927
 11
-0.237411
 21
-35.7769
  0
LINE
  8
0
 10
-0.237411
 20
-35.7769
 11
-7.10167
 21
-40.1803
  0
LINE
  8
0
 10
-7.10167
 20
-40.1803
 11
-6.95676
 21
-36.6927
  0
LINE
  8
0
 10
-2.5744
 20
-40.9191
 11
-2.68147
 21
-40.909
  0
LINE
  8
0
 10
-2.68147
 20
-40.909
 11
4.85495
 21
-36.0744
  0
LINE
  8
0
 10
4.85495
 20
-36.0744
 11
9.12408
 21
-39.9516
  0
LINE
  8
0
 10
9.12408
 20
-39.9516
 11
7.68263
 21
-40.2738
  0
LINE
  8
0
 10
7.68263
 20
-40.2738
 11
5.13866
 21
-40.6767
  0
LINE
  8
0
 10
5.13866
 20
-40.6767
 11
2.5744
 21
-40.9191
  0
LINE
  8
0
 10
2.5744
 20
-40.9191
 11
0
 21
-41
  0
LINE
  8
0
 10
0
 20
-41
 11
-2.5744
 21
-40.9191
  0
LINE
  8
0
 10
-10.1963
 20
-39.7119
 11
-12.6697
 21
-38.9933
  0
LINE
  8
0
 10
-12.6697
 20
-38.9933
 11
-15.0931
 21
-38.1208
  0
LINE
  8
0
 10
-15.0931
 20
-38.1208
 11
-15.6541
 21
-37.8781
  0
LINE
  8
0
 10
-15.6541
 20
-37.8781
 11
-9.97644
 21
-37.1043
  0
LINE
  8
0
 10
-9.97644
 20
-37.1043
 11
-10.0858
 21
-39.7366
  0
LINE
  8
0
 10
-10.0858
 20
-39.7366
 11
-10.1963
 21
-39.7119
  0
ENDSEC
  0
SECTION
  2
OBJECTS
  0
DICTIONARY
  0
ENDSEC
  0
EOF
