<?xml version="1.0" standalone="no"?>
<!DOCTYPE svg PUBLIC "-//W3C//DTD SVG 1.1//EN" "http://www.w3.org/Graphics/SVG/1.1/DTD/svg11.dtd">
<svg width="88mm" height="88mm" viewBox="-44 -44 88 88" xmlns="http://www.w3.org/2000/svg" version="1.1">
<title>OpenSCAD Model</title>
<path d="
M 28.0466,-33.9026 L 25.8625,-35.5967 L 23.5764,-37.1504 L 21.1972,-38.5575 L 18.7343,-39.8124 L 16.1975,-40.9102
 L 13.5967,-41.8465 L 10.9424,-42.6176 L 8.24477,-43.2206 L 5.51465,-43.653 L 2.76277,-43.9132 L 0,-44
 L -2.76277,-43.9132 L -5.51465,-43.653 L -8.24477,-43.2206 L -10.9424,-42.6176 L -13.5967,-41.8465 L -16.1975,-40.9102
 L -18.7343,-39.8124 L -21.1972,-38.5575 L -23.5764,-37.1504 L -25.8625,-35.5967 L -28.0466,-33.9026 L -30.1201,-32.0746
 L -32.0746,-30.1201 L -33.9026,-28.0466 L -35.5967,-25.8625 L -37.1504,-23.5764 L -38.5575,-21.1972 L -39.8124,-18.7343
 L -40.9102,-16.1975 L -41.8465,-13.5967 L -42.6176,-10.9424 L -43.2206,-8.24477 L -43.653,-5.51465 L -43.9132,-2.76277
 L -44,-0 L -43.9132,2.76277 L -43.653,5.51465 L -43.2206,8.24477 L -42.6176,10.9424 L -41.8465,13.5967
 L -40.9102,16.1975 L -39.8124,18.7343 L -38.5575,21.1972 L -37.1504,23.5764 L -35.5967,25.8625 L -33.9026,28.0466
 L -32.0746,30.1201 L -30.1201,32.0746 L -28.0466,33.9026 L -25.8625,35.5967 L -23.5764,37.1504 L -21.1972,38.5575
 L -18.7343,39.8124 L -16.1975,40.9102 L -13.5967,41.8465 L -10.9424,42.6176 L -8.24477,43.2206 L -5.51465,43.653
 L -2.76277,43.9132 L 0,44 L 2.76277,43.9132 L 5.51465,43.653 L 8.24477,43.2206 L 10.9424,42.6176
 L 13.5967,41.8465 L 16.1975,40.9102 L 18.7343,39.8124 L 21.1972,38.5575 L 23.5764,37.1504 L 25.8625,35.5967
 L 28.0466,33.9026 L 30.1201,32.0746 L 32.0746,30.1201 L 33.9026,28.0466 L 35.5967,25.8625 L 37.1504,23.5764
 L 38.5575,21.1972 L 39.8124,18.7343 L 40.9102,16.1975 L 41.8465,13.5967 L 42.6176,10.9424 L 43.2206,8.24477
 L 43.653,5.51465 L 43.9132,2.76277 L 44,-0 L 43.9132,-2.76277 L 43.653,-5.51465 L 43.2206,-8.24477
 L 42.6176,-10.9424 L 41.8465,-13.5967 L 40.9102,-16.1975 L 39.8124,-18.7343 L 38.5575,-21.1972 L 37.1504,-23.5764
 L 35.5967,-25.8625 L 33.9026,-28.0466 L 32.0746,-30.1201 L 30.1201,-32.0746 z
M -1.23367,-34.9418 L 0.79039,-40.9752 L 2.5744,-40.9191 L 5.13866,-40.6767 L 5.82065,-40.5687 L 6.68785,-39.9667
 L 11.2713,-34.3453 L 5.28853,-26.3741 z
M -5.54985,-40.6116 L -5.13866,-40.6767 L -2.5744,-40.9191 L -2.39081,-40.9249 L -3.43007,-37.827 z
M -7.97855,-29.1479 L -12.1858,-39.1339 L -10.1963,-39.7119 L -8.86232,-40.0101 L -4.58337,-34.3892 L -6.68958,-28.111
 z
M 14.0856,-38.4835 L 14.3153,-38.4008 L 14.2775,-38.3504 z
M -17.7047,-36.9716 L -17.4569,-37.0979 L -15.0931,-38.1208 L -15.0248,-38.1454 L -12.9028,-33.109 z
M 16.7436,-36.6385 L 17.1788,-37.2183 L 17.4569,-37.0979 L 18.0676,-36.7868 L 18.4598,-35.4473 z
M -20.3615,-11.6466 L -29.1806,-28.7736 L -28.0664,-29.8877 L -26.1344,-31.591 L -24.0992,-33.1697 L -21.9689,-34.6174
 L -20.5832,-35.437 L -10.4491,-27.285 L -8.51038,-22.6835 L -11.7146,-13.1322 L -15.9173,-10.5452 z
M 21.7995,-34.7176 L 21.9689,-34.6174 L 22.5484,-34.2236 L 22.0365,-33.9084 z
M 24.0056,-31.5977 L 25.1877,-32.3254 L 26.1344,-31.591 L 28.0664,-29.8877 L 29.8877,-28.0664 L 31.1411,-26.6447
 z
M 13.2245,-31.9498 L 15.106,-29.6422 L 8.38905,-25.5074 z
M -4.19771,-26.1065 L -2.38698,-31.504 L 3.4167,-23.8802 L 1.59207,-21.4492 z
M 25.6059,-26.835 L 34.045,-20.9771 L 34.9823,-17.603 z
M -34.0798,-15.0465 L -36.0073,-19.5974 L -35.9286,-19.7519 L -34.6174,-21.9689 L -33.1697,-24.0992 L -31.591,-26.1344
 L -31.3416,-26.4173 L -24.2295,-12.6052 z
M 8.55319,-22.0857 L 15.3742,-26.2845 L 12.1322,-17.3843 z
M 20.7997,-5.99846 L 14.2917,-14.5475 L 18.3437,-25.6713 L 22.9921,-19.9703 L 26.7034,-7.29671 L 23.3845,-3.91925
 z
M -5.30569,-22.8038 L -5.21487,-23.0746 L -1.03076,-19.7089 L -3.38988,-18.2567 z
M 25.7006,-21.3958 L 25.2332,-22.9919 L 33.8191,-14.5381 L 32.438,-13.1326 z
M 4.16156,-19.3823 L 5.98589,-20.5053 L 10.9119,-14.0344 L 10.8887,-13.9709 z
M -6.74876,-18.5023 L -5.97485,-16.6654 L -7.72679,-15.587 z
M 1.6985,-6.17938 L -1.11166,-12.8493 L 2.12909,-17.1671 L 9.80409,-10.9933 L 7.52457,-4.73549 z
M -37.7477,-15.9555 L -37.7351,-15.9845 L -37.7198,-15.9486 z
M 27.8699,-13.9878 L 30.3225,-10.9798 L 29.1116,-9.74753 z
M -9.9171,-9.05812 L -9.21622,-11.1473 L -4.79628,-13.8681 L -4.54524,-13.2722 L -8.05464,-8.59654 z
M -37.0097,-12.6818 L -36.2572,-12.4954 L -31.3957,-1.01707 L -32.9508,-0.0597992 z
M 34.3453,-10.7934 L 35.9568,-12.4333 L 36.592,-11.8079 L 38.1804,-6.08987 z
M -32.6172,-11.5932 L -22.4052,-9.06233 L -21.4234,-7.15575 L -28.8115,-2.60785 z
M -40.9191,2.5744 L -41,-0 L -40.9191,-2.5744 L -40.6767,-5.13866 L -40.2738,-7.68263 L -39.7119,-10.1963
 L -39.5457,-10.7684 L -35.5814,1.55951 L -40.7162,4.72038 z
M -4.89194,-7.81271 L -3.19666,-10.0714 L -1.93643,-7.08025 z
M 10.453,-4.00972 L 12.2734,-9.00696 L 18.6343,-3.89017 L 20.4246,-1.53841 z
M 32.3835,1.4254 L 30.0773,-6.44997 L 32.2299,-8.64053 L 40.1805,1.1106 L 40.8348,3.46608 L 40.8298,3.51869
 z
M -17.4838,-6.05801 L -15.4168,-7.3304 L -13.7958,-6.92865 L -15.4276,-2.06468 z
M -10.8744,-6.20462 L -10.0106,-5.99054 L -11.7024,-3.73656 z
M -12.8961,2.85152 L -6.8479,-5.20673 L -0.482422,-3.62914 L 3.59566,6.05019 L -2.29063,22.2093 L -2.70906,22.6351
 z
M -27.628,0.186447 L -20.046,-4.4808 L -16.7587,1.90329 L -17.4241,3.88676 L -22.9452,11.2427 z
M 28.9802,0.581955 L 25.7336,-2.0296 L 27.669,-3.99913 L 29.0129,0.590057 z
M 3.15251,-2.72827 L 6.49193,-1.90065 L 5.10515,1.90631 z
M 6.8175,5.97058 L 9.42038,-1.17488 L 18.4812,1.07069 L 8.87277,10.8488 z
M -32.0052,2.88092 L -30.2122,1.77722 L -25.0279,14.0175 L -27.4054,17.1851 z
M 10.135,13.8446 L 21.8635,1.90894 L 23.3246,2.27107 L 31.6916,13.262 L 14.5739,24.3804 z
M 28.3608,3.93387 L 30.4947,5.65041 L 31.0119,7.41631 z
M -33.1697,24.0992 L -34.6174,21.9689 L -35.9286,19.7519 L -37.0979,17.4569 L -38.1208,15.0931 L -38.9933,12.6697
 L -39.7119,10.1963 L -40.2171,7.93597 L -34.6357,4.50021 L -29.6115,20.1244 L -32.8775,24.4759 z
M 34.5334,5.04898 L 40.4583,6.51738 L 40.2738,7.68263 L 40.2725,7.68843 L 38.9127,8.57167 z
M -19.4757,19.4343 L -14.8427,5.62425 L -4.92317,24.8884 L -13.4782,33.5945 z
M 34.584,8.93982 L 36.2646,10.2917 L 35.1852,10.9928 z
M 5.30801,10.1145 L 6.59431,13.1675 L 2.78304,17.0461 z
M 36.0921,14.0897 L 36.0653,13.9984 L 38.725,12.2709 L 39.0364,12.5214 L 38.9933,12.6697 L 38.1208,15.0931
 L 37.6624,16.1525 z
M -21.5921,14.4375 L -20.4558,12.9236 L -21.2414,15.2654 z
M 15.7572,27.1891 L 33.4389,15.7043 L 35.0562,21.2271 L 34.6174,21.9689 L 33.1697,24.0992 L 31.591,26.1344
 L 29.8877,28.0664 L 28.0664,29.8877 L 26.1344,31.591 L 24.0992,33.1697 L 21.9689,34.6174 L 19.7519,35.9286
 L 19.4946,36.0597 z
M -0.684875,26.5662 L 0.305374,23.8478 L 7.85649,16.1633 L 12.018,26.0406 L 2.29605,32.3553 z
M -26.2803,20.6838 L -23.6748,17.2123 L -22.6814,19.5577 L -24.7038,25.5862 z
M -28.0664,29.8877 L -29.8877,28.0664 L -30.9322,26.8817 L -28.4864,23.6231 L -26.3128,30.3824 L -26.585,31.1937
 z
M -17.4569,37.0979 L -19.7519,35.9286 L -21.7599,34.741 L -23.1552,30.4022 L -20.9157,23.7267 L -15.7549,35.9114
 L -17.0808,37.2607 z
M 3.67641,35.036 L 13.2013,28.8492 L 16.797,37.3835 L 15.0931,38.1208 L 12.6697,38.9933 L 10.1963,39.7119
 L 7.68263,40.2738 L 6.47218,40.4655 z
M -10.1963,39.7119 L -10.9842,39.483 L -12.2114,36.5856 L -4.7683,29.011 L -8.55356,39.4024 L -9.32864,39.9058
 z
M -2.08295,30.4042 L -0.23259,33.9977 L -4.37114,36.6858 z
M -2.5744,40.9191 L -5.02455,40.6875 L 1.14777,36.6784 L 3.29625,40.8508 L 2.5744,40.9191 L 0,41
 z
" stroke="black" fill="lightgray" stroke-width="0.5"/>
</svg>
